G04 DipTrace 3.3.1.1*
G04 Bottom.gbr*
%MOIN*%
G04 #@! TF.FileFunction,Copper,L2,Bot*
G04 #@! TF.Part,Single*
G04 #@! TA.AperFunction,Conductor*
%ADD13C,0.006*%
G04 #@! TA.AperFunction,CopperBalancing*
%ADD14C,0.007874*%
G04 #@! TA.AperFunction,Conductor*
%ADD15C,0.01*%
G04 #@! TA.AperFunction,CopperBalancing*
%ADD16C,0.003937*%
%ADD17C,0.015748*%
%ADD19R,0.043307X0.03937*%
%ADD20R,0.025591X0.059055*%
G04 #@! TA.AperFunction,ComponentPad*
%ADD26C,0.058*%
G04 #@! TA.AperFunction,ViaPad*
%ADD27C,0.023622*%
%FSLAX26Y26*%
G04*
G70*
G90*
G75*
G01*
G04 Bottom*
%LPD*%
X137500Y1275000D2*
D14*
D3*
X437500D2*
Y1268751D1*
X131251Y768751D2*
D13*
Y850000D1*
X137500D1*
X437500D2*
D14*
X434055Y846457D1*
X137500Y425000D2*
D13*
Y525000D1*
X143751D1*
X400000Y662500D2*
Y509697D1*
X437500Y472197D1*
Y425000D1*
X537500Y1062402D2*
D14*
Y1121854D1*
X410433D1*
X394685Y1137602D1*
X249803D1*
X237500Y1125299D1*
Y1062402D1*
X231251Y156251D2*
Y212402D1*
X237500D1*
X410433Y1121854D2*
X393751Y1105172D1*
Y800000D1*
X318751Y493751D2*
Y552953D1*
X249803D1*
X237500Y565256D1*
Y637402D1*
X537500Y212402D2*
Y275299D1*
X562992Y300791D1*
Y471264D1*
X539370Y494886D1*
Y637402D1*
X537500D1*
X237500Y212402D2*
Y271854D1*
X311323D1*
X327071Y256106D1*
Y177362D1*
X350496Y153937D1*
X516929D1*
X537500Y174508D1*
Y212402D1*
X237500Y637402D2*
Y706249D1*
X614173Y303150D2*
Y87008D1*
X658268Y42913D1*
X587500Y1062402D2*
Y1002957D1*
X612500Y977957D1*
Y803016D1*
X584055Y774571D1*
Y696858D1*
X325201D1*
X312500Y709559D1*
Y974906D1*
X287500Y999906D1*
Y1062402D1*
X312500Y709559D2*
X287500Y684559D1*
Y637402D1*
Y212500D2*
Y142421D1*
X299803Y130118D1*
X568307D1*
X587500Y149311D1*
Y212402D1*
Y637402D2*
X584055Y696858D1*
X587500Y212402D2*
Y341339D1*
X614173Y368012D1*
Y551283D1*
X587500Y577957D1*
Y637402D1*
X287500Y212402D2*
Y212500D1*
X487500Y1275000D2*
Y1201909D1*
X473091Y1187500D1*
X207677D1*
Y1132874D1*
X196657Y1121854D1*
X115614D1*
X99866Y1106106D1*
Y989839D1*
X187500Y902205D1*
Y850000D1*
X207677Y1187500D2*
X187500Y1207677D1*
Y1275000D1*
X196657Y1121854D2*
X200980D1*
X212598Y1110236D1*
Y1023622D1*
X224606Y1011614D1*
X251772D1*
X263780Y1023622D1*
Y1106299D1*
X279335Y1121854D1*
X334138D1*
X368749Y1087243D1*
Y787500D1*
X380505Y775744D1*
X469495D1*
X487500Y793749D1*
Y850000D1*
X475000Y331251D2*
Y356524D1*
X487500Y369024D1*
Y425000D1*
X187500D2*
Y346260D1*
X202509Y331251D1*
X475000D1*
X187500Y850000D2*
Y762402D1*
X159055Y733957D1*
X134843D1*
X99866Y698980D1*
Y582811D1*
X123228Y559449D1*
X150787D1*
X169291Y540945D1*
Y491343D1*
X187500Y473134D1*
Y425000D1*
X137500Y637402D2*
D15*
Y646457D1*
X184055D1*
Y715304D1*
X200000Y731249D1*
X206251Y1356249D2*
Y1331249D1*
X237500Y1300000D1*
Y1275000D1*
X100000Y387500D2*
Y306972D1*
X137500Y269472D1*
Y212402D1*
X437500Y637402D2*
Y535887D1*
X454636Y518751D1*
X506251D1*
Y557986D1*
X487500Y576736D1*
Y625000D1*
X537500Y1181251D2*
Y1151949D1*
X562992Y1126457D1*
Y1021957D1*
X540866Y999831D1*
X487500D1*
X462332D1*
X431251Y968749D1*
X237500Y425000D2*
Y464862D1*
X206251Y496112D1*
Y518751D1*
X506251D2*
Y487500D1*
X536602Y457148D1*
Y425000D1*
Y326205D1*
X510398Y300000D1*
X484055D1*
X449803D1*
X168028D1*
X137500Y269472D1*
Y212402D2*
Y212992D1*
X184055D1*
Y210193D1*
Y117126D1*
X258268Y42913D1*
X206251Y943751D2*
Y974694D1*
X184488Y996457D1*
X137500D1*
Y1062402D1*
X536602Y425000D2*
X537500D1*
X562992Y1126457D2*
X579449Y1142913D1*
X658268D1*
X449803Y300000D2*
X437500Y287697D1*
Y212402D1*
X431251Y968749D2*
Y1062402D1*
X437500D1*
X184488Y996457D2*
Y1062402D1*
X187500D1*
X225000Y868751D2*
Y905512D1*
X206251Y924261D1*
Y943751D1*
X237500Y850000D2*
X234055Y876142D1*
X225000Y868751D1*
X200000Y731249D2*
X237500Y768749D1*
Y850000D1*
X506251Y943751D2*
Y912500D1*
X537500Y881251D1*
Y850000D1*
X431251Y968749D2*
Y967962D1*
X455462Y943751D1*
X506251D1*
X486602Y1060193D2*
X487500Y1062402D1*
X537500Y1275000D2*
Y1181251D1*
X506251Y1356249D2*
Y1331249D1*
X537500Y1300000D1*
Y1275000D1*
X237500D2*
Y1215276D1*
X455433D1*
X462500Y1222343D1*
Y1352264D1*
X466486Y1356249D1*
X506251D1*
X184055Y210193D2*
X187500D1*
Y212402D1*
X484055Y300000D2*
Y212402D1*
X487500D1*
Y625000D2*
X486602Y635193D1*
X487500Y637402D1*
X187500D2*
X184055Y646457D1*
X206251Y518751D2*
Y563041D1*
X187500Y581791D1*
Y637402D1*
X237500Y850000D2*
D14*
X234055Y876142D1*
X225000Y868751D1*
X487500Y637402D2*
X484055Y621642D1*
X487500Y625000D1*
Y1062402D2*
D15*
Y999831D1*
D27*
X137500Y137500D3*
X400000Y368751D3*
X568751Y562500D3*
X275000Y743749D3*
X425000Y737500D3*
X343751Y981249D3*
X606299Y1188976D3*
X362500Y1356251D3*
X537500Y775000D3*
X337500Y662500D3*
X387500Y187500D3*
Y1162500D3*
X137500Y1275000D3*
X437500Y1268751D3*
X131251Y768751D3*
X437500Y850000D3*
X143751Y525000D3*
X400000Y662500D3*
X393751Y800000D3*
X231251Y156251D3*
X318751Y493751D3*
X237500Y706249D3*
X614173Y303150D3*
X287500Y212500D3*
X475000Y331251D3*
X487500Y625000D3*
X431251Y968749D3*
X225000Y868751D3*
X100000Y387500D3*
X200000Y731249D3*
X537500Y1181251D3*
X13697Y1384383D2*
D16*
X174205D1*
X238299D2*
X241134D1*
X305228D2*
X474201D1*
X538295D2*
X541130D1*
X605224D2*
X705201D1*
X11798Y1380577D2*
X47751D1*
X68785D2*
X174205D1*
X238299D2*
X241134D1*
X305228D2*
X474201D1*
X538295D2*
X541130D1*
X605224D2*
X647752D1*
X668778D2*
X707100D1*
X11421Y1376772D2*
X38516D1*
X78020D2*
X174205D1*
X238299D2*
X241134D1*
X305228D2*
X474201D1*
X538295D2*
X541130D1*
X605224D2*
X638517D1*
X678013D2*
X707476D1*
X11421Y1372966D2*
X33018D1*
X83517D2*
X174205D1*
X238299D2*
X241134D1*
X305228D2*
X474201D1*
X538295D2*
X541130D1*
X605224D2*
X633020D1*
X683520D2*
X707476D1*
X11421Y1369160D2*
X29028D1*
X87508D2*
X174205D1*
X238299D2*
X241134D1*
X305228D2*
X458453D1*
X538295D2*
X541130D1*
X605224D2*
X629029D1*
X687510D2*
X707476D1*
X11421Y1365354D2*
X25974D1*
X90562D2*
X174205D1*
X238299D2*
X241134D1*
X305228D2*
X453986D1*
X538295D2*
X541130D1*
X605224D2*
X625976D1*
X690555D2*
X707476D1*
X11421Y1361549D2*
X23614D1*
X92921D2*
X174205D1*
X238299D2*
X241134D1*
X305228D2*
X450325D1*
X538295D2*
X541130D1*
X605224D2*
X623615D1*
X692924D2*
X707476D1*
X11421Y1357743D2*
X21807D1*
X94728D2*
X174205D1*
X238299D2*
X241134D1*
X305228D2*
X448142D1*
X538295D2*
X541130D1*
X605224D2*
X621801D1*
X694731D2*
X707476D1*
X11421Y1353937D2*
X20461D1*
X96075D2*
X174205D1*
X238299D2*
X241134D1*
X305228D2*
X447203D1*
X538295D2*
X541130D1*
X605224D2*
X620462D1*
X696068D2*
X707476D1*
X11421Y1350131D2*
X19546D1*
X96990D2*
X174205D1*
X238299D2*
X241134D1*
X305228D2*
X447104D1*
X538295D2*
X541130D1*
X605224D2*
X619547D1*
X696991D2*
X707476D1*
X11421Y1346325D2*
X19024D1*
X97512D2*
X174205D1*
X238299D2*
X241134D1*
X305228D2*
X447104D1*
X538295D2*
X541130D1*
X605224D2*
X619025D1*
X697514D2*
X707476D1*
X11421Y1342520D2*
X18877D1*
X97659D2*
X174205D1*
X238299D2*
X241134D1*
X305228D2*
X447104D1*
X538295D2*
X541130D1*
X605224D2*
X618878D1*
X697660D2*
X707476D1*
X11421Y1338714D2*
X19100D1*
X97436D2*
X174205D1*
X238299D2*
X241134D1*
X305228D2*
X447104D1*
X538295D2*
X541130D1*
X605224D2*
X619101D1*
X697437D2*
X707476D1*
X11421Y1334908D2*
X19707D1*
X96828D2*
X174205D1*
X238299D2*
X241134D1*
X305228D2*
X447104D1*
X538295D2*
X541130D1*
X605224D2*
X619701D1*
X696829D2*
X707476D1*
X11421Y1331102D2*
X20707D1*
X95828D2*
X174205D1*
X238299D2*
X241134D1*
X305228D2*
X447104D1*
X538295D2*
X541130D1*
X605224D2*
X620709D1*
X695829D2*
X707476D1*
X11421Y1327297D2*
X22138D1*
X94398D2*
X174205D1*
X238299D2*
X241134D1*
X305228D2*
X447104D1*
X538295D2*
X541130D1*
X605224D2*
X622139D1*
X694400D2*
X707476D1*
X11421Y1323491D2*
X24052D1*
X92483D2*
X193020D1*
X235615D2*
X447104D1*
X535619D2*
X624054D1*
X692478D2*
X707476D1*
X11421Y1319685D2*
X26543D1*
X89992D2*
X196211D1*
X239421D2*
X447104D1*
X539419D2*
X626545D1*
X689986D2*
X707476D1*
X11421Y1315879D2*
X29765D1*
X86770D2*
X200010D1*
X243228D2*
X447104D1*
X543224D2*
X629766D1*
X686772D2*
X707476D1*
X11421Y1312073D2*
X34003D1*
X82533D2*
X114311D1*
X160689D2*
X164308D1*
X260690D2*
X264310D1*
X310688D2*
X414308D1*
X560688D2*
X564314D1*
X610692D2*
X634004D1*
X682535D2*
X707476D1*
X11421Y1308268D2*
X39969D1*
X76567D2*
X114311D1*
X160689D2*
X164308D1*
X260690D2*
X264310D1*
X310688D2*
X414308D1*
X560688D2*
X564314D1*
X610692D2*
X639963D1*
X676568D2*
X707476D1*
X11421Y1304462D2*
X51357D1*
X65178D2*
X114311D1*
X160689D2*
X164308D1*
X260690D2*
X264310D1*
X310688D2*
X414308D1*
X560688D2*
X564314D1*
X610692D2*
X651358D1*
X665180D2*
X707476D1*
X11421Y1300656D2*
X114311D1*
X160689D2*
X164308D1*
X260690D2*
X264310D1*
X310688D2*
X414308D1*
X510690D2*
X514310D1*
X560688D2*
X564314D1*
X610692D2*
X707476D1*
X11421Y1296850D2*
X114311D1*
X160689D2*
X164308D1*
X260690D2*
X264310D1*
X310688D2*
X414308D1*
X510690D2*
X514310D1*
X560688D2*
X564314D1*
X610692D2*
X707476D1*
X11421Y1293045D2*
X114311D1*
X160689D2*
X164308D1*
X260690D2*
X264310D1*
X310688D2*
X414308D1*
X510690D2*
X514310D1*
X560688D2*
X564314D1*
X610692D2*
X707476D1*
X11421Y1289239D2*
X114311D1*
X160689D2*
X164308D1*
X260690D2*
X264310D1*
X310688D2*
X414308D1*
X510690D2*
X514310D1*
X560688D2*
X564314D1*
X610692D2*
X707476D1*
X11421Y1285433D2*
X114311D1*
X160689D2*
X164308D1*
X260690D2*
X264310D1*
X310688D2*
X414308D1*
X510690D2*
X514310D1*
X560688D2*
X564314D1*
X610692D2*
X707476D1*
X11421Y1281627D2*
X53156D1*
X63379D2*
X114311D1*
X160689D2*
X164308D1*
X260690D2*
X264310D1*
X310688D2*
X414308D1*
X510690D2*
X514310D1*
X560688D2*
X564314D1*
X610692D2*
X653157D1*
X663373D2*
X707476D1*
X11421Y1277822D2*
X40484D1*
X76051D2*
X114311D1*
X160689D2*
X164308D1*
X260690D2*
X264310D1*
X310688D2*
X414308D1*
X510690D2*
X514310D1*
X560688D2*
X564314D1*
X610692D2*
X640486D1*
X676052D2*
X707476D1*
X11421Y1274016D2*
X34348D1*
X82188D2*
X114311D1*
X160689D2*
X164308D1*
X260690D2*
X264310D1*
X310688D2*
X414308D1*
X510690D2*
X514310D1*
X560688D2*
X564314D1*
X610692D2*
X634343D1*
X682189D2*
X707476D1*
X11421Y1270210D2*
X30018D1*
X86517D2*
X114311D1*
X160689D2*
X164308D1*
X260690D2*
X264310D1*
X310688D2*
X414308D1*
X510690D2*
X514310D1*
X560688D2*
X564314D1*
X610692D2*
X630021D1*
X686518D2*
X707476D1*
X11421Y1266404D2*
X26743D1*
X89793D2*
X114311D1*
X160689D2*
X164308D1*
X260690D2*
X264310D1*
X310688D2*
X414308D1*
X510690D2*
X514310D1*
X560688D2*
X564314D1*
X610692D2*
X626744D1*
X689794D2*
X707476D1*
X11421Y1262598D2*
X24206D1*
X92329D2*
X114311D1*
X160689D2*
X164308D1*
X260690D2*
X264310D1*
X310688D2*
X414308D1*
X510690D2*
X514310D1*
X560688D2*
X564314D1*
X610692D2*
X624207D1*
X692331D2*
X707476D1*
X11421Y1258793D2*
X22252D1*
X94283D2*
X114311D1*
X160689D2*
X164308D1*
X260690D2*
X264310D1*
X310688D2*
X414308D1*
X510690D2*
X514310D1*
X560688D2*
X564314D1*
X610692D2*
X622255D1*
X694285D2*
X707476D1*
X11421Y1254987D2*
X20791D1*
X95744D2*
X114311D1*
X160689D2*
X164308D1*
X260690D2*
X264310D1*
X310688D2*
X414308D1*
X510690D2*
X514310D1*
X560688D2*
X564314D1*
X610692D2*
X620793D1*
X695745D2*
X707476D1*
X11421Y1251181D2*
X19761D1*
X96774D2*
X114311D1*
X160689D2*
X164308D1*
X260690D2*
X264310D1*
X310688D2*
X414308D1*
X510690D2*
X514310D1*
X560688D2*
X564314D1*
X610692D2*
X619762D1*
X696776D2*
X707476D1*
X11421Y1247375D2*
X19131D1*
X97404D2*
X114311D1*
X160689D2*
X164308D1*
X260690D2*
X264310D1*
X310688D2*
X414308D1*
X510690D2*
X514310D1*
X560688D2*
X564314D1*
X610692D2*
X619133D1*
X697407D2*
X707484D1*
X11421Y1243570D2*
X18877D1*
X97659D2*
X114311D1*
X160689D2*
X164308D1*
X260690D2*
X264310D1*
X310688D2*
X414308D1*
X510690D2*
X514310D1*
X560688D2*
X564314D1*
X610692D2*
X618878D1*
X697652D2*
X707484D1*
X11421Y1239764D2*
X19000D1*
X97535D2*
X114311D1*
X160689D2*
X164308D1*
X260690D2*
X264310D1*
X310688D2*
X414308D1*
X510690D2*
X514310D1*
X560688D2*
X564314D1*
X610692D2*
X619001D1*
X697537D2*
X707484D1*
X11421Y1235958D2*
X19500D1*
X97035D2*
X114311D1*
X160689D2*
X164308D1*
X260690D2*
X264310D1*
X310688D2*
X414308D1*
X510690D2*
X514310D1*
X560688D2*
X564314D1*
X610692D2*
X619501D1*
X697037D2*
X707484D1*
X11421Y1232152D2*
X20391D1*
X96144D2*
X173167D1*
X252894D2*
X447104D1*
X501832D2*
X522106D1*
X552891D2*
X620386D1*
X696146D2*
X707484D1*
X11421Y1228346D2*
X21699D1*
X94836D2*
X173167D1*
X501832D2*
X522106D1*
X552891D2*
X621701D1*
X694839D2*
X707484D1*
X11421Y1224541D2*
X23475D1*
X93060D2*
X173167D1*
X501832D2*
X522106D1*
X552891D2*
X623469D1*
X693062D2*
X707484D1*
X11421Y1220735D2*
X25798D1*
X90738D2*
X173167D1*
X501832D2*
X522106D1*
X552891D2*
X625791D1*
X690740D2*
X707484D1*
X11421Y1216929D2*
X28789D1*
X87747D2*
X173167D1*
X501832D2*
X522106D1*
X552891D2*
X628790D1*
X687740D2*
X707484D1*
X11421Y1213123D2*
X32702D1*
X83833D2*
X173167D1*
X501832D2*
X522106D1*
X552891D2*
X632705D1*
X683835D2*
X707484D1*
X11421Y1209318D2*
X38070D1*
X78466D2*
X173167D1*
X501832D2*
X522106D1*
X552891D2*
X638063D1*
X678467D2*
X707484D1*
X11421Y1205512D2*
X46820D1*
X69715D2*
X173335D1*
X501832D2*
X522106D1*
X552891D2*
X646822D1*
X669709D2*
X707484D1*
X11421Y1201706D2*
X174512D1*
X501832D2*
X522106D1*
X552891D2*
X707484D1*
X11421Y1197900D2*
X177172D1*
X501240D2*
X522106D1*
X552891D2*
X707484D1*
X11421Y1194094D2*
X180979D1*
X499433D2*
X519476D1*
X555520D2*
X707484D1*
X11421Y1190289D2*
X184785D1*
X495980D2*
X517255D1*
X557743D2*
X707484D1*
X11421Y1186483D2*
X188591D1*
X492175D2*
X515932D1*
X559066D2*
X707484D1*
X11421Y1182677D2*
X192398D1*
X488369D2*
X515340D1*
X559657D2*
X707484D1*
X11421Y1178871D2*
X42776D1*
X73760D2*
X193344D1*
X484562D2*
X515424D1*
X559572D2*
X642777D1*
X673761D2*
X707484D1*
X11421Y1175066D2*
X35802D1*
X80734D2*
X193344D1*
X479780D2*
X516193D1*
X558811D2*
X635803D1*
X680736D2*
X707484D1*
X11421Y1171260D2*
X31088D1*
X85448D2*
X193344D1*
X222005D2*
X517715D1*
X557281D2*
X631089D1*
X685449D2*
X707484D1*
X11421Y1167454D2*
X27566D1*
X88970D2*
X193344D1*
X222005D2*
X520215D1*
X554790D2*
X627560D1*
X688971D2*
X707484D1*
X11421Y1163648D2*
X24844D1*
X91692D2*
X193344D1*
X222005D2*
X522106D1*
X552891D2*
X624845D1*
X691693D2*
X707484D1*
X11421Y1159843D2*
X22738D1*
X93798D2*
X193344D1*
X222005D2*
X522106D1*
X552891D2*
X622739D1*
X693793D2*
X707484D1*
X11421Y1156037D2*
X21146D1*
X95390D2*
X193344D1*
X222005D2*
X522106D1*
X555021D2*
X571789D1*
X695385D2*
X707484D1*
X11421Y1152231D2*
X20008D1*
X96528D2*
X193344D1*
X222005D2*
X522106D1*
X558827D2*
X567159D1*
X696530D2*
X707484D1*
X11421Y1148425D2*
X19269D1*
X97266D2*
X193344D1*
X222005D2*
X240626D1*
X403861D2*
X522529D1*
X697268D2*
X707484D1*
X11421Y1144619D2*
X18908D1*
X97627D2*
X193344D1*
X222005D2*
X236719D1*
X407774D2*
X524021D1*
X697622D2*
X707484D1*
X11421Y1140814D2*
X18930D1*
X97605D2*
X193344D1*
X222005D2*
X232913D1*
X411581D2*
X527028D1*
X697606D2*
X707484D1*
X11421Y1137008D2*
X19323D1*
X97213D2*
X191705D1*
X222005D2*
X229106D1*
X415379D2*
X530835D1*
X697214D2*
X707484D1*
X11421Y1133202D2*
X20100D1*
X96436D2*
X107129D1*
X222005D2*
X225623D1*
X696429D2*
X707484D1*
X11421Y1129396D2*
X21291D1*
X95244D2*
X103054D1*
X221567D2*
X223786D1*
X695245D2*
X707484D1*
X11421Y1125591D2*
X22929D1*
X93606D2*
X99247D1*
X219951D2*
X223171D1*
X583732D2*
X622930D1*
X693600D2*
X707484D1*
X11421Y1121785D2*
X25091D1*
X91445D2*
X95441D1*
X221151D2*
X223167D1*
X579927D2*
X625092D1*
X691440D2*
X707484D1*
X11421Y1117979D2*
X27888D1*
X88647D2*
X91635D1*
X578388D2*
X627883D1*
X688648D2*
X707484D1*
X11421Y1114173D2*
X31510D1*
X85025D2*
X88105D1*
X578388D2*
X631512D1*
X685026D2*
X707484D1*
X11421Y1110367D2*
X36386D1*
X80150D2*
X86206D1*
X578388D2*
X636387D1*
X680151D2*
X707484D1*
X11421Y1106562D2*
X43744D1*
X72791D2*
X85545D1*
X284143D2*
X329324D1*
X415241D2*
X523168D1*
X578388D2*
X643747D1*
X672785D2*
X707484D1*
X11421Y1102756D2*
X85537D1*
X280337D2*
X333130D1*
X411434D2*
X523168D1*
X578388D2*
X707484D1*
X11421Y1098950D2*
X85537D1*
X310688D2*
X336937D1*
X408083D2*
X414308D1*
X460686D2*
X464312D1*
X510690D2*
X514310D1*
X610692D2*
X707484D1*
X11421Y1095144D2*
X85537D1*
X310688D2*
X340743D1*
X408083D2*
X414308D1*
X460686D2*
X464312D1*
X510690D2*
X514310D1*
X610692D2*
X707484D1*
X11421Y1091339D2*
X85537D1*
X310688D2*
X344549D1*
X408083D2*
X414308D1*
X460686D2*
X464312D1*
X510690D2*
X514310D1*
X610692D2*
X707484D1*
X11421Y1087533D2*
X85537D1*
X310688D2*
X348356D1*
X408083D2*
X414308D1*
X460686D2*
X464312D1*
X510690D2*
X514310D1*
X610692D2*
X707484D1*
X11421Y1083727D2*
X85537D1*
X310688D2*
X352161D1*
X408083D2*
X414308D1*
X460686D2*
X464312D1*
X510690D2*
X514310D1*
X610692D2*
X707484D1*
X11421Y1079921D2*
X45567D1*
X70969D2*
X85537D1*
X310688D2*
X354423D1*
X408083D2*
X414308D1*
X460686D2*
X464312D1*
X510690D2*
X514310D1*
X610692D2*
X645568D1*
X670970D2*
X707484D1*
X11421Y1076115D2*
X37416D1*
X79119D2*
X85537D1*
X310688D2*
X354423D1*
X408083D2*
X414308D1*
X460686D2*
X464312D1*
X510690D2*
X514310D1*
X610692D2*
X637409D1*
X679121D2*
X707484D1*
X11421Y1072310D2*
X32241D1*
X310688D2*
X354423D1*
X408083D2*
X414308D1*
X460686D2*
X464312D1*
X510690D2*
X514310D1*
X610692D2*
X632243D1*
X684289D2*
X707484D1*
X11421Y1068504D2*
X28442D1*
X310688D2*
X354423D1*
X408083D2*
X414308D1*
X460686D2*
X464312D1*
X510690D2*
X514310D1*
X610692D2*
X628444D1*
X688094D2*
X707484D1*
X11421Y1064698D2*
X25529D1*
X310688D2*
X354423D1*
X408083D2*
X414308D1*
X460686D2*
X464312D1*
X510690D2*
X514310D1*
X610692D2*
X625522D1*
X691009D2*
X707484D1*
X11421Y1060892D2*
X23268D1*
X310688D2*
X354423D1*
X408083D2*
X414308D1*
X460686D2*
X464312D1*
X510690D2*
X514310D1*
X610692D2*
X623269D1*
X693269D2*
X707484D1*
X11421Y1057087D2*
X21538D1*
X310688D2*
X354423D1*
X408083D2*
X414308D1*
X460686D2*
X464312D1*
X510690D2*
X514310D1*
X610692D2*
X621539D1*
X694992D2*
X707484D1*
X11421Y1053281D2*
X20277D1*
X310688D2*
X354423D1*
X408083D2*
X414308D1*
X460686D2*
X464312D1*
X510690D2*
X514310D1*
X610692D2*
X620278D1*
X696261D2*
X707484D1*
X11421Y1049475D2*
X19430D1*
X310688D2*
X354423D1*
X408083D2*
X414308D1*
X460686D2*
X464312D1*
X510690D2*
X514310D1*
X610692D2*
X619432D1*
X697106D2*
X707484D1*
X11421Y1045669D2*
X18969D1*
X310688D2*
X354423D1*
X408083D2*
X414308D1*
X460686D2*
X464312D1*
X510690D2*
X514310D1*
X610692D2*
X618971D1*
X697560D2*
X707484D1*
X11421Y1041864D2*
X18885D1*
X310688D2*
X354423D1*
X408083D2*
X414308D1*
X460686D2*
X464312D1*
X510690D2*
X514310D1*
X610692D2*
X618886D1*
X697644D2*
X707484D1*
X11421Y1038058D2*
X19177D1*
X310688D2*
X354423D1*
X408083D2*
X414308D1*
X460686D2*
X464312D1*
X510690D2*
X514310D1*
X610692D2*
X619178D1*
X697360D2*
X707484D1*
X11421Y1034252D2*
X19845D1*
X310688D2*
X354423D1*
X408083D2*
X414308D1*
X460686D2*
X464312D1*
X510690D2*
X514310D1*
X610692D2*
X619848D1*
X696692D2*
X707484D1*
X11421Y1030446D2*
X20923D1*
X310688D2*
X354423D1*
X408083D2*
X414308D1*
X460686D2*
X464312D1*
X510690D2*
X514310D1*
X610692D2*
X620924D1*
X695614D2*
X707484D1*
X11421Y1026640D2*
X22429D1*
X310688D2*
X354423D1*
X408083D2*
X414308D1*
X460686D2*
X464312D1*
X510690D2*
X514310D1*
X610692D2*
X622430D1*
X694108D2*
X707484D1*
X11421Y1022835D2*
X24437D1*
X301829D2*
X354423D1*
X408083D2*
X415853D1*
X446646D2*
X472109D1*
X502894D2*
X542261D1*
X601833D2*
X624438D1*
X692093D2*
X707484D1*
X11421Y1019029D2*
X27043D1*
X301829D2*
X354423D1*
X408083D2*
X415853D1*
X446646D2*
X472109D1*
X502894D2*
X538454D1*
X601833D2*
X627045D1*
X689493D2*
X707484D1*
X11421Y1015223D2*
X30411D1*
X301829D2*
X354423D1*
X408083D2*
X415853D1*
X446646D2*
X472109D1*
X502894D2*
X534648D1*
X601833D2*
X630412D1*
X686126D2*
X707484D1*
X11421Y1011417D2*
X34871D1*
X81664D2*
X85537D1*
X199882D2*
X204701D1*
X301829D2*
X354423D1*
X408083D2*
X415853D1*
X446646D2*
X452409D1*
X601833D2*
X634873D1*
X681659D2*
X707484D1*
X11421Y1007612D2*
X41299D1*
X75236D2*
X85537D1*
X199882D2*
X208507D1*
X267873D2*
X273168D1*
X301829D2*
X354423D1*
X408083D2*
X415853D1*
X570253D2*
X573172D1*
X602949D2*
X641301D1*
X675238D2*
X707484D1*
X11421Y1003806D2*
X85537D1*
X199882D2*
X212314D1*
X264067D2*
X273168D1*
X303706D2*
X354423D1*
X408083D2*
X415853D1*
X566448D2*
X573172D1*
X606755D2*
X707484D1*
X11421Y1000000D2*
X85537D1*
X202551D2*
X216512D1*
X259867D2*
X273168D1*
X307512D2*
X354423D1*
X408083D2*
X415853D1*
X562640D2*
X573487D1*
X610562D2*
X707484D1*
X11421Y996194D2*
X85537D1*
X206357D2*
X273675D1*
X311318D2*
X354423D1*
X408083D2*
X415853D1*
X558835D2*
X574917D1*
X614367D2*
X707484D1*
X11421Y992388D2*
X85537D1*
X210163D2*
X275366D1*
X315125D2*
X354423D1*
X408083D2*
X415853D1*
X555028D2*
X577963D1*
X618175D2*
X707484D1*
X11421Y988583D2*
X85591D1*
X213970D2*
X278719D1*
X318923D2*
X354423D1*
X408083D2*
X415853D1*
X551184D2*
X581769D1*
X621980D2*
X707484D1*
X11421Y984777D2*
X86491D1*
X217753D2*
X282526D1*
X322730D2*
X354423D1*
X408083D2*
X415853D1*
X468883D2*
X585575D1*
X625049D2*
X707484D1*
X11421Y980971D2*
X49350D1*
X67185D2*
X88720D1*
X220268D2*
X286332D1*
X325444D2*
X354423D1*
X408083D2*
X412793D1*
X465076D2*
X589382D1*
X626501D2*
X649352D1*
X667178D2*
X707484D1*
X11421Y977165D2*
X39223D1*
X77312D2*
X92434D1*
X221436D2*
X290138D1*
X326643D2*
X354423D1*
X408083D2*
X410732D1*
X461270D2*
X593188D1*
X626832D2*
X639224D1*
X677314D2*
X707484D1*
X11421Y973360D2*
X33503D1*
X83033D2*
X96240D1*
X238299D2*
X241134D1*
X326828D2*
X354423D1*
X457465D2*
X474201D1*
X538295D2*
X541130D1*
X626832D2*
X633504D1*
X683034D2*
X707484D1*
X11421Y969554D2*
X29388D1*
X87147D2*
X100047D1*
X238299D2*
X241134D1*
X326828D2*
X354423D1*
X453665D2*
X474201D1*
X538295D2*
X541130D1*
X626832D2*
X629390D1*
X687140D2*
X707484D1*
X11421Y965748D2*
X26259D1*
X90277D2*
X103853D1*
X238299D2*
X241134D1*
X326828D2*
X354423D1*
X455072D2*
X474201D1*
X538295D2*
X541130D1*
X690278D2*
X707484D1*
X11421Y961942D2*
X23829D1*
X92706D2*
X107660D1*
X238299D2*
X241134D1*
X326828D2*
X354423D1*
X408083D2*
X410139D1*
X458879D2*
X474201D1*
X538295D2*
X541130D1*
X692701D2*
X707484D1*
X11421Y958136D2*
X21969D1*
X94567D2*
X111466D1*
X238299D2*
X241134D1*
X326828D2*
X354423D1*
X408083D2*
X411801D1*
X538295D2*
X541130D1*
X694570D2*
X707484D1*
X11421Y954331D2*
X20584D1*
X95951D2*
X115272D1*
X238299D2*
X241134D1*
X326828D2*
X354423D1*
X408083D2*
X414492D1*
X538295D2*
X541130D1*
X695953D2*
X707484D1*
X11421Y950525D2*
X19623D1*
X96912D2*
X119079D1*
X238299D2*
X241134D1*
X326828D2*
X354423D1*
X408083D2*
X418875D1*
X538295D2*
X541130D1*
X696915D2*
X707484D1*
X11421Y946719D2*
X19062D1*
X97474D2*
X122885D1*
X238299D2*
X241134D1*
X326828D2*
X354423D1*
X408083D2*
X430886D1*
X538295D2*
X541130D1*
X697475D2*
X707484D1*
X11421Y942913D2*
X18877D1*
X97659D2*
X126690D1*
X238299D2*
X241134D1*
X326828D2*
X354423D1*
X408083D2*
X434693D1*
X538295D2*
X541130D1*
X697660D2*
X707484D1*
X11421Y939108D2*
X19062D1*
X97474D2*
X130497D1*
X238299D2*
X241134D1*
X326828D2*
X354423D1*
X408083D2*
X438499D1*
X538295D2*
X541130D1*
X697475D2*
X707484D1*
X11421Y935302D2*
X19623D1*
X96912D2*
X134295D1*
X238299D2*
X241134D1*
X326828D2*
X354423D1*
X408083D2*
X442306D1*
X538295D2*
X541130D1*
X696915D2*
X707484D1*
X11421Y931496D2*
X20584D1*
X95951D2*
X138102D1*
X238299D2*
X241134D1*
X326828D2*
X354423D1*
X408083D2*
X446419D1*
X538295D2*
X541130D1*
X695953D2*
X707484D1*
X11421Y927690D2*
X21969D1*
X94567D2*
X141908D1*
X238299D2*
X241134D1*
X326828D2*
X354423D1*
X408083D2*
X474201D1*
X538295D2*
X541130D1*
X694570D2*
X707484D1*
X11421Y923885D2*
X23829D1*
X92706D2*
X145715D1*
X238299D2*
X241134D1*
X326828D2*
X354423D1*
X408083D2*
X474201D1*
X538295D2*
X541130D1*
X692701D2*
X707484D1*
X11421Y920079D2*
X26259D1*
X90277D2*
X149521D1*
X238299D2*
X241134D1*
X326828D2*
X354423D1*
X408083D2*
X474201D1*
X538295D2*
X541130D1*
X690278D2*
X707484D1*
X11421Y916273D2*
X29388D1*
X87147D2*
X153327D1*
X238299D2*
X241134D1*
X326828D2*
X354423D1*
X408083D2*
X474201D1*
X538295D2*
X541130D1*
X626832D2*
X629390D1*
X687140D2*
X707484D1*
X11421Y912467D2*
X33503D1*
X83033D2*
X157134D1*
X238684D2*
X298167D1*
X326828D2*
X354423D1*
X408083D2*
X490857D1*
X527892D2*
X598171D1*
X626832D2*
X633504D1*
X683034D2*
X707484D1*
X11421Y908661D2*
X39223D1*
X77312D2*
X160940D1*
X240060D2*
X298167D1*
X326828D2*
X354423D1*
X408083D2*
X491356D1*
X531698D2*
X598171D1*
X626832D2*
X639224D1*
X677314D2*
X707484D1*
X11421Y904856D2*
X49350D1*
X67185D2*
X164747D1*
X240391D2*
X298167D1*
X326828D2*
X354423D1*
X408083D2*
X492948D1*
X535504D2*
X598171D1*
X626832D2*
X649352D1*
X667178D2*
X707484D1*
X11421Y901050D2*
X168552D1*
X240391D2*
X298167D1*
X326828D2*
X354423D1*
X408083D2*
X496093D1*
X539311D2*
X598171D1*
X626832D2*
X707484D1*
X11421Y897244D2*
X172358D1*
X240391D2*
X298167D1*
X326828D2*
X354423D1*
X408083D2*
X499899D1*
X543117D2*
X598171D1*
X626832D2*
X707484D1*
X11421Y893438D2*
X173167D1*
X240391D2*
X298167D1*
X326828D2*
X354423D1*
X408083D2*
X503706D1*
X546916D2*
X598171D1*
X626832D2*
X707484D1*
X11421Y889633D2*
X173167D1*
X241005D2*
X298167D1*
X326828D2*
X354423D1*
X408083D2*
X507512D1*
X550329D2*
X598171D1*
X626832D2*
X707484D1*
X11421Y885827D2*
X114311D1*
X160689D2*
X164308D1*
X260690D2*
X264310D1*
X326828D2*
X354423D1*
X408083D2*
X414308D1*
X460686D2*
X464312D1*
X560688D2*
X564314D1*
X626832D2*
X707484D1*
X11421Y882021D2*
X114311D1*
X160689D2*
X164308D1*
X260690D2*
X264310D1*
X326828D2*
X354423D1*
X408083D2*
X414308D1*
X460686D2*
X464312D1*
X510690D2*
X514310D1*
X560688D2*
X564314D1*
X626832D2*
X707484D1*
X11421Y878215D2*
X41299D1*
X75236D2*
X114311D1*
X160689D2*
X164308D1*
X260690D2*
X264310D1*
X326828D2*
X354423D1*
X408083D2*
X414308D1*
X460686D2*
X464312D1*
X510690D2*
X514310D1*
X560688D2*
X564314D1*
X626832D2*
X641301D1*
X675238D2*
X707484D1*
X11421Y874409D2*
X34871D1*
X81664D2*
X114311D1*
X160689D2*
X164308D1*
X260690D2*
X264310D1*
X326828D2*
X354423D1*
X408083D2*
X414308D1*
X460686D2*
X464312D1*
X510690D2*
X514310D1*
X560688D2*
X564314D1*
X626832D2*
X634873D1*
X681659D2*
X707484D1*
X11421Y870604D2*
X30411D1*
X86125D2*
X114311D1*
X160689D2*
X164308D1*
X260690D2*
X264310D1*
X326828D2*
X354423D1*
X408083D2*
X414308D1*
X460686D2*
X464312D1*
X510690D2*
X514310D1*
X560688D2*
X564314D1*
X626832D2*
X630412D1*
X686126D2*
X707484D1*
X11421Y866798D2*
X27043D1*
X89492D2*
X114311D1*
X160689D2*
X164308D1*
X260690D2*
X264310D1*
X326828D2*
X354423D1*
X408083D2*
X414308D1*
X460686D2*
X464312D1*
X510690D2*
X514310D1*
X560688D2*
X564314D1*
X689493D2*
X707484D1*
X11421Y862992D2*
X24437D1*
X92098D2*
X114311D1*
X160689D2*
X164308D1*
X260690D2*
X264310D1*
X326828D2*
X354423D1*
X408083D2*
X414308D1*
X460686D2*
X464312D1*
X510690D2*
X514310D1*
X560688D2*
X564314D1*
X692093D2*
X707484D1*
X11421Y859186D2*
X22429D1*
X94106D2*
X114311D1*
X160689D2*
X164308D1*
X260690D2*
X264310D1*
X326828D2*
X354423D1*
X408083D2*
X414308D1*
X460686D2*
X464312D1*
X510690D2*
X514310D1*
X560688D2*
X564314D1*
X694108D2*
X707484D1*
X11421Y855381D2*
X20923D1*
X95613D2*
X114311D1*
X160689D2*
X164308D1*
X260690D2*
X264310D1*
X326828D2*
X354423D1*
X408083D2*
X414308D1*
X460686D2*
X464312D1*
X510690D2*
X514310D1*
X560688D2*
X564314D1*
X695614D2*
X707484D1*
X11421Y851575D2*
X19845D1*
X96690D2*
X114311D1*
X160689D2*
X164308D1*
X260690D2*
X264310D1*
X326828D2*
X354423D1*
X408083D2*
X414308D1*
X460686D2*
X464312D1*
X510690D2*
X514310D1*
X560688D2*
X564314D1*
X696692D2*
X707484D1*
X11421Y847769D2*
X19177D1*
X97358D2*
X114311D1*
X160689D2*
X164308D1*
X260690D2*
X264310D1*
X326828D2*
X354423D1*
X408083D2*
X414308D1*
X460686D2*
X464312D1*
X510690D2*
X514310D1*
X560688D2*
X564314D1*
X697360D2*
X707484D1*
X11421Y843963D2*
X18885D1*
X97651D2*
X114311D1*
X160689D2*
X164308D1*
X260690D2*
X264310D1*
X326828D2*
X354423D1*
X408083D2*
X414308D1*
X460686D2*
X464312D1*
X510690D2*
X514310D1*
X560688D2*
X564314D1*
X697644D2*
X707484D1*
X11421Y840157D2*
X18969D1*
X97567D2*
X114311D1*
X160689D2*
X164308D1*
X260690D2*
X264310D1*
X326828D2*
X354423D1*
X408083D2*
X414308D1*
X460686D2*
X464312D1*
X510690D2*
X514310D1*
X560688D2*
X564314D1*
X697560D2*
X707484D1*
X11421Y836352D2*
X19430D1*
X97105D2*
X114311D1*
X160689D2*
X164308D1*
X260690D2*
X264310D1*
X326828D2*
X354423D1*
X408083D2*
X414308D1*
X460686D2*
X464312D1*
X510690D2*
X514310D1*
X560688D2*
X564314D1*
X697106D2*
X707484D1*
X11421Y832546D2*
X20277D1*
X96259D2*
X114311D1*
X160689D2*
X164308D1*
X260690D2*
X264310D1*
X326828D2*
X354423D1*
X408083D2*
X414308D1*
X460686D2*
X464312D1*
X510690D2*
X514310D1*
X560688D2*
X564314D1*
X696261D2*
X707484D1*
X11421Y828740D2*
X21538D1*
X94997D2*
X114311D1*
X160689D2*
X164308D1*
X260690D2*
X264310D1*
X326828D2*
X354423D1*
X408083D2*
X414308D1*
X460686D2*
X464312D1*
X510690D2*
X514310D1*
X560688D2*
X564314D1*
X694992D2*
X707484D1*
X11421Y824934D2*
X23268D1*
X93268D2*
X114311D1*
X160689D2*
X164308D1*
X260690D2*
X264310D1*
X326828D2*
X354423D1*
X408083D2*
X414308D1*
X460686D2*
X464312D1*
X510690D2*
X514310D1*
X560688D2*
X564314D1*
X693269D2*
X707484D1*
X11421Y821129D2*
X25529D1*
X91007D2*
X114311D1*
X160689D2*
X164308D1*
X260690D2*
X264310D1*
X326828D2*
X354423D1*
X408083D2*
X414308D1*
X460686D2*
X464312D1*
X510690D2*
X514310D1*
X560688D2*
X564314D1*
X691009D2*
X707484D1*
X11421Y817323D2*
X28442D1*
X88093D2*
X114311D1*
X160689D2*
X164308D1*
X260690D2*
X264310D1*
X326828D2*
X354423D1*
X408083D2*
X414308D1*
X460686D2*
X464312D1*
X510690D2*
X514310D1*
X560688D2*
X564314D1*
X688094D2*
X707484D1*
X11421Y813517D2*
X32241D1*
X84294D2*
X114311D1*
X160689D2*
X164308D1*
X260690D2*
X264310D1*
X326828D2*
X354423D1*
X411259D2*
X414308D1*
X460686D2*
X464312D1*
X510690D2*
X514310D1*
X560688D2*
X564314D1*
X626832D2*
X632243D1*
X684289D2*
X707484D1*
X11421Y809711D2*
X37416D1*
X79119D2*
X117856D1*
X144642D2*
X173167D1*
X252894D2*
X298167D1*
X326828D2*
X354423D1*
X413673D2*
X473171D1*
X501832D2*
X598171D1*
X626832D2*
X637409D1*
X679121D2*
X707484D1*
X11421Y805906D2*
X45567D1*
X70969D2*
X117856D1*
X144642D2*
X173167D1*
X252894D2*
X298167D1*
X326828D2*
X354423D1*
X415142D2*
X473171D1*
X501832D2*
X595287D1*
X626832D2*
X645568D1*
X670970D2*
X707484D1*
X11421Y802100D2*
X117856D1*
X144642D2*
X173167D1*
X252894D2*
X298167D1*
X326828D2*
X354423D1*
X415857D2*
X473171D1*
X501832D2*
X591480D1*
X626802D2*
X707484D1*
X11421Y798294D2*
X117856D1*
X144642D2*
X173167D1*
X252894D2*
X298167D1*
X326828D2*
X354423D1*
X415887D2*
X471941D1*
X501832D2*
X587675D1*
X626009D2*
X707484D1*
X11421Y794488D2*
X117856D1*
X144642D2*
X173167D1*
X252894D2*
X298167D1*
X326828D2*
X354423D1*
X415249D2*
X468134D1*
X501832D2*
X583869D1*
X623919D2*
X707484D1*
X11421Y790682D2*
X117856D1*
X144642D2*
X173167D1*
X252894D2*
X298167D1*
X326828D2*
X354423D1*
X413865D2*
X464328D1*
X501487D2*
X580062D1*
X620273D2*
X707484D1*
X11421Y786877D2*
X117856D1*
X144642D2*
X173167D1*
X252894D2*
X298167D1*
X326828D2*
X354430D1*
X500017D2*
X576256D1*
X616467D2*
X707484D1*
X11421Y783071D2*
X114403D1*
X148093D2*
X173167D1*
X252894D2*
X298167D1*
X326828D2*
X355138D1*
X496927D2*
X572618D1*
X612660D2*
X707484D1*
X11421Y779265D2*
X43744D1*
X72791D2*
X111751D1*
X150755D2*
X173167D1*
X252894D2*
X298167D1*
X326828D2*
X357114D1*
X493121D2*
X570542D1*
X608854D2*
X643747D1*
X672785D2*
X707484D1*
X11421Y775459D2*
X36386D1*
X80150D2*
X110105D1*
X152400D2*
X173167D1*
X252894D2*
X298167D1*
X326828D2*
X360689D1*
X489314D2*
X569751D1*
X605049D2*
X636387D1*
X680151D2*
X707484D1*
X11421Y771654D2*
X31510D1*
X85025D2*
X109244D1*
X153261D2*
X173167D1*
X252894D2*
X298167D1*
X326828D2*
X364496D1*
X485508D2*
X569727D1*
X601241D2*
X631512D1*
X685026D2*
X707484D1*
X11421Y767848D2*
X27888D1*
X88647D2*
X109067D1*
X153438D2*
X172843D1*
X252870D2*
X298167D1*
X326828D2*
X368302D1*
X481701D2*
X569727D1*
X598388D2*
X627883D1*
X688648D2*
X707484D1*
X11421Y764042D2*
X25091D1*
X91445D2*
X109559D1*
X152938D2*
X169037D1*
X252133D2*
X298167D1*
X326828D2*
X372538D1*
X477457D2*
X569727D1*
X598388D2*
X625092D1*
X691440D2*
X707484D1*
X11421Y760236D2*
X22929D1*
X93606D2*
X110774D1*
X151723D2*
X165231D1*
X250240D2*
X298167D1*
X326828D2*
X569727D1*
X598388D2*
X622930D1*
X693600D2*
X707484D1*
X11421Y756430D2*
X21291D1*
X95244D2*
X112857D1*
X149639D2*
X161424D1*
X246789D2*
X298167D1*
X326828D2*
X569727D1*
X598388D2*
X621293D1*
X695245D2*
X707484D1*
X11421Y752625D2*
X20100D1*
X96436D2*
X116172D1*
X146333D2*
X157618D1*
X242982D2*
X298167D1*
X326828D2*
X569727D1*
X598388D2*
X620101D1*
X696429D2*
X707484D1*
X11421Y748819D2*
X19323D1*
X97213D2*
X122000D1*
X140504D2*
X153811D1*
X239176D2*
X298167D1*
X326828D2*
X569727D1*
X598388D2*
X619324D1*
X697214D2*
X707484D1*
X11421Y745013D2*
X18930D1*
X97605D2*
X125961D1*
X235369D2*
X298167D1*
X326828D2*
X569727D1*
X598388D2*
X618932D1*
X697606D2*
X707484D1*
X11421Y741207D2*
X18908D1*
X97627D2*
X121992D1*
X231563D2*
X298167D1*
X326828D2*
X569727D1*
X598388D2*
X618909D1*
X697622D2*
X707484D1*
X11421Y737402D2*
X19269D1*
X97266D2*
X118186D1*
X227757D2*
X298167D1*
X326828D2*
X569727D1*
X598388D2*
X619262D1*
X697268D2*
X707484D1*
X11421Y733596D2*
X20008D1*
X96528D2*
X114381D1*
X223950D2*
X298167D1*
X326828D2*
X569727D1*
X598388D2*
X620001D1*
X696530D2*
X707484D1*
X11421Y729790D2*
X21146D1*
X95390D2*
X110573D1*
X222159D2*
X298167D1*
X326828D2*
X569727D1*
X598388D2*
X621147D1*
X695385D2*
X707484D1*
X11421Y725984D2*
X22738D1*
X93798D2*
X106768D1*
X221559D2*
X227823D1*
X247180D2*
X298167D1*
X326828D2*
X569727D1*
X598388D2*
X622739D1*
X693793D2*
X707484D1*
X11421Y722178D2*
X24844D1*
X91692D2*
X102961D1*
X220228D2*
X222201D1*
X252794D2*
X298167D1*
X326828D2*
X569727D1*
X598388D2*
X624845D1*
X691693D2*
X707484D1*
X11421Y718373D2*
X27566D1*
X88970D2*
X99155D1*
X256024D2*
X298167D1*
X326828D2*
X569727D1*
X598388D2*
X627560D1*
X688971D2*
X707484D1*
X11421Y714567D2*
X31088D1*
X85448D2*
X95349D1*
X214446D2*
X216944D1*
X258054D2*
X297404D1*
X327597D2*
X569727D1*
X598388D2*
X631089D1*
X685449D2*
X707484D1*
X11421Y710761D2*
X35802D1*
X80734D2*
X91542D1*
X207871D2*
X215765D1*
X259230D2*
X293598D1*
X598388D2*
X635803D1*
X680736D2*
X707484D1*
X11421Y706955D2*
X42776D1*
X73760D2*
X88043D1*
X199451D2*
X215304D1*
X259692D2*
X289793D1*
X598388D2*
X642777D1*
X673761D2*
X707484D1*
X11421Y703150D2*
X86175D1*
X199451D2*
X215520D1*
X259483D2*
X285986D1*
X598388D2*
X707484D1*
X11421Y699344D2*
X85537D1*
X199451D2*
X216420D1*
X258584D2*
X282180D1*
X598388D2*
X707484D1*
X11421Y695538D2*
X85537D1*
X199451D2*
X218104D1*
X256892D2*
X278374D1*
X598490D2*
X707484D1*
X11421Y691732D2*
X85537D1*
X199451D2*
X220825D1*
X254171D2*
X275159D1*
X598705D2*
X707484D1*
X11421Y687927D2*
X85537D1*
X199451D2*
X223171D1*
X251832D2*
X273583D1*
X310972D2*
X314029D1*
X598928D2*
X707484D1*
X11421Y684121D2*
X85537D1*
X199451D2*
X223171D1*
X251832D2*
X273168D1*
X307165D2*
X319151D1*
X599151D2*
X707484D1*
X11421Y680315D2*
X46820D1*
X69715D2*
X85537D1*
X199451D2*
X223171D1*
X251832D2*
X273168D1*
X303360D2*
X387025D1*
X412980D2*
X570657D1*
X599366D2*
X646822D1*
X669709D2*
X707484D1*
X11421Y676509D2*
X38070D1*
X78466D2*
X85537D1*
X210686D2*
X214312D1*
X260690D2*
X264310D1*
X310688D2*
X382888D1*
X460686D2*
X464312D1*
X510690D2*
X514310D1*
X560688D2*
X564314D1*
X610692D2*
X638063D1*
X678467D2*
X707484D1*
X11421Y672703D2*
X32702D1*
X210686D2*
X214312D1*
X260690D2*
X264310D1*
X310688D2*
X380328D1*
X460686D2*
X464312D1*
X510690D2*
X514310D1*
X560688D2*
X564314D1*
X610692D2*
X632705D1*
X683835D2*
X707484D1*
X11421Y668898D2*
X28789D1*
X210686D2*
X214312D1*
X260690D2*
X264310D1*
X310688D2*
X378752D1*
X460686D2*
X464312D1*
X510690D2*
X514310D1*
X560688D2*
X564314D1*
X610692D2*
X628790D1*
X687740D2*
X707484D1*
X11421Y665092D2*
X25798D1*
X210686D2*
X214312D1*
X260690D2*
X264310D1*
X310688D2*
X377951D1*
X460686D2*
X464312D1*
X510690D2*
X514310D1*
X560688D2*
X564314D1*
X610692D2*
X625791D1*
X690740D2*
X707484D1*
X11421Y661286D2*
X23475D1*
X210686D2*
X214312D1*
X260690D2*
X264310D1*
X310688D2*
X377829D1*
X460686D2*
X464312D1*
X510690D2*
X514310D1*
X560688D2*
X564314D1*
X610692D2*
X623469D1*
X693062D2*
X707484D1*
X11421Y657480D2*
X21699D1*
X210686D2*
X214312D1*
X260690D2*
X264310D1*
X310688D2*
X378383D1*
X460686D2*
X464312D1*
X510690D2*
X514310D1*
X560688D2*
X564314D1*
X610692D2*
X621701D1*
X694839D2*
X707484D1*
X11421Y653675D2*
X20391D1*
X210686D2*
X214312D1*
X260690D2*
X264310D1*
X310688D2*
X379659D1*
X460686D2*
X464312D1*
X510690D2*
X514310D1*
X560688D2*
X564314D1*
X610692D2*
X620386D1*
X696146D2*
X707484D1*
X11421Y649869D2*
X19500D1*
X210686D2*
X214312D1*
X260690D2*
X264310D1*
X310688D2*
X381828D1*
X460686D2*
X464312D1*
X510690D2*
X514310D1*
X560688D2*
X564314D1*
X610692D2*
X619501D1*
X697037D2*
X707484D1*
X11421Y646063D2*
X19000D1*
X210686D2*
X214312D1*
X260690D2*
X264310D1*
X310688D2*
X385273D1*
X460686D2*
X464312D1*
X510690D2*
X514310D1*
X560688D2*
X564314D1*
X610692D2*
X619001D1*
X697537D2*
X707484D1*
X11421Y642257D2*
X18877D1*
X210686D2*
X214312D1*
X260690D2*
X264310D1*
X310688D2*
X386602D1*
X460686D2*
X464312D1*
X510690D2*
X514310D1*
X560688D2*
X564314D1*
X610692D2*
X618878D1*
X697652D2*
X707484D1*
X11421Y638451D2*
X19131D1*
X210686D2*
X214312D1*
X260690D2*
X264310D1*
X310688D2*
X386602D1*
X460686D2*
X464312D1*
X510690D2*
X514310D1*
X560688D2*
X564314D1*
X610692D2*
X619133D1*
X697407D2*
X707484D1*
X11421Y634646D2*
X19761D1*
X210686D2*
X214312D1*
X260690D2*
X264310D1*
X310688D2*
X386602D1*
X460686D2*
X464312D1*
X510690D2*
X514310D1*
X560688D2*
X564314D1*
X610692D2*
X619762D1*
X696776D2*
X707484D1*
X11421Y630840D2*
X20791D1*
X210686D2*
X214312D1*
X260690D2*
X264310D1*
X310688D2*
X386602D1*
X460686D2*
X464312D1*
X510690D2*
X514310D1*
X560688D2*
X564314D1*
X610692D2*
X620793D1*
X695745D2*
X707484D1*
X11421Y627034D2*
X22252D1*
X210686D2*
X214312D1*
X260690D2*
X264310D1*
X310688D2*
X386602D1*
X460686D2*
X464312D1*
X510690D2*
X514310D1*
X560688D2*
X564314D1*
X610692D2*
X622255D1*
X694285D2*
X707484D1*
X11421Y623228D2*
X24206D1*
X210686D2*
X214312D1*
X260690D2*
X264310D1*
X310688D2*
X386602D1*
X460686D2*
X464312D1*
X510690D2*
X514310D1*
X560688D2*
X564314D1*
X610692D2*
X624207D1*
X692331D2*
X707484D1*
X11421Y619423D2*
X26743D1*
X210686D2*
X214312D1*
X260690D2*
X264310D1*
X310688D2*
X386602D1*
X460686D2*
X464312D1*
X510690D2*
X514310D1*
X560688D2*
X564314D1*
X610692D2*
X626744D1*
X689794D2*
X707484D1*
X11421Y615617D2*
X30018D1*
X210686D2*
X214312D1*
X260690D2*
X264310D1*
X310688D2*
X386602D1*
X460686D2*
X464312D1*
X510690D2*
X514310D1*
X560688D2*
X564314D1*
X610692D2*
X630021D1*
X686518D2*
X707484D1*
X11421Y611811D2*
X34348D1*
X82188D2*
X85537D1*
X210686D2*
X214312D1*
X260690D2*
X264310D1*
X310688D2*
X386602D1*
X460686D2*
X464312D1*
X510690D2*
X514310D1*
X560688D2*
X564314D1*
X610692D2*
X634343D1*
X682189D2*
X707484D1*
X11421Y608005D2*
X40484D1*
X76051D2*
X85537D1*
X210686D2*
X214312D1*
X260690D2*
X264310D1*
X310688D2*
X386602D1*
X460686D2*
X464312D1*
X510690D2*
X514310D1*
X560688D2*
X564314D1*
X610692D2*
X640486D1*
X676052D2*
X707484D1*
X11421Y604199D2*
X53156D1*
X63379D2*
X85537D1*
X210686D2*
X214312D1*
X260690D2*
X264310D1*
X310688D2*
X386602D1*
X460686D2*
X464312D1*
X510690D2*
X514310D1*
X560688D2*
X564314D1*
X610692D2*
X653157D1*
X663381D2*
X707484D1*
X11421Y600394D2*
X85537D1*
X210686D2*
X214312D1*
X260690D2*
X264310D1*
X310688D2*
X386602D1*
X460686D2*
X464312D1*
X510690D2*
X514310D1*
X560688D2*
X564314D1*
X610692D2*
X707484D1*
X11421Y596588D2*
X85537D1*
X202896D2*
X223171D1*
X251832D2*
X386602D1*
X413396D2*
X422105D1*
X452896D2*
X472109D1*
X502894D2*
X525037D1*
X553698D2*
X573172D1*
X601833D2*
X707484D1*
X11421Y592782D2*
X85537D1*
X202896D2*
X223171D1*
X251832D2*
X386602D1*
X413396D2*
X422105D1*
X452896D2*
X472109D1*
X502894D2*
X525037D1*
X553698D2*
X573172D1*
X601833D2*
X707484D1*
X11421Y588976D2*
X85537D1*
X202896D2*
X223171D1*
X251832D2*
X386602D1*
X413396D2*
X422105D1*
X452896D2*
X472109D1*
X502894D2*
X525037D1*
X553698D2*
X573172D1*
X601833D2*
X707484D1*
X11421Y585171D2*
X85537D1*
X205726D2*
X223171D1*
X251832D2*
X386602D1*
X413396D2*
X422105D1*
X452896D2*
X472109D1*
X502894D2*
X525037D1*
X553698D2*
X573172D1*
X601833D2*
X707484D1*
X11421Y581365D2*
X51357D1*
X65178D2*
X85614D1*
X209533D2*
X223171D1*
X251832D2*
X386602D1*
X413396D2*
X422105D1*
X452896D2*
X472109D1*
X504478D2*
X525037D1*
X553698D2*
X573172D1*
X604194D2*
X651358D1*
X665180D2*
X707484D1*
X11421Y577559D2*
X39969D1*
X76567D2*
X86559D1*
X213339D2*
X223171D1*
X251832D2*
X386602D1*
X413396D2*
X422105D1*
X452896D2*
X472109D1*
X508283D2*
X525037D1*
X553698D2*
X573172D1*
X608001D2*
X639963D1*
X676568D2*
X707484D1*
X11421Y573753D2*
X34003D1*
X82533D2*
X88882D1*
X217146D2*
X223171D1*
X251832D2*
X386602D1*
X413396D2*
X422105D1*
X452896D2*
X472409D1*
X512091D2*
X525037D1*
X553698D2*
X573818D1*
X611807D2*
X634004D1*
X682535D2*
X707484D1*
X11421Y569948D2*
X29765D1*
X86770D2*
X92626D1*
X219959D2*
X223171D1*
X252909D2*
X386602D1*
X413396D2*
X422105D1*
X452896D2*
X473732D1*
X515896D2*
X525037D1*
X553698D2*
X575702D1*
X615613D2*
X629766D1*
X686772D2*
X707484D1*
X11421Y566142D2*
X26543D1*
X89992D2*
X96433D1*
X323652D2*
X386602D1*
X413396D2*
X422105D1*
X452896D2*
X476484D1*
X519234D2*
X525037D1*
X553698D2*
X579209D1*
X619420D2*
X626545D1*
X689986D2*
X707484D1*
X11421Y562336D2*
X24052D1*
X92483D2*
X100239D1*
X329450D2*
X386602D1*
X413396D2*
X422105D1*
X452896D2*
X480291D1*
X521003D2*
X525037D1*
X553698D2*
X583014D1*
X692478D2*
X707484D1*
X11421Y558530D2*
X22138D1*
X94398D2*
X104046D1*
X221643D2*
X224900D1*
X331919D2*
X386602D1*
X413396D2*
X422105D1*
X452896D2*
X484097D1*
X521633D2*
X525037D1*
X553698D2*
X586822D1*
X694400D2*
X707484D1*
X11421Y554724D2*
X20707D1*
X95828D2*
X107852D1*
X221643D2*
X227930D1*
X332971D2*
X386602D1*
X413396D2*
X422105D1*
X452896D2*
X487904D1*
X521648D2*
X525037D1*
X553698D2*
X590627D1*
X695829D2*
X707484D1*
X11421Y550919D2*
X19707D1*
X96828D2*
X111657D1*
X221643D2*
X231736D1*
X333079D2*
X386602D1*
X413396D2*
X422105D1*
X452896D2*
X490857D1*
X521648D2*
X525037D1*
X553698D2*
X594433D1*
X696829D2*
X707484D1*
X11421Y547113D2*
X19100D1*
X97436D2*
X116349D1*
X333079D2*
X386602D1*
X413396D2*
X422105D1*
X452896D2*
X474201D1*
X697437D2*
X707484D1*
X11421Y543307D2*
X18877D1*
X97659D2*
X131504D1*
X333079D2*
X386602D1*
X413396D2*
X422105D1*
X452896D2*
X474201D1*
X697660D2*
X707484D1*
X11421Y539501D2*
X19024D1*
X97512D2*
X127068D1*
X238299D2*
X241134D1*
X333079D2*
X386602D1*
X413396D2*
X422105D1*
X455496D2*
X474201D1*
X697514D2*
X707484D1*
X11421Y535696D2*
X19546D1*
X96990D2*
X124345D1*
X238299D2*
X241134D1*
X333079D2*
X386602D1*
X413396D2*
X422105D1*
X459302D2*
X474201D1*
X696991D2*
X707484D1*
X11421Y531890D2*
X20461D1*
X96075D2*
X122661D1*
X238299D2*
X241134D1*
X333079D2*
X386602D1*
X413396D2*
X422651D1*
X696068D2*
X707484D1*
X11421Y528084D2*
X21807D1*
X94728D2*
X121762D1*
X238299D2*
X241134D1*
X333079D2*
X386602D1*
X413396D2*
X424297D1*
X694731D2*
X707484D1*
X11421Y524278D2*
X23614D1*
X92921D2*
X121554D1*
X238299D2*
X241134D1*
X333079D2*
X386602D1*
X413396D2*
X427503D1*
X692924D2*
X707484D1*
X11421Y520472D2*
X25974D1*
X90562D2*
X122024D1*
X238299D2*
X241134D1*
X333079D2*
X386602D1*
X413396D2*
X431310D1*
X690555D2*
X707484D1*
X11421Y516667D2*
X29028D1*
X87508D2*
X123199D1*
X238299D2*
X241134D1*
X333079D2*
X386602D1*
X413396D2*
X435115D1*
X687510D2*
X707484D1*
X11421Y512861D2*
X33018D1*
X83517D2*
X124108D1*
X238299D2*
X241134D1*
X333079D2*
X386602D1*
X415618D2*
X438921D1*
X628501D2*
X633020D1*
X683520D2*
X707484D1*
X11421Y509055D2*
X38516D1*
X78020D2*
X124108D1*
X238299D2*
X241134D1*
X334686D2*
X386626D1*
X419417D2*
X442728D1*
X628501D2*
X638517D1*
X678013D2*
X707484D1*
X11421Y505249D2*
X47751D1*
X68785D2*
X124108D1*
X238299D2*
X241134D1*
X337677D2*
X387387D1*
X423223D2*
X447703D1*
X628501D2*
X647752D1*
X668778D2*
X707484D1*
X11421Y501444D2*
X124108D1*
X238299D2*
X241134D1*
X339554D2*
X389563D1*
X427029D2*
X474201D1*
X628501D2*
X707484D1*
X11421Y497638D2*
X124108D1*
X238299D2*
X241134D1*
X340608D2*
X393277D1*
X430836D2*
X474201D1*
X628501D2*
X707484D1*
X11421Y493832D2*
X124108D1*
X238299D2*
X241134D1*
X340953D2*
X397084D1*
X434642D2*
X474201D1*
X628501D2*
X707484D1*
X11421Y490026D2*
X124108D1*
X238299D2*
X241134D1*
X340638D2*
X400890D1*
X438448D2*
X474201D1*
X628501D2*
X707484D1*
X11421Y486220D2*
X124108D1*
X237745D2*
X297890D1*
X339615D2*
X404696D1*
X442255D2*
X490911D1*
X568139D2*
X599840D1*
X628501D2*
X707484D1*
X11421Y482415D2*
X124108D1*
X241551D2*
X299727D1*
X337778D2*
X408503D1*
X446060D2*
X491748D1*
X571945D2*
X599840D1*
X628501D2*
X707484D1*
X11421Y478609D2*
X42160D1*
X74375D2*
X124108D1*
X245358D2*
X302656D1*
X334840D2*
X412308D1*
X449206D2*
X493778D1*
X575228D2*
X599840D1*
X628501D2*
X642163D1*
X674369D2*
X707484D1*
X11421Y474803D2*
X35425D1*
X81110D2*
X124108D1*
X201728D2*
X205954D1*
X249126D2*
X307555D1*
X329950D2*
X416114D1*
X450629D2*
X497339D1*
X576866D2*
X599840D1*
X628501D2*
X635427D1*
X681113D2*
X707484D1*
X11421Y470997D2*
X30811D1*
X85724D2*
X124108D1*
X201828D2*
X209760D1*
X251579D2*
X419921D1*
X450898D2*
X501144D1*
X577320D2*
X599840D1*
X628501D2*
X630812D1*
X685726D2*
X707484D1*
X11421Y467192D2*
X27350D1*
X89185D2*
X124108D1*
X201828D2*
X213567D1*
X252709D2*
X423727D1*
X450898D2*
X504951D1*
X577320D2*
X599840D1*
X689186D2*
X707484D1*
X11421Y463386D2*
X24682D1*
X91853D2*
X114311D1*
X210686D2*
X214312D1*
X260690D2*
X264310D1*
X310688D2*
X414308D1*
X460686D2*
X464312D1*
X691854D2*
X707484D1*
X11421Y459580D2*
X22614D1*
X93921D2*
X114311D1*
X210686D2*
X214312D1*
X260690D2*
X264310D1*
X310688D2*
X414308D1*
X460686D2*
X464312D1*
X693923D2*
X707484D1*
X11421Y455774D2*
X21052D1*
X95483D2*
X114311D1*
X210686D2*
X214312D1*
X260690D2*
X264310D1*
X310688D2*
X414308D1*
X460686D2*
X464312D1*
X510690D2*
X514310D1*
X695476D2*
X707484D1*
X11421Y451969D2*
X19938D1*
X96597D2*
X114311D1*
X210686D2*
X214312D1*
X260690D2*
X264310D1*
X310688D2*
X414308D1*
X460686D2*
X464312D1*
X510690D2*
X514310D1*
X696598D2*
X707484D1*
X11421Y448163D2*
X19231D1*
X97304D2*
X114311D1*
X210686D2*
X214312D1*
X260690D2*
X264310D1*
X310688D2*
X414308D1*
X460686D2*
X464312D1*
X510690D2*
X514310D1*
X697306D2*
X707484D1*
X11421Y444357D2*
X18900D1*
X97635D2*
X114311D1*
X210686D2*
X214312D1*
X260690D2*
X264310D1*
X310688D2*
X414308D1*
X460686D2*
X464312D1*
X510690D2*
X514310D1*
X697636D2*
X707484D1*
X11421Y440551D2*
X18946D1*
X97589D2*
X114311D1*
X210686D2*
X214312D1*
X260690D2*
X264310D1*
X310688D2*
X414308D1*
X460686D2*
X464312D1*
X510690D2*
X514310D1*
X697591D2*
X707484D1*
X11421Y436745D2*
X19361D1*
X97175D2*
X114311D1*
X210686D2*
X214312D1*
X260690D2*
X264310D1*
X310688D2*
X414308D1*
X460686D2*
X464312D1*
X510690D2*
X514310D1*
X697168D2*
X707484D1*
X11421Y432940D2*
X20169D1*
X96366D2*
X114311D1*
X210686D2*
X214312D1*
X260690D2*
X264310D1*
X310688D2*
X414308D1*
X460686D2*
X464312D1*
X510690D2*
X514310D1*
X696369D2*
X707484D1*
X11421Y429134D2*
X21391D1*
X95144D2*
X114311D1*
X210686D2*
X214312D1*
X260690D2*
X264310D1*
X310688D2*
X414308D1*
X460686D2*
X464312D1*
X510690D2*
X514310D1*
X695146D2*
X707484D1*
X11421Y425328D2*
X23060D1*
X93475D2*
X114311D1*
X210686D2*
X214312D1*
X260690D2*
X264310D1*
X310688D2*
X414308D1*
X460686D2*
X464312D1*
X510690D2*
X514310D1*
X693470D2*
X707484D1*
X11421Y421522D2*
X25266D1*
X91269D2*
X114311D1*
X210686D2*
X214312D1*
X260690D2*
X264310D1*
X310688D2*
X414308D1*
X460686D2*
X464312D1*
X510690D2*
X514310D1*
X691270D2*
X707484D1*
X11421Y417717D2*
X28104D1*
X88432D2*
X114311D1*
X210686D2*
X214312D1*
X260690D2*
X264310D1*
X310688D2*
X414308D1*
X460686D2*
X464312D1*
X510690D2*
X514310D1*
X688433D2*
X707484D1*
X11421Y413911D2*
X31803D1*
X84732D2*
X114311D1*
X210686D2*
X214312D1*
X260690D2*
X264310D1*
X310688D2*
X414308D1*
X460686D2*
X464312D1*
X510690D2*
X514310D1*
X628501D2*
X631797D1*
X684734D2*
X707484D1*
X11421Y410105D2*
X36786D1*
X79749D2*
X114311D1*
X210686D2*
X214312D1*
X260690D2*
X264310D1*
X310688D2*
X414308D1*
X460686D2*
X464312D1*
X510690D2*
X514310D1*
X628501D2*
X636787D1*
X679744D2*
X707484D1*
X11421Y406299D2*
X44445D1*
X72091D2*
X88543D1*
X111454D2*
X114311D1*
X210686D2*
X214312D1*
X260690D2*
X264310D1*
X310688D2*
X414308D1*
X460686D2*
X464312D1*
X510690D2*
X514310D1*
X628501D2*
X644446D1*
X672093D2*
X707484D1*
X11421Y402493D2*
X83768D1*
X210686D2*
X214312D1*
X260690D2*
X264310D1*
X310688D2*
X414308D1*
X460686D2*
X464312D1*
X510690D2*
X514310D1*
X628501D2*
X707484D1*
X11421Y398688D2*
X80885D1*
X210686D2*
X214312D1*
X260690D2*
X264310D1*
X310688D2*
X414308D1*
X460686D2*
X464312D1*
X510690D2*
X514310D1*
X628501D2*
X707484D1*
X11421Y394882D2*
X79085D1*
X210686D2*
X214312D1*
X260690D2*
X264310D1*
X310688D2*
X414308D1*
X460686D2*
X464312D1*
X510690D2*
X514310D1*
X628501D2*
X707484D1*
X11421Y391076D2*
X78093D1*
X210686D2*
X214312D1*
X260690D2*
X264310D1*
X310688D2*
X414308D1*
X460686D2*
X464312D1*
X510690D2*
X514310D1*
X628501D2*
X707484D1*
X11421Y387270D2*
X77794D1*
X210686D2*
X214312D1*
X260690D2*
X264310D1*
X310688D2*
X414308D1*
X460686D2*
X464312D1*
X510690D2*
X514310D1*
X628501D2*
X707484D1*
X11421Y383465D2*
X78171D1*
X201828D2*
X473171D1*
X501832D2*
X521207D1*
X577320D2*
X599840D1*
X628501D2*
X707484D1*
X11421Y379659D2*
X44806D1*
X71730D2*
X79255D1*
X201828D2*
X473171D1*
X501832D2*
X521207D1*
X577320D2*
X599840D1*
X628501D2*
X644807D1*
X671731D2*
X707484D1*
X11421Y375853D2*
X36993D1*
X201828D2*
X473171D1*
X501832D2*
X521207D1*
X577320D2*
X599840D1*
X628501D2*
X636995D1*
X679543D2*
X707484D1*
X11421Y372047D2*
X31949D1*
X201828D2*
X470417D1*
X501832D2*
X521207D1*
X577320D2*
X598101D1*
X628501D2*
X631950D1*
X684588D2*
X707484D1*
X11421Y368241D2*
X28219D1*
X201828D2*
X466612D1*
X501810D2*
X521207D1*
X577320D2*
X594303D1*
X688318D2*
X707484D1*
X11421Y364436D2*
X25352D1*
X201828D2*
X463136D1*
X501055D2*
X521207D1*
X577320D2*
X590496D1*
X691185D2*
X707484D1*
X11421Y360630D2*
X23129D1*
X201828D2*
X461290D1*
X499018D2*
X521207D1*
X577320D2*
X586690D1*
X693408D2*
X707484D1*
X11421Y356824D2*
X21437D1*
X201828D2*
X460676D1*
X495404D2*
X521207D1*
X577320D2*
X582885D1*
X695100D2*
X707484D1*
X11421Y353018D2*
X20207D1*
X201828D2*
X460668D1*
X491597D2*
X521207D1*
X696329D2*
X707484D1*
X11421Y349213D2*
X19385D1*
X204650D2*
X460668D1*
X489329D2*
X521207D1*
X697152D2*
X707484D1*
X11421Y345407D2*
X18954D1*
X208457D2*
X458014D1*
X491990D2*
X521207D1*
X697583D2*
X707484D1*
X11421Y341601D2*
X18900D1*
X494589D2*
X521207D1*
X697636D2*
X707484D1*
X11421Y337795D2*
X19207D1*
X496196D2*
X521207D1*
X697322D2*
X707484D1*
X11421Y333990D2*
X19907D1*
X497034D2*
X521207D1*
X696630D2*
X707484D1*
X11421Y330184D2*
X21007D1*
X497180D2*
X518976D1*
X695522D2*
X707484D1*
X11421Y326378D2*
X22552D1*
X496650D2*
X515171D1*
X693984D2*
X707484D1*
X11421Y322572D2*
X24598D1*
X495404D2*
X511365D1*
X691940D2*
X707484D1*
X11421Y318766D2*
X27251D1*
X493282D2*
X507558D1*
X689286D2*
X707484D1*
X11421Y314961D2*
X30680D1*
X685857D2*
X707484D1*
X11421Y311155D2*
X35240D1*
X81295D2*
X84606D1*
X543163D2*
X548659D1*
X681297D2*
X707484D1*
X11421Y307349D2*
X41869D1*
X74667D2*
X84606D1*
X539357D2*
X548659D1*
X635967D2*
X641870D1*
X674668D2*
X707484D1*
X11421Y303543D2*
X85007D1*
X535551D2*
X545644D1*
X636375D2*
X707484D1*
X11421Y299738D2*
X86467D1*
X531744D2*
X541837D1*
X636106D2*
X707484D1*
X11421Y295932D2*
X89436D1*
X527938D2*
X538031D1*
X635152D2*
X707484D1*
X11421Y292126D2*
X93241D1*
X524131D2*
X534224D1*
X633383D2*
X707484D1*
X11421Y288320D2*
X97049D1*
X520202D2*
X530419D1*
X630562D2*
X707484D1*
X11421Y284514D2*
X100854D1*
X174146D2*
X231276D1*
X317547D2*
X422105D1*
X455927D2*
X468664D1*
X499449D2*
X526651D1*
X628501D2*
X707484D1*
X11421Y280709D2*
X48259D1*
X68277D2*
X104660D1*
X170346D2*
X226346D1*
X322576D2*
X422105D1*
X452896D2*
X468664D1*
X499449D2*
X524260D1*
X628501D2*
X648252D1*
X668278D2*
X707484D1*
X11421Y276903D2*
X38755D1*
X77781D2*
X108459D1*
X166541D2*
X224117D1*
X326382D2*
X422105D1*
X452896D2*
X468664D1*
X499449D2*
X523260D1*
X628501D2*
X638748D1*
X677783D2*
X707484D1*
X11421Y273097D2*
X33180D1*
X83356D2*
X112265D1*
X162735D2*
X223224D1*
X330180D2*
X422105D1*
X452896D2*
X468664D1*
X499449D2*
X523168D1*
X628501D2*
X633181D1*
X683358D2*
X707484D1*
X11421Y269291D2*
X29150D1*
X87386D2*
X116072D1*
X158928D2*
X223171D1*
X333987D2*
X422105D1*
X452896D2*
X468664D1*
X499449D2*
X523168D1*
X687387D2*
X707484D1*
X11421Y265486D2*
X26067D1*
X90469D2*
X119878D1*
X155122D2*
X223171D1*
X337770D2*
X422105D1*
X452896D2*
X468664D1*
X499449D2*
X523168D1*
X690463D2*
X707484D1*
X11421Y261680D2*
X23682D1*
X92853D2*
X122108D1*
X152892D2*
X223171D1*
X340239D2*
X422105D1*
X452896D2*
X468664D1*
X499449D2*
X523168D1*
X692846D2*
X707484D1*
X11421Y257874D2*
X21861D1*
X94675D2*
X122108D1*
X152892D2*
X223171D1*
X251832D2*
X305202D1*
X341291D2*
X422105D1*
X452896D2*
X468664D1*
X499449D2*
X523168D1*
X694677D2*
X707484D1*
X11421Y254068D2*
X20507D1*
X96029D2*
X122108D1*
X152892D2*
X223171D1*
X251832D2*
X309008D1*
X341399D2*
X422105D1*
X452896D2*
X468664D1*
X499449D2*
X523168D1*
X696030D2*
X707484D1*
X11421Y250262D2*
X19570D1*
X96966D2*
X114311D1*
X160689D2*
X164308D1*
X210686D2*
X214312D1*
X260690D2*
X264310D1*
X310688D2*
X312741D1*
X341399D2*
X414308D1*
X460686D2*
X464312D1*
X510690D2*
X514310D1*
X696961D2*
X707484D1*
X11421Y246457D2*
X19038D1*
X97497D2*
X114311D1*
X160689D2*
X164308D1*
X210686D2*
X214312D1*
X260690D2*
X264310D1*
X310688D2*
X312741D1*
X341399D2*
X414308D1*
X460686D2*
X464312D1*
X510690D2*
X514310D1*
X697499D2*
X707484D1*
X11421Y242651D2*
X18877D1*
X97659D2*
X114311D1*
X160689D2*
X164308D1*
X210686D2*
X214312D1*
X260690D2*
X264310D1*
X310688D2*
X312741D1*
X341399D2*
X414308D1*
X460686D2*
X464312D1*
X510690D2*
X514310D1*
X697660D2*
X707484D1*
X11421Y238845D2*
X19084D1*
X97451D2*
X114311D1*
X160689D2*
X164308D1*
X210686D2*
X214312D1*
X260690D2*
X264310D1*
X310688D2*
X312741D1*
X341399D2*
X414308D1*
X460686D2*
X464312D1*
X510690D2*
X514310D1*
X697453D2*
X707484D1*
X11421Y235039D2*
X19677D1*
X96858D2*
X114311D1*
X160689D2*
X164308D1*
X210686D2*
X214312D1*
X260690D2*
X264310D1*
X310688D2*
X312741D1*
X341399D2*
X414308D1*
X460686D2*
X464312D1*
X510690D2*
X514310D1*
X696861D2*
X707484D1*
X11421Y231234D2*
X20661D1*
X95874D2*
X114311D1*
X160689D2*
X164308D1*
X210686D2*
X214312D1*
X260690D2*
X264310D1*
X310688D2*
X312741D1*
X341399D2*
X414308D1*
X460686D2*
X464312D1*
X510690D2*
X514310D1*
X695869D2*
X707484D1*
X11421Y227428D2*
X22084D1*
X94451D2*
X114311D1*
X210686D2*
X214312D1*
X260690D2*
X264310D1*
X310688D2*
X312741D1*
X341399D2*
X414308D1*
X460686D2*
X464312D1*
X510690D2*
X514310D1*
X694454D2*
X707484D1*
X11421Y223622D2*
X23983D1*
X92552D2*
X114311D1*
X210686D2*
X214312D1*
X260690D2*
X264310D1*
X310688D2*
X312741D1*
X341399D2*
X414308D1*
X460686D2*
X464312D1*
X510690D2*
X514310D1*
X692554D2*
X707484D1*
X11421Y219816D2*
X26451D1*
X90084D2*
X114311D1*
X210686D2*
X214312D1*
X260690D2*
X264310D1*
X310688D2*
X312741D1*
X341399D2*
X414308D1*
X460686D2*
X464312D1*
X510690D2*
X514310D1*
X690087D2*
X707484D1*
X11421Y216010D2*
X29642D1*
X86894D2*
X114311D1*
X210686D2*
X214312D1*
X260690D2*
X264310D1*
X310688D2*
X312741D1*
X341399D2*
X414308D1*
X460686D2*
X464312D1*
X510690D2*
X514310D1*
X686895D2*
X707484D1*
X11421Y212205D2*
X33833D1*
X82702D2*
X114311D1*
X210686D2*
X214312D1*
X260690D2*
X264310D1*
X310688D2*
X312741D1*
X341399D2*
X414308D1*
X460686D2*
X464312D1*
X510690D2*
X514310D1*
X628501D2*
X633835D1*
X682705D2*
X707484D1*
X11421Y208399D2*
X39715D1*
X76820D2*
X114311D1*
X210686D2*
X214312D1*
X260690D2*
X264310D1*
X310688D2*
X312741D1*
X341399D2*
X414308D1*
X460686D2*
X464312D1*
X510690D2*
X514310D1*
X628501D2*
X639717D1*
X676822D2*
X707484D1*
X11421Y204593D2*
X50627D1*
X65908D2*
X114311D1*
X210686D2*
X214312D1*
X260690D2*
X264310D1*
X310688D2*
X312741D1*
X341399D2*
X414308D1*
X460686D2*
X464312D1*
X510690D2*
X514310D1*
X628501D2*
X650621D1*
X665911D2*
X707484D1*
X11421Y200787D2*
X114311D1*
X210686D2*
X214312D1*
X260690D2*
X264310D1*
X310688D2*
X312741D1*
X341399D2*
X414308D1*
X460686D2*
X464312D1*
X510690D2*
X514310D1*
X628501D2*
X707484D1*
X11421Y196982D2*
X114311D1*
X160689D2*
X164308D1*
X210686D2*
X214312D1*
X260690D2*
X264310D1*
X310688D2*
X312741D1*
X341399D2*
X414308D1*
X460686D2*
X464312D1*
X510690D2*
X514310D1*
X628501D2*
X707484D1*
X11421Y193176D2*
X114311D1*
X160689D2*
X164308D1*
X210686D2*
X214312D1*
X260690D2*
X264310D1*
X310688D2*
X312741D1*
X341399D2*
X414308D1*
X460686D2*
X464312D1*
X510690D2*
X514310D1*
X628501D2*
X707484D1*
X11421Y189370D2*
X114311D1*
X160689D2*
X164308D1*
X210686D2*
X214312D1*
X260690D2*
X264310D1*
X310688D2*
X312741D1*
X341399D2*
X414308D1*
X460686D2*
X464312D1*
X510690D2*
X514310D1*
X628501D2*
X707484D1*
X11421Y185564D2*
X114311D1*
X160689D2*
X164308D1*
X210686D2*
X214312D1*
X260690D2*
X264310D1*
X310688D2*
X312741D1*
X341399D2*
X414308D1*
X460686D2*
X464312D1*
X510690D2*
X514310D1*
X628501D2*
X707484D1*
X11421Y181759D2*
X54402D1*
X62134D2*
X114311D1*
X160689D2*
X164308D1*
X210686D2*
X214312D1*
X260690D2*
X264310D1*
X310688D2*
X312741D1*
X342776D2*
X414308D1*
X460686D2*
X464312D1*
X510690D2*
X514310D1*
X628501D2*
X654404D1*
X662135D2*
X707484D1*
X11421Y177953D2*
X40753D1*
X75782D2*
X114311D1*
X160689D2*
X164308D1*
X210686D2*
X214312D1*
X260690D2*
X264310D1*
X310688D2*
X312741D1*
X346583D2*
X414308D1*
X460686D2*
X464312D1*
X510690D2*
X514310D1*
X628501D2*
X640747D1*
X675783D2*
X707484D1*
X11421Y174147D2*
X34517D1*
X82018D2*
X114311D1*
X160689D2*
X164308D1*
X210686D2*
X214312D1*
X260690D2*
X264310D1*
X310688D2*
X313121D1*
X350388D2*
X414308D1*
X460686D2*
X464312D1*
X510690D2*
X514310D1*
X628501D2*
X634518D1*
X682020D2*
X707484D1*
X11421Y170341D2*
X30150D1*
X86386D2*
X168660D1*
X199451D2*
X214205D1*
X248295D2*
X273168D1*
X301829D2*
X314636D1*
X354194D2*
X513232D1*
X686387D2*
X707484D1*
X11421Y166535D2*
X26843D1*
X89693D2*
X168660D1*
X199451D2*
X211621D1*
X250879D2*
X273168D1*
X301829D2*
X317798D1*
X689694D2*
X707484D1*
X11421Y162730D2*
X24282D1*
X92253D2*
X168660D1*
X199451D2*
X210029D1*
X252471D2*
X273168D1*
X301829D2*
X321596D1*
X692255D2*
X707484D1*
X11421Y158924D2*
X22314D1*
X94222D2*
X168660D1*
X199451D2*
X209206D1*
X253294D2*
X273168D1*
X301829D2*
X325402D1*
X694223D2*
X707484D1*
X11421Y155118D2*
X20829D1*
X95706D2*
X168660D1*
X199451D2*
X209076D1*
X253424D2*
X273168D1*
X301829D2*
X329209D1*
X695699D2*
X707484D1*
X11421Y151312D2*
X19791D1*
X96744D2*
X168660D1*
X199451D2*
X209614D1*
X252886D2*
X273168D1*
X301829D2*
X333014D1*
X696745D2*
X707484D1*
X11421Y147507D2*
X19146D1*
X97390D2*
X168660D1*
X199451D2*
X210875D1*
X251625D2*
X273168D1*
X302521D2*
X336822D1*
X697391D2*
X707484D1*
X11421Y143701D2*
X18885D1*
X97651D2*
X168660D1*
X199451D2*
X213021D1*
X249479D2*
X273168D1*
X697652D2*
X707484D1*
X11421Y139895D2*
X18992D1*
X97543D2*
X168660D1*
X199451D2*
X216427D1*
X246073D2*
X273398D1*
X697545D2*
X707484D1*
X11421Y136089D2*
X19476D1*
X97059D2*
X168660D1*
X199451D2*
X222533D1*
X239967D2*
X274690D1*
X594383D2*
X599840D1*
X697060D2*
X707484D1*
X11421Y132283D2*
X20353D1*
X96182D2*
X168660D1*
X199451D2*
X277535D1*
X590576D2*
X599840D1*
X696184D2*
X707484D1*
X11421Y128478D2*
X21646D1*
X94890D2*
X168660D1*
X199451D2*
X281341D1*
X586770D2*
X599840D1*
X694892D2*
X707484D1*
X11421Y124672D2*
X23406D1*
X93130D2*
X168660D1*
X199451D2*
X285148D1*
X582965D2*
X599840D1*
X693131D2*
X707484D1*
X11421Y120866D2*
X25705D1*
X90831D2*
X168660D1*
X201920D2*
X288954D1*
X579157D2*
X599840D1*
X690832D2*
X707484D1*
X11421Y117060D2*
X28673D1*
X87862D2*
X168660D1*
X205726D2*
X294537D1*
X573575D2*
X599840D1*
X687864D2*
X707484D1*
X11421Y113255D2*
X32549D1*
X83987D2*
X169168D1*
X209533D2*
X599840D1*
X628501D2*
X632550D1*
X683988D2*
X707484D1*
X11421Y109449D2*
X37846D1*
X78689D2*
X170774D1*
X213339D2*
X599840D1*
X628501D2*
X637848D1*
X678690D2*
X707484D1*
X11421Y105643D2*
X46390D1*
X70146D2*
X173928D1*
X217146D2*
X599840D1*
X628501D2*
X646391D1*
X670147D2*
X707484D1*
X11421Y101837D2*
X177734D1*
X220951D2*
X599840D1*
X628501D2*
X707484D1*
X11421Y98031D2*
X181539D1*
X224757D2*
X599840D1*
X628501D2*
X707484D1*
X11421Y94226D2*
X185346D1*
X228564D2*
X599840D1*
X628501D2*
X707484D1*
X11421Y90420D2*
X189152D1*
X232370D2*
X599840D1*
X630862D2*
X707484D1*
X11421Y86614D2*
X192959D1*
X236177D2*
X599846D1*
X634668D2*
X707484D1*
X11421Y82808D2*
X196765D1*
X239983D2*
X600493D1*
X638474D2*
X707484D1*
X11421Y79003D2*
X43091D1*
X73445D2*
X143093D1*
X173446D2*
X200571D1*
X273448D2*
X343088D1*
X373449D2*
X443089D1*
X473442D2*
X543091D1*
X573445D2*
X602369D1*
X673446D2*
X707484D1*
X11421Y75197D2*
X35993D1*
X80542D2*
X135995D1*
X180543D2*
X204378D1*
X280545D2*
X335991D1*
X380539D2*
X435992D1*
X480541D2*
X535993D1*
X580542D2*
X605883D1*
X680543D2*
X707484D1*
X11421Y71391D2*
X31226D1*
X85310D2*
X131228D1*
X185311D2*
X208184D1*
X285304D2*
X331231D1*
X385306D2*
X431224D1*
X485307D2*
X531226D1*
X585310D2*
X609689D1*
X685311D2*
X707484D1*
X11421Y67585D2*
X27665D1*
X88870D2*
X127668D1*
X188864D2*
X211991D1*
X288865D2*
X327671D1*
X388866D2*
X427672D1*
X488867D2*
X527665D1*
X588870D2*
X613496D1*
X688864D2*
X707484D1*
X11421Y63780D2*
X24929D1*
X91606D2*
X124923D1*
X191609D2*
X215797D1*
X291610D2*
X324925D1*
X391612D2*
X424927D1*
X491613D2*
X524929D1*
X591606D2*
X617294D1*
X691609D2*
X707484D1*
X11421Y59974D2*
X22806D1*
X93730D2*
X122801D1*
X193731D2*
X219602D1*
X293732D2*
X322803D1*
X393734D2*
X422804D1*
X493735D2*
X522806D1*
X593730D2*
X621101D1*
X693731D2*
X707484D1*
X11421Y56168D2*
X21199D1*
X95336D2*
X121193D1*
X195337D2*
X221194D1*
X295340D2*
X321196D1*
X395341D2*
X421198D1*
X495343D2*
X521199D1*
X595336D2*
X621193D1*
X695337D2*
X707484D1*
X11421Y52362D2*
X20038D1*
X96497D2*
X120039D1*
X196499D2*
X220033D1*
X296500D2*
X320035D1*
X396503D2*
X420037D1*
X496496D2*
X520038D1*
X596497D2*
X620039D1*
X696499D2*
X707484D1*
X11421Y48556D2*
X19285D1*
X97251D2*
X119286D1*
X197252D2*
X219287D1*
X297255D2*
X319281D1*
X397248D2*
X419283D1*
X497249D2*
X519285D1*
X597251D2*
X619286D1*
X697252D2*
X707484D1*
X11421Y44751D2*
X18915D1*
X97621D2*
X118917D1*
X197622D2*
X218919D1*
X297615D2*
X318920D1*
X397617D2*
X418913D1*
X497618D2*
X518915D1*
X597621D2*
X618917D1*
X697622D2*
X707484D1*
X11421Y40945D2*
X18923D1*
X97613D2*
X118925D1*
X197614D2*
X218927D1*
X297615D2*
X318920D1*
X397609D2*
X418921D1*
X497610D2*
X518923D1*
X597613D2*
X618925D1*
X697614D2*
X707484D1*
X11421Y37139D2*
X19307D1*
X97228D2*
X119302D1*
X197230D2*
X219303D1*
X297231D2*
X319304D1*
X397232D2*
X419306D1*
X497234D2*
X519307D1*
X597228D2*
X619302D1*
X697230D2*
X707484D1*
X11421Y33333D2*
X20068D1*
X96467D2*
X120071D1*
X196469D2*
X220072D1*
X296470D2*
X320066D1*
X396463D2*
X420067D1*
X496465D2*
X520068D1*
X596467D2*
X620071D1*
X696469D2*
X707484D1*
X11421Y29528D2*
X21245D1*
X95290D2*
X121247D1*
X195291D2*
X221240D1*
X295293D2*
X321243D1*
X395295D2*
X421244D1*
X495289D2*
X521245D1*
X595290D2*
X621247D1*
X695291D2*
X707484D1*
X11421Y25722D2*
X22867D1*
X93668D2*
X122869D1*
X193669D2*
X222871D1*
X293671D2*
X322865D1*
X393664D2*
X422866D1*
X493667D2*
X522867D1*
X593668D2*
X622869D1*
X693669D2*
X707484D1*
X11421Y21916D2*
X25005D1*
X91530D2*
X125007D1*
X191524D2*
X225008D1*
X291525D2*
X325010D1*
X391528D2*
X425012D1*
X491529D2*
X525005D1*
X591530D2*
X625007D1*
X691524D2*
X707484D1*
X11421Y18110D2*
X27781D1*
X88755D2*
X127776D1*
X188756D2*
X227777D1*
X288757D2*
X327778D1*
X388759D2*
X427780D1*
X488760D2*
X527781D1*
X588755D2*
X627776D1*
X688756D2*
X707484D1*
X11744Y14304D2*
X31373D1*
X85163D2*
X131366D1*
X185165D2*
X231367D1*
X285167D2*
X331369D1*
X385168D2*
X431370D1*
X485169D2*
X531373D1*
X585163D2*
X631366D1*
X685165D2*
X707154D1*
X13398Y10499D2*
X36186D1*
X80349D2*
X136188D1*
X180352D2*
X236189D1*
X280345D2*
X336190D1*
X380346D2*
X436184D1*
X480348D2*
X536186D1*
X580349D2*
X636188D1*
X680352D2*
X705500D1*
X18911Y6693D2*
X43413D1*
X73122D2*
X143416D1*
X173123D2*
X243417D1*
X273125D2*
X343411D1*
X373118D2*
X443412D1*
X473119D2*
X543413D1*
X573122D2*
X643416D1*
X673123D2*
X699987D1*
X176566Y1385934D2*
X237904D1*
Y1326564D1*
X232169Y1326545D1*
X244232Y1314528D1*
X260295D1*
Y1235472D1*
X252507D1*
X252500Y1230270D1*
X447507Y1230276D1*
X447500Y1235469D1*
X414705Y1235472D1*
Y1314528D1*
X447500D1*
X447546Y1353441D1*
X447915Y1355765D1*
X448642Y1358004D1*
X449710Y1360101D1*
X451093Y1362005D1*
X454677Y1365655D1*
X456744Y1367656D1*
X458648Y1369039D1*
X460745Y1370108D1*
X462984Y1370835D1*
X465308Y1371203D1*
X470423Y1371249D1*
X474598D1*
X474597Y1385934D1*
X537904D1*
Y1326564D1*
X532169Y1326545D1*
X544232Y1314528D1*
X560295D1*
Y1235472D1*
X552505D1*
X552500Y1197083D1*
X554085Y1195416D1*
X555146Y1194071D1*
X556097Y1192647D1*
X556934Y1191152D1*
X557651Y1189597D1*
X558244Y1187991D1*
X558709Y1186343D1*
X559042Y1184663D1*
X559244Y1182962D1*
X559311Y1181251D1*
X559244Y1179539D1*
X559042Y1177839D1*
X558709Y1176159D1*
X558244Y1174510D1*
X557651Y1172904D1*
X556934Y1171349D1*
X556097Y1169854D1*
X555146Y1168430D1*
X554085Y1167085D1*
X552495Y1165433D1*
X552500Y1158159D1*
X562988Y1147673D1*
X569707Y1154319D1*
X571612Y1155703D1*
X573709Y1156772D1*
X575948Y1157499D1*
X578272Y1157867D1*
X583386Y1157913D1*
X622272D1*
X623904Y1161356D1*
X624878Y1163067D1*
X625937Y1164726D1*
X627079Y1166328D1*
X628301Y1167873D1*
X629597Y1169353D1*
X630969Y1170765D1*
X632408Y1172108D1*
X633913Y1173375D1*
X635482Y1174564D1*
X637108Y1175675D1*
X638787Y1176699D1*
X640517Y1177639D1*
X642291Y1178491D1*
X644108Y1179252D1*
X645958Y1179920D1*
X647841Y1180493D1*
X649751Y1180972D1*
X651681Y1181353D1*
X653630Y1181636D1*
X655589Y1181822D1*
X657555Y1181907D1*
X659524Y1181894D1*
X661488Y1181780D1*
X663446Y1181568D1*
X665390Y1181257D1*
X667315Y1180849D1*
X669218Y1180345D1*
X671092Y1179744D1*
X672934Y1179051D1*
X674739Y1178265D1*
X676501Y1177388D1*
X678217Y1176425D1*
X679882Y1175375D1*
X681492Y1174244D1*
X683043Y1173033D1*
X684531Y1171744D1*
X685953Y1170382D1*
X687303Y1168950D1*
X688580Y1167451D1*
X689780Y1165891D1*
X690899Y1164273D1*
X691934Y1162598D1*
X692886Y1160875D1*
X693748Y1159106D1*
X694520Y1157295D1*
X695198Y1155448D1*
X695783Y1153568D1*
X696274Y1151661D1*
X696667Y1149734D1*
X696962Y1147787D1*
X697159Y1145829D1*
X697268Y1142913D1*
X697218Y1140946D1*
X697070Y1138983D1*
X696822Y1137030D1*
X696475Y1135093D1*
X696033Y1133175D1*
X695493Y1131282D1*
X694858Y1129419D1*
X694131Y1127589D1*
X693312Y1125801D1*
X692404Y1124054D1*
X691409Y1122356D1*
X690329Y1120710D1*
X689169Y1119119D1*
X687929Y1117592D1*
X686614Y1116127D1*
X685226Y1114731D1*
X683770Y1113407D1*
X682249Y1112157D1*
X680667Y1110987D1*
X679028Y1109898D1*
X677335Y1108892D1*
X675594Y1107974D1*
X673810Y1107144D1*
X671984Y1106406D1*
X670126Y1105760D1*
X668236Y1105209D1*
X666320Y1104753D1*
X664386Y1104396D1*
X662434Y1104136D1*
X660472Y1103976D1*
X658505Y1103915D1*
X656537Y1103951D1*
X654573Y1104089D1*
X652619Y1104324D1*
X650680Y1104659D1*
X648760Y1105091D1*
X646864Y1105618D1*
X644996Y1106241D1*
X643163Y1106957D1*
X641367Y1107765D1*
X639615Y1108663D1*
X637912Y1109647D1*
X636260Y1110717D1*
X634663Y1111867D1*
X633127Y1113098D1*
X631655Y1114406D1*
X630251Y1115783D1*
X628917Y1117232D1*
X627659Y1118745D1*
X626478Y1120320D1*
X625379Y1121953D1*
X624364Y1123639D1*
X623434Y1125374D1*
X622280Y1127915D1*
X585656Y1127913D1*
X577990Y1120241D1*
X577992Y1101934D1*
X610295Y1101929D1*
Y1022874D1*
X601445D1*
X601437Y1008736D1*
X622356Y987812D1*
X623776Y986148D1*
X624919Y984283D1*
X625755Y982264D1*
X626265Y980136D1*
X626437Y977957D1*
Y965446D1*
X628301Y967873D1*
X629597Y969353D1*
X630969Y970765D1*
X632408Y972108D1*
X633913Y973375D1*
X635482Y974564D1*
X637108Y975675D1*
X638787Y976699D1*
X640517Y977639D1*
X642291Y978491D1*
X644108Y979252D1*
X645958Y979920D1*
X647841Y980493D1*
X649751Y980972D1*
X651681Y981353D1*
X653630Y981636D1*
X655589Y981822D1*
X657555Y981907D1*
X659524Y981894D1*
X661488Y981780D1*
X663446Y981568D1*
X665390Y981257D1*
X667315Y980849D1*
X669218Y980345D1*
X671092Y979744D1*
X672934Y979051D1*
X674739Y978265D1*
X676501Y977388D1*
X678217Y976425D1*
X679882Y975375D1*
X681492Y974244D1*
X683043Y973033D1*
X684531Y971744D1*
X685953Y970382D1*
X687303Y968950D1*
X688580Y967451D1*
X689780Y965891D1*
X690899Y964273D1*
X691934Y962598D1*
X692886Y960875D1*
X693748Y959106D1*
X694520Y957295D1*
X695198Y955448D1*
X695783Y953568D1*
X696274Y951661D1*
X696667Y949734D1*
X696962Y947787D1*
X697159Y945829D1*
X697268Y942913D1*
X697218Y940946D1*
X697070Y938983D1*
X696822Y937030D1*
X696475Y935093D1*
X696033Y933175D1*
X695493Y931282D1*
X694858Y929419D1*
X694131Y927589D1*
X693312Y925801D1*
X692404Y924054D1*
X691409Y922356D1*
X690329Y920710D1*
X689169Y919119D1*
X687929Y917592D1*
X686614Y916127D1*
X685226Y914731D1*
X683770Y913407D1*
X682249Y912157D1*
X680667Y910987D1*
X679028Y909898D1*
X677335Y908892D1*
X675594Y907974D1*
X673810Y907144D1*
X671984Y906406D1*
X670126Y905760D1*
X668236Y905209D1*
X666320Y904753D1*
X664386Y904396D1*
X662434Y904136D1*
X660472Y903976D1*
X658505Y903915D1*
X656537Y903951D1*
X654573Y904089D1*
X652619Y904324D1*
X650680Y904659D1*
X648760Y905091D1*
X646864Y905618D1*
X644996Y906241D1*
X643163Y906957D1*
X641367Y907765D1*
X639615Y908663D1*
X637912Y909647D1*
X636260Y910717D1*
X634663Y911867D1*
X633127Y913098D1*
X631655Y914406D1*
X630251Y915783D1*
X628917Y917232D1*
X627659Y918745D1*
X626440Y920378D1*
X626437Y865451D1*
X628301Y867873D1*
X629597Y869353D1*
X630969Y870765D1*
X632408Y872108D1*
X633913Y873375D1*
X635482Y874564D1*
X637108Y875675D1*
X638787Y876699D1*
X640517Y877639D1*
X642291Y878491D1*
X644108Y879252D1*
X645958Y879920D1*
X647841Y880493D1*
X649751Y880972D1*
X651681Y881353D1*
X653630Y881636D1*
X655589Y881822D1*
X657555Y881907D1*
X659524Y881894D1*
X661488Y881780D1*
X663446Y881568D1*
X665390Y881257D1*
X667315Y880849D1*
X669218Y880345D1*
X671092Y879744D1*
X672934Y879051D1*
X674739Y878265D1*
X676501Y877388D1*
X678217Y876425D1*
X679882Y875375D1*
X681492Y874244D1*
X683043Y873033D1*
X684531Y871744D1*
X685953Y870382D1*
X687303Y868950D1*
X688580Y867451D1*
X689780Y865891D1*
X690899Y864273D1*
X691934Y862598D1*
X692886Y860875D1*
X693748Y859106D1*
X694520Y857295D1*
X695198Y855448D1*
X695783Y853568D1*
X696274Y851661D1*
X696667Y849734D1*
X696962Y847787D1*
X697159Y845829D1*
X697268Y842913D1*
X697218Y840946D1*
X697070Y838983D1*
X696822Y837030D1*
X696475Y835093D1*
X696033Y833175D1*
X695493Y831282D1*
X694858Y829419D1*
X694131Y827589D1*
X693312Y825801D1*
X692404Y824054D1*
X691409Y822356D1*
X690329Y820710D1*
X689169Y819119D1*
X687929Y817592D1*
X686614Y816127D1*
X685226Y814731D1*
X683770Y813407D1*
X682249Y812157D1*
X680667Y810987D1*
X679028Y809898D1*
X677335Y808892D1*
X675594Y807974D1*
X673810Y807144D1*
X671984Y806406D1*
X670126Y805760D1*
X668236Y805209D1*
X666320Y804753D1*
X664386Y804396D1*
X662434Y804136D1*
X660472Y803976D1*
X658505Y803915D1*
X656537Y803951D1*
X654573Y804089D1*
X652619Y804324D1*
X650680Y804659D1*
X648760Y805091D1*
X646864Y805618D1*
X644996Y806241D1*
X643163Y806957D1*
X641367Y807765D1*
X639615Y808663D1*
X637912Y809647D1*
X636260Y810717D1*
X634663Y811867D1*
X633127Y813098D1*
X631655Y814406D1*
X630251Y815783D1*
X628917Y817232D1*
X627659Y818745D1*
X626440Y820378D1*
X626394Y801923D1*
X626052Y799762D1*
X625377Y797682D1*
X624383Y795734D1*
X623098Y793965D1*
X619571Y790377D1*
X597991Y768797D1*
X597992Y697266D1*
X599171Y676930D1*
X610295Y676929D1*
Y597874D1*
X601429D1*
X601437Y583736D1*
X623871Y561295D1*
X624878Y563067D1*
X625937Y564726D1*
X627079Y566328D1*
X628301Y567873D1*
X629597Y569353D1*
X630969Y570765D1*
X632408Y572108D1*
X633913Y573375D1*
X635482Y574564D1*
X637108Y575675D1*
X638787Y576699D1*
X640517Y577639D1*
X642291Y578491D1*
X644108Y579252D1*
X645958Y579920D1*
X647841Y580493D1*
X649751Y580972D1*
X651681Y581353D1*
X653630Y581636D1*
X655589Y581822D1*
X657555Y581907D1*
X659524Y581894D1*
X661488Y581780D1*
X663446Y581568D1*
X665390Y581257D1*
X667315Y580849D1*
X669218Y580345D1*
X671092Y579744D1*
X672934Y579051D1*
X674739Y578265D1*
X676501Y577388D1*
X678217Y576425D1*
X679882Y575375D1*
X681492Y574244D1*
X683043Y573033D1*
X684531Y571744D1*
X685953Y570382D1*
X687303Y568950D1*
X688580Y567451D1*
X689780Y565891D1*
X690899Y564273D1*
X691934Y562598D1*
X692886Y560875D1*
X693748Y559106D1*
X694520Y557295D1*
X695198Y555448D1*
X695783Y553568D1*
X696274Y551661D1*
X696667Y549734D1*
X696962Y547787D1*
X697159Y545829D1*
X697268Y542913D1*
X697218Y540946D1*
X697070Y538983D1*
X696822Y537030D1*
X696475Y535093D1*
X696033Y533175D1*
X695493Y531282D1*
X694858Y529419D1*
X694131Y527589D1*
X693312Y525801D1*
X692404Y524054D1*
X691409Y522356D1*
X690329Y520710D1*
X689169Y519119D1*
X687929Y517592D1*
X686614Y516127D1*
X685226Y514731D1*
X683770Y513407D1*
X682249Y512157D1*
X680667Y510987D1*
X679028Y509898D1*
X677335Y508892D1*
X675594Y507974D1*
X673810Y507144D1*
X671984Y506406D1*
X670126Y505760D1*
X668236Y505209D1*
X666320Y504753D1*
X664386Y504396D1*
X662434Y504136D1*
X660472Y503976D1*
X658505Y503915D1*
X656537Y503951D1*
X654573Y504089D1*
X652619Y504324D1*
X650680Y504659D1*
X648760Y505091D1*
X646864Y505618D1*
X644996Y506241D1*
X643163Y506957D1*
X641367Y507765D1*
X639615Y508663D1*
X637912Y509647D1*
X636260Y510717D1*
X634663Y511867D1*
X633127Y513098D1*
X631655Y514406D1*
X630251Y515783D1*
X628106Y518207D1*
X628110Y467646D1*
X629597Y469353D1*
X630969Y470765D1*
X632408Y472108D1*
X633913Y473375D1*
X635482Y474564D1*
X637108Y475675D1*
X638787Y476699D1*
X640517Y477639D1*
X642291Y478491D1*
X644108Y479252D1*
X645958Y479920D1*
X647841Y480493D1*
X649751Y480972D1*
X651681Y481353D1*
X653630Y481636D1*
X655589Y481822D1*
X657555Y481907D1*
X659524Y481894D1*
X661488Y481780D1*
X663446Y481568D1*
X665390Y481257D1*
X667315Y480849D1*
X669218Y480345D1*
X671092Y479744D1*
X672934Y479051D1*
X674739Y478265D1*
X676501Y477388D1*
X678217Y476425D1*
X679882Y475375D1*
X681492Y474244D1*
X683043Y473033D1*
X684531Y471744D1*
X685953Y470382D1*
X687303Y468950D1*
X688580Y467451D1*
X689780Y465891D1*
X690899Y464273D1*
X691934Y462598D1*
X692886Y460875D1*
X693748Y459106D1*
X694520Y457295D1*
X695198Y455448D1*
X695783Y453568D1*
X696274Y451661D1*
X696667Y449734D1*
X696962Y447787D1*
X697159Y445829D1*
X697268Y442913D1*
X697218Y440946D1*
X697070Y438983D1*
X696822Y437030D1*
X696475Y435093D1*
X696033Y433175D1*
X695493Y431282D1*
X694858Y429419D1*
X694131Y427589D1*
X693312Y425801D1*
X692404Y424054D1*
X691409Y422356D1*
X690329Y420710D1*
X689169Y419119D1*
X687929Y417592D1*
X686614Y416127D1*
X685226Y414731D1*
X683770Y413407D1*
X682249Y412157D1*
X680667Y410987D1*
X679028Y409898D1*
X677335Y408892D1*
X675594Y407974D1*
X673810Y407144D1*
X671984Y406406D1*
X670126Y405760D1*
X668236Y405209D1*
X666320Y404753D1*
X664386Y404396D1*
X662434Y404136D1*
X660472Y403976D1*
X658505Y403915D1*
X656537Y403951D1*
X654573Y404089D1*
X652619Y404324D1*
X650680Y404659D1*
X648760Y405091D1*
X646864Y405618D1*
X644996Y406241D1*
X643163Y406957D1*
X641367Y407765D1*
X639615Y408663D1*
X637912Y409647D1*
X636260Y410717D1*
X634663Y411867D1*
X633127Y413098D1*
X631655Y414406D1*
X630251Y415783D1*
X628106Y418207D1*
X628110Y368008D1*
X628301Y367873D1*
X629597Y369353D1*
X630969Y370765D1*
X632408Y372108D1*
X633913Y373375D1*
X635482Y374564D1*
X637108Y375675D1*
X638787Y376699D1*
X640517Y377639D1*
X642291Y378491D1*
X644108Y379252D1*
X645958Y379920D1*
X647841Y380493D1*
X649751Y380972D1*
X651681Y381353D1*
X653630Y381636D1*
X655589Y381822D1*
X657555Y381907D1*
X659524Y381894D1*
X661488Y381780D1*
X663446Y381568D1*
X665390Y381257D1*
X667315Y380849D1*
X669218Y380345D1*
X671092Y379744D1*
X672934Y379051D1*
X674739Y378265D1*
X676501Y377388D1*
X678217Y376425D1*
X679882Y375375D1*
X681492Y374244D1*
X683043Y373033D1*
X684531Y371744D1*
X685953Y370382D1*
X687303Y368950D1*
X688580Y367451D1*
X689780Y365891D1*
X690899Y364273D1*
X691934Y362598D1*
X692886Y360875D1*
X693748Y359106D1*
X694520Y357295D1*
X695198Y355448D1*
X695783Y353568D1*
X696274Y351661D1*
X696667Y349734D1*
X696962Y347787D1*
X697159Y345829D1*
X697268Y342913D1*
X697218Y340946D1*
X697070Y338983D1*
X696822Y337030D1*
X696475Y335093D1*
X696033Y333175D1*
X695493Y331282D1*
X694858Y329419D1*
X694131Y327589D1*
X693312Y325801D1*
X692404Y324054D1*
X691409Y322356D1*
X690329Y320710D1*
X689169Y319119D1*
X687929Y317592D1*
X686614Y316127D1*
X685226Y314731D1*
X683770Y313407D1*
X682249Y312157D1*
X680667Y310987D1*
X679028Y309898D1*
X677335Y308892D1*
X675594Y307974D1*
X673810Y307144D1*
X671984Y306406D1*
X670126Y305760D1*
X668236Y305209D1*
X666320Y304753D1*
X664386Y304396D1*
X662434Y304136D1*
X660472Y303976D1*
X658505Y303915D1*
X656537Y303951D1*
X654573Y304089D1*
X652619Y304324D1*
X650680Y304659D1*
X648760Y305091D1*
X646864Y305618D1*
X644996Y306241D1*
X643163Y306957D1*
X641367Y307765D1*
X639615Y308663D1*
X637912Y309647D1*
X636260Y310717D1*
X633877Y312497D1*
X634917Y309890D1*
X635382Y308241D1*
X635715Y306562D1*
X635917Y304861D1*
X635984Y303150D1*
X635917Y301438D1*
X635715Y299738D1*
X635382Y298058D1*
X634917Y296409D1*
X634324Y294803D1*
X633608Y293248D1*
X632770Y291753D1*
X631819Y290329D1*
X630759Y288984D1*
X629596Y287727D1*
X628113Y286386D1*
X628110Y267647D1*
X629597Y269353D1*
X630969Y270765D1*
X632408Y272108D1*
X633913Y273375D1*
X635482Y274564D1*
X637108Y275675D1*
X638787Y276699D1*
X640517Y277639D1*
X642291Y278491D1*
X644108Y279252D1*
X645958Y279920D1*
X647841Y280493D1*
X649751Y280972D1*
X651681Y281353D1*
X653630Y281636D1*
X655589Y281822D1*
X657555Y281907D1*
X659524Y281894D1*
X661488Y281780D1*
X663446Y281568D1*
X665390Y281257D1*
X667315Y280849D1*
X669218Y280345D1*
X671092Y279744D1*
X672934Y279051D1*
X674739Y278265D1*
X676501Y277388D1*
X678217Y276425D1*
X679882Y275375D1*
X681492Y274244D1*
X683043Y273033D1*
X684531Y271744D1*
X685953Y270382D1*
X687303Y268950D1*
X688580Y267451D1*
X689780Y265891D1*
X690899Y264273D1*
X691934Y262598D1*
X692886Y260875D1*
X693748Y259106D1*
X694520Y257295D1*
X695198Y255448D1*
X695783Y253568D1*
X696274Y251661D1*
X696667Y249734D1*
X696962Y247787D1*
X697159Y245829D1*
X697268Y242913D1*
X697218Y240946D1*
X697070Y238983D1*
X696822Y237030D1*
X696475Y235093D1*
X696033Y233175D1*
X695493Y231282D1*
X694858Y229419D1*
X694131Y227589D1*
X693312Y225801D1*
X692404Y224054D1*
X691409Y222356D1*
X690329Y220710D1*
X689169Y219119D1*
X687929Y217592D1*
X686614Y216127D1*
X685226Y214731D1*
X683770Y213407D1*
X682249Y212157D1*
X680667Y210987D1*
X679028Y209898D1*
X677335Y208892D1*
X675594Y207974D1*
X673810Y207144D1*
X671984Y206406D1*
X670126Y205760D1*
X668236Y205209D1*
X666320Y204753D1*
X664386Y204396D1*
X662434Y204136D1*
X660472Y203976D1*
X658505Y203915D1*
X656537Y203951D1*
X654573Y204089D1*
X652619Y204324D1*
X650680Y204659D1*
X648760Y205091D1*
X646864Y205618D1*
X644996Y206241D1*
X643163Y206957D1*
X641367Y207765D1*
X639615Y208663D1*
X637912Y209647D1*
X636260Y210717D1*
X634663Y211867D1*
X633127Y213098D1*
X631655Y214406D1*
X630251Y215783D1*
X628106Y218207D1*
X628110Y167638D1*
X629597Y169353D1*
X630969Y170765D1*
X632408Y172108D1*
X633913Y173375D1*
X635482Y174564D1*
X637108Y175675D1*
X638787Y176699D1*
X640517Y177639D1*
X642291Y178491D1*
X644108Y179252D1*
X645958Y179920D1*
X647841Y180493D1*
X649751Y180972D1*
X651681Y181353D1*
X653630Y181636D1*
X655589Y181822D1*
X657555Y181907D1*
X659524Y181894D1*
X661488Y181780D1*
X663446Y181568D1*
X665390Y181257D1*
X667315Y180849D1*
X669218Y180345D1*
X671092Y179744D1*
X672934Y179051D1*
X674739Y178265D1*
X676501Y177388D1*
X678217Y176425D1*
X679882Y175375D1*
X681492Y174244D1*
X683043Y173033D1*
X684531Y171744D1*
X685953Y170382D1*
X687303Y168950D1*
X688580Y167451D1*
X689780Y165891D1*
X690899Y164273D1*
X691934Y162598D1*
X692886Y160875D1*
X693748Y159106D1*
X694520Y157295D1*
X695198Y155448D1*
X695783Y153568D1*
X696274Y151661D1*
X696667Y149734D1*
X696962Y147787D1*
X697159Y145829D1*
X697268Y142913D1*
X697218Y140946D1*
X697070Y138983D1*
X696822Y137030D1*
X696475Y135093D1*
X696033Y133175D1*
X695493Y131282D1*
X694858Y129419D1*
X694131Y127589D1*
X693312Y125801D1*
X692404Y124054D1*
X691409Y122356D1*
X690329Y120710D1*
X689169Y119119D1*
X687929Y117592D1*
X686614Y116127D1*
X685226Y114731D1*
X683770Y113407D1*
X682249Y112157D1*
X680667Y110987D1*
X679028Y109898D1*
X677335Y108892D1*
X675594Y107974D1*
X673810Y107144D1*
X671984Y106406D1*
X670126Y105760D1*
X668236Y105209D1*
X666320Y104753D1*
X664386Y104396D1*
X662434Y104136D1*
X660472Y103976D1*
X658505Y103915D1*
X656537Y103951D1*
X654573Y104089D1*
X652619Y104324D1*
X650680Y104659D1*
X648760Y105091D1*
X646864Y105618D1*
X644996Y106241D1*
X643163Y106957D1*
X641367Y107765D1*
X639615Y108663D1*
X637912Y109647D1*
X636260Y110717D1*
X634663Y111867D1*
X633127Y113098D1*
X631655Y114406D1*
X630251Y115783D1*
X628106Y118207D1*
X628110Y92773D1*
X642369Y78524D1*
X645958Y79920D1*
X647841Y80493D1*
X649751Y80972D1*
X651681Y81353D1*
X653630Y81636D1*
X655589Y81822D1*
X657555Y81907D1*
X659524Y81894D1*
X661488Y81780D1*
X663446Y81568D1*
X665390Y81257D1*
X667315Y80849D1*
X669218Y80345D1*
X671092Y79744D1*
X672934Y79051D1*
X674739Y78265D1*
X676501Y77388D1*
X678217Y76425D1*
X679882Y75375D1*
X681492Y74244D1*
X683043Y73033D1*
X684531Y71744D1*
X685953Y70382D1*
X687303Y68950D1*
X688580Y67451D1*
X689780Y65891D1*
X690899Y64273D1*
X691934Y62598D1*
X692886Y60875D1*
X693748Y59106D1*
X694520Y57295D1*
X695198Y55448D1*
X695783Y53568D1*
X696274Y51661D1*
X696667Y49734D1*
X696962Y47787D1*
X697159Y45829D1*
X697268Y42913D1*
X697218Y40946D1*
X697070Y38983D1*
X696822Y37030D1*
X696475Y35093D1*
X696033Y33175D1*
X695493Y31282D1*
X694858Y29419D1*
X694131Y27589D1*
X693312Y25801D1*
X692404Y24054D1*
X691409Y22356D1*
X690329Y20710D1*
X689169Y19119D1*
X687929Y17592D1*
X686614Y16127D1*
X685226Y14731D1*
X683770Y13407D1*
X682249Y12157D1*
X680667Y10987D1*
X679028Y9898D1*
X677335Y8892D1*
X675594Y7974D1*
X673810Y7144D1*
X671672Y6297D1*
X697387Y6299D1*
X700556Y6717D1*
X702909Y7690D1*
X704930Y9240D1*
X706482Y11261D1*
X707457Y13614D1*
X707875Y16783D1*
X707874Y1377702D1*
X707457Y1380871D1*
X706483Y1383224D1*
X704930Y1385248D1*
X702913Y1386795D1*
X700560Y1387770D1*
X697391Y1388188D1*
X21510Y1388189D1*
X18341Y1387772D1*
X15988Y1386798D1*
X13967Y1385248D1*
X12417Y1383227D1*
X11442Y1380874D1*
X11025Y1377698D1*
X11024Y16786D1*
X11441Y13617D1*
X12415Y11264D1*
X13966Y9243D1*
X15987Y7692D1*
X18339Y6717D1*
X21513Y6299D1*
X44841D1*
X41367Y7765D1*
X39615Y8663D1*
X37912Y9647D1*
X36260Y10717D1*
X34663Y11867D1*
X33127Y13098D1*
X31655Y14406D1*
X30251Y15783D1*
X28917Y17232D1*
X27659Y18745D1*
X26478Y20320D1*
X25379Y21953D1*
X24364Y23639D1*
X23434Y25374D1*
X22593Y27155D1*
X21844Y28974D1*
X21186Y30829D1*
X20625Y32717D1*
X20157Y34629D1*
X19789Y36562D1*
X19517Y38510D1*
X19344Y40471D1*
X19270Y42438D1*
X19297Y44407D1*
X19421Y46371D1*
X19646Y48327D1*
X19967Y50268D1*
X20387Y52192D1*
X20904Y54091D1*
X21516Y55962D1*
X22220Y57799D1*
X23017Y59598D1*
X23904Y61356D1*
X24878Y63067D1*
X25937Y64726D1*
X27079Y66328D1*
X28301Y67873D1*
X29597Y69353D1*
X30969Y70765D1*
X32408Y72108D1*
X33913Y73375D1*
X35482Y74564D1*
X37108Y75675D1*
X38787Y76699D1*
X40517Y77639D1*
X42291Y78491D1*
X44108Y79252D1*
X45958Y79920D1*
X47841Y80493D1*
X49751Y80972D1*
X51681Y81353D1*
X53630Y81636D1*
X55589Y81822D1*
X57555Y81907D1*
X59524Y81894D1*
X61488Y81780D1*
X63446Y81568D1*
X65390Y81257D1*
X67315Y80849D1*
X69218Y80345D1*
X71092Y79744D1*
X72934Y79051D1*
X74739Y78265D1*
X76501Y77388D1*
X78217Y76425D1*
X79882Y75375D1*
X81492Y74244D1*
X83043Y73033D1*
X84531Y71744D1*
X85953Y70382D1*
X87303Y68950D1*
X88580Y67451D1*
X89780Y65891D1*
X90899Y64273D1*
X91934Y62598D1*
X92886Y60875D1*
X93748Y59106D1*
X94520Y57295D1*
X95198Y55448D1*
X95783Y53568D1*
X96274Y51661D1*
X96667Y49734D1*
X96962Y47787D1*
X97159Y45829D1*
X97268Y42913D1*
X97218Y40946D1*
X97070Y38983D1*
X96822Y37030D1*
X96475Y35093D1*
X96033Y33175D1*
X95493Y31282D1*
X94858Y29419D1*
X94131Y27589D1*
X93312Y25801D1*
X92404Y24054D1*
X91409Y22356D1*
X90329Y20710D1*
X89169Y19119D1*
X87929Y17592D1*
X86614Y16127D1*
X85226Y14731D1*
X83770Y13407D1*
X82249Y12157D1*
X80667Y10987D1*
X79028Y9898D1*
X77335Y8892D1*
X75594Y7974D1*
X73810Y7144D1*
X71672Y6297D1*
X144836Y6299D1*
X141367Y7765D1*
X139615Y8663D1*
X137912Y9647D1*
X136260Y10717D1*
X134663Y11867D1*
X133127Y13098D1*
X131655Y14406D1*
X130251Y15783D1*
X128917Y17232D1*
X127659Y18745D1*
X126478Y20320D1*
X125379Y21953D1*
X124364Y23639D1*
X123434Y25374D1*
X122593Y27155D1*
X121844Y28974D1*
X121186Y30829D1*
X120625Y32717D1*
X120157Y34629D1*
X119789Y36562D1*
X119517Y38510D1*
X119344Y40471D1*
X119270Y42438D1*
X119297Y44407D1*
X119421Y46371D1*
X119646Y48327D1*
X119967Y50268D1*
X120387Y52192D1*
X120904Y54091D1*
X121516Y55962D1*
X122220Y57799D1*
X123017Y59598D1*
X123904Y61356D1*
X124878Y63067D1*
X125937Y64726D1*
X127079Y66328D1*
X128301Y67873D1*
X129597Y69353D1*
X130969Y70765D1*
X132408Y72108D1*
X133913Y73375D1*
X135482Y74564D1*
X137108Y75675D1*
X138787Y76699D1*
X140517Y77639D1*
X142291Y78491D1*
X144108Y79252D1*
X145958Y79920D1*
X147841Y80493D1*
X149751Y80972D1*
X151681Y81353D1*
X153630Y81636D1*
X155589Y81822D1*
X157555Y81907D1*
X159524Y81894D1*
X161488Y81780D1*
X163446Y81568D1*
X165390Y81257D1*
X167315Y80849D1*
X169218Y80345D1*
X171092Y79744D1*
X172934Y79051D1*
X174739Y78265D1*
X176501Y77388D1*
X178217Y76425D1*
X179882Y75375D1*
X181492Y74244D1*
X183043Y73033D1*
X184531Y71744D1*
X185953Y70382D1*
X187303Y68950D1*
X188580Y67451D1*
X189780Y65891D1*
X190899Y64273D1*
X191934Y62598D1*
X192886Y60875D1*
X193748Y59106D1*
X194520Y57295D1*
X195198Y55448D1*
X195783Y53568D1*
X196274Y51661D1*
X196667Y49734D1*
X196962Y47787D1*
X197159Y45829D1*
X197268Y42913D1*
X197218Y40946D1*
X197070Y38983D1*
X196822Y37030D1*
X196475Y35093D1*
X196033Y33175D1*
X195493Y31282D1*
X194858Y29419D1*
X194131Y27589D1*
X193312Y25801D1*
X192404Y24054D1*
X191409Y22356D1*
X190329Y20710D1*
X189169Y19119D1*
X187929Y17592D1*
X186614Y16127D1*
X185226Y14731D1*
X183770Y13407D1*
X182249Y12157D1*
X180667Y10987D1*
X179028Y9898D1*
X177335Y8892D1*
X175594Y7974D1*
X173810Y7144D1*
X171672Y6297D1*
X244829Y6299D1*
X241367Y7765D1*
X239615Y8663D1*
X237912Y9647D1*
X236260Y10717D1*
X234663Y11867D1*
X233127Y13098D1*
X231655Y14406D1*
X230251Y15783D1*
X228917Y17232D1*
X227659Y18745D1*
X226478Y20320D1*
X225379Y21953D1*
X224364Y23639D1*
X223434Y25374D1*
X222593Y27155D1*
X221844Y28974D1*
X221186Y30829D1*
X220625Y32717D1*
X220157Y34629D1*
X219789Y36562D1*
X219517Y38510D1*
X219344Y40471D1*
X219270Y42438D1*
X219297Y44407D1*
X219421Y46371D1*
X219646Y48327D1*
X219967Y50268D1*
X220387Y52192D1*
X220904Y54091D1*
X222206Y57764D1*
X173449Y106520D1*
X171920Y108310D1*
X170690Y110316D1*
X169789Y112491D1*
X169240Y114780D1*
X169055Y117131D1*
Y172867D1*
X164705Y172874D1*
Y197995D1*
X160302Y197992D1*
X160295Y172874D1*
X114705D1*
Y251929D1*
X122495D1*
X122500Y263252D1*
X89394Y296366D1*
X87865Y298156D1*
X86635Y300163D1*
X85734Y302337D1*
X85185Y304626D1*
X85000Y306978D1*
Y314516D1*
X82249Y312157D1*
X80667Y310987D1*
X79028Y309898D1*
X77335Y308892D1*
X75594Y307974D1*
X73810Y307144D1*
X71984Y306406D1*
X70126Y305760D1*
X68236Y305209D1*
X66320Y304753D1*
X64386Y304396D1*
X62434Y304136D1*
X60472Y303976D1*
X58505Y303915D1*
X56537Y303951D1*
X54573Y304089D1*
X52619Y304324D1*
X50680Y304659D1*
X48760Y305091D1*
X46864Y305618D1*
X44996Y306241D1*
X43163Y306957D1*
X41367Y307765D1*
X39615Y308663D1*
X37912Y309647D1*
X36260Y310717D1*
X34663Y311867D1*
X33127Y313098D1*
X31655Y314406D1*
X30251Y315783D1*
X28917Y317232D1*
X27659Y318745D1*
X26478Y320320D1*
X25379Y321953D1*
X24364Y323639D1*
X23434Y325374D1*
X22593Y327155D1*
X21844Y328974D1*
X21186Y330829D1*
X20625Y332717D1*
X20157Y334629D1*
X19789Y336562D1*
X19517Y338510D1*
X19344Y340471D1*
X19270Y342438D1*
X19297Y344407D1*
X19421Y346371D1*
X19646Y348327D1*
X19967Y350268D1*
X20387Y352192D1*
X20904Y354091D1*
X21516Y355962D1*
X22220Y357799D1*
X23017Y359598D1*
X23904Y361356D1*
X24878Y363067D1*
X25937Y364726D1*
X27079Y366328D1*
X28301Y367873D1*
X29597Y369353D1*
X30969Y370765D1*
X32408Y372108D1*
X33913Y373375D1*
X35482Y374564D1*
X37108Y375675D1*
X38787Y376699D1*
X40517Y377639D1*
X42291Y378491D1*
X44108Y379252D1*
X45958Y379920D1*
X47841Y380493D1*
X49751Y380972D1*
X51681Y381353D1*
X53630Y381636D1*
X55589Y381822D1*
X57555Y381907D1*
X59524Y381894D1*
X61488Y381780D1*
X63446Y381568D1*
X65390Y381257D1*
X67315Y380849D1*
X69218Y380345D1*
X71092Y379744D1*
X72934Y379051D1*
X74739Y378265D1*
X76501Y377388D1*
X78217Y376425D1*
X79882Y375375D1*
X81492Y374244D1*
X83043Y373033D1*
X85004Y371291D1*
X84577Y372077D1*
X83415Y373335D1*
X82354Y374680D1*
X81403Y376104D1*
X80566Y377598D1*
X79849Y379154D1*
X79256Y380760D1*
X78791Y382408D1*
X78458Y384088D1*
X78256Y385789D1*
X78189Y387500D1*
X78256Y389211D1*
X78458Y390912D1*
X78791Y392592D1*
X79256Y394240D1*
X79849Y395846D1*
X80566Y397402D1*
X81403Y398896D1*
X82354Y400320D1*
X83415Y401665D1*
X84577Y402923D1*
X85835Y404085D1*
X87180Y405146D1*
X88604Y406097D1*
X90098Y406934D1*
X91654Y407651D1*
X93260Y408244D1*
X94908Y408709D1*
X96588Y409042D1*
X98289Y409244D1*
X100000Y409311D1*
X101711Y409244D1*
X103412Y409042D1*
X105092Y408709D1*
X106740Y408244D1*
X108346Y407651D1*
X109902Y406934D1*
X111396Y406097D1*
X112820Y405146D1*
X114701Y403591D1*
X114705Y464528D1*
X124493D1*
X124500Y514744D1*
X123600Y516654D1*
X123007Y518260D1*
X122542Y519908D1*
X122209Y521588D1*
X122007Y523289D1*
X121940Y525000D1*
X122007Y526711D1*
X122209Y528412D1*
X122542Y530092D1*
X123007Y531740D1*
X123600Y533346D1*
X124316Y534902D1*
X125154Y536396D1*
X126105Y537820D1*
X127165Y539165D1*
X128328Y540423D1*
X129585Y541585D1*
X130930Y542646D1*
X132354Y543597D1*
X133849Y544434D1*
X135404Y545151D1*
X136377Y545509D1*
X122135Y545555D1*
X119975Y545896D1*
X117895Y546572D1*
X115946Y547566D1*
X114177Y548850D1*
X110589Y552378D1*
X89268Y573760D1*
X87983Y575529D1*
X86990Y577478D1*
X86314Y579558D1*
X85972Y581718D1*
X85929Y586748D1*
Y615423D1*
X83770Y613407D1*
X82249Y612157D1*
X80667Y610987D1*
X79028Y609898D1*
X77335Y608892D1*
X75594Y607974D1*
X73810Y607144D1*
X71984Y606406D1*
X70126Y605760D1*
X68236Y605209D1*
X66320Y604753D1*
X64386Y604396D1*
X62434Y604136D1*
X60472Y603976D1*
X58505Y603915D1*
X56537Y603951D1*
X54573Y604089D1*
X52619Y604324D1*
X50680Y604659D1*
X48760Y605091D1*
X46864Y605618D1*
X44996Y606241D1*
X43163Y606957D1*
X41367Y607765D1*
X39615Y608663D1*
X37912Y609647D1*
X36260Y610717D1*
X34663Y611867D1*
X33127Y613098D1*
X31655Y614406D1*
X30251Y615783D1*
X28917Y617232D1*
X27659Y618745D1*
X26478Y620320D1*
X25379Y621953D1*
X24364Y623639D1*
X23434Y625374D1*
X22593Y627155D1*
X21844Y628974D1*
X21186Y630829D1*
X20625Y632717D1*
X20157Y634629D1*
X19789Y636562D1*
X19517Y638510D1*
X19344Y640471D1*
X19270Y642438D1*
X19297Y644407D1*
X19421Y646371D1*
X19646Y648327D1*
X19967Y650268D1*
X20387Y652192D1*
X20904Y654091D1*
X21516Y655962D1*
X22220Y657799D1*
X23017Y659598D1*
X23904Y661356D1*
X24878Y663067D1*
X25937Y664726D1*
X27079Y666328D1*
X28301Y667873D1*
X29597Y669353D1*
X30969Y670765D1*
X32408Y672108D1*
X33913Y673375D1*
X35482Y674564D1*
X37108Y675675D1*
X38787Y676699D1*
X40517Y677639D1*
X42291Y678491D1*
X44108Y679252D1*
X45958Y679920D1*
X47841Y680493D1*
X49751Y680972D1*
X51681Y681353D1*
X53630Y681636D1*
X55589Y681822D1*
X57555Y681907D1*
X59524Y681894D1*
X61488Y681780D1*
X63446Y681568D1*
X65390Y681257D1*
X67315Y680849D1*
X69218Y680345D1*
X71092Y679744D1*
X72934Y679051D1*
X74739Y678265D1*
X76501Y677388D1*
X78217Y676425D1*
X79882Y675375D1*
X81492Y674244D1*
X83043Y673033D1*
X85925Y670408D1*
X85929Y698980D1*
X86101Y701160D1*
X86612Y703287D1*
X87448Y705307D1*
X88591Y707172D1*
X90014Y708839D1*
X125791Y744555D1*
X127560Y745840D1*
X129513Y746835D1*
X129539Y747007D1*
X127839Y747209D1*
X126159Y747542D1*
X124510Y748007D1*
X122904Y748600D1*
X121349Y749316D1*
X119854Y750154D1*
X118430Y751105D1*
X117085Y752165D1*
X115828Y753328D1*
X114665Y754585D1*
X113605Y755930D1*
X112654Y757354D1*
X111816Y758849D1*
X111100Y760404D1*
X110507Y762010D1*
X110042Y763659D1*
X109709Y765339D1*
X109507Y767039D1*
X109440Y768751D1*
X109507Y770462D1*
X109709Y772163D1*
X110042Y773843D1*
X110507Y775491D1*
X111100Y777097D1*
X111816Y778652D1*
X112654Y780147D1*
X113605Y781571D1*
X114665Y782916D1*
X115828Y784173D1*
X117085Y785336D1*
X118247Y786251D1*
X118251Y810466D1*
X114705Y810472D1*
Y889528D1*
X160295D1*
Y810472D1*
X144248D1*
X144251Y786262D1*
X145416Y785336D1*
X146673Y784173D1*
X147836Y782916D1*
X148896Y781571D1*
X149848Y780147D1*
X150685Y778652D1*
X151402Y777097D1*
X151995Y775491D1*
X152459Y773843D1*
X152793Y772163D1*
X152995Y770462D1*
X153062Y768751D1*
X152995Y767039D1*
X152793Y765339D1*
X152459Y763659D1*
X151995Y762010D1*
X151402Y760404D1*
X150685Y758849D1*
X149848Y757354D1*
X148896Y755930D1*
X147836Y754585D1*
X146673Y753328D1*
X145416Y752165D1*
X144071Y751105D1*
X142647Y750154D1*
X141152Y749316D1*
X139597Y748600D1*
X137585Y747892D1*
X153290Y747894D1*
X173564Y768176D1*
X173563Y810469D1*
X164705Y810472D1*
Y889528D1*
X173555D1*
X173563Y896437D1*
X90010Y979983D1*
X88591Y981647D1*
X87448Y983512D1*
X86612Y985531D1*
X86101Y987659D1*
X85929Y989843D1*
Y1015421D1*
X83770Y1013407D1*
X82249Y1012157D1*
X80667Y1010987D1*
X79028Y1009898D1*
X77335Y1008892D1*
X75594Y1007974D1*
X73810Y1007144D1*
X71984Y1006406D1*
X70126Y1005760D1*
X68236Y1005209D1*
X66320Y1004753D1*
X64386Y1004396D1*
X62434Y1004136D1*
X60472Y1003976D1*
X58505Y1003915D1*
X56537Y1003951D1*
X54573Y1004089D1*
X52619Y1004324D1*
X50680Y1004659D1*
X48760Y1005091D1*
X46864Y1005618D1*
X44996Y1006241D1*
X43163Y1006957D1*
X41367Y1007765D1*
X39615Y1008663D1*
X37912Y1009647D1*
X36260Y1010717D1*
X34663Y1011867D1*
X33127Y1013098D1*
X31655Y1014406D1*
X30251Y1015783D1*
X28917Y1017232D1*
X27659Y1018745D1*
X26478Y1020320D1*
X25379Y1021953D1*
X24364Y1023639D1*
X23434Y1025374D1*
X22593Y1027155D1*
X21844Y1028974D1*
X21186Y1030829D1*
X20625Y1032717D1*
X20157Y1034629D1*
X19789Y1036562D1*
X19517Y1038510D1*
X19344Y1040471D1*
X19270Y1042438D1*
X19297Y1044407D1*
X19421Y1046371D1*
X19646Y1048327D1*
X19967Y1050268D1*
X20387Y1052192D1*
X20904Y1054091D1*
X21516Y1055962D1*
X22220Y1057799D1*
X23017Y1059598D1*
X23904Y1061356D1*
X24878Y1063067D1*
X25937Y1064726D1*
X27079Y1066328D1*
X28301Y1067873D1*
X29597Y1069353D1*
X30969Y1070765D1*
X32408Y1072108D1*
X33913Y1073375D1*
X35482Y1074564D1*
X37108Y1075675D1*
X38787Y1076699D1*
X40517Y1077639D1*
X42291Y1078491D1*
X44108Y1079252D1*
X45958Y1079920D1*
X47841Y1080493D1*
X49751Y1080972D1*
X51681Y1081353D1*
X53630Y1081636D1*
X55589Y1081822D1*
X57555Y1081907D1*
X59524Y1081894D1*
X61488Y1081780D1*
X63446Y1081568D1*
X65390Y1081257D1*
X67315Y1080849D1*
X69218Y1080345D1*
X71092Y1079744D1*
X72934Y1079051D1*
X74739Y1078265D1*
X76501Y1077388D1*
X78217Y1076425D1*
X79882Y1075375D1*
X81492Y1074244D1*
X83043Y1073033D1*
X85925Y1070408D1*
X85929Y1106106D1*
X86101Y1108286D1*
X86612Y1110413D1*
X87448Y1112433D1*
X88591Y1114298D1*
X90014Y1115965D1*
X106563Y1132453D1*
X108332Y1133738D1*
X110281Y1134731D1*
X112361Y1135407D1*
X114521Y1135748D1*
X119551Y1135791D1*
X190886D1*
X193735Y1138642D1*
X193740Y1181726D1*
X176902Y1198626D1*
X175617Y1200395D1*
X174623Y1202344D1*
X173948Y1204424D1*
X173606Y1206584D1*
X173563Y1211614D1*
Y1235475D1*
X164705Y1235472D1*
Y1314528D1*
X201760D1*
X194845Y1321508D1*
X193461Y1323412D1*
X192391Y1325513D1*
X190660Y1326564D1*
X174597D1*
Y1385934D1*
X176566D1*
X241920D2*
X304833D1*
Y1326564D1*
X241526D1*
Y1385934D1*
X241920D1*
X221249Y548436D2*
X234613D1*
X226902Y556205D1*
X225617Y557974D1*
X224623Y559923D1*
X223948Y562003D1*
X223606Y564163D1*
X223563Y569193D1*
Y597867D1*
X214705Y597874D1*
Y676929D1*
X223555D1*
X223563Y689467D1*
X222077Y690827D1*
X220915Y692084D1*
X219854Y693429D1*
X218903Y694853D1*
X218066Y696348D1*
X217349Y697903D1*
X216756Y699509D1*
X216291Y701157D1*
X215958Y702837D1*
X215756Y704538D1*
X215689Y706249D1*
X215756Y707961D1*
X215958Y709661D1*
X216291Y711341D1*
X216756Y712990D1*
X217349Y714596D1*
X218066Y716151D1*
X218903Y717646D1*
X219854Y719070D1*
X220915Y720415D1*
X222077Y721672D1*
X223335Y722835D1*
X224680Y723895D1*
X226104Y724846D1*
X227598Y725684D1*
X229154Y726400D1*
X230760Y726993D1*
X232408Y727458D1*
X234088Y727791D1*
X235789Y727993D1*
X237500Y728060D1*
X239211Y727993D1*
X240912Y727791D1*
X242592Y727458D1*
X244240Y726993D1*
X245846Y726400D1*
X247402Y725684D1*
X248896Y724846D1*
X250320Y723895D1*
X251665Y722835D1*
X252923Y721672D1*
X254085Y720415D1*
X255146Y719070D1*
X256097Y717646D1*
X256934Y716151D1*
X257651Y714596D1*
X258244Y712990D1*
X258709Y711341D1*
X259042Y709661D1*
X259244Y707961D1*
X259311Y706249D1*
X259244Y704538D1*
X259042Y702837D1*
X258709Y701157D1*
X258244Y699509D1*
X257651Y697903D1*
X256934Y696348D1*
X256097Y694853D1*
X255146Y693429D1*
X254085Y692084D1*
X252923Y690827D1*
X251440Y689486D1*
X251437Y676929D1*
X260295D1*
Y597874D1*
X251429D1*
X251437Y571034D1*
X255571Y566895D1*
X318751Y566890D1*
X320930Y566718D1*
X323058Y566207D1*
X325077Y565371D1*
X326942Y564228D1*
X328606Y562808D1*
X330026Y561144D1*
X331169Y559280D1*
X332005Y557260D1*
X332516Y555133D1*
X332688Y552949D1*
Y510530D1*
X334173Y509173D1*
X335336Y507916D1*
X336396Y506571D1*
X337348Y505147D1*
X338185Y503652D1*
X338902Y502097D1*
X339495Y500491D1*
X339959Y498843D1*
X340293Y497163D1*
X340495Y495462D1*
X340562Y493751D1*
X340495Y492039D1*
X340293Y490339D1*
X339959Y488659D1*
X339495Y487010D1*
X338902Y485404D1*
X338185Y483849D1*
X337348Y482354D1*
X336396Y480930D1*
X335336Y479585D1*
X334173Y478328D1*
X332916Y477165D1*
X331571Y476105D1*
X330147Y475154D1*
X328652Y474316D1*
X327097Y473600D1*
X325491Y473007D1*
X323843Y472542D1*
X322163Y472209D1*
X320462Y472007D1*
X318751Y471940D1*
X317039Y472007D1*
X315339Y472209D1*
X313659Y472542D1*
X312010Y473007D1*
X310404Y473600D1*
X308849Y474316D1*
X307354Y475154D1*
X305930Y476105D1*
X304585Y477165D1*
X303328Y478328D1*
X302165Y479585D1*
X301105Y480930D1*
X300154Y482354D1*
X299316Y483849D1*
X298600Y485404D1*
X298007Y487010D1*
X297463Y489059D1*
X241526Y489066D1*
Y541740D1*
X239948Y543097D1*
X237909Y545136D1*
X237904Y489066D1*
X234513D1*
X248106Y475469D1*
X249635Y473678D1*
X250865Y471672D1*
X251766Y469497D1*
X252315Y467209D1*
X252500Y464857D1*
X254075Y464528D1*
X260295D1*
Y385472D1*
X214705D1*
Y464528D1*
X216619D1*
X194845Y486370D1*
X193459Y488278D1*
X192629Y489066D1*
X191283D1*
X198098Y482185D1*
X199383Y480416D1*
X200377Y478467D1*
X201052Y476387D1*
X201394Y474227D1*
X201437Y469197D1*
Y464529D1*
X210295Y464528D1*
Y385472D1*
X201445D1*
X201437Y352034D1*
X208278Y345192D1*
X458223Y345188D1*
X459577Y346673D1*
X461060Y348014D1*
X461106Y357617D1*
X461448Y359777D1*
X462123Y361857D1*
X463117Y363806D1*
X464402Y365575D1*
X467929Y369163D1*
X473567Y374801D1*
X473563Y385471D1*
X464705Y385472D1*
Y464528D1*
X508004D1*
X495644Y476894D1*
X494115Y478684D1*
X492886Y480690D1*
X491984Y482865D1*
X491436Y485154D1*
X491251Y487505D1*
X490660Y489066D1*
X474597D1*
Y503744D1*
X454636Y503751D1*
X452290Y503936D1*
X450001Y504484D1*
X447827Y505386D1*
X445820Y506615D1*
X444026Y508147D1*
X426094Y526146D1*
X424710Y528050D1*
X423642Y530147D1*
X422915Y532386D1*
X422546Y534710D1*
X422500Y539824D1*
Y597871D1*
X414705Y597874D1*
Y646387D1*
X413004Y645000D1*
X413000Y515085D1*
X447386Y480639D1*
X448584Y478990D1*
X449510Y477172D1*
X450140Y475232D1*
X450461Y473217D1*
X450500Y468260D1*
Y464530D1*
X460295Y464528D1*
Y385472D1*
X414705D1*
Y464528D1*
X424493D1*
X424500Y466807D1*
X390807Y500504D1*
X389483Y502055D1*
X388417Y503795D1*
X387636Y505680D1*
X387160Y507663D1*
X387000Y509701D1*
Y644993D1*
X385835Y645915D1*
X384577Y647077D1*
X383415Y648335D1*
X382354Y649680D1*
X381403Y651104D1*
X380566Y652598D1*
X379849Y654154D1*
X379256Y655760D1*
X378791Y657408D1*
X378458Y659088D1*
X378256Y660789D1*
X378189Y662500D1*
X378256Y664211D1*
X378458Y665912D1*
X378791Y667592D1*
X379256Y669240D1*
X379849Y670846D1*
X380566Y672402D1*
X381403Y673896D1*
X382354Y675320D1*
X383415Y676665D1*
X384577Y677923D1*
X385835Y679085D1*
X387180Y680146D1*
X388604Y681097D1*
X390098Y681934D1*
X392387Y682921D1*
X324108Y682965D1*
X321948Y683306D1*
X319867Y683982D1*
X317919Y684975D1*
X316150Y686260D1*
X312503Y689846D1*
X301438Y678787D1*
X301437Y676924D1*
X310295Y676929D1*
Y597874D1*
X264705D1*
Y676929D1*
X273555D1*
X273606Y685652D1*
X273948Y687812D1*
X274623Y689892D1*
X275617Y691841D1*
X276902Y693610D1*
X280429Y697198D1*
X298562Y715331D1*
X298563Y810469D1*
X264705Y810472D1*
Y889528D1*
X298562D1*
X298534Y914066D1*
X241526D1*
Y973436D1*
X294259D1*
X276902Y990854D1*
X275617Y992623D1*
X274623Y994572D1*
X273948Y996652D1*
X273606Y998812D1*
X273563Y1003843D1*
Y1013693D1*
X260823Y1001016D1*
X259054Y999731D1*
X257105Y998738D1*
X255025Y998062D1*
X252865Y997720D1*
X247835Y997677D1*
X223513Y997720D1*
X221353Y998062D1*
X219273Y998738D1*
X217324Y999731D1*
X215555Y1001016D1*
X211967Y1004543D1*
X202000Y1014571D1*
X200715Y1016340D1*
X199720Y1018293D1*
X199488Y1017126D1*
Y1002677D1*
X216857Y985301D1*
X218386Y983510D1*
X219615Y981504D1*
X220517Y979329D1*
X221066Y977041D1*
X221251Y974689D1*
X221841Y973436D1*
X237904D1*
Y914066D1*
X237328D1*
X238365Y912322D1*
X239266Y910147D1*
X239815Y907858D1*
X240000Y905507D1*
Y889909D1*
X242264Y889528D1*
X260295D1*
Y810472D1*
X252507D1*
X252500Y768749D1*
X252315Y766403D1*
X251766Y764114D1*
X250865Y761940D1*
X249635Y759933D1*
X248104Y758139D1*
X221807Y731843D1*
X221744Y729538D1*
X221542Y727837D1*
X221209Y726157D1*
X220744Y724509D1*
X220151Y722903D1*
X219434Y721348D1*
X218597Y719853D1*
X217646Y718429D1*
X216585Y717084D1*
X215423Y715827D1*
X214165Y714664D1*
X212820Y713604D1*
X211396Y712652D1*
X209902Y711815D1*
X208346Y711098D1*
X206740Y710505D1*
X205092Y710041D1*
X203412Y709707D1*
X201711Y709505D1*
X199419Y709461D1*
X199055Y707430D1*
Y676927D1*
X210295Y676929D1*
Y597874D1*
X202507D1*
X202500Y588012D1*
X216857Y573647D1*
X218386Y571857D1*
X219615Y569850D1*
X220517Y567676D1*
X221066Y565387D1*
X221251Y563035D1*
Y548438D1*
X541920Y1385934D2*
X604833D1*
Y1326564D1*
X541526D1*
Y1385934D1*
X541920D1*
X476566Y973436D2*
X537904D1*
Y914066D1*
X525902D1*
X548106Y891857D1*
X549638Y890063D1*
X550138Y889528D1*
X560295D1*
Y810472D1*
X514705D1*
Y882837D1*
X510294Y887244D1*
X510295Y810472D1*
X501429D1*
X501437Y793749D1*
X501265Y791570D1*
X500755Y789442D1*
X499919Y787423D1*
X498776Y785558D1*
X497352Y783891D1*
X478546Y765146D1*
X476777Y763861D1*
X474828Y762867D1*
X472748Y762192D1*
X470588Y761850D1*
X465558Y761807D1*
X379412Y761850D1*
X377252Y762192D1*
X375172Y762867D1*
X373223Y763861D1*
X371454Y765146D1*
X367866Y768673D1*
X358151Y778449D1*
X356866Y780218D1*
X355873Y782167D1*
X355197Y784247D1*
X354856Y786407D1*
X354812Y791437D1*
Y1081476D1*
X328364Y1107919D1*
X285102Y1107917D1*
X279114Y1101924D1*
X310295Y1101929D1*
Y1022874D1*
X301429D1*
X301437Y1005676D1*
X323098Y983957D1*
X324383Y982188D1*
X325377Y980239D1*
X326052Y978159D1*
X326394Y975999D1*
X326437Y970969D1*
Y715332D1*
X330972Y710797D1*
X570118Y710795D1*
X570161Y775664D1*
X570503Y777824D1*
X571178Y779904D1*
X572172Y781853D1*
X573457Y783622D1*
X576984Y787210D1*
X598564Y808790D1*
X598563Y810467D1*
X564705Y810472D1*
Y889528D1*
X598562D1*
X598534Y914066D1*
X541526D1*
Y973436D1*
X597311D1*
X576902Y993906D1*
X575617Y995675D1*
X574623Y997623D1*
X573948Y999703D1*
X573606Y1001864D1*
X573563Y1006894D1*
Y1011315D1*
X550608Y988425D1*
X548703Y987041D1*
X546606Y985972D1*
X544367Y985245D1*
X542043Y984877D1*
X536929Y984831D1*
X468546D1*
X453055Y969340D1*
X453009Y967419D1*
X461676Y958749D1*
X474601Y958751D1*
X474597Y973436D1*
X476566D1*
X491252Y914066D2*
X474597D1*
Y928744D1*
X455462Y928751D1*
X453115Y928936D1*
X450827Y929484D1*
X448652Y930386D1*
X446646Y931615D1*
X444852Y933147D1*
X431060Y946938D1*
X429539Y947005D1*
X427839Y947207D1*
X426159Y947541D1*
X424510Y948005D1*
X422904Y948598D1*
X421349Y949315D1*
X419854Y950152D1*
X418430Y951104D1*
X417085Y952164D1*
X415828Y953327D1*
X414665Y954584D1*
X413605Y955929D1*
X412654Y957353D1*
X411816Y958848D1*
X411100Y960403D1*
X410507Y962009D1*
X410042Y963657D1*
X409709Y965337D1*
X409507Y967038D1*
X409440Y968749D1*
X409507Y970461D1*
X409709Y972161D1*
X410042Y973841D1*
X410507Y975490D1*
X411100Y977096D1*
X411816Y978651D1*
X412654Y980146D1*
X413605Y981570D1*
X414665Y982915D1*
X416256Y984567D1*
X416251Y1022875D1*
X414705Y1022874D1*
Y1101929D1*
X460295D1*
Y1022874D1*
X446247D1*
X446251Y1004969D1*
X452591Y1011236D1*
X454495Y1012621D1*
X456592Y1013689D1*
X458831Y1014416D1*
X461155Y1014785D1*
X466269Y1014831D1*
X472505D1*
X472500Y1022877D1*
X464705Y1022874D1*
Y1101929D1*
X510295D1*
Y1022874D1*
X502507D1*
X502500Y1014827D1*
X534660Y1014831D1*
X542694Y1022873D1*
X514705Y1022874D1*
Y1101929D1*
X523555D1*
X523563Y1107916D1*
X416198Y1107917D1*
X407690Y1099402D1*
X407688Y816778D1*
X409173Y815423D1*
X410336Y814165D1*
X411396Y812820D1*
X412348Y811396D1*
X413185Y809902D1*
X413902Y808346D1*
X414495Y806740D1*
X414959Y805092D1*
X415293Y803412D1*
X415495Y801711D1*
X415562Y800000D1*
X415495Y798289D1*
X415293Y796588D1*
X414959Y794908D1*
X414495Y793260D1*
X413902Y791654D1*
X412953Y789684D1*
X463728Y789681D1*
X473564Y799524D1*
X473563Y810474D1*
X464705Y810472D1*
Y889528D1*
X508004D1*
X495644Y901894D1*
X494115Y903684D1*
X492886Y905690D1*
X491984Y907865D1*
X491436Y910154D1*
X491251Y912500D1*
Y914060D1*
X476566Y548436D2*
X491245D1*
X491251Y551777D1*
X476894Y566130D1*
X475365Y567920D1*
X474135Y569927D1*
X473234Y572101D1*
X472685Y574390D1*
X472500Y576736D1*
Y597874D1*
X464705D1*
Y676929D1*
X510295D1*
Y597874D1*
X502505D1*
X502500Y582946D1*
X517657Y567727D1*
X519041Y565823D1*
X520109Y563726D1*
X520836Y561487D1*
X521205Y559163D1*
X521251Y554049D1*
Y548444D1*
X525432Y548436D1*
X525433Y597871D1*
X514705Y597874D1*
Y676929D1*
X560295D1*
Y597874D1*
X553306D1*
X553337Y548436D1*
X597311D1*
X576902Y568906D1*
X575617Y570675D1*
X574623Y572623D1*
X573948Y574703D1*
X573606Y576864D1*
X573563Y581894D1*
Y597881D1*
X564705Y597874D1*
Y676929D1*
X571249D1*
X570902Y682924D1*
X407667Y682921D1*
X409902Y681934D1*
X411396Y681097D1*
X412820Y680146D1*
X414165Y679085D1*
X415423Y677923D1*
X416345Y676925D1*
X460295Y676929D1*
Y597874D1*
X452505D1*
X452500Y542106D1*
X460846Y533755D1*
X474591Y533751D1*
X474597Y548436D1*
X476566D1*
X600236Y489066D2*
X564899D1*
X573591Y480315D1*
X574875Y478546D1*
X575869Y476597D1*
X576545Y474517D1*
X576886Y472357D1*
X576929Y467327D1*
Y464520D1*
X600235Y464528D1*
X600236Y489067D1*
X116673Y1314528D2*
X160295D1*
Y1235472D1*
X114705D1*
Y1314528D1*
X116673D1*
X265098D2*
X310295D1*
Y1235472D1*
X264705D1*
Y1314528D1*
X265098D1*
X510295Y1305984D2*
Y1235472D1*
X501429D1*
X501437Y1201909D1*
X501265Y1199730D1*
X500755Y1197602D1*
X499917Y1195583D1*
X498776Y1193718D1*
X497354Y1192055D1*
X482142Y1176902D1*
X480373Y1175617D1*
X478424Y1174623D1*
X476344Y1173948D1*
X474184Y1173606D1*
X469154Y1173563D1*
X221622D1*
X221614Y1132874D1*
X221442Y1130694D1*
X220932Y1128567D1*
X220096Y1126547D1*
X218950Y1124678D1*
X219186Y1123358D1*
X223199Y1119285D1*
X223563Y1119488D1*
X223606Y1126392D1*
X223948Y1128552D1*
X224623Y1130633D1*
X225617Y1132581D1*
X226902Y1134350D1*
X230429Y1137938D1*
X240752Y1148201D1*
X242521Y1149486D1*
X244470Y1150479D1*
X246550Y1151155D1*
X248710Y1151496D1*
X253740Y1151539D1*
X395778Y1151496D1*
X397938Y1151155D1*
X400018Y1150479D1*
X401967Y1149486D1*
X403736Y1148201D1*
X407324Y1144673D1*
X416203Y1135794D1*
X532442Y1135791D1*
X526093Y1142207D1*
X524710Y1144112D1*
X523642Y1146209D1*
X522915Y1148448D1*
X522546Y1150772D1*
X522500Y1155886D1*
Y1165413D1*
X520915Y1167085D1*
X519854Y1168430D1*
X518903Y1169854D1*
X518066Y1171349D1*
X517349Y1172904D1*
X516756Y1174510D1*
X516291Y1176159D1*
X515958Y1177839D1*
X515756Y1179539D1*
X515689Y1181251D1*
X515756Y1182962D1*
X515958Y1184663D1*
X516291Y1186343D1*
X516756Y1187991D1*
X517349Y1189597D1*
X518066Y1191152D1*
X518903Y1192647D1*
X519854Y1194071D1*
X520915Y1195416D1*
X522505Y1197068D1*
X522500Y1235469D1*
X514705Y1235472D1*
Y1301579D1*
X510294Y1305993D1*
X565098Y1314528D2*
X610295D1*
Y1235472D1*
X564705D1*
Y1314528D1*
X565098D1*
X416673Y889528D2*
X460295D1*
Y810472D1*
X414705D1*
Y889528D1*
X416673D1*
X265098Y464528D2*
X310295D1*
Y385472D1*
X264705D1*
Y464528D1*
X265098D1*
X266673Y251929D2*
X310295D1*
Y172874D1*
X301429D1*
X301437Y148193D1*
X305571Y144060D1*
X340638Y144085D1*
X316472Y168311D1*
X315188Y170080D1*
X314194Y172029D1*
X313518Y174109D1*
X313177Y176269D1*
X313134Y181299D1*
Y250328D1*
X305552Y257915D1*
X251429Y257917D1*
X251437Y251930D1*
X260295Y251929D1*
Y172874D1*
X245416Y172836D1*
X246673Y171673D1*
X247836Y170416D1*
X248896Y169071D1*
X249848Y167647D1*
X250685Y166152D1*
X251402Y164597D1*
X251995Y162991D1*
X252459Y161343D1*
X252793Y159663D1*
X252995Y157962D1*
X253062Y156251D1*
X252995Y154539D1*
X252793Y152839D1*
X252459Y151159D1*
X251995Y149510D1*
X251402Y147904D1*
X250685Y146349D1*
X249848Y144854D1*
X248896Y143430D1*
X247836Y142085D1*
X246673Y140828D1*
X245416Y139665D1*
X244071Y138605D1*
X242647Y137654D1*
X241152Y136816D1*
X239597Y136100D1*
X237991Y135507D1*
X236343Y135042D1*
X234663Y134709D1*
X232962Y134507D1*
X231251Y134440D1*
X229539Y134507D1*
X227839Y134709D1*
X226159Y135042D1*
X224510Y135507D1*
X222904Y136100D1*
X221349Y136816D1*
X219854Y137654D1*
X218430Y138605D1*
X217085Y139665D1*
X215828Y140828D1*
X214665Y142085D1*
X213605Y143430D1*
X212654Y144854D1*
X211816Y146349D1*
X211100Y147904D1*
X210507Y149510D1*
X210042Y151159D1*
X209709Y152839D1*
X209507Y154539D1*
X209440Y156251D1*
X209507Y157962D1*
X209709Y159663D1*
X210042Y161343D1*
X210507Y162991D1*
X211100Y164597D1*
X211816Y166152D1*
X212654Y167647D1*
X213605Y169071D1*
X214665Y170416D1*
X215828Y171673D1*
X217133Y172873D1*
X214705Y172874D1*
Y251929D1*
X223555D1*
X223563Y271854D1*
X223735Y274034D1*
X224245Y276161D1*
X225081Y278181D1*
X226224Y280046D1*
X227644Y281710D1*
X229308Y283130D1*
X231173Y284273D1*
X232171Y284732D1*
X231299Y285000D1*
X174236D1*
X152497Y263256D1*
X152500Y251933D1*
X160295Y251929D1*
Y227992D1*
X164698D1*
X164705Y251929D1*
X210295D1*
Y172874D1*
X199062D1*
X199055Y123340D1*
X243417Y78976D1*
X245958Y79920D1*
X247841Y80493D1*
X249751Y80972D1*
X251681Y81353D1*
X253630Y81636D1*
X255589Y81822D1*
X257555Y81907D1*
X259524Y81894D1*
X261488Y81780D1*
X263446Y81568D1*
X265390Y81257D1*
X267315Y80849D1*
X269218Y80345D1*
X271092Y79744D1*
X272934Y79051D1*
X274739Y78265D1*
X276501Y77388D1*
X278217Y76425D1*
X279882Y75375D1*
X281492Y74244D1*
X283043Y73033D1*
X284531Y71744D1*
X285953Y70382D1*
X287303Y68950D1*
X288580Y67451D1*
X289780Y65891D1*
X290899Y64273D1*
X291934Y62598D1*
X292886Y60875D1*
X293748Y59106D1*
X294520Y57295D1*
X295198Y55448D1*
X295783Y53568D1*
X296274Y51661D1*
X296667Y49734D1*
X296962Y47787D1*
X297159Y45829D1*
X297268Y42913D1*
X297218Y40946D1*
X297070Y38983D1*
X296822Y37030D1*
X296475Y35093D1*
X296033Y33175D1*
X295493Y31282D1*
X294858Y29419D1*
X294131Y27589D1*
X293312Y25801D1*
X292404Y24054D1*
X291409Y22356D1*
X290329Y20710D1*
X289169Y19119D1*
X287929Y17592D1*
X286614Y16127D1*
X285226Y14731D1*
X283770Y13407D1*
X282249Y12157D1*
X280667Y10987D1*
X279028Y9898D1*
X277335Y8892D1*
X275594Y7974D1*
X273810Y7144D1*
X271672Y6297D1*
X344839Y6299D1*
X342440Y7269D1*
X339963Y8476D1*
X337577Y9854D1*
X335294Y11398D1*
X333127Y13098D1*
X331084Y14948D1*
X329177Y16937D1*
X327416Y19056D1*
X325808Y21294D1*
X324364Y23639D1*
X323087Y26081D1*
X321987Y28608D1*
X321067Y31205D1*
X320333Y33861D1*
X319789Y36562D1*
X319436Y39294D1*
X319277Y42045D1*
X319314Y44801D1*
X319543Y47546D1*
X319967Y50268D1*
X320583Y52954D1*
X321386Y55589D1*
X322373Y58163D1*
X323538Y60659D1*
X324878Y63067D1*
X326385Y65374D1*
X328050Y67568D1*
X329866Y69640D1*
X331824Y71579D1*
X333913Y73375D1*
X336126Y75018D1*
X338448Y76501D1*
X340869Y77818D1*
X343377Y78958D1*
X345958Y79920D1*
X348602Y80697D1*
X351294Y81285D1*
X354021Y81681D1*
X356769Y81885D1*
X359524Y81894D1*
X362273Y81707D1*
X365001Y81328D1*
X367697Y80756D1*
X370345Y79996D1*
X372934Y79051D1*
X375449Y77925D1*
X377878Y76625D1*
X380209Y75156D1*
X382430Y73526D1*
X384531Y71744D1*
X386501Y69818D1*
X388331Y67757D1*
X390010Y65572D1*
X391530Y63274D1*
X392886Y60875D1*
X394067Y58386D1*
X395070Y55820D1*
X395890Y53189D1*
X396521Y50507D1*
X396962Y47787D1*
X397210Y45043D1*
X397260Y42126D1*
X397106Y39375D1*
X396760Y36642D1*
X396222Y33940D1*
X395493Y31282D1*
X394579Y28682D1*
X393483Y26155D1*
X392213Y23710D1*
X390772Y21361D1*
X389169Y19119D1*
X387412Y16997D1*
X385509Y15005D1*
X383471Y13151D1*
X381307Y11446D1*
X379028Y9898D1*
X376644Y8514D1*
X374169Y7303D1*
X371698Y6299D1*
X444832D1*
X441367Y7765D1*
X439615Y8663D1*
X437912Y9647D1*
X436260Y10717D1*
X434663Y11867D1*
X433127Y13098D1*
X431655Y14406D1*
X430251Y15783D1*
X428917Y17232D1*
X427659Y18745D1*
X426478Y20320D1*
X425379Y21953D1*
X424364Y23639D1*
X423434Y25374D1*
X422593Y27155D1*
X421844Y28974D1*
X421186Y30829D1*
X420625Y32717D1*
X420157Y34629D1*
X419789Y36562D1*
X419517Y38510D1*
X419344Y40471D1*
X419270Y42438D1*
X419297Y44407D1*
X419421Y46371D1*
X419646Y48327D1*
X419967Y50268D1*
X420387Y52192D1*
X420904Y54091D1*
X421516Y55962D1*
X422220Y57799D1*
X423017Y59598D1*
X423904Y61356D1*
X424878Y63067D1*
X425937Y64726D1*
X427079Y66328D1*
X428301Y67873D1*
X429597Y69353D1*
X430969Y70765D1*
X432408Y72108D1*
X433913Y73375D1*
X435482Y74564D1*
X437108Y75675D1*
X438787Y76699D1*
X440517Y77639D1*
X442291Y78491D1*
X444108Y79252D1*
X445958Y79920D1*
X447841Y80493D1*
X449751Y80972D1*
X451681Y81353D1*
X453630Y81636D1*
X455589Y81822D1*
X457555Y81907D1*
X459524Y81894D1*
X461488Y81780D1*
X463446Y81568D1*
X465390Y81257D1*
X467315Y80849D1*
X469218Y80345D1*
X471092Y79744D1*
X472934Y79051D1*
X474739Y78265D1*
X476501Y77388D1*
X478217Y76425D1*
X479882Y75375D1*
X481492Y74244D1*
X483043Y73033D1*
X484531Y71744D1*
X485953Y70382D1*
X487303Y68950D1*
X488580Y67451D1*
X489780Y65891D1*
X490899Y64273D1*
X491934Y62598D1*
X492886Y60875D1*
X493748Y59106D1*
X494520Y57295D1*
X495198Y55448D1*
X495783Y53568D1*
X496274Y51661D1*
X496667Y49734D1*
X496962Y47787D1*
X497159Y45829D1*
X497268Y42913D1*
X497218Y40946D1*
X497070Y38983D1*
X496822Y37030D1*
X496475Y35093D1*
X496033Y33175D1*
X495493Y31282D1*
X494858Y29419D1*
X494131Y27589D1*
X493312Y25801D1*
X492404Y24054D1*
X491409Y22356D1*
X490329Y20710D1*
X489169Y19119D1*
X487929Y17592D1*
X486614Y16127D1*
X485226Y14731D1*
X483770Y13407D1*
X482249Y12157D1*
X480667Y10987D1*
X479028Y9898D1*
X477335Y8892D1*
X475594Y7974D1*
X473810Y7144D1*
X471672Y6297D1*
X544841Y6299D1*
X541367Y7765D1*
X539615Y8663D1*
X537912Y9647D1*
X536260Y10717D1*
X534663Y11867D1*
X533127Y13098D1*
X531655Y14406D1*
X530251Y15783D1*
X528917Y17232D1*
X527659Y18745D1*
X526478Y20320D1*
X525379Y21953D1*
X524364Y23639D1*
X523434Y25374D1*
X522593Y27155D1*
X521844Y28974D1*
X521186Y30829D1*
X520625Y32717D1*
X520157Y34629D1*
X519789Y36562D1*
X519517Y38510D1*
X519344Y40471D1*
X519270Y42438D1*
X519297Y44407D1*
X519421Y46371D1*
X519646Y48327D1*
X519967Y50268D1*
X520387Y52192D1*
X520904Y54091D1*
X521516Y55962D1*
X522220Y57799D1*
X523017Y59598D1*
X523904Y61356D1*
X524878Y63067D1*
X525937Y64726D1*
X527079Y66328D1*
X528301Y67873D1*
X529597Y69353D1*
X530969Y70765D1*
X532408Y72108D1*
X533913Y73375D1*
X535482Y74564D1*
X537108Y75675D1*
X538787Y76699D1*
X540517Y77639D1*
X542291Y78491D1*
X544108Y79252D1*
X545958Y79920D1*
X547841Y80493D1*
X549751Y80972D1*
X551681Y81353D1*
X553630Y81636D1*
X555589Y81822D1*
X557555Y81907D1*
X559524Y81894D1*
X561488Y81780D1*
X563446Y81568D1*
X565390Y81257D1*
X567315Y80849D1*
X569218Y80345D1*
X571092Y79744D1*
X572934Y79051D1*
X574739Y78265D1*
X576501Y77388D1*
X578217Y76425D1*
X579882Y75375D1*
X581492Y74244D1*
X583043Y73033D1*
X584531Y71744D1*
X585953Y70382D1*
X587303Y68950D1*
X588580Y67451D1*
X589780Y65891D1*
X590899Y64273D1*
X591934Y62598D1*
X592886Y60875D1*
X593748Y59106D1*
X594520Y57295D1*
X595198Y55448D1*
X595783Y53568D1*
X596274Y51661D1*
X596667Y49734D1*
X596962Y47787D1*
X597159Y45829D1*
X597268Y42913D1*
X597218Y40946D1*
X597070Y38983D1*
X596822Y37030D1*
X596475Y35093D1*
X596033Y33175D1*
X595493Y31282D1*
X594858Y29419D1*
X594131Y27589D1*
X593312Y25801D1*
X592404Y24054D1*
X591409Y22356D1*
X590329Y20710D1*
X589169Y19119D1*
X587929Y17592D1*
X586614Y16127D1*
X585226Y14731D1*
X583770Y13407D1*
X582249Y12157D1*
X580667Y10987D1*
X579028Y9898D1*
X577335Y8892D1*
X575594Y7974D1*
X573810Y7144D1*
X571672Y6297D1*
X644836Y6299D1*
X641367Y7765D1*
X639615Y8663D1*
X637912Y9647D1*
X636260Y10717D1*
X634663Y11867D1*
X633127Y13098D1*
X631655Y14406D1*
X630251Y15783D1*
X628917Y17232D1*
X627659Y18745D1*
X626478Y20320D1*
X625379Y21953D1*
X624364Y23639D1*
X623434Y25374D1*
X622593Y27155D1*
X621844Y28974D1*
X621186Y30829D1*
X620625Y32717D1*
X620157Y34629D1*
X619789Y36562D1*
X619517Y38510D1*
X619344Y40471D1*
X619270Y42438D1*
X619297Y44407D1*
X619421Y46371D1*
X619646Y48327D1*
X619967Y50268D1*
X620387Y52192D1*
X620904Y54091D1*
X621516Y55962D1*
X622665Y58804D1*
X603575Y77957D1*
X602290Y79726D1*
X601297Y81675D1*
X600621Y83755D1*
X600280Y85915D1*
X600236Y90945D1*
Y143656D1*
X599383Y142029D1*
X598098Y140260D1*
X594571Y136672D1*
X577358Y119520D1*
X575589Y118235D1*
X573640Y117241D1*
X571560Y116566D1*
X569400Y116224D1*
X564370Y116181D1*
X298710Y116224D1*
X296550Y116566D1*
X294470Y117241D1*
X292521Y118235D1*
X290752Y119520D1*
X287164Y123047D1*
X276902Y133370D1*
X275617Y135139D1*
X274623Y137088D1*
X273948Y139168D1*
X273606Y141328D1*
X273563Y146358D1*
Y172879D1*
X264705Y172874D1*
Y251929D1*
X266673D1*
X510295Y462244D2*
Y385472D1*
X501429D1*
X501437Y369024D1*
X501265Y366844D1*
X500755Y364717D1*
X499919Y362697D1*
X498776Y360832D1*
X497352Y359165D1*
X488933Y350747D1*
X488937Y348026D1*
X490423Y346673D1*
X491585Y345416D1*
X492646Y344071D1*
X493597Y342647D1*
X494434Y341152D1*
X495151Y339597D1*
X495744Y337991D1*
X496209Y336343D1*
X496542Y334663D1*
X496744Y332962D1*
X496811Y331251D1*
X496744Y329539D1*
X496542Y327839D1*
X496209Y326159D1*
X495744Y324510D1*
X495151Y322904D1*
X494434Y321349D1*
X493597Y319854D1*
X492646Y318430D1*
X491585Y317085D1*
X490423Y315828D1*
X489524Y314997D1*
X504178Y315000D1*
X521600Y332416D1*
X521602Y385467D1*
X514705Y385472D1*
Y457837D1*
X510298Y462239D1*
X600236Y385472D2*
X576928D1*
X576929Y350424D1*
X580429Y353978D1*
X600236Y373786D1*
Y385475D1*
X516673Y251929D2*
X523555D1*
X523563Y275299D1*
X523735Y277479D1*
X524245Y279606D1*
X525083Y281626D1*
X526224Y283491D1*
X527646Y285154D1*
X549051Y306560D1*
X549055Y317839D1*
X548008Y316463D1*
X544425Y312814D1*
X520139Y288594D1*
X518235Y287210D1*
X516138Y286142D1*
X513899Y285415D1*
X511575Y285046D1*
X506461Y285000D1*
X499055D1*
Y251933D1*
X510295Y251929D1*
Y172874D1*
X464705D1*
Y251929D1*
X469050D1*
X469055Y284997D1*
X456012Y285000D1*
X452499Y281482D1*
X452500Y251933D1*
X460295Y251929D1*
Y172874D1*
X414705D1*
Y251929D1*
X422495D1*
X422500Y284997D1*
X315953Y285000D1*
X317650Y284273D1*
X319514Y283130D1*
X321178Y281710D1*
X337669Y265157D1*
X338954Y263388D1*
X339948Y261440D1*
X340623Y259360D1*
X340965Y257199D1*
X341008Y252169D1*
Y183140D1*
X356266Y167877D1*
X511152Y167874D1*
X516160Y172878D1*
X514705Y172874D1*
Y251929D1*
X516673D1*
X97265Y1342520D2*
X97140Y1339768D1*
X96822Y1337030D1*
X96310Y1334323D1*
X95609Y1331659D1*
X94720Y1329050D1*
X93651Y1326510D1*
X92404Y1324054D1*
X90988Y1321690D1*
X89407Y1319433D1*
X87672Y1317293D1*
X85790Y1315281D1*
X83770Y1313407D1*
X81623Y1311680D1*
X79360Y1310109D1*
X76991Y1308702D1*
X74529Y1307465D1*
X71984Y1306406D1*
X69373Y1305528D1*
X66706Y1304837D1*
X63996Y1304336D1*
X61259Y1304028D1*
X58505Y1303915D1*
X55751Y1303995D1*
X53009Y1304269D1*
X50294Y1304738D1*
X47618Y1305395D1*
X44996Y1306241D1*
X42440Y1307269D1*
X39963Y1308476D1*
X37577Y1309854D1*
X35294Y1311398D1*
X33127Y1313098D1*
X31084Y1314948D1*
X29177Y1316937D1*
X27416Y1319056D1*
X25808Y1321294D1*
X24364Y1323639D1*
X23087Y1326081D1*
X21987Y1328608D1*
X21067Y1331205D1*
X20333Y1333861D1*
X19789Y1336562D1*
X19436Y1339294D1*
X19277Y1342045D1*
X19314Y1344801D1*
X19543Y1347546D1*
X19967Y1350268D1*
X20583Y1352954D1*
X21386Y1355589D1*
X22373Y1358163D1*
X23538Y1360659D1*
X24878Y1363067D1*
X26385Y1365374D1*
X28050Y1367568D1*
X29866Y1369640D1*
X31824Y1371579D1*
X33913Y1373375D1*
X36126Y1375018D1*
X38448Y1376501D1*
X40869Y1377818D1*
X43377Y1378958D1*
X45958Y1379920D1*
X48602Y1380697D1*
X51294Y1381285D1*
X54021Y1381681D1*
X56769Y1381885D1*
X59524Y1381894D1*
X62273Y1381707D1*
X65001Y1381328D1*
X67697Y1380756D1*
X70345Y1379996D1*
X72934Y1379051D1*
X75449Y1377925D1*
X77878Y1376625D1*
X80209Y1375156D1*
X82430Y1373526D1*
X84531Y1371744D1*
X86501Y1369818D1*
X88331Y1367757D1*
X90010Y1365572D1*
X91530Y1363274D1*
X92886Y1360875D1*
X94067Y1358386D1*
X95070Y1355820D1*
X95890Y1353189D1*
X96521Y1350507D1*
X96962Y1347787D1*
X97210Y1345043D1*
X97265Y1342520D1*
X97218Y1240946D2*
X97070Y1238983D1*
X96822Y1237030D1*
X96475Y1235093D1*
X96033Y1233175D1*
X95493Y1231282D1*
X94858Y1229419D1*
X94131Y1227589D1*
X93312Y1225801D1*
X92404Y1224054D1*
X91409Y1222356D1*
X90329Y1220710D1*
X89169Y1219119D1*
X87929Y1217592D1*
X86614Y1216127D1*
X85226Y1214731D1*
X83770Y1213407D1*
X82249Y1212157D1*
X80667Y1210987D1*
X79028Y1209898D1*
X77335Y1208892D1*
X75594Y1207974D1*
X73810Y1207144D1*
X71984Y1206406D1*
X70126Y1205760D1*
X68236Y1205209D1*
X66320Y1204753D1*
X64386Y1204396D1*
X62434Y1204136D1*
X60472Y1203976D1*
X58505Y1203915D1*
X56537Y1203951D1*
X54573Y1204089D1*
X52619Y1204324D1*
X50680Y1204659D1*
X48760Y1205091D1*
X46864Y1205618D1*
X44996Y1206241D1*
X43163Y1206957D1*
X41367Y1207765D1*
X39615Y1208663D1*
X37912Y1209647D1*
X36260Y1210717D1*
X34663Y1211867D1*
X33127Y1213098D1*
X31655Y1214406D1*
X30251Y1215783D1*
X28917Y1217232D1*
X27659Y1218745D1*
X26478Y1220320D1*
X25379Y1221953D1*
X24364Y1223639D1*
X23434Y1225374D1*
X22593Y1227155D1*
X21844Y1228974D1*
X21186Y1230829D1*
X20625Y1232717D1*
X20157Y1234629D1*
X19789Y1236562D1*
X19517Y1238510D1*
X19344Y1240471D1*
X19270Y1242438D1*
X19297Y1244407D1*
X19421Y1246371D1*
X19646Y1248327D1*
X19967Y1250268D1*
X20387Y1252192D1*
X20904Y1254091D1*
X21516Y1255962D1*
X22220Y1257799D1*
X23017Y1259598D1*
X23904Y1261356D1*
X24878Y1263067D1*
X25937Y1264726D1*
X27079Y1266328D1*
X28301Y1267873D1*
X29597Y1269353D1*
X30969Y1270765D1*
X32408Y1272108D1*
X33913Y1273375D1*
X35482Y1274564D1*
X37108Y1275675D1*
X38787Y1276699D1*
X40517Y1277639D1*
X42291Y1278491D1*
X44108Y1279252D1*
X45958Y1279920D1*
X47841Y1280493D1*
X49751Y1280972D1*
X51681Y1281353D1*
X53630Y1281636D1*
X55589Y1281822D1*
X57555Y1281907D1*
X59524Y1281894D1*
X61488Y1281780D1*
X63446Y1281568D1*
X65390Y1281257D1*
X67315Y1280849D1*
X69218Y1280345D1*
X71092Y1279744D1*
X72934Y1279051D1*
X74739Y1278265D1*
X76501Y1277388D1*
X78217Y1276425D1*
X79882Y1275375D1*
X81492Y1274244D1*
X83043Y1273033D1*
X84531Y1271744D1*
X85953Y1270382D1*
X87303Y1268950D1*
X88580Y1267451D1*
X89780Y1265891D1*
X90899Y1264273D1*
X91934Y1262598D1*
X92886Y1260875D1*
X93748Y1259106D1*
X94520Y1257295D1*
X95198Y1255448D1*
X95783Y1253568D1*
X96274Y1251661D1*
X96667Y1249734D1*
X96962Y1247787D1*
X97159Y1245829D1*
X97268Y1242913D1*
X97218Y1240946D1*
Y1140946D2*
X97070Y1138983D1*
X96822Y1137030D1*
X96475Y1135093D1*
X96033Y1133175D1*
X95493Y1131282D1*
X94858Y1129419D1*
X94131Y1127589D1*
X93312Y1125801D1*
X92404Y1124054D1*
X91409Y1122356D1*
X90329Y1120710D1*
X89169Y1119119D1*
X87929Y1117592D1*
X86614Y1116127D1*
X85226Y1114731D1*
X83770Y1113407D1*
X82249Y1112157D1*
X80667Y1110987D1*
X79028Y1109898D1*
X77335Y1108892D1*
X75594Y1107974D1*
X73810Y1107144D1*
X71984Y1106406D1*
X70126Y1105760D1*
X68236Y1105209D1*
X66320Y1104753D1*
X64386Y1104396D1*
X62434Y1104136D1*
X60472Y1103976D1*
X58505Y1103915D1*
X56537Y1103951D1*
X54573Y1104089D1*
X52619Y1104324D1*
X50680Y1104659D1*
X48760Y1105091D1*
X46864Y1105618D1*
X44996Y1106241D1*
X43163Y1106957D1*
X41367Y1107765D1*
X39615Y1108663D1*
X37912Y1109647D1*
X36260Y1110717D1*
X34663Y1111867D1*
X33127Y1113098D1*
X31655Y1114406D1*
X30251Y1115783D1*
X28917Y1117232D1*
X27659Y1118745D1*
X26478Y1120320D1*
X25379Y1121953D1*
X24364Y1123639D1*
X23434Y1125374D1*
X22593Y1127155D1*
X21844Y1128974D1*
X21186Y1130829D1*
X20625Y1132717D1*
X20157Y1134629D1*
X19789Y1136562D1*
X19517Y1138510D1*
X19344Y1140471D1*
X19270Y1142438D1*
X19297Y1144407D1*
X19421Y1146371D1*
X19646Y1148327D1*
X19967Y1150268D1*
X20387Y1152192D1*
X20904Y1154091D1*
X21516Y1155962D1*
X22220Y1157799D1*
X23017Y1159598D1*
X23904Y1161356D1*
X24878Y1163067D1*
X25937Y1164726D1*
X27079Y1166328D1*
X28301Y1167873D1*
X29597Y1169353D1*
X30969Y1170765D1*
X32408Y1172108D1*
X33913Y1173375D1*
X35482Y1174564D1*
X37108Y1175675D1*
X38787Y1176699D1*
X40517Y1177639D1*
X42291Y1178491D1*
X44108Y1179252D1*
X45958Y1179920D1*
X47841Y1180493D1*
X49751Y1180972D1*
X51681Y1181353D1*
X53630Y1181636D1*
X55589Y1181822D1*
X57555Y1181907D1*
X59524Y1181894D1*
X61488Y1181780D1*
X63446Y1181568D1*
X65390Y1181257D1*
X67315Y1180849D1*
X69218Y1180345D1*
X71092Y1179744D1*
X72934Y1179051D1*
X74739Y1178265D1*
X76501Y1177388D1*
X78217Y1176425D1*
X79882Y1175375D1*
X81492Y1174244D1*
X83043Y1173033D1*
X84531Y1171744D1*
X85953Y1170382D1*
X87303Y1168950D1*
X88580Y1167451D1*
X89780Y1165891D1*
X90899Y1164273D1*
X91934Y1162598D1*
X92886Y1160875D1*
X93748Y1159106D1*
X94520Y1157295D1*
X95198Y1155448D1*
X95783Y1153568D1*
X96274Y1151661D1*
X96667Y1149734D1*
X96962Y1147787D1*
X97159Y1145829D1*
X97268Y1142913D1*
X97218Y1140946D1*
Y940946D2*
X97070Y938983D1*
X96822Y937030D1*
X96475Y935093D1*
X96033Y933175D1*
X95493Y931282D1*
X94858Y929419D1*
X94131Y927589D1*
X93312Y925801D1*
X92404Y924054D1*
X91409Y922356D1*
X90329Y920710D1*
X89169Y919119D1*
X87929Y917592D1*
X86614Y916127D1*
X85226Y914731D1*
X83770Y913407D1*
X82249Y912157D1*
X80667Y910987D1*
X79028Y909898D1*
X77335Y908892D1*
X75594Y907974D1*
X73810Y907144D1*
X71984Y906406D1*
X70126Y905760D1*
X68236Y905209D1*
X66320Y904753D1*
X64386Y904396D1*
X62434Y904136D1*
X60472Y903976D1*
X58505Y903915D1*
X56537Y903951D1*
X54573Y904089D1*
X52619Y904324D1*
X50680Y904659D1*
X48760Y905091D1*
X46864Y905618D1*
X44996Y906241D1*
X43163Y906957D1*
X41367Y907765D1*
X39615Y908663D1*
X37912Y909647D1*
X36260Y910717D1*
X34663Y911867D1*
X33127Y913098D1*
X31655Y914406D1*
X30251Y915783D1*
X28917Y917232D1*
X27659Y918745D1*
X26478Y920320D1*
X25379Y921953D1*
X24364Y923639D1*
X23434Y925374D1*
X22593Y927155D1*
X21844Y928974D1*
X21186Y930829D1*
X20625Y932717D1*
X20157Y934629D1*
X19789Y936562D1*
X19517Y938510D1*
X19344Y940471D1*
X19270Y942438D1*
X19297Y944407D1*
X19421Y946371D1*
X19646Y948327D1*
X19967Y950268D1*
X20387Y952192D1*
X20904Y954091D1*
X21516Y955962D1*
X22220Y957799D1*
X23017Y959598D1*
X23904Y961356D1*
X24878Y963067D1*
X25937Y964726D1*
X27079Y966328D1*
X28301Y967873D1*
X29597Y969353D1*
X30969Y970765D1*
X32408Y972108D1*
X33913Y973375D1*
X35482Y974564D1*
X37108Y975675D1*
X38787Y976699D1*
X40517Y977639D1*
X42291Y978491D1*
X44108Y979252D1*
X45958Y979920D1*
X47841Y980493D1*
X49751Y980972D1*
X51681Y981353D1*
X53630Y981636D1*
X55589Y981822D1*
X57555Y981907D1*
X59524Y981894D1*
X61488Y981780D1*
X63446Y981568D1*
X65390Y981257D1*
X67315Y980849D1*
X69218Y980345D1*
X71092Y979744D1*
X72934Y979051D1*
X74739Y978265D1*
X76501Y977388D1*
X78217Y976425D1*
X79882Y975375D1*
X81492Y974244D1*
X83043Y973033D1*
X84531Y971744D1*
X85953Y970382D1*
X87303Y968950D1*
X88580Y967451D1*
X89780Y965891D1*
X90899Y964273D1*
X91934Y962598D1*
X92886Y960875D1*
X93748Y959106D1*
X94520Y957295D1*
X95198Y955448D1*
X95783Y953568D1*
X96274Y951661D1*
X96667Y949734D1*
X96962Y947787D1*
X97159Y945829D1*
X97268Y942913D1*
X97218Y940946D1*
Y840946D2*
X97070Y838983D1*
X96822Y837030D1*
X96475Y835093D1*
X96033Y833175D1*
X95493Y831282D1*
X94858Y829419D1*
X94131Y827589D1*
X93312Y825801D1*
X92404Y824054D1*
X91409Y822356D1*
X90329Y820710D1*
X89169Y819119D1*
X87929Y817592D1*
X86614Y816127D1*
X85226Y814731D1*
X83770Y813407D1*
X82249Y812157D1*
X80667Y810987D1*
X79028Y809898D1*
X77335Y808892D1*
X75594Y807974D1*
X73810Y807144D1*
X71984Y806406D1*
X70126Y805760D1*
X68236Y805209D1*
X66320Y804753D1*
X64386Y804396D1*
X62434Y804136D1*
X60472Y803976D1*
X58505Y803915D1*
X56537Y803951D1*
X54573Y804089D1*
X52619Y804324D1*
X50680Y804659D1*
X48760Y805091D1*
X46864Y805618D1*
X44996Y806241D1*
X43163Y806957D1*
X41367Y807765D1*
X39615Y808663D1*
X37912Y809647D1*
X36260Y810717D1*
X34663Y811867D1*
X33127Y813098D1*
X31655Y814406D1*
X30251Y815783D1*
X28917Y817232D1*
X27659Y818745D1*
X26478Y820320D1*
X25379Y821953D1*
X24364Y823639D1*
X23434Y825374D1*
X22593Y827155D1*
X21844Y828974D1*
X21186Y830829D1*
X20625Y832717D1*
X20157Y834629D1*
X19789Y836562D1*
X19517Y838510D1*
X19344Y840471D1*
X19270Y842438D1*
X19297Y844407D1*
X19421Y846371D1*
X19646Y848327D1*
X19967Y850268D1*
X20387Y852192D1*
X20904Y854091D1*
X21516Y855962D1*
X22220Y857799D1*
X23017Y859598D1*
X23904Y861356D1*
X24878Y863067D1*
X25937Y864726D1*
X27079Y866328D1*
X28301Y867873D1*
X29597Y869353D1*
X30969Y870765D1*
X32408Y872108D1*
X33913Y873375D1*
X35482Y874564D1*
X37108Y875675D1*
X38787Y876699D1*
X40517Y877639D1*
X42291Y878491D1*
X44108Y879252D1*
X45958Y879920D1*
X47841Y880493D1*
X49751Y880972D1*
X51681Y881353D1*
X53630Y881636D1*
X55589Y881822D1*
X57555Y881907D1*
X59524Y881894D1*
X61488Y881780D1*
X63446Y881568D1*
X65390Y881257D1*
X67315Y880849D1*
X69218Y880345D1*
X71092Y879744D1*
X72934Y879051D1*
X74739Y878265D1*
X76501Y877388D1*
X78217Y876425D1*
X79882Y875375D1*
X81492Y874244D1*
X83043Y873033D1*
X84531Y871744D1*
X85953Y870382D1*
X87303Y868950D1*
X88580Y867451D1*
X89780Y865891D1*
X90899Y864273D1*
X91934Y862598D1*
X92886Y860875D1*
X93748Y859106D1*
X94520Y857295D1*
X95198Y855448D1*
X95783Y853568D1*
X96274Y851661D1*
X96667Y849734D1*
X96962Y847787D1*
X97159Y845829D1*
X97268Y842913D1*
X97218Y840946D1*
Y740946D2*
X97070Y738983D1*
X96822Y737030D1*
X96475Y735093D1*
X96033Y733175D1*
X95493Y731282D1*
X94858Y729419D1*
X94131Y727589D1*
X93312Y725801D1*
X92404Y724054D1*
X91409Y722356D1*
X90329Y720710D1*
X89169Y719119D1*
X87929Y717592D1*
X86614Y716127D1*
X85226Y714731D1*
X83770Y713407D1*
X82249Y712157D1*
X80667Y710987D1*
X79028Y709898D1*
X77335Y708892D1*
X75594Y707974D1*
X73810Y707144D1*
X71984Y706406D1*
X70126Y705760D1*
X68236Y705209D1*
X66320Y704753D1*
X64386Y704396D1*
X62434Y704136D1*
X60472Y703976D1*
X58505Y703915D1*
X56537Y703951D1*
X54573Y704089D1*
X52619Y704324D1*
X50680Y704659D1*
X48760Y705091D1*
X46864Y705618D1*
X44996Y706241D1*
X43163Y706957D1*
X41367Y707765D1*
X39615Y708663D1*
X37912Y709647D1*
X36260Y710717D1*
X34663Y711867D1*
X33127Y713098D1*
X31655Y714406D1*
X30251Y715783D1*
X28917Y717232D1*
X27659Y718745D1*
X26478Y720320D1*
X25379Y721953D1*
X24364Y723639D1*
X23434Y725374D1*
X22593Y727155D1*
X21844Y728974D1*
X21186Y730829D1*
X20625Y732717D1*
X20157Y734629D1*
X19789Y736562D1*
X19517Y738510D1*
X19344Y740471D1*
X19270Y742438D1*
X19297Y744407D1*
X19421Y746371D1*
X19646Y748327D1*
X19967Y750268D1*
X20387Y752192D1*
X20904Y754091D1*
X21516Y755962D1*
X22220Y757799D1*
X23017Y759598D1*
X23904Y761356D1*
X24878Y763067D1*
X25937Y764726D1*
X27079Y766328D1*
X28301Y767873D1*
X29597Y769353D1*
X30969Y770765D1*
X32408Y772108D1*
X33913Y773375D1*
X35482Y774564D1*
X37108Y775675D1*
X38787Y776699D1*
X40517Y777639D1*
X42291Y778491D1*
X44108Y779252D1*
X45958Y779920D1*
X47841Y780493D1*
X49751Y780972D1*
X51681Y781353D1*
X53630Y781636D1*
X55589Y781822D1*
X57555Y781907D1*
X59524Y781894D1*
X61488Y781780D1*
X63446Y781568D1*
X65390Y781257D1*
X67315Y780849D1*
X69218Y780345D1*
X71092Y779744D1*
X72934Y779051D1*
X74739Y778265D1*
X76501Y777388D1*
X78217Y776425D1*
X79882Y775375D1*
X81492Y774244D1*
X83043Y773033D1*
X84531Y771744D1*
X85953Y770382D1*
X87303Y768950D1*
X88580Y767451D1*
X89780Y765891D1*
X90899Y764273D1*
X91934Y762598D1*
X92886Y760875D1*
X93748Y759106D1*
X94520Y757295D1*
X95198Y755448D1*
X95783Y753568D1*
X96274Y751661D1*
X96667Y749734D1*
X96962Y747787D1*
X97159Y745829D1*
X97268Y742913D1*
X97218Y740946D1*
Y540946D2*
X97070Y538983D1*
X96822Y537030D1*
X96475Y535093D1*
X96033Y533175D1*
X95493Y531282D1*
X94858Y529419D1*
X94131Y527589D1*
X93312Y525801D1*
X92404Y524054D1*
X91409Y522356D1*
X90329Y520710D1*
X89169Y519119D1*
X87929Y517592D1*
X86614Y516127D1*
X85226Y514731D1*
X83770Y513407D1*
X82249Y512157D1*
X80667Y510987D1*
X79028Y509898D1*
X77335Y508892D1*
X75594Y507974D1*
X73810Y507144D1*
X71984Y506406D1*
X70126Y505760D1*
X68236Y505209D1*
X66320Y504753D1*
X64386Y504396D1*
X62434Y504136D1*
X60472Y503976D1*
X58505Y503915D1*
X56537Y503951D1*
X54573Y504089D1*
X52619Y504324D1*
X50680Y504659D1*
X48760Y505091D1*
X46864Y505618D1*
X44996Y506241D1*
X43163Y506957D1*
X41367Y507765D1*
X39615Y508663D1*
X37912Y509647D1*
X36260Y510717D1*
X34663Y511867D1*
X33127Y513098D1*
X31655Y514406D1*
X30251Y515783D1*
X28917Y517232D1*
X27659Y518745D1*
X26478Y520320D1*
X25379Y521953D1*
X24364Y523639D1*
X23434Y525374D1*
X22593Y527155D1*
X21844Y528974D1*
X21186Y530829D1*
X20625Y532717D1*
X20157Y534629D1*
X19789Y536562D1*
X19517Y538510D1*
X19344Y540471D1*
X19270Y542438D1*
X19297Y544407D1*
X19421Y546371D1*
X19646Y548327D1*
X19967Y550268D1*
X20387Y552192D1*
X20904Y554091D1*
X21516Y555962D1*
X22220Y557799D1*
X23017Y559598D1*
X23904Y561356D1*
X24878Y563067D1*
X25937Y564726D1*
X27079Y566328D1*
X28301Y567873D1*
X29597Y569353D1*
X30969Y570765D1*
X32408Y572108D1*
X33913Y573375D1*
X35482Y574564D1*
X37108Y575675D1*
X38787Y576699D1*
X40517Y577639D1*
X42291Y578491D1*
X44108Y579252D1*
X45958Y579920D1*
X47841Y580493D1*
X49751Y580972D1*
X51681Y581353D1*
X53630Y581636D1*
X55589Y581822D1*
X57555Y581907D1*
X59524Y581894D1*
X61488Y581780D1*
X63446Y581568D1*
X65390Y581257D1*
X67315Y580849D1*
X69218Y580345D1*
X71092Y579744D1*
X72934Y579051D1*
X74739Y578265D1*
X76501Y577388D1*
X78217Y576425D1*
X79882Y575375D1*
X81492Y574244D1*
X83043Y573033D1*
X84531Y571744D1*
X85953Y570382D1*
X87303Y568950D1*
X88580Y567451D1*
X89780Y565891D1*
X90899Y564273D1*
X91934Y562598D1*
X92886Y560875D1*
X93748Y559106D1*
X94520Y557295D1*
X95198Y555448D1*
X95783Y553568D1*
X96274Y551661D1*
X96667Y549734D1*
X96962Y547787D1*
X97159Y545829D1*
X97268Y542913D1*
X97218Y540946D1*
Y440946D2*
X97070Y438983D1*
X96822Y437030D1*
X96475Y435093D1*
X96033Y433175D1*
X95493Y431282D1*
X94858Y429419D1*
X94131Y427589D1*
X93312Y425801D1*
X92404Y424054D1*
X91409Y422356D1*
X90329Y420710D1*
X89169Y419119D1*
X87929Y417592D1*
X86614Y416127D1*
X85226Y414731D1*
X83770Y413407D1*
X82249Y412157D1*
X80667Y410987D1*
X79028Y409898D1*
X77335Y408892D1*
X75594Y407974D1*
X73810Y407144D1*
X71984Y406406D1*
X70126Y405760D1*
X68236Y405209D1*
X66320Y404753D1*
X64386Y404396D1*
X62434Y404136D1*
X60472Y403976D1*
X58505Y403915D1*
X56537Y403951D1*
X54573Y404089D1*
X52619Y404324D1*
X50680Y404659D1*
X48760Y405091D1*
X46864Y405618D1*
X44996Y406241D1*
X43163Y406957D1*
X41367Y407765D1*
X39615Y408663D1*
X37912Y409647D1*
X36260Y410717D1*
X34663Y411867D1*
X33127Y413098D1*
X31655Y414406D1*
X30251Y415783D1*
X28917Y417232D1*
X27659Y418745D1*
X26478Y420320D1*
X25379Y421953D1*
X24364Y423639D1*
X23434Y425374D1*
X22593Y427155D1*
X21844Y428974D1*
X21186Y430829D1*
X20625Y432717D1*
X20157Y434629D1*
X19789Y436562D1*
X19517Y438510D1*
X19344Y440471D1*
X19270Y442438D1*
X19297Y444407D1*
X19421Y446371D1*
X19646Y448327D1*
X19967Y450268D1*
X20387Y452192D1*
X20904Y454091D1*
X21516Y455962D1*
X22220Y457799D1*
X23017Y459598D1*
X23904Y461356D1*
X24878Y463067D1*
X25937Y464726D1*
X27079Y466328D1*
X28301Y467873D1*
X29597Y469353D1*
X30969Y470765D1*
X32408Y472108D1*
X33913Y473375D1*
X35482Y474564D1*
X37108Y475675D1*
X38787Y476699D1*
X40517Y477639D1*
X42291Y478491D1*
X44108Y479252D1*
X45958Y479920D1*
X47841Y480493D1*
X49751Y480972D1*
X51681Y481353D1*
X53630Y481636D1*
X55589Y481822D1*
X57555Y481907D1*
X59524Y481894D1*
X61488Y481780D1*
X63446Y481568D1*
X65390Y481257D1*
X67315Y480849D1*
X69218Y480345D1*
X71092Y479744D1*
X72934Y479051D1*
X74739Y478265D1*
X76501Y477388D1*
X78217Y476425D1*
X79882Y475375D1*
X81492Y474244D1*
X83043Y473033D1*
X84531Y471744D1*
X85953Y470382D1*
X87303Y468950D1*
X88580Y467451D1*
X89780Y465891D1*
X90899Y464273D1*
X91934Y462598D1*
X92886Y460875D1*
X93748Y459106D1*
X94520Y457295D1*
X95198Y455448D1*
X95783Y453568D1*
X96274Y451661D1*
X96667Y449734D1*
X96962Y447787D1*
X97159Y445829D1*
X97268Y442913D1*
X97218Y440946D1*
Y240946D2*
X97070Y238983D1*
X96822Y237030D1*
X96475Y235093D1*
X96033Y233175D1*
X95493Y231282D1*
X94858Y229419D1*
X94131Y227589D1*
X93312Y225801D1*
X92404Y224054D1*
X91409Y222356D1*
X90329Y220710D1*
X89169Y219119D1*
X87929Y217592D1*
X86614Y216127D1*
X85226Y214731D1*
X83770Y213407D1*
X82249Y212157D1*
X80667Y210987D1*
X79028Y209898D1*
X77335Y208892D1*
X75594Y207974D1*
X73810Y207144D1*
X71984Y206406D1*
X70126Y205760D1*
X68236Y205209D1*
X66320Y204753D1*
X64386Y204396D1*
X62434Y204136D1*
X60472Y203976D1*
X58505Y203915D1*
X56537Y203951D1*
X54573Y204089D1*
X52619Y204324D1*
X50680Y204659D1*
X48760Y205091D1*
X46864Y205618D1*
X44996Y206241D1*
X43163Y206957D1*
X41367Y207765D1*
X39615Y208663D1*
X37912Y209647D1*
X36260Y210717D1*
X34663Y211867D1*
X33127Y213098D1*
X31655Y214406D1*
X30251Y215783D1*
X28917Y217232D1*
X27659Y218745D1*
X26478Y220320D1*
X25379Y221953D1*
X24364Y223639D1*
X23434Y225374D1*
X22593Y227155D1*
X21844Y228974D1*
X21186Y230829D1*
X20625Y232717D1*
X20157Y234629D1*
X19789Y236562D1*
X19517Y238510D1*
X19344Y240471D1*
X19270Y242438D1*
X19297Y244407D1*
X19421Y246371D1*
X19646Y248327D1*
X19967Y250268D1*
X20387Y252192D1*
X20904Y254091D1*
X21516Y255962D1*
X22220Y257799D1*
X23017Y259598D1*
X23904Y261356D1*
X24878Y263067D1*
X25937Y264726D1*
X27079Y266328D1*
X28301Y267873D1*
X29597Y269353D1*
X30969Y270765D1*
X32408Y272108D1*
X33913Y273375D1*
X35482Y274564D1*
X37108Y275675D1*
X38787Y276699D1*
X40517Y277639D1*
X42291Y278491D1*
X44108Y279252D1*
X45958Y279920D1*
X47841Y280493D1*
X49751Y280972D1*
X51681Y281353D1*
X53630Y281636D1*
X55589Y281822D1*
X57555Y281907D1*
X59524Y281894D1*
X61488Y281780D1*
X63446Y281568D1*
X65390Y281257D1*
X67315Y280849D1*
X69218Y280345D1*
X71092Y279744D1*
X72934Y279051D1*
X74739Y278265D1*
X76501Y277388D1*
X78217Y276425D1*
X79882Y275375D1*
X81492Y274244D1*
X83043Y273033D1*
X84531Y271744D1*
X85953Y270382D1*
X87303Y268950D1*
X88580Y267451D1*
X89780Y265891D1*
X90899Y264273D1*
X91934Y262598D1*
X92886Y260875D1*
X93748Y259106D1*
X94520Y257295D1*
X95198Y255448D1*
X95783Y253568D1*
X96274Y251661D1*
X96667Y249734D1*
X96962Y247787D1*
X97159Y245829D1*
X97268Y242913D1*
X97218Y240946D1*
Y140946D2*
X97070Y138983D1*
X96822Y137030D1*
X96475Y135093D1*
X96033Y133175D1*
X95493Y131282D1*
X94858Y129419D1*
X94131Y127589D1*
X93312Y125801D1*
X92404Y124054D1*
X91409Y122356D1*
X90329Y120710D1*
X89169Y119119D1*
X87929Y117592D1*
X86614Y116127D1*
X85226Y114731D1*
X83770Y113407D1*
X82249Y112157D1*
X80667Y110987D1*
X79028Y109898D1*
X77335Y108892D1*
X75594Y107974D1*
X73810Y107144D1*
X71984Y106406D1*
X70126Y105760D1*
X68236Y105209D1*
X66320Y104753D1*
X64386Y104396D1*
X62434Y104136D1*
X60472Y103976D1*
X58505Y103915D1*
X56537Y103951D1*
X54573Y104089D1*
X52619Y104324D1*
X50680Y104659D1*
X48760Y105091D1*
X46864Y105618D1*
X44996Y106241D1*
X43163Y106957D1*
X41367Y107765D1*
X39615Y108663D1*
X37912Y109647D1*
X36260Y110717D1*
X34663Y111867D1*
X33127Y113098D1*
X31655Y114406D1*
X30251Y115783D1*
X28917Y117232D1*
X27659Y118745D1*
X26478Y120320D1*
X25379Y121953D1*
X24364Y123639D1*
X23434Y125374D1*
X22593Y127155D1*
X21844Y128974D1*
X21186Y130829D1*
X20625Y132717D1*
X20157Y134629D1*
X19789Y136562D1*
X19517Y138510D1*
X19344Y140471D1*
X19270Y142438D1*
X19297Y144407D1*
X19421Y146371D1*
X19646Y148327D1*
X19967Y150268D1*
X20387Y152192D1*
X20904Y154091D1*
X21516Y155962D1*
X22220Y157799D1*
X23017Y159598D1*
X23904Y161356D1*
X24878Y163067D1*
X25937Y164726D1*
X27079Y166328D1*
X28301Y167873D1*
X29597Y169353D1*
X30969Y170765D1*
X32408Y172108D1*
X33913Y173375D1*
X35482Y174564D1*
X37108Y175675D1*
X38787Y176699D1*
X40517Y177639D1*
X42291Y178491D1*
X44108Y179252D1*
X45958Y179920D1*
X47841Y180493D1*
X49751Y180972D1*
X51681Y181353D1*
X53630Y181636D1*
X55589Y181822D1*
X57555Y181907D1*
X59524Y181894D1*
X61488Y181780D1*
X63446Y181568D1*
X65390Y181257D1*
X67315Y180849D1*
X69218Y180345D1*
X71092Y179744D1*
X72934Y179051D1*
X74739Y178265D1*
X76501Y177388D1*
X78217Y176425D1*
X79882Y175375D1*
X81492Y174244D1*
X83043Y173033D1*
X84531Y171744D1*
X85953Y170382D1*
X87303Y168950D1*
X88580Y167451D1*
X89780Y165891D1*
X90899Y164273D1*
X91934Y162598D1*
X92886Y160875D1*
X93748Y159106D1*
X94520Y157295D1*
X95198Y155448D1*
X95783Y153568D1*
X96274Y151661D1*
X96667Y149734D1*
X96962Y147787D1*
X97159Y145829D1*
X97268Y142913D1*
X97218Y140946D1*
X697218Y640946D2*
X697070Y638983D1*
X696822Y637030D1*
X696475Y635093D1*
X696033Y633175D1*
X695493Y631282D1*
X694858Y629419D1*
X694131Y627589D1*
X693312Y625801D1*
X692404Y624054D1*
X691409Y622356D1*
X690329Y620710D1*
X689169Y619119D1*
X687929Y617592D1*
X686614Y616127D1*
X685226Y614731D1*
X683770Y613407D1*
X682249Y612157D1*
X680667Y610987D1*
X679028Y609898D1*
X677335Y608892D1*
X675594Y607974D1*
X673810Y607144D1*
X671984Y606406D1*
X670126Y605760D1*
X668236Y605209D1*
X666320Y604753D1*
X664386Y604396D1*
X662434Y604136D1*
X660472Y603976D1*
X658505Y603915D1*
X656537Y603951D1*
X654573Y604089D1*
X652619Y604324D1*
X650680Y604659D1*
X648760Y605091D1*
X646864Y605618D1*
X644996Y606241D1*
X643163Y606957D1*
X641367Y607765D1*
X639615Y608663D1*
X637912Y609647D1*
X636260Y610717D1*
X634663Y611867D1*
X633127Y613098D1*
X631655Y614406D1*
X630251Y615783D1*
X628917Y617232D1*
X627659Y618745D1*
X626478Y620320D1*
X625379Y621953D1*
X624364Y623639D1*
X623434Y625374D1*
X622593Y627155D1*
X621844Y628974D1*
X621186Y630829D1*
X620625Y632717D1*
X620157Y634629D1*
X619789Y636562D1*
X619517Y638510D1*
X619344Y640471D1*
X619270Y642438D1*
X619297Y644407D1*
X619421Y646371D1*
X619646Y648327D1*
X619967Y650268D1*
X620387Y652192D1*
X620904Y654091D1*
X621516Y655962D1*
X622220Y657799D1*
X623017Y659598D1*
X623904Y661356D1*
X624878Y663067D1*
X625937Y664726D1*
X627079Y666328D1*
X628301Y667873D1*
X629597Y669353D1*
X630969Y670765D1*
X632408Y672108D1*
X633913Y673375D1*
X635482Y674564D1*
X637108Y675675D1*
X638787Y676699D1*
X640517Y677639D1*
X642291Y678491D1*
X644108Y679252D1*
X645958Y679920D1*
X647841Y680493D1*
X649751Y680972D1*
X651681Y681353D1*
X653630Y681636D1*
X655589Y681822D1*
X657555Y681907D1*
X659524Y681894D1*
X661488Y681780D1*
X663446Y681568D1*
X665390Y681257D1*
X667315Y680849D1*
X669218Y680345D1*
X671092Y679744D1*
X672934Y679051D1*
X674739Y678265D1*
X676501Y677388D1*
X678217Y676425D1*
X679882Y675375D1*
X681492Y674244D1*
X683043Y673033D1*
X684531Y671744D1*
X685953Y670382D1*
X687303Y668950D1*
X688580Y667451D1*
X689780Y665891D1*
X690899Y664273D1*
X691934Y662598D1*
X692886Y660875D1*
X693748Y659106D1*
X694520Y657295D1*
X695198Y655448D1*
X695783Y653568D1*
X696274Y651661D1*
X696667Y649734D1*
X696962Y647787D1*
X697159Y645829D1*
X697268Y642913D1*
X697218Y640946D1*
Y740946D2*
X697070Y738983D1*
X696822Y737030D1*
X696475Y735093D1*
X696033Y733175D1*
X695493Y731282D1*
X694858Y729419D1*
X694131Y727589D1*
X693312Y725801D1*
X692404Y724054D1*
X691409Y722356D1*
X690329Y720710D1*
X689169Y719119D1*
X687929Y717592D1*
X686614Y716127D1*
X685226Y714731D1*
X683770Y713407D1*
X682249Y712157D1*
X680667Y710987D1*
X679028Y709898D1*
X677335Y708892D1*
X675594Y707974D1*
X673810Y707144D1*
X671984Y706406D1*
X670126Y705760D1*
X668236Y705209D1*
X666320Y704753D1*
X664386Y704396D1*
X662434Y704136D1*
X660472Y703976D1*
X658505Y703915D1*
X656537Y703951D1*
X654573Y704089D1*
X652619Y704324D1*
X650680Y704659D1*
X648760Y705091D1*
X646864Y705618D1*
X644996Y706241D1*
X643163Y706957D1*
X641367Y707765D1*
X639615Y708663D1*
X637912Y709647D1*
X636260Y710717D1*
X634663Y711867D1*
X633127Y713098D1*
X631655Y714406D1*
X630251Y715783D1*
X628917Y717232D1*
X627659Y718745D1*
X626478Y720320D1*
X625379Y721953D1*
X624364Y723639D1*
X623434Y725374D1*
X622593Y727155D1*
X621844Y728974D1*
X621186Y730829D1*
X620625Y732717D1*
X620157Y734629D1*
X619789Y736562D1*
X619517Y738510D1*
X619344Y740471D1*
X619270Y742438D1*
X619297Y744407D1*
X619421Y746371D1*
X619646Y748327D1*
X619967Y750268D1*
X620387Y752192D1*
X620904Y754091D1*
X621516Y755962D1*
X622220Y757799D1*
X623017Y759598D1*
X623904Y761356D1*
X624878Y763067D1*
X625937Y764726D1*
X627079Y766328D1*
X628301Y767873D1*
X629597Y769353D1*
X630969Y770765D1*
X632408Y772108D1*
X633913Y773375D1*
X635482Y774564D1*
X637108Y775675D1*
X638787Y776699D1*
X640517Y777639D1*
X642291Y778491D1*
X644108Y779252D1*
X645958Y779920D1*
X647841Y780493D1*
X649751Y780972D1*
X651681Y781353D1*
X653630Y781636D1*
X655589Y781822D1*
X657555Y781907D1*
X659524Y781894D1*
X661488Y781780D1*
X663446Y781568D1*
X665390Y781257D1*
X667315Y780849D1*
X669218Y780345D1*
X671092Y779744D1*
X672934Y779051D1*
X674739Y778265D1*
X676501Y777388D1*
X678217Y776425D1*
X679882Y775375D1*
X681492Y774244D1*
X683043Y773033D1*
X684531Y771744D1*
X685953Y770382D1*
X687303Y768950D1*
X688580Y767451D1*
X689780Y765891D1*
X690899Y764273D1*
X691934Y762598D1*
X692886Y760875D1*
X693748Y759106D1*
X694520Y757295D1*
X695198Y755448D1*
X695783Y753568D1*
X696274Y751661D1*
X696667Y749734D1*
X696962Y747787D1*
X697159Y745829D1*
X697268Y742913D1*
X697218Y740946D1*
Y1040946D2*
X697070Y1038983D1*
X696822Y1037030D1*
X696475Y1035093D1*
X696033Y1033175D1*
X695493Y1031282D1*
X694858Y1029419D1*
X694131Y1027589D1*
X693312Y1025801D1*
X692404Y1024054D1*
X691409Y1022356D1*
X690329Y1020710D1*
X689169Y1019119D1*
X687929Y1017592D1*
X686614Y1016127D1*
X685226Y1014731D1*
X683770Y1013407D1*
X682249Y1012157D1*
X680667Y1010987D1*
X679028Y1009898D1*
X677335Y1008892D1*
X675594Y1007974D1*
X673810Y1007144D1*
X671984Y1006406D1*
X670126Y1005760D1*
X668236Y1005209D1*
X666320Y1004753D1*
X664386Y1004396D1*
X662434Y1004136D1*
X660472Y1003976D1*
X658505Y1003915D1*
X656537Y1003951D1*
X654573Y1004089D1*
X652619Y1004324D1*
X650680Y1004659D1*
X648760Y1005091D1*
X646864Y1005618D1*
X644996Y1006241D1*
X643163Y1006957D1*
X641367Y1007765D1*
X639615Y1008663D1*
X637912Y1009647D1*
X636260Y1010717D1*
X634663Y1011867D1*
X633127Y1013098D1*
X631655Y1014406D1*
X630251Y1015783D1*
X628917Y1017232D1*
X627659Y1018745D1*
X626478Y1020320D1*
X625379Y1021953D1*
X624364Y1023639D1*
X623434Y1025374D1*
X622593Y1027155D1*
X621844Y1028974D1*
X621186Y1030829D1*
X620625Y1032717D1*
X620157Y1034629D1*
X619789Y1036562D1*
X619517Y1038510D1*
X619344Y1040471D1*
X619270Y1042438D1*
X619297Y1044407D1*
X619421Y1046371D1*
X619646Y1048327D1*
X619967Y1050268D1*
X620387Y1052192D1*
X620904Y1054091D1*
X621516Y1055962D1*
X622220Y1057799D1*
X623017Y1059598D1*
X623904Y1061356D1*
X624878Y1063067D1*
X625937Y1064726D1*
X627079Y1066328D1*
X628301Y1067873D1*
X629597Y1069353D1*
X630969Y1070765D1*
X632408Y1072108D1*
X633913Y1073375D1*
X635482Y1074564D1*
X637108Y1075675D1*
X638787Y1076699D1*
X640517Y1077639D1*
X642291Y1078491D1*
X644108Y1079252D1*
X645958Y1079920D1*
X647841Y1080493D1*
X649751Y1080972D1*
X651681Y1081353D1*
X653630Y1081636D1*
X655589Y1081822D1*
X657555Y1081907D1*
X659524Y1081894D1*
X661488Y1081780D1*
X663446Y1081568D1*
X665390Y1081257D1*
X667315Y1080849D1*
X669218Y1080345D1*
X671092Y1079744D1*
X672934Y1079051D1*
X674739Y1078265D1*
X676501Y1077388D1*
X678217Y1076425D1*
X679882Y1075375D1*
X681492Y1074244D1*
X683043Y1073033D1*
X684531Y1071744D1*
X685953Y1070382D1*
X687303Y1068950D1*
X688580Y1067451D1*
X689780Y1065891D1*
X690899Y1064273D1*
X691934Y1062598D1*
X692886Y1060875D1*
X693748Y1059106D1*
X694520Y1057295D1*
X695198Y1055448D1*
X695783Y1053568D1*
X696274Y1051661D1*
X696667Y1049734D1*
X696962Y1047787D1*
X697159Y1045829D1*
X697268Y1042913D1*
X697218Y1040946D1*
Y1240946D2*
X697070Y1238983D1*
X696822Y1237030D1*
X696475Y1235093D1*
X696033Y1233175D1*
X695493Y1231282D1*
X694858Y1229419D1*
X694131Y1227589D1*
X693312Y1225801D1*
X692404Y1224054D1*
X691409Y1222356D1*
X690329Y1220710D1*
X689169Y1219119D1*
X687929Y1217592D1*
X686614Y1216127D1*
X685226Y1214731D1*
X683770Y1213407D1*
X682249Y1212157D1*
X680667Y1210987D1*
X679028Y1209898D1*
X677335Y1208892D1*
X675594Y1207974D1*
X673810Y1207144D1*
X671984Y1206406D1*
X670126Y1205760D1*
X668236Y1205209D1*
X666320Y1204753D1*
X664386Y1204396D1*
X662434Y1204136D1*
X660472Y1203976D1*
X658505Y1203915D1*
X656537Y1203951D1*
X654573Y1204089D1*
X652619Y1204324D1*
X650680Y1204659D1*
X648760Y1205091D1*
X646864Y1205618D1*
X644996Y1206241D1*
X643163Y1206957D1*
X641367Y1207765D1*
X639615Y1208663D1*
X637912Y1209647D1*
X636260Y1210717D1*
X634663Y1211867D1*
X633127Y1213098D1*
X631655Y1214406D1*
X630251Y1215783D1*
X628917Y1217232D1*
X627659Y1218745D1*
X626478Y1220320D1*
X625379Y1221953D1*
X624364Y1223639D1*
X623434Y1225374D1*
X622593Y1227155D1*
X621844Y1228974D1*
X621186Y1230829D1*
X620625Y1232717D1*
X620157Y1234629D1*
X619789Y1236562D1*
X619517Y1238510D1*
X619344Y1240471D1*
X619270Y1242438D1*
X619297Y1244407D1*
X619421Y1246371D1*
X619646Y1248327D1*
X619967Y1250268D1*
X620387Y1252192D1*
X620904Y1254091D1*
X621516Y1255962D1*
X622220Y1257799D1*
X623017Y1259598D1*
X623904Y1261356D1*
X624878Y1263067D1*
X625937Y1264726D1*
X627079Y1266328D1*
X628301Y1267873D1*
X629597Y1269353D1*
X630969Y1270765D1*
X632408Y1272108D1*
X633913Y1273375D1*
X635482Y1274564D1*
X637108Y1275675D1*
X638787Y1276699D1*
X640517Y1277639D1*
X642291Y1278491D1*
X644108Y1279252D1*
X645958Y1279920D1*
X647841Y1280493D1*
X649751Y1280972D1*
X651681Y1281353D1*
X653630Y1281636D1*
X655589Y1281822D1*
X657555Y1281907D1*
X659524Y1281894D1*
X661488Y1281780D1*
X663446Y1281568D1*
X665390Y1281257D1*
X667315Y1280849D1*
X669218Y1280345D1*
X671092Y1279744D1*
X672934Y1279051D1*
X674739Y1278265D1*
X676501Y1277388D1*
X678217Y1276425D1*
X679882Y1275375D1*
X681492Y1274244D1*
X683043Y1273033D1*
X684531Y1271744D1*
X685953Y1270382D1*
X687303Y1268950D1*
X688580Y1267451D1*
X689780Y1265891D1*
X690899Y1264273D1*
X691934Y1262598D1*
X692886Y1260875D1*
X693748Y1259106D1*
X694520Y1257295D1*
X695198Y1255448D1*
X695783Y1253568D1*
X696274Y1251661D1*
X696667Y1249734D1*
X696962Y1247787D1*
X697159Y1245829D1*
X697268Y1242913D1*
X697218Y1240946D1*
Y1340946D2*
X697070Y1338983D1*
X696822Y1337030D1*
X696475Y1335093D1*
X696033Y1333175D1*
X695493Y1331282D1*
X694858Y1329419D1*
X694131Y1327589D1*
X693312Y1325801D1*
X692404Y1324054D1*
X691409Y1322356D1*
X690329Y1320710D1*
X689169Y1319119D1*
X687929Y1317592D1*
X686614Y1316127D1*
X685226Y1314731D1*
X683770Y1313407D1*
X682249Y1312157D1*
X680667Y1310987D1*
X679028Y1309898D1*
X677335Y1308892D1*
X675594Y1307974D1*
X673810Y1307144D1*
X671984Y1306406D1*
X670126Y1305760D1*
X668236Y1305209D1*
X666320Y1304753D1*
X664386Y1304396D1*
X662434Y1304136D1*
X660472Y1303976D1*
X658505Y1303915D1*
X656537Y1303951D1*
X654573Y1304089D1*
X652619Y1304324D1*
X650680Y1304659D1*
X648760Y1305091D1*
X646864Y1305618D1*
X644996Y1306241D1*
X643163Y1306957D1*
X641367Y1307765D1*
X639615Y1308663D1*
X637912Y1309647D1*
X636260Y1310717D1*
X634663Y1311867D1*
X633127Y1313098D1*
X631655Y1314406D1*
X630251Y1315783D1*
X628917Y1317232D1*
X627659Y1318745D1*
X626478Y1320320D1*
X625379Y1321953D1*
X624364Y1323639D1*
X623434Y1325374D1*
X622593Y1327155D1*
X621844Y1328974D1*
X621186Y1330829D1*
X620625Y1332717D1*
X620157Y1334629D1*
X619789Y1336562D1*
X619517Y1338510D1*
X619344Y1340471D1*
X619270Y1342438D1*
X619297Y1344407D1*
X619421Y1346371D1*
X619646Y1348327D1*
X619967Y1350268D1*
X620387Y1352192D1*
X620904Y1354091D1*
X621516Y1355962D1*
X622220Y1357799D1*
X623017Y1359598D1*
X623904Y1361356D1*
X624878Y1363067D1*
X625937Y1364726D1*
X627079Y1366328D1*
X628301Y1367873D1*
X629597Y1369353D1*
X630969Y1370765D1*
X632408Y1372108D1*
X633913Y1373375D1*
X635482Y1374564D1*
X637108Y1375675D1*
X638787Y1376699D1*
X640517Y1377639D1*
X642291Y1378491D1*
X644108Y1379252D1*
X645958Y1379920D1*
X647841Y1380493D1*
X649751Y1380972D1*
X651681Y1381353D1*
X653630Y1381636D1*
X655589Y1381822D1*
X657555Y1381907D1*
X659524Y1381894D1*
X661488Y1381780D1*
X663446Y1381568D1*
X665390Y1381257D1*
X667315Y1380849D1*
X669218Y1380345D1*
X671092Y1379744D1*
X672934Y1379051D1*
X674739Y1378265D1*
X676501Y1377388D1*
X678217Y1376425D1*
X679882Y1375375D1*
X681492Y1374244D1*
X683043Y1373033D1*
X684531Y1371744D1*
X685953Y1370382D1*
X687303Y1368950D1*
X688580Y1367451D1*
X689780Y1365891D1*
X690899Y1364273D1*
X691934Y1362598D1*
X692886Y1360875D1*
X693748Y1359106D1*
X694520Y1357295D1*
X695198Y1355448D1*
X695783Y1353568D1*
X696274Y1351661D1*
X696667Y1349734D1*
X696962Y1347787D1*
X697159Y1345829D1*
X697268Y1342913D1*
X697218Y1340946D1*
X577642Y351190D2*
X577644Y351194D1*
X273180Y1385927D2*
D14*
Y1326572D1*
Y518751D2*
Y489073D1*
Y973428D2*
Y914073D1*
X573180Y1385927D2*
Y1326572D1*
Y973428D2*
Y914073D1*
Y548428D2*
Y489073D1*
X287500Y1314520D2*
Y1235480D1*
X587500Y1314520D2*
Y1235480D1*
X287500Y889520D2*
Y810480D1*
X587500Y889520D2*
Y810480D1*
X287500Y464520D2*
Y385480D1*
X587500Y464520D2*
Y385480D1*
X30696Y1370486D2*
D17*
X85840Y1315341D1*
Y1370486D2*
X30696Y1315341D1*
X330696Y70486D2*
X385840Y15341D1*
Y70486D2*
X330696Y15341D1*
D19*
X206251Y1356249D3*
X273180D3*
X206251Y518751D3*
X273180D3*
X206251Y943751D3*
X273180D3*
X506251Y1356249D3*
X573180D3*
X506251Y943751D3*
X573180D3*
X506251Y518751D3*
X573180D3*
D20*
X137500Y1275000D3*
X187500D3*
X237500D3*
X287500D3*
Y1062402D3*
X237500D3*
X187500D3*
X137500D3*
X437500Y1275000D3*
X487500D3*
X537500D3*
X587500D3*
Y1062402D3*
X537500D3*
X487500D3*
X437500D3*
X137500Y850000D3*
X187500D3*
X237500D3*
X287500D3*
Y637402D3*
X237500D3*
X187500D3*
X137500D3*
X437500Y850000D3*
X487500D3*
X537500D3*
X587500D3*
Y637402D3*
X537500D3*
X487500D3*
X437500D3*
X137500Y425000D3*
X187500D3*
X237500D3*
X287500D3*
Y212402D3*
X237500D3*
X187500D3*
X137500D3*
X437500Y425000D3*
X487500D3*
X537500D3*
X587500D3*
Y212402D3*
X537500D3*
X487500D3*
X437500D3*
D26*
X58268Y1342913D3*
Y1242913D3*
Y1142913D3*
Y1042913D3*
Y942913D3*
Y842913D3*
Y742913D3*
Y642913D3*
Y542913D3*
Y442913D3*
Y342913D3*
Y242913D3*
Y142913D3*
Y42913D3*
X158268D3*
X258268D3*
X358268D3*
X458268D3*
X558268D3*
X658268D3*
Y142913D3*
Y242913D3*
Y342913D3*
Y442913D3*
Y542913D3*
Y642913D3*
Y742913D3*
Y842913D3*
Y942913D3*
Y1042913D3*
Y1142913D3*
Y1242913D3*
Y1342913D3*
M02*
