G04 DipTrace 3.3.1.1*
G04 BottomAssy.gbr*
%MOIN*%
G04 #@! TF.FileFunction,Drawing,Bot*
G04 #@! TF.Part,Single*
%ADD11C,0.005512*%
%ADD16C,0.003937*%
%ADD18C,0.004*%
%FSLAX26Y26*%
G04*
G70*
G90*
G75*
G01*
G04 BotAssy*
%LPD*%
X225704Y1339241D2*
D18*
X253726D1*
X225704Y1372745D2*
X253726D1*
G36*
X206710Y1374749D2*
X226410D1*
Y1337348D1*
X206710D1*
Y1374749D1*
G37*
G36*
X252712D2*
X272400D1*
Y1337348D1*
X252712D1*
Y1374749D1*
G37*
G36*
X231844Y1368060D2*
X247586D1*
Y1344438D1*
X231844D1*
Y1368060D1*
G37*
X225704Y501743D2*
D18*
X253726D1*
X225704Y535247D2*
X253726D1*
G36*
X206710Y537251D2*
X226410D1*
Y499849D1*
X206710D1*
Y537251D1*
G37*
G36*
X252712D2*
X272400D1*
Y499849D1*
X252712D1*
Y537251D1*
G37*
G36*
X231844Y530562D2*
X247586D1*
Y506940D1*
X231844D1*
Y530562D1*
G37*
X225704Y926743D2*
D18*
X253726D1*
X225704Y960247D2*
X253726D1*
G36*
X206710Y962251D2*
X226410D1*
Y924849D1*
X206710D1*
Y962251D1*
G37*
G36*
X252712D2*
X272400D1*
Y924849D1*
X252712D1*
Y962251D1*
G37*
G36*
X231844Y955562D2*
X247586D1*
Y931940D1*
X231844D1*
Y955562D1*
G37*
X525704Y1339241D2*
D18*
X553726D1*
X525704Y1372745D2*
X553726D1*
G36*
X506710Y1374749D2*
X526410D1*
Y1337348D1*
X506710D1*
Y1374749D1*
G37*
G36*
X552712D2*
X572400D1*
Y1337348D1*
X552712D1*
Y1374749D1*
G37*
G36*
X531844Y1368060D2*
X547586D1*
Y1344438D1*
X531844D1*
Y1368060D1*
G37*
X525704Y926743D2*
D18*
X553726D1*
X525704Y960247D2*
X553726D1*
G36*
X506710Y962251D2*
X526410D1*
Y924849D1*
X506710D1*
Y962251D1*
G37*
G36*
X552712D2*
X572400D1*
Y924849D1*
X552712D1*
Y962251D1*
G37*
G36*
X531844Y955562D2*
X547586D1*
Y931940D1*
X531844D1*
Y955562D1*
G37*
X525704Y501743D2*
D18*
X553726D1*
X525704Y535247D2*
X553726D1*
G36*
X506710Y537251D2*
X526410D1*
Y499849D1*
X506710D1*
Y537251D1*
G37*
G36*
X552712D2*
X572400D1*
Y499849D1*
X552712D1*
Y537251D1*
G37*
G36*
X531844Y530562D2*
X547586D1*
Y506940D1*
X531844D1*
Y530562D1*
G37*
X116058Y1245459D2*
D16*
Y1091943D1*
X308941D1*
Y1245459D1*
X116058D1*
X165962D2*
X116058Y1195410D1*
X416058Y1245459D2*
Y1091943D1*
X608941D1*
Y1245459D1*
X416058D1*
X465962D2*
X416058Y1195410D1*
X116058Y820459D2*
Y666943D1*
X308941D1*
Y820459D1*
X116058D1*
X165962D2*
X116058Y770410D1*
X416058Y820459D2*
Y666943D1*
X608941D1*
Y820459D1*
X416058D1*
X465962D2*
X416058Y770410D1*
X116058Y395459D2*
Y241943D1*
X308941D1*
Y395459D1*
X116058D1*
X165962D2*
X116058Y345410D1*
X416058Y395459D2*
Y241943D1*
X608941D1*
Y395459D1*
X416058D1*
X465962D2*
X416058Y345410D1*
X20866Y-3543D2*
D11*
X698031D1*
G03X717717Y16142I2J19683D01*
G01*
Y1378346D1*
G03X698031Y1398031I-19683J2D01*
G01*
X20866D1*
G03X1181Y1378346I-2J-19683D01*
G01*
Y16142D1*
G03X20866Y-3543I19683J-2D01*
G01*
M02*
