G04 DipTrace 3.3.1.1*
G04 BottomMask.gbr*
%MOIN*%
G04 #@! TF.FileFunction,Soldermask,Bot*
G04 #@! TF.Part,Single*
%ADD31C,0.065874*%
%ADD37R,0.033465X0.066929*%
%ADD39R,0.051181X0.047244*%
%FSLAX26Y26*%
G04*
G70*
G90*
G75*
G01*
G04 BotMask*
%LPD*%
D39*
X206251Y1356249D3*
X273180D3*
X206251Y518751D3*
X273180D3*
X206251Y943751D3*
X273180D3*
X506251Y1356249D3*
X573180D3*
X506251Y943751D3*
X573180D3*
X506251Y518751D3*
X573180D3*
D37*
X137500Y1275000D3*
X187500D3*
X237500D3*
X287500D3*
Y1062402D3*
X237500D3*
X187500D3*
X137500D3*
X437500Y1275000D3*
X487500D3*
X537500D3*
X587500D3*
Y1062402D3*
X537500D3*
X487500D3*
X437500D3*
X137500Y850000D3*
X187500D3*
X237500D3*
X287500D3*
Y637402D3*
X237500D3*
X187500D3*
X137500D3*
X437500Y850000D3*
X487500D3*
X537500D3*
X587500D3*
Y637402D3*
X537500D3*
X487500D3*
X437500D3*
X137500Y425000D3*
X187500D3*
X237500D3*
X287500D3*
Y212402D3*
X237500D3*
X187500D3*
X137500D3*
X437500Y425000D3*
X487500D3*
X537500D3*
X587500D3*
Y212402D3*
X537500D3*
X487500D3*
X437500D3*
D31*
X58268Y1342913D3*
Y1242913D3*
Y1142913D3*
Y1042913D3*
Y942913D3*
Y842913D3*
Y742913D3*
Y642913D3*
Y542913D3*
Y442913D3*
Y342913D3*
Y242913D3*
Y142913D3*
Y42913D3*
X158268D3*
X258268D3*
X358268D3*
X458268D3*
X558268D3*
X658268D3*
Y142913D3*
Y242913D3*
Y342913D3*
Y442913D3*
Y542913D3*
Y642913D3*
Y742913D3*
Y842913D3*
Y942913D3*
Y1042913D3*
Y1142913D3*
Y1242913D3*
Y1342913D3*
M02*
