G04 DipTrace 3.3.1.1*
G04 BottomSilk.gbr*
%MOIN*%
G04 #@! TF.FileFunction,Legend,Bot*
G04 #@! TF.Part,Single*
%ADD14C,0.007874*%
%ADD41C,0.003281*%
%FSLAX26Y26*%
G04*
G70*
G90*
G75*
G01*
G04 BotSilk*
%LPD*%
X116058Y1231656D2*
D14*
Y1105746D1*
X308941D1*
Y1231656D1*
X116058D1*
X110909Y1304583D2*
Y1245459D1*
X416058Y1231656D2*
Y1105746D1*
X608941D1*
Y1231656D1*
X416058D1*
X410909Y1304583D2*
Y1245459D1*
X116058Y806656D2*
Y680746D1*
X308941D1*
Y806656D1*
X116058D1*
X110909Y879583D2*
Y820459D1*
X416058Y806656D2*
Y680746D1*
X608941D1*
Y806656D1*
X416058D1*
X410909Y879583D2*
Y820459D1*
X116058Y381656D2*
Y255746D1*
X308941D1*
Y381656D1*
X116058D1*
X110909Y454583D2*
Y395459D1*
X416058Y381656D2*
Y255746D1*
X608941D1*
Y381656D1*
X416058D1*
X410909Y454583D2*
Y395459D1*
X150122Y1356979D2*
D41*
Y1333998D1*
X151548Y1329720D1*
X152974Y1328261D1*
X155859Y1326835D1*
X160170D1*
X163022Y1328261D1*
X150122Y1352668D2*
X152974Y1355520D1*
X155859Y1356979D1*
X160170D1*
X163022Y1355520D1*
X165907Y1352668D1*
X167333Y1348357D1*
Y1345472D1*
X165907Y1341194D1*
X163022Y1338309D1*
X160170Y1336883D1*
X155859D1*
X152974Y1338309D1*
X150122Y1341194D1*
X143560Y1358405D2*
Y1338309D1*
Y1352668D2*
X139249Y1356979D1*
X136364Y1358405D1*
X132086D1*
X129201Y1356979D1*
X127775Y1352668D1*
Y1338309D1*
X104003Y1368453D2*
Y1338309D1*
Y1354094D2*
X106855Y1356979D1*
X109740Y1358405D1*
X114051D1*
X116903Y1356979D1*
X119788Y1354094D1*
X121214Y1349783D1*
Y1346931D1*
X119788Y1342620D1*
X116903Y1339768D1*
X114051Y1338309D1*
X109740D1*
X106855Y1339768D1*
X104003Y1342620D1*
M02*
