M48
INCH
T01C0.0138
T02C0.038
%
T01
X+001375Y+001375
X+002313Y+001563
X+002875Y+002125
X+003875Y+001875
X+004750Y+003313
X+004000Y+003688
X+003188Y+004938
X+003375Y+006625
X+004000Y+006625
X+004250Y+007375
X+003938Y+008000
X+004375Y+008500
X+004313Y+009687
X+003438Y+009812
X+002250Y+008688
X+002750Y+007437
X+002375Y+007062
X+002000Y+007312
X+001313Y+007688
X+001438Y+005250
X+001000Y+003875
X+004875Y+006250
X+005688Y+005625
X+005375Y+007750
X+005375Y+011813
X+006063Y+011890
X+004375Y+012688
X+003625Y+013563
X+003875Y+011625
X+001375Y+012750
X+006142Y+003031
T02
X+000583Y+013429
X+000583Y+012429
X+000583Y+011429
X+000583Y+010429
X+000583Y+009429
X+000583Y+008429
X+000583Y+007429
X+000583Y+006429
X+000583Y+005429
X+000583Y+004429
X+000583Y+003429
X+000583Y+002429
X+000583Y+001429
X+000583Y+000429
X+001583Y+000429
X+002583Y+000429
X+003583Y+000429
X+004583Y+000429
X+005583Y+000429
X+006583Y+000429
X+006583Y+001429
X+006583Y+002429
X+006583Y+003429
X+006583Y+004429
X+006583Y+005429
X+006583Y+006429
X+006583Y+007429
X+006583Y+008429
X+006583Y+009429
X+006583Y+010429
X+006583Y+011429
X+006583Y+012429
X+006583Y+013429
T00
M30
