G04 DipTrace 3.3.1.1*
G04 Top.gbr*
%MOIN*%
G04 #@! TF.FileFunction,Copper,L1,Top*
G04 #@! TF.Part,Single*
G04 #@! TA.AperFunction,Conductor*
%ADD13C,0.006*%
G04 #@! TA.AperFunction,CopperBalancing*
%ADD14C,0.007874*%
G04 #@! TA.AperFunction,Conductor*
%ADD15C,0.01*%
G04 #@! TA.AperFunction,CopperBalancing*
%ADD16C,0.003937*%
%ADD17C,0.015748*%
%ADD22R,0.08X0.026*%
%ADD23R,0.03937X0.043307*%
G04 #@! TA.AperFunction,ComponentPad*
%ADD26C,0.058*%
G04 #@! TA.AperFunction,ViaPad*
%ADD27C,0.023622*%
%FSLAX26Y26*%
G04*
G70*
G90*
G75*
G01*
G04 Top*
%LPD*%
X137500Y1275000D2*
D13*
X162500Y1300000D1*
X450000D1*
X468749Y1281251D1*
Y1106249D1*
X493751Y1081249D1*
X535751D1*
X437500Y1268751D2*
Y1044386D1*
X450636Y1031249D1*
X535751D1*
X131251Y768751D2*
X332585D1*
X371555Y807720D1*
Y858957D1*
X493849Y981249D1*
X535751D1*
X437500Y850000D2*
Y886969D1*
X481781Y931249D1*
X535751D1*
X143751Y525000D2*
Y568751D1*
X262106Y687106D1*
X442866D1*
X456740Y700980D1*
Y830756D1*
X507234Y881249D1*
X535751D1*
X400000Y662500D2*
X455039D1*
X470614Y678075D1*
Y820083D1*
X481781Y831251D1*
X535751D1*
X118751Y843751D2*
X58268D1*
Y842913D1*
X18524Y882657D1*
Y1068524D1*
X43751Y1093751D1*
X75001D1*
X106249Y1124999D1*
Y1162499D1*
X162501Y1218751D1*
X337499D1*
X356249Y1200000D1*
Y1106248D1*
X331251Y1081249D1*
X293751D1*
X58268Y942913D2*
X118751D1*
Y943751D1*
X152118D1*
Y1120084D1*
X163283Y1131249D1*
X293751D1*
X58268Y1042913D2*
X118751D1*
Y1043749D1*
X131249D1*
Y1156249D1*
X156249Y1181249D1*
X293751D1*
X231251Y156251D2*
D14*
X304125D1*
X334055Y186181D1*
Y376327D1*
X304131Y406251D1*
X136007D1*
X117740Y424516D1*
Y680239D1*
X143751Y706249D1*
X237500D1*
X318751Y493751D2*
X293848D1*
X281346Y481249D1*
X231251D1*
X237500Y706249D2*
X371647D1*
X393751Y728353D1*
Y800000D1*
X614173Y303150D2*
Y306249D1*
X386762D1*
X359055Y333957D1*
Y496458D1*
X324264Y531249D1*
X231251D1*
X287500Y212500D2*
X202224D1*
X175000Y239724D1*
Y318751D1*
X187500Y331249D1*
X231251D1*
X58268Y142913D2*
X124551Y209197D1*
Y368209D1*
X137592Y381249D1*
X231251D1*
X473251Y331249D2*
Y331251D1*
X475000D1*
X58268Y42913D2*
X111811Y96457D1*
X296555D1*
X359055Y158957D1*
Y233958D1*
X406346Y281249D1*
X473251D1*
X231251Y431249D2*
D13*
X186861D1*
X177165Y440945D1*
Y570866D1*
X187549Y581249D1*
X231251D1*
X297970D1*
X350677Y633957D1*
X460244D1*
X496555Y670268D1*
Y708957D1*
X530764Y743165D1*
X582925D1*
X598673Y758913D1*
Y1131249D1*
X535751D1*
X582925Y743165D2*
X598673Y727417D1*
Y397831D1*
X582092Y381249D1*
X473251D1*
X487500Y625000D2*
D15*
Y581249D1*
X473251D1*
X225000Y868751D2*
Y912500D1*
X243749Y931249D1*
X293751D1*
X200000Y731249D2*
X137500D1*
X100000Y693749D1*
Y387500D1*
X293751Y931249D2*
X393751D1*
X431251Y968749D1*
X535751Y1181249D2*
D14*
Y1181251D1*
X537500D1*
D27*
X137500Y137500D3*
X400000Y368751D3*
X568751Y562500D3*
X275000Y743749D3*
X425000Y737500D3*
X343751Y981249D3*
X606299Y1188976D3*
X362500Y1356251D3*
X537500Y775000D3*
X337500Y662500D3*
X387500Y187500D3*
Y1162500D3*
X137500Y1275000D3*
X437500Y1268751D3*
X131251Y768751D3*
X437500Y850000D3*
X143751Y525000D3*
X400000Y662500D3*
X393751Y800000D3*
X231251Y156251D3*
X318751Y493751D3*
X237500Y706249D3*
X614173Y303150D3*
X287500Y212500D3*
X475000Y331251D3*
X487500Y625000D3*
X431251Y968749D3*
X225000Y868751D3*
X100000Y387500D3*
X200000Y731249D3*
X537500Y1181251D3*
X13697Y1384383D2*
D16*
X705201D1*
X11798Y1380577D2*
X47751D1*
X68785D2*
X647752D1*
X668778D2*
X707100D1*
X11421Y1376772D2*
X38516D1*
X78020D2*
X638517D1*
X678013D2*
X707476D1*
X11421Y1372966D2*
X33018D1*
X83517D2*
X633020D1*
X683520D2*
X707476D1*
X11421Y1369160D2*
X29028D1*
X87508D2*
X629029D1*
X687510D2*
X707476D1*
X11421Y1365354D2*
X25974D1*
X90562D2*
X625976D1*
X690555D2*
X707476D1*
X11421Y1361549D2*
X23614D1*
X92921D2*
X623615D1*
X692924D2*
X707476D1*
X11421Y1357743D2*
X21807D1*
X94728D2*
X621801D1*
X694731D2*
X707476D1*
X11421Y1353937D2*
X20461D1*
X96075D2*
X620462D1*
X696068D2*
X707476D1*
X11421Y1350131D2*
X19546D1*
X96990D2*
X619547D1*
X696991D2*
X707476D1*
X11421Y1346325D2*
X19024D1*
X97512D2*
X619025D1*
X697514D2*
X707476D1*
X11421Y1342520D2*
X18877D1*
X97659D2*
X618878D1*
X697660D2*
X707476D1*
X11421Y1338714D2*
X19100D1*
X97436D2*
X619101D1*
X697437D2*
X707476D1*
X11421Y1334908D2*
X19707D1*
X96828D2*
X619701D1*
X696829D2*
X707476D1*
X11421Y1331102D2*
X20707D1*
X95828D2*
X620709D1*
X695829D2*
X707476D1*
X11421Y1327297D2*
X22138D1*
X94398D2*
X622139D1*
X694400D2*
X707476D1*
X11421Y1323491D2*
X24052D1*
X92483D2*
X624054D1*
X692478D2*
X707476D1*
X11421Y1319685D2*
X26543D1*
X89992D2*
X626545D1*
X689986D2*
X707476D1*
X11421Y1315879D2*
X29765D1*
X86770D2*
X629766D1*
X686772D2*
X707476D1*
X11421Y1312073D2*
X34003D1*
X82533D2*
X157287D1*
X455211D2*
X634004D1*
X682535D2*
X707476D1*
X11421Y1308268D2*
X39969D1*
X76567D2*
X151990D1*
X460509D2*
X639963D1*
X676568D2*
X707476D1*
X11421Y1304462D2*
X51357D1*
X65178D2*
X148182D1*
X464315D2*
X651358D1*
X665180D2*
X707476D1*
X11421Y1300656D2*
X144377D1*
X468122D2*
X707476D1*
X11421Y1296850D2*
X140571D1*
X471928D2*
X707476D1*
X11421Y1293045D2*
X124853D1*
X475735D2*
X707476D1*
X11421Y1289239D2*
X120585D1*
X479402D2*
X707476D1*
X11421Y1285433D2*
X117955D1*
X166710D2*
X423059D1*
X481455D2*
X707476D1*
X11421Y1281627D2*
X53156D1*
X63379D2*
X116325D1*
X162904D2*
X419499D1*
X482139D2*
X653157D1*
X663373D2*
X707476D1*
X11421Y1277822D2*
X40484D1*
X76051D2*
X115480D1*
X159520D2*
X417268D1*
X482147D2*
X640486D1*
X676052D2*
X707476D1*
X11421Y1274016D2*
X34348D1*
X82188D2*
X115318D1*
X159682D2*
X415938D1*
X482147D2*
X634343D1*
X682189D2*
X707476D1*
X11421Y1270210D2*
X30018D1*
X86517D2*
X115825D1*
X159175D2*
X415346D1*
X482147D2*
X630021D1*
X686518D2*
X707476D1*
X11421Y1266404D2*
X26743D1*
X89793D2*
X117064D1*
X157936D2*
X415423D1*
X482147D2*
X626744D1*
X689794D2*
X707476D1*
X11421Y1262598D2*
X24206D1*
X92329D2*
X119163D1*
X155837D2*
X416184D1*
X482147D2*
X624207D1*
X692331D2*
X707476D1*
X11421Y1258793D2*
X22252D1*
X94283D2*
X122508D1*
X152492D2*
X417699D1*
X482147D2*
X622255D1*
X694285D2*
X707476D1*
X11421Y1254987D2*
X20791D1*
X95744D2*
X128437D1*
X146563D2*
X420190D1*
X482147D2*
X620793D1*
X695745D2*
X707476D1*
X11421Y1251181D2*
X19761D1*
X96774D2*
X424104D1*
X482147D2*
X619762D1*
X696776D2*
X707476D1*
X11421Y1247375D2*
X19131D1*
X97404D2*
X424104D1*
X482147D2*
X619133D1*
X697407D2*
X707476D1*
X11421Y1243570D2*
X18877D1*
X97659D2*
X424104D1*
X482147D2*
X618878D1*
X697652D2*
X707476D1*
X11421Y1239764D2*
X19000D1*
X97535D2*
X424104D1*
X482147D2*
X619001D1*
X697537D2*
X707476D1*
X11421Y1235958D2*
X19500D1*
X97035D2*
X424104D1*
X482147D2*
X619501D1*
X697037D2*
X707476D1*
X11421Y1232152D2*
X20391D1*
X96144D2*
X424104D1*
X482147D2*
X620386D1*
X696146D2*
X707484D1*
X11421Y1228346D2*
X21699D1*
X94836D2*
X153335D1*
X346667D2*
X424104D1*
X482147D2*
X621701D1*
X694839D2*
X707484D1*
X11421Y1224541D2*
X23475D1*
X93060D2*
X149513D1*
X350488D2*
X424104D1*
X482147D2*
X623469D1*
X693062D2*
X707484D1*
X11421Y1220735D2*
X25798D1*
X90738D2*
X145707D1*
X354294D2*
X424104D1*
X482147D2*
X625791D1*
X690740D2*
X707484D1*
X11421Y1216929D2*
X28789D1*
X87747D2*
X141900D1*
X358101D2*
X424104D1*
X482147D2*
X628790D1*
X687740D2*
X707484D1*
X11421Y1213123D2*
X32702D1*
X83833D2*
X138094D1*
X361907D2*
X424104D1*
X482147D2*
X632705D1*
X683835D2*
X707484D1*
X11421Y1209318D2*
X38070D1*
X78466D2*
X134289D1*
X365714D2*
X424104D1*
X482147D2*
X638063D1*
X678467D2*
X707484D1*
X11421Y1205512D2*
X46820D1*
X69715D2*
X130482D1*
X368420D2*
X424104D1*
X482147D2*
X646822D1*
X669709D2*
X707484D1*
X11421Y1201706D2*
X126676D1*
X369528D2*
X424104D1*
X482147D2*
X485358D1*
X586147D2*
X707484D1*
X11421Y1197900D2*
X122869D1*
X369643D2*
X424104D1*
X482147D2*
X485358D1*
X586147D2*
X707484D1*
X11421Y1194094D2*
X119063D1*
X369643D2*
X424104D1*
X482147D2*
X485358D1*
X586147D2*
X707484D1*
X11421Y1190289D2*
X115264D1*
X369643D2*
X424104D1*
X482147D2*
X485358D1*
X586147D2*
X707484D1*
X11421Y1186483D2*
X111458D1*
X369643D2*
X424104D1*
X482147D2*
X485358D1*
X586147D2*
X707484D1*
X11421Y1182677D2*
X107652D1*
X369643D2*
X424104D1*
X482147D2*
X485358D1*
X586147D2*
X707484D1*
X11421Y1178871D2*
X42776D1*
X73760D2*
X103845D1*
X369643D2*
X424104D1*
X482147D2*
X485358D1*
X586147D2*
X642777D1*
X673761D2*
X707484D1*
X11421Y1175066D2*
X35802D1*
X80734D2*
X100039D1*
X369643D2*
X424104D1*
X482147D2*
X485358D1*
X586147D2*
X635803D1*
X680736D2*
X707484D1*
X11421Y1171260D2*
X31088D1*
X85448D2*
X96248D1*
X369643D2*
X424104D1*
X482147D2*
X485358D1*
X586147D2*
X631089D1*
X685449D2*
X707484D1*
X11421Y1167454D2*
X27566D1*
X88970D2*
X93833D1*
X369643D2*
X424104D1*
X482147D2*
X485358D1*
X586147D2*
X627560D1*
X688971D2*
X707484D1*
X11421Y1163648D2*
X24844D1*
X369643D2*
X424104D1*
X482147D2*
X485358D1*
X586147D2*
X624845D1*
X691693D2*
X707484D1*
X11421Y1159843D2*
X22738D1*
X369643D2*
X424104D1*
X482147D2*
X485358D1*
X586147D2*
X622739D1*
X693793D2*
X707484D1*
X11421Y1156037D2*
X21146D1*
X369643D2*
X424104D1*
X482147D2*
X621147D1*
X695385D2*
X707484D1*
X11421Y1152231D2*
X20008D1*
X369643D2*
X424104D1*
X482147D2*
X485358D1*
X586147D2*
X620001D1*
X696530D2*
X707484D1*
X11421Y1148425D2*
X19269D1*
X369643D2*
X424104D1*
X482147D2*
X485358D1*
X586147D2*
X619262D1*
X697268D2*
X707484D1*
X11421Y1144619D2*
X18908D1*
X369643D2*
X424104D1*
X482147D2*
X485358D1*
X586147D2*
X618909D1*
X697622D2*
X707484D1*
X11421Y1140814D2*
X18930D1*
X369643D2*
X424104D1*
X482147D2*
X485358D1*
X607870D2*
X618932D1*
X697606D2*
X707484D1*
X11421Y1137008D2*
X19323D1*
X369643D2*
X424104D1*
X482147D2*
X485358D1*
X610723D2*
X619324D1*
X697214D2*
X707484D1*
X11421Y1133202D2*
X20100D1*
X369643D2*
X424104D1*
X482147D2*
X485358D1*
X611923D2*
X620101D1*
X696429D2*
X707484D1*
X11421Y1129396D2*
X21291D1*
X369643D2*
X424104D1*
X482147D2*
X485358D1*
X612068D2*
X621293D1*
X695245D2*
X707484D1*
X11421Y1125591D2*
X22929D1*
X369643D2*
X424104D1*
X482147D2*
X485358D1*
X612068D2*
X622930D1*
X693600D2*
X707484D1*
X11421Y1121785D2*
X25091D1*
X369643D2*
X424104D1*
X482147D2*
X485358D1*
X612068D2*
X625092D1*
X691440D2*
X707484D1*
X11421Y1117979D2*
X27888D1*
X168794D2*
X243356D1*
X369643D2*
X424104D1*
X482147D2*
X485358D1*
X612068D2*
X627883D1*
X688648D2*
X707484D1*
X11421Y1114173D2*
X31510D1*
X165510D2*
X243356D1*
X369643D2*
X424104D1*
X482147D2*
X485358D1*
X612068D2*
X631512D1*
X685026D2*
X707484D1*
X11421Y1110367D2*
X36386D1*
X165510D2*
X243356D1*
X369643D2*
X424104D1*
X612068D2*
X636387D1*
X680151D2*
X707484D1*
X11421Y1106562D2*
X41146D1*
X165510D2*
X337782D1*
X369643D2*
X424104D1*
X487215D2*
X585283D1*
X612068D2*
X643747D1*
X672785D2*
X707484D1*
X11421Y1102756D2*
X33979D1*
X165510D2*
X243356D1*
X369165D2*
X424104D1*
X612068D2*
X707484D1*
X11421Y1098950D2*
X30173D1*
X165510D2*
X243356D1*
X367406D2*
X424104D1*
X612068D2*
X707484D1*
X11421Y1095144D2*
X26366D1*
X165510D2*
X243356D1*
X363921D2*
X424104D1*
X612068D2*
X707484D1*
X11421Y1091339D2*
X22560D1*
X165510D2*
X243356D1*
X360115D2*
X424104D1*
X612068D2*
X707484D1*
X11421Y1087533D2*
X18753D1*
X165510D2*
X243356D1*
X356310D2*
X424104D1*
X612068D2*
X707484D1*
X11421Y1083727D2*
X14948D1*
X165510D2*
X243356D1*
X352510D2*
X424104D1*
X612068D2*
X707484D1*
X165510Y1079921D2*
X243356D1*
X348705D2*
X424104D1*
X612068D2*
X645568D1*
X670970D2*
X707484D1*
X165510Y1076115D2*
X243356D1*
X344898D2*
X424104D1*
X612068D2*
X637409D1*
X679121D2*
X707484D1*
X215761Y1072310D2*
X243356D1*
X344144D2*
X424104D1*
X612068D2*
X632243D1*
X684289D2*
X707484D1*
X215761Y1068504D2*
X243356D1*
X344144D2*
X424104D1*
X612068D2*
X628444D1*
X688094D2*
X707484D1*
X215761Y1064698D2*
X243356D1*
X344144D2*
X424104D1*
X612068D2*
X625522D1*
X691009D2*
X707484D1*
X215761Y1060892D2*
X243356D1*
X344144D2*
X424104D1*
X612068D2*
X623269D1*
X693269D2*
X707484D1*
X215761Y1057087D2*
X424104D1*
X612068D2*
X621539D1*
X694992D2*
X707484D1*
X215761Y1053281D2*
X243356D1*
X344144D2*
X424104D1*
X612068D2*
X620278D1*
X696261D2*
X707484D1*
X215761Y1049475D2*
X243356D1*
X344144D2*
X424104D1*
X612068D2*
X619432D1*
X697106D2*
X707484D1*
X215761Y1045669D2*
X243356D1*
X344144D2*
X424104D1*
X612068D2*
X618971D1*
X697560D2*
X707484D1*
X215761Y1041864D2*
X243356D1*
X344144D2*
X424350D1*
X612068D2*
X618886D1*
X697644D2*
X707484D1*
X215761Y1038058D2*
X243356D1*
X344144D2*
X425749D1*
X612068D2*
X619178D1*
X697360D2*
X707484D1*
X215761Y1034252D2*
X243356D1*
X344144D2*
X428856D1*
X612068D2*
X619848D1*
X696692D2*
X707484D1*
X215761Y1030446D2*
X243356D1*
X344144D2*
X432663D1*
X612068D2*
X620924D1*
X695614D2*
X707484D1*
X215761Y1026640D2*
X243356D1*
X344144D2*
X436469D1*
X612068D2*
X622430D1*
X694108D2*
X707484D1*
X215761Y1022835D2*
X243356D1*
X344144D2*
X440276D1*
X612068D2*
X624438D1*
X692093D2*
X707484D1*
X215761Y1019029D2*
X243356D1*
X344144D2*
X445811D1*
X612068D2*
X627045D1*
X689493D2*
X707484D1*
X215761Y1015223D2*
X243356D1*
X344144D2*
X485358D1*
X612068D2*
X630412D1*
X686126D2*
X707484D1*
X165510Y1011417D2*
X243356D1*
X344144D2*
X485358D1*
X612068D2*
X634873D1*
X681659D2*
X707484D1*
X165510Y1007612D2*
X585283D1*
X612068D2*
X641301D1*
X675238D2*
X707484D1*
X165510Y1003806D2*
X243356D1*
X344144D2*
X485358D1*
X612068D2*
X707484D1*
X165510Y1000000D2*
X243356D1*
X344144D2*
X485358D1*
X612068D2*
X707484D1*
X165510Y996194D2*
X243356D1*
X344144D2*
X485358D1*
X612068D2*
X707484D1*
X165510Y992388D2*
X243356D1*
X344144D2*
X485358D1*
X612068D2*
X707484D1*
X165510Y988583D2*
X243356D1*
X344144D2*
X421782D1*
X440717D2*
X482406D1*
X612068D2*
X707484D1*
X165510Y984777D2*
X243356D1*
X344144D2*
X416060D1*
X446437D2*
X478600D1*
X612068D2*
X707484D1*
X165510Y980971D2*
X243356D1*
X344144D2*
X412793D1*
X449713D2*
X474793D1*
X612068D2*
X649352D1*
X667178D2*
X707484D1*
X165510Y977165D2*
X243356D1*
X344144D2*
X410732D1*
X451766D2*
X470987D1*
X612068D2*
X639224D1*
X677314D2*
X707484D1*
X215761Y973360D2*
X243356D1*
X344144D2*
X409541D1*
X452966D2*
X467181D1*
X612068D2*
X633504D1*
X683034D2*
X707484D1*
X215761Y969554D2*
X243356D1*
X344144D2*
X409063D1*
X453442D2*
X463374D1*
X612068D2*
X629390D1*
X687140D2*
X707484D1*
X215761Y965748D2*
X243356D1*
X344144D2*
X406642D1*
X453251D2*
X459568D1*
X612068D2*
X626260D1*
X690278D2*
X707484D1*
X215761Y961942D2*
X243356D1*
X344144D2*
X402835D1*
X452366D2*
X455761D1*
X612068D2*
X623831D1*
X692701D2*
X707484D1*
X215761Y958136D2*
X399029D1*
X489514D2*
X585283D1*
X612068D2*
X621970D1*
X694570D2*
X707484D1*
X215761Y954331D2*
X395223D1*
X485707D2*
X585283D1*
X612068D2*
X620585D1*
X695953D2*
X707484D1*
X215761Y950525D2*
X243356D1*
X344144D2*
X391416D1*
X481902D2*
X485358D1*
X612068D2*
X619625D1*
X696915D2*
X707484D1*
X215761Y946719D2*
X243356D1*
X344144D2*
X387610D1*
X430828D2*
X440537D1*
X478094D2*
X485358D1*
X612068D2*
X619063D1*
X697475D2*
X707484D1*
X215761Y942913D2*
X233920D1*
X427021D2*
X436730D1*
X612068D2*
X618870D1*
X697660D2*
X707484D1*
X215761Y939108D2*
X229999D1*
X423215D2*
X432932D1*
X612068D2*
X619063D1*
X697475D2*
X707484D1*
X215761Y935302D2*
X226193D1*
X419409D2*
X429126D1*
X612068D2*
X619625D1*
X696915D2*
X707484D1*
X215761Y931496D2*
X222386D1*
X415602D2*
X425319D1*
X612068D2*
X620585D1*
X695953D2*
X707484D1*
X148832Y927690D2*
X155604D1*
X215761D2*
X218580D1*
X411797D2*
X421513D1*
X612068D2*
X621970D1*
X694570D2*
X707484D1*
X148832Y923885D2*
X155604D1*
X407990D2*
X417706D1*
X612068D2*
X623831D1*
X692701D2*
X707484D1*
X148832Y920079D2*
X155604D1*
X404154D2*
X413900D1*
X612068D2*
X626260D1*
X690278D2*
X707484D1*
X148832Y916273D2*
X155604D1*
X394987D2*
X410094D1*
X612068D2*
X629390D1*
X687140D2*
X707484D1*
X83033Y912467D2*
X88675D1*
X148832D2*
X155604D1*
X344144D2*
X406287D1*
X612068D2*
X633504D1*
X683034D2*
X707484D1*
X31913Y908661D2*
X39223D1*
X77312D2*
X209606D1*
X344144D2*
X402482D1*
X612068D2*
X639224D1*
X677314D2*
X707484D1*
X31913Y904856D2*
X49350D1*
X67185D2*
X209606D1*
X240391D2*
X398675D1*
X612068D2*
X649352D1*
X667178D2*
X707484D1*
X31913Y901050D2*
X209606D1*
X240391D2*
X243356D1*
X344144D2*
X394869D1*
X612068D2*
X707484D1*
X31913Y897244D2*
X209606D1*
X240391D2*
X243356D1*
X344144D2*
X391063D1*
X612068D2*
X707484D1*
X31913Y893438D2*
X209606D1*
X240391D2*
X243356D1*
X344144D2*
X387256D1*
X612068D2*
X707484D1*
X31913Y889633D2*
X209606D1*
X240391D2*
X243356D1*
X344144D2*
X383450D1*
X421008D2*
X424381D1*
X612068D2*
X707484D1*
X34136Y885827D2*
X209606D1*
X240391D2*
X243356D1*
X344144D2*
X379643D1*
X417202D2*
X424104D1*
X612068D2*
X707484D1*
X37942Y882021D2*
X207299D1*
X344144D2*
X375837D1*
X413396D2*
X424104D1*
X612068D2*
X707484D1*
X75236Y878215D2*
X204954D1*
X344144D2*
X372039D1*
X409589D2*
X424104D1*
X612068D2*
X641301D1*
X675238D2*
X707484D1*
X81664Y874409D2*
X88675D1*
X148832D2*
X155604D1*
X344144D2*
X368232D1*
X405783D2*
X424104D1*
X612068D2*
X634873D1*
X681659D2*
X707484D1*
X86125Y870604D2*
X88675D1*
X148832D2*
X155604D1*
X344144D2*
X364427D1*
X401984D2*
X424104D1*
X612068D2*
X630412D1*
X686126D2*
X707484D1*
X11421Y866798D2*
X15601D1*
X148832D2*
X155604D1*
X344144D2*
X360789D1*
X398178D2*
X423197D1*
X612068D2*
X627045D1*
X689493D2*
X707484D1*
X11421Y862992D2*
X19407D1*
X148832D2*
X155604D1*
X344144D2*
X358806D1*
X394373D2*
X419591D1*
X612068D2*
X624438D1*
X692093D2*
X707484D1*
X11421Y859186D2*
X22429D1*
X148832D2*
X155604D1*
X344144D2*
X358167D1*
X390566D2*
X417322D1*
X612068D2*
X622430D1*
X694108D2*
X707484D1*
X11421Y855381D2*
X20923D1*
X148832D2*
X155604D1*
X242629D2*
X358159D1*
X386760D2*
X415969D1*
X612068D2*
X620924D1*
X695614D2*
X707484D1*
X11421Y851575D2*
X19845D1*
X148832D2*
X155604D1*
X238837D2*
X243356D1*
X344144D2*
X358159D1*
X384953D2*
X415353D1*
X612068D2*
X619848D1*
X696692D2*
X707484D1*
X11421Y847769D2*
X19177D1*
X148832D2*
X155604D1*
X215761D2*
X218650D1*
X231356D2*
X243356D1*
X344144D2*
X358159D1*
X384953D2*
X415407D1*
X612068D2*
X619178D1*
X697360D2*
X707484D1*
X11421Y843963D2*
X18885D1*
X148832D2*
X155604D1*
X215761D2*
X243356D1*
X344144D2*
X358159D1*
X384953D2*
X416146D1*
X612068D2*
X618886D1*
X697644D2*
X707484D1*
X11421Y840157D2*
X18969D1*
X148832D2*
X155604D1*
X215761D2*
X243356D1*
X344144D2*
X358159D1*
X384953D2*
X417646D1*
X612068D2*
X618971D1*
X697560D2*
X707484D1*
X11421Y836352D2*
X19430D1*
X148832D2*
X155604D1*
X215761D2*
X243356D1*
X344144D2*
X358159D1*
X384953D2*
X420091D1*
X612068D2*
X619432D1*
X697106D2*
X707484D1*
X11421Y832546D2*
X20277D1*
X148832D2*
X155604D1*
X215761D2*
X243356D1*
X344144D2*
X358159D1*
X384953D2*
X424028D1*
X612068D2*
X620278D1*
X696261D2*
X707484D1*
X11421Y828740D2*
X21538D1*
X148832D2*
X155604D1*
X215761D2*
X243356D1*
X344144D2*
X358159D1*
X384953D2*
X432232D1*
X612068D2*
X621539D1*
X694992D2*
X707484D1*
X11421Y824934D2*
X23268D1*
X148832D2*
X155604D1*
X215761D2*
X243356D1*
X344144D2*
X358159D1*
X384953D2*
X443344D1*
X612068D2*
X623269D1*
X693269D2*
X707484D1*
X11421Y821129D2*
X25529D1*
X148832D2*
X155604D1*
X215761D2*
X243356D1*
X344144D2*
X358159D1*
X384953D2*
X387941D1*
X399555D2*
X443344D1*
X612068D2*
X625522D1*
X691009D2*
X707484D1*
X11421Y817323D2*
X28442D1*
X148832D2*
X155604D1*
X215761D2*
X243356D1*
X344144D2*
X358159D1*
X407398D2*
X443344D1*
X612068D2*
X628444D1*
X688094D2*
X707484D1*
X11421Y813517D2*
X32241D1*
X84294D2*
X88675D1*
X148832D2*
X155604D1*
X215761D2*
X243356D1*
X344144D2*
X358159D1*
X411259D2*
X443344D1*
X612068D2*
X632243D1*
X684289D2*
X707484D1*
X11421Y809711D2*
X37416D1*
X79119D2*
X243356D1*
X344144D2*
X354768D1*
X413673D2*
X443344D1*
X612068D2*
X637409D1*
X679121D2*
X707484D1*
X11421Y805906D2*
X45567D1*
X70969D2*
X350962D1*
X415142D2*
X443344D1*
X484008D2*
X585283D1*
X612068D2*
X645568D1*
X670970D2*
X707484D1*
X11421Y802100D2*
X347156D1*
X415857D2*
X443344D1*
X484008D2*
X585283D1*
X612068D2*
X707484D1*
X11421Y798294D2*
X343349D1*
X415887D2*
X443344D1*
X484008D2*
X585283D1*
X612068D2*
X707484D1*
X11421Y794488D2*
X339543D1*
X415249D2*
X443344D1*
X484008D2*
X585283D1*
X612068D2*
X707484D1*
X11421Y790682D2*
X335736D1*
X413865D2*
X443344D1*
X484008D2*
X585283D1*
X612068D2*
X707484D1*
X11421Y786877D2*
X118724D1*
X143772D2*
X331930D1*
X369490D2*
X375937D1*
X411566D2*
X443344D1*
X484008D2*
X585283D1*
X612068D2*
X707484D1*
X11421Y783071D2*
X114403D1*
X148093D2*
X328125D1*
X365682D2*
X379421D1*
X408083D2*
X443344D1*
X484008D2*
X585283D1*
X612068D2*
X707484D1*
X11421Y779265D2*
X43744D1*
X72791D2*
X111751D1*
X361877D2*
X379421D1*
X408083D2*
X443344D1*
X484008D2*
X585283D1*
X612068D2*
X643747D1*
X672785D2*
X707484D1*
X11421Y775459D2*
X36386D1*
X80150D2*
X110105D1*
X358070D2*
X379421D1*
X408083D2*
X443344D1*
X484008D2*
X585283D1*
X612068D2*
X636387D1*
X680151D2*
X707484D1*
X11421Y771654D2*
X31510D1*
X85025D2*
X109244D1*
X354264D2*
X379421D1*
X408083D2*
X443344D1*
X484008D2*
X585283D1*
X612068D2*
X631512D1*
X685026D2*
X707484D1*
X11421Y767848D2*
X27888D1*
X88647D2*
X109067D1*
X350458D2*
X379421D1*
X408083D2*
X443344D1*
X484008D2*
X585283D1*
X612068D2*
X627883D1*
X688648D2*
X707484D1*
X11421Y764042D2*
X25091D1*
X91445D2*
X109559D1*
X346659D2*
X379421D1*
X408083D2*
X443344D1*
X484008D2*
X585022D1*
X612068D2*
X625092D1*
X691440D2*
X707484D1*
X11421Y760236D2*
X22929D1*
X93606D2*
X110774D1*
X342853D2*
X379421D1*
X408083D2*
X443344D1*
X484008D2*
X581215D1*
X612068D2*
X622930D1*
X693600D2*
X707484D1*
X11421Y756430D2*
X21291D1*
X95244D2*
X112857D1*
X337131D2*
X379421D1*
X408083D2*
X443344D1*
X484008D2*
X577409D1*
X611831D2*
X621293D1*
X695245D2*
X707484D1*
X11421Y752625D2*
X20100D1*
X96436D2*
X116172D1*
X146333D2*
X195265D1*
X204735D2*
X379421D1*
X408083D2*
X443344D1*
X484008D2*
X521453D1*
X610446D2*
X620101D1*
X696429D2*
X707484D1*
X11421Y748819D2*
X19323D1*
X97213D2*
X122000D1*
X140504D2*
X186684D1*
X213316D2*
X379421D1*
X408083D2*
X443344D1*
X484008D2*
X517639D1*
X607354D2*
X619324D1*
X697214D2*
X707484D1*
X11421Y745013D2*
X18930D1*
X97605D2*
X131143D1*
X217315D2*
X379421D1*
X408083D2*
X443344D1*
X484008D2*
X513832D1*
X603549D2*
X618932D1*
X697606D2*
X707484D1*
X11421Y741207D2*
X18908D1*
X97627D2*
X125853D1*
X219798D2*
X379421D1*
X408083D2*
X443344D1*
X484008D2*
X510026D1*
X603664D2*
X618909D1*
X697622D2*
X707484D1*
X11421Y737402D2*
X19269D1*
X97266D2*
X122046D1*
X221320D2*
X379421D1*
X408083D2*
X443344D1*
X484008D2*
X506220D1*
X607470D2*
X619262D1*
X697268D2*
X707484D1*
X11421Y733596D2*
X20008D1*
X96528D2*
X118240D1*
X222081D2*
X378890D1*
X408083D2*
X443344D1*
X484008D2*
X502413D1*
X610508D2*
X620001D1*
X696530D2*
X707484D1*
X11421Y729790D2*
X21146D1*
X95390D2*
X114434D1*
X222159D2*
X375084D1*
X408083D2*
X443344D1*
X484008D2*
X498608D1*
X536165D2*
X577525D1*
X611845D2*
X621147D1*
X695385D2*
X707484D1*
X11421Y725984D2*
X22738D1*
X93798D2*
X110627D1*
X221559D2*
X227823D1*
X247180D2*
X371277D1*
X407875D2*
X443344D1*
X484008D2*
X494801D1*
X532360D2*
X581331D1*
X612068D2*
X622739D1*
X693793D2*
X707484D1*
X11421Y722178D2*
X24844D1*
X91692D2*
X106822D1*
X220228D2*
X222201D1*
X252794D2*
X367471D1*
X406636D2*
X443344D1*
X484008D2*
X490995D1*
X528554D2*
X585136D1*
X612068D2*
X624845D1*
X691693D2*
X707484D1*
X11421Y718373D2*
X27566D1*
X88970D2*
X103014D1*
X403877D2*
X443344D1*
X484008D2*
X487197D1*
X524747D2*
X585283D1*
X612068D2*
X627560D1*
X688971D2*
X707484D1*
X11421Y714567D2*
X31088D1*
X85448D2*
X99209D1*
X400070D2*
X443344D1*
X520941D2*
X585283D1*
X612068D2*
X631089D1*
X685449D2*
X707484D1*
X11421Y710761D2*
X35802D1*
X80734D2*
X95403D1*
X396264D2*
X443344D1*
X517134D2*
X585283D1*
X612068D2*
X635803D1*
X680736D2*
X707484D1*
X11421Y706955D2*
X42776D1*
X73760D2*
X91596D1*
X392458D2*
X443344D1*
X513336D2*
X585283D1*
X612068D2*
X642777D1*
X673761D2*
X707484D1*
X11421Y703150D2*
X87921D1*
X388651D2*
X440129D1*
X509953D2*
X585283D1*
X612068D2*
X707484D1*
X11421Y699344D2*
X85690D1*
X509953D2*
X585283D1*
X612068D2*
X707484D1*
X11421Y695538D2*
X84714D1*
X509953D2*
X585283D1*
X612068D2*
X707484D1*
X11421Y691732D2*
X84606D1*
X509953D2*
X585283D1*
X612068D2*
X707484D1*
X11421Y687927D2*
X84606D1*
X509953D2*
X585283D1*
X612068D2*
X707484D1*
X11421Y684121D2*
X84606D1*
X509953D2*
X585283D1*
X612068D2*
X707484D1*
X11421Y680315D2*
X46820D1*
X69715D2*
X84606D1*
X509953D2*
X585283D1*
X612068D2*
X646822D1*
X669709D2*
X707484D1*
X11421Y676509D2*
X38070D1*
X78466D2*
X84606D1*
X509953D2*
X585283D1*
X612068D2*
X638063D1*
X678467D2*
X707484D1*
X11421Y672703D2*
X32702D1*
X266480D2*
X380328D1*
X509953D2*
X585283D1*
X612068D2*
X632705D1*
X683835D2*
X707484D1*
X11421Y668898D2*
X28789D1*
X262675D2*
X378752D1*
X509875D2*
X585283D1*
X612068D2*
X628790D1*
X687740D2*
X707484D1*
X11421Y665092D2*
X25798D1*
X258869D2*
X377951D1*
X508875D2*
X585283D1*
X612068D2*
X625791D1*
X690740D2*
X707484D1*
X11421Y661286D2*
X23475D1*
X255062D2*
X377829D1*
X506346D2*
X585283D1*
X612068D2*
X623469D1*
X693062D2*
X707484D1*
X11421Y657480D2*
X21699D1*
X251256D2*
X378383D1*
X502547D2*
X585283D1*
X612068D2*
X621701D1*
X694839D2*
X707484D1*
X11421Y653675D2*
X20391D1*
X247449D2*
X379659D1*
X498741D2*
X585283D1*
X612068D2*
X620386D1*
X696146D2*
X707484D1*
X11421Y649869D2*
X19500D1*
X243651D2*
X381828D1*
X494934D2*
X585283D1*
X612068D2*
X619501D1*
X697037D2*
X707484D1*
X11421Y646063D2*
X19000D1*
X239845D2*
X345549D1*
X493559D2*
X585283D1*
X612068D2*
X619001D1*
X697537D2*
X707484D1*
X11421Y642257D2*
X18877D1*
X236038D2*
X340197D1*
X501232D2*
X585283D1*
X612068D2*
X618878D1*
X697652D2*
X707484D1*
X11421Y638451D2*
X19131D1*
X232232D2*
X336390D1*
X505062D2*
X585283D1*
X612068D2*
X619133D1*
X697407D2*
X707484D1*
X11421Y634646D2*
X19761D1*
X228425D2*
X332584D1*
X507453D2*
X585283D1*
X612068D2*
X619762D1*
X696776D2*
X707484D1*
X11421Y630840D2*
X20791D1*
X224619D2*
X328786D1*
X508907D2*
X585283D1*
X612068D2*
X620793D1*
X695745D2*
X707484D1*
X11421Y627034D2*
X22252D1*
X220814D2*
X324979D1*
X509606D2*
X585283D1*
X612068D2*
X622255D1*
X694285D2*
X707484D1*
X11421Y623228D2*
X24206D1*
X217007D2*
X321173D1*
X509630D2*
X585283D1*
X612068D2*
X624207D1*
X692331D2*
X707484D1*
X11421Y619423D2*
X26743D1*
X213201D2*
X317366D1*
X354925D2*
X466020D1*
X508976D2*
X585283D1*
X612068D2*
X626744D1*
X689794D2*
X707484D1*
X11421Y615617D2*
X30018D1*
X209394D2*
X313560D1*
X351119D2*
X467419D1*
X507584D2*
X585283D1*
X612068D2*
X630021D1*
X686518D2*
X707484D1*
X11421Y611811D2*
X34348D1*
X82188D2*
X84606D1*
X205588D2*
X309755D1*
X347312D2*
X469734D1*
X505262D2*
X585283D1*
X612068D2*
X634343D1*
X682189D2*
X707484D1*
X11421Y608005D2*
X40484D1*
X76051D2*
X84606D1*
X201782D2*
X305948D1*
X343507D2*
X472109D1*
X502894D2*
X585283D1*
X612068D2*
X640486D1*
X676052D2*
X707484D1*
X11421Y604199D2*
X53156D1*
X63379D2*
X84606D1*
X281644D2*
X302142D1*
X339699D2*
X422858D1*
X523647D2*
X585283D1*
X612068D2*
X653157D1*
X663381D2*
X707484D1*
X11421Y600394D2*
X84606D1*
X281644D2*
X298335D1*
X335894D2*
X422858D1*
X523647D2*
X585283D1*
X612068D2*
X707484D1*
X11421Y596588D2*
X84606D1*
X281644D2*
X294529D1*
X332088D2*
X422858D1*
X523647D2*
X585283D1*
X612068D2*
X707484D1*
X11421Y592782D2*
X84606D1*
X328281D2*
X422858D1*
X523647D2*
X585283D1*
X612068D2*
X707484D1*
X11421Y588976D2*
X84606D1*
X324475D2*
X422858D1*
X523647D2*
X585283D1*
X612068D2*
X707484D1*
X11421Y585171D2*
X84606D1*
X320668D2*
X422858D1*
X523647D2*
X585283D1*
X612068D2*
X707484D1*
X11421Y581365D2*
X51357D1*
X65178D2*
X84606D1*
X316862D2*
X422858D1*
X523647D2*
X585283D1*
X612068D2*
X651358D1*
X665180D2*
X707484D1*
X11421Y577559D2*
X39969D1*
X76567D2*
X84606D1*
X313056D2*
X422858D1*
X523647D2*
X585283D1*
X612068D2*
X639963D1*
X676568D2*
X707484D1*
X11421Y573753D2*
X34003D1*
X82533D2*
X84605D1*
X309249D2*
X422858D1*
X523647D2*
X585283D1*
X612068D2*
X634004D1*
X682535D2*
X707484D1*
X11421Y569948D2*
X29765D1*
X304790D2*
X422858D1*
X523647D2*
X585283D1*
X612068D2*
X629766D1*
X686772D2*
X707484D1*
X11421Y566142D2*
X26543D1*
X281644D2*
X422858D1*
X523647D2*
X585283D1*
X612068D2*
X626545D1*
X689986D2*
X707484D1*
X11421Y562336D2*
X24052D1*
X281644D2*
X422858D1*
X523647D2*
X585283D1*
X612068D2*
X624054D1*
X692478D2*
X707484D1*
X11421Y558530D2*
X22138D1*
X281644D2*
X422858D1*
X523647D2*
X585283D1*
X612068D2*
X622139D1*
X694400D2*
X707484D1*
X11421Y554724D2*
X20707D1*
X190563D2*
X585283D1*
X612068D2*
X620709D1*
X695829D2*
X707484D1*
X11421Y550919D2*
X19707D1*
X281644D2*
X422858D1*
X523647D2*
X585283D1*
X612068D2*
X619701D1*
X696829D2*
X707484D1*
X11421Y547113D2*
X19100D1*
X281644D2*
X422858D1*
X523647D2*
X585283D1*
X612068D2*
X619101D1*
X697437D2*
X707484D1*
X11421Y543307D2*
X18877D1*
X331650D2*
X422858D1*
X523647D2*
X585283D1*
X612068D2*
X618878D1*
X697660D2*
X707484D1*
X11421Y539501D2*
X19024D1*
X336117D2*
X422858D1*
X523647D2*
X585283D1*
X612068D2*
X619025D1*
X697514D2*
X707484D1*
X11421Y535696D2*
X19546D1*
X339923D2*
X422858D1*
X523647D2*
X585283D1*
X612068D2*
X619547D1*
X696991D2*
X707484D1*
X11421Y531890D2*
X20461D1*
X343730D2*
X422858D1*
X523647D2*
X585283D1*
X612068D2*
X620462D1*
X696068D2*
X707484D1*
X11421Y528084D2*
X21807D1*
X347535D2*
X422858D1*
X523647D2*
X585283D1*
X612068D2*
X621801D1*
X694731D2*
X707484D1*
X11421Y524278D2*
X23614D1*
X351341D2*
X422858D1*
X523647D2*
X585283D1*
X612068D2*
X623615D1*
X692924D2*
X707484D1*
X11421Y520472D2*
X25974D1*
X355148D2*
X422858D1*
X523647D2*
X585283D1*
X612068D2*
X625976D1*
X690555D2*
X707484D1*
X11421Y516667D2*
X29028D1*
X358946D2*
X422858D1*
X523647D2*
X585283D1*
X612068D2*
X629029D1*
X687510D2*
X707484D1*
X11421Y512861D2*
X33018D1*
X362753D2*
X422858D1*
X523647D2*
X585283D1*
X612068D2*
X633020D1*
X683520D2*
X707484D1*
X11421Y509055D2*
X38516D1*
X78020D2*
X84606D1*
X366559D2*
X422858D1*
X523647D2*
X585283D1*
X612068D2*
X638517D1*
X678013D2*
X707484D1*
X11421Y505249D2*
X47751D1*
X68785D2*
X84606D1*
X370265D2*
X585283D1*
X612068D2*
X647752D1*
X668778D2*
X707484D1*
X11421Y501444D2*
X84606D1*
X372465D2*
X422858D1*
X523647D2*
X585283D1*
X612068D2*
X707484D1*
X11421Y497638D2*
X84606D1*
X373333D2*
X422858D1*
X523647D2*
X585283D1*
X612068D2*
X707484D1*
X11421Y493832D2*
X84606D1*
X373387D2*
X422858D1*
X523647D2*
X585283D1*
X612068D2*
X707484D1*
X11421Y490026D2*
X84606D1*
X373387D2*
X422858D1*
X523647D2*
X585283D1*
X612068D2*
X707484D1*
X11421Y486220D2*
X84606D1*
X373387D2*
X422858D1*
X523647D2*
X585283D1*
X612068D2*
X707484D1*
X11421Y482415D2*
X84606D1*
X373387D2*
X422858D1*
X523647D2*
X585283D1*
X612068D2*
X707484D1*
X11421Y478609D2*
X42160D1*
X74375D2*
X84606D1*
X373387D2*
X422858D1*
X523647D2*
X585283D1*
X612068D2*
X642163D1*
X674369D2*
X707484D1*
X11421Y474803D2*
X35425D1*
X81110D2*
X84606D1*
X373387D2*
X422858D1*
X523647D2*
X585283D1*
X612068D2*
X635427D1*
X681113D2*
X707484D1*
X11421Y470997D2*
X30811D1*
X373387D2*
X422858D1*
X523647D2*
X585283D1*
X612068D2*
X630812D1*
X685726D2*
X707484D1*
X11421Y467192D2*
X27350D1*
X373387D2*
X422858D1*
X523647D2*
X585283D1*
X612068D2*
X627352D1*
X689186D2*
X707484D1*
X11421Y463386D2*
X24682D1*
X373387D2*
X422858D1*
X523647D2*
X585283D1*
X612068D2*
X624676D1*
X691854D2*
X707484D1*
X11421Y459580D2*
X22614D1*
X373387D2*
X422858D1*
X523647D2*
X585283D1*
X612068D2*
X622615D1*
X693923D2*
X707484D1*
X11421Y455774D2*
X21052D1*
X373387D2*
X585283D1*
X612068D2*
X621055D1*
X695476D2*
X707484D1*
X11421Y451969D2*
X19938D1*
X373387D2*
X422858D1*
X523647D2*
X585283D1*
X612068D2*
X619940D1*
X696598D2*
X707484D1*
X11421Y448163D2*
X19231D1*
X373387D2*
X422858D1*
X523647D2*
X585283D1*
X612068D2*
X619232D1*
X697306D2*
X707484D1*
X11421Y444357D2*
X18900D1*
X373387D2*
X422858D1*
X523647D2*
X585283D1*
X612068D2*
X618902D1*
X697636D2*
X707484D1*
X11421Y440551D2*
X18946D1*
X373387D2*
X422858D1*
X523647D2*
X585283D1*
X612068D2*
X618948D1*
X697591D2*
X707484D1*
X11421Y436745D2*
X19361D1*
X373387D2*
X422858D1*
X523647D2*
X585283D1*
X612068D2*
X619362D1*
X697168D2*
X707484D1*
X11421Y432940D2*
X20169D1*
X373387D2*
X422858D1*
X523647D2*
X585283D1*
X612068D2*
X620171D1*
X696369D2*
X707484D1*
X11421Y429134D2*
X21391D1*
X373387D2*
X422858D1*
X523647D2*
X585283D1*
X612068D2*
X621392D1*
X695146D2*
X707484D1*
X11421Y425328D2*
X23060D1*
X373387D2*
X422858D1*
X523647D2*
X585283D1*
X612068D2*
X623062D1*
X693470D2*
X707484D1*
X11421Y421522D2*
X25266D1*
X373387D2*
X422858D1*
X523647D2*
X585283D1*
X612068D2*
X625261D1*
X691270D2*
X707484D1*
X11421Y417717D2*
X28104D1*
X373387D2*
X422858D1*
X523647D2*
X585283D1*
X612068D2*
X628106D1*
X688433D2*
X707484D1*
X11421Y413911D2*
X31803D1*
X373387D2*
X422858D1*
X523647D2*
X585283D1*
X612068D2*
X631797D1*
X684734D2*
X707484D1*
X11421Y410105D2*
X36786D1*
X79749D2*
X84606D1*
X373387D2*
X422858D1*
X523647D2*
X585283D1*
X612068D2*
X636787D1*
X679744D2*
X707484D1*
X11421Y406299D2*
X44445D1*
X72091D2*
X84606D1*
X373387D2*
X585283D1*
X612068D2*
X644446D1*
X672093D2*
X707484D1*
X11421Y402493D2*
X83768D1*
X373387D2*
X422858D1*
X523647D2*
X584560D1*
X612068D2*
X707484D1*
X11421Y398688D2*
X80885D1*
X373387D2*
X422858D1*
X523647D2*
X580755D1*
X612068D2*
X707484D1*
X11421Y394882D2*
X79085D1*
X373387D2*
X422858D1*
X523647D2*
X576948D1*
X611730D2*
X707484D1*
X11421Y391076D2*
X78093D1*
X281644D2*
X299205D1*
X373387D2*
X422858D1*
X610177D2*
X707484D1*
X11421Y387270D2*
X77794D1*
X281644D2*
X303010D1*
X373387D2*
X422858D1*
X606894D2*
X707484D1*
X11421Y383465D2*
X78171D1*
X281644D2*
X306816D1*
X373387D2*
X422858D1*
X603088D2*
X707484D1*
X11421Y379659D2*
X44806D1*
X71730D2*
X79255D1*
X281644D2*
X310623D1*
X373387D2*
X422858D1*
X599281D2*
X644807D1*
X671731D2*
X707484D1*
X11421Y375853D2*
X36993D1*
X281644D2*
X314421D1*
X373387D2*
X422858D1*
X595475D2*
X636995D1*
X679543D2*
X707484D1*
X11421Y372047D2*
X31949D1*
X281644D2*
X318228D1*
X373387D2*
X422858D1*
X591668D2*
X631950D1*
X684588D2*
X707484D1*
X11421Y368241D2*
X28219D1*
X281644D2*
X319727D1*
X373387D2*
X422858D1*
X523647D2*
X628220D1*
X688318D2*
X707484D1*
X11421Y364436D2*
X25352D1*
X91184D2*
X110220D1*
X140881D2*
X180856D1*
X281644D2*
X319727D1*
X373387D2*
X422858D1*
X523647D2*
X625353D1*
X691185D2*
X707484D1*
X11421Y360630D2*
X23129D1*
X93407D2*
X110220D1*
X138882D2*
X180856D1*
X281644D2*
X319727D1*
X373387D2*
X422858D1*
X523647D2*
X623131D1*
X693408D2*
X707484D1*
X11421Y356824D2*
X21437D1*
X95098D2*
X110220D1*
X138882D2*
X319727D1*
X373387D2*
X621440D1*
X695100D2*
X707484D1*
X11421Y353018D2*
X20207D1*
X96328D2*
X110220D1*
X138882D2*
X180856D1*
X281644D2*
X319727D1*
X373387D2*
X422858D1*
X523647D2*
X620209D1*
X696329D2*
X707484D1*
X11421Y349213D2*
X19385D1*
X97151D2*
X110220D1*
X138882D2*
X180856D1*
X281644D2*
X319727D1*
X373387D2*
X422858D1*
X523647D2*
X619386D1*
X697152D2*
X707484D1*
X11421Y345407D2*
X18954D1*
X97581D2*
X110220D1*
X138882D2*
X180856D1*
X281644D2*
X319727D1*
X373387D2*
X422858D1*
X523647D2*
X618955D1*
X697583D2*
X707484D1*
X11421Y341601D2*
X18900D1*
X97643D2*
X110220D1*
X138882D2*
X177772D1*
X281644D2*
X319727D1*
X373387D2*
X422858D1*
X523647D2*
X618894D1*
X697636D2*
X707484D1*
X11421Y337795D2*
X19207D1*
X97328D2*
X110220D1*
X138882D2*
X173942D1*
X281644D2*
X319727D1*
X375318D2*
X422858D1*
X523647D2*
X619209D1*
X697322D2*
X707484D1*
X11421Y333990D2*
X19907D1*
X96629D2*
X110220D1*
X138882D2*
X170136D1*
X281644D2*
X319727D1*
X379123D2*
X422858D1*
X523647D2*
X619909D1*
X696630D2*
X707484D1*
X11421Y330184D2*
X21007D1*
X95529D2*
X110220D1*
X138882D2*
X166331D1*
X281644D2*
X319727D1*
X382930D2*
X422858D1*
X523647D2*
X621008D1*
X695522D2*
X707484D1*
X11421Y326378D2*
X22552D1*
X93983D2*
X110220D1*
X138882D2*
X162940D1*
X281644D2*
X319727D1*
X386736D2*
X422858D1*
X523647D2*
X622554D1*
X693984D2*
X707484D1*
X11421Y322572D2*
X24598D1*
X91937D2*
X110220D1*
X138882D2*
X161201D1*
X281644D2*
X319727D1*
X390543D2*
X422858D1*
X523647D2*
X603853D1*
X691940D2*
X707484D1*
X11421Y318766D2*
X27251D1*
X89285D2*
X110220D1*
X138882D2*
X160671D1*
X281644D2*
X319727D1*
X689286D2*
X707484D1*
X11421Y314961D2*
X30680D1*
X85856D2*
X110220D1*
X138882D2*
X160671D1*
X281644D2*
X319727D1*
X685857D2*
X707484D1*
X11421Y311155D2*
X35240D1*
X81295D2*
X110220D1*
X138882D2*
X160671D1*
X281644D2*
X319727D1*
X681297D2*
X707484D1*
X11421Y307349D2*
X41869D1*
X74667D2*
X110220D1*
X138882D2*
X160671D1*
X189332D2*
X319727D1*
X635967D2*
X641870D1*
X674668D2*
X707484D1*
X11421Y303543D2*
X110220D1*
X138882D2*
X160671D1*
X281644D2*
X319727D1*
X636375D2*
X707484D1*
X11421Y299738D2*
X110220D1*
X138882D2*
X160671D1*
X281644D2*
X319727D1*
X636106D2*
X707484D1*
X11421Y295932D2*
X110220D1*
X138882D2*
X160671D1*
X281644D2*
X319727D1*
X635152D2*
X707484D1*
X11421Y292126D2*
X110220D1*
X138882D2*
X160671D1*
X281644D2*
X319727D1*
X523647D2*
X594957D1*
X633383D2*
X707484D1*
X11421Y288320D2*
X110220D1*
X138882D2*
X160671D1*
X281644D2*
X319727D1*
X523647D2*
X597786D1*
X630562D2*
X707484D1*
X11421Y284514D2*
X110220D1*
X138882D2*
X160671D1*
X281644D2*
X319727D1*
X523647D2*
X602446D1*
X625902D2*
X707484D1*
X11421Y280709D2*
X48259D1*
X68277D2*
X110220D1*
X138882D2*
X160671D1*
X281644D2*
X319727D1*
X523647D2*
X648252D1*
X668278D2*
X707484D1*
X11421Y276903D2*
X38755D1*
X77781D2*
X110220D1*
X138882D2*
X160671D1*
X281644D2*
X319727D1*
X523647D2*
X638748D1*
X677783D2*
X707484D1*
X11421Y273097D2*
X33180D1*
X83356D2*
X110220D1*
X138882D2*
X160671D1*
X281644D2*
X319727D1*
X523647D2*
X633181D1*
X683358D2*
X707484D1*
X11421Y269291D2*
X29150D1*
X87386D2*
X110220D1*
X138882D2*
X160671D1*
X281644D2*
X319727D1*
X523647D2*
X629144D1*
X687387D2*
X707484D1*
X11421Y265486D2*
X26067D1*
X90469D2*
X110220D1*
X138882D2*
X160671D1*
X281644D2*
X319727D1*
X410689D2*
X422858D1*
X523647D2*
X626068D1*
X690463D2*
X707484D1*
X11421Y261680D2*
X23682D1*
X92853D2*
X110220D1*
X138882D2*
X160671D1*
X281644D2*
X319727D1*
X406883D2*
X422858D1*
X523647D2*
X623684D1*
X692846D2*
X707484D1*
X11421Y257874D2*
X21861D1*
X94675D2*
X110220D1*
X138882D2*
X160671D1*
X189332D2*
X319727D1*
X403076D2*
X621854D1*
X694677D2*
X707484D1*
X11421Y254068D2*
X20507D1*
X96029D2*
X110220D1*
X138882D2*
X160671D1*
X189332D2*
X319727D1*
X399270D2*
X620501D1*
X696030D2*
X707484D1*
X11421Y250262D2*
X19570D1*
X96966D2*
X110220D1*
X138882D2*
X160671D1*
X189332D2*
X319727D1*
X395465D2*
X619571D1*
X696961D2*
X707484D1*
X11421Y246457D2*
X19038D1*
X97497D2*
X110220D1*
X138882D2*
X160671D1*
X189332D2*
X319727D1*
X391657D2*
X619033D1*
X697499D2*
X707484D1*
X11421Y242651D2*
X18877D1*
X97659D2*
X110220D1*
X138882D2*
X160671D1*
X192177D2*
X319727D1*
X387852D2*
X618878D1*
X697660D2*
X707484D1*
X11421Y238845D2*
X19084D1*
X97451D2*
X110220D1*
X138882D2*
X160694D1*
X195984D2*
X319727D1*
X384045D2*
X619087D1*
X697453D2*
X707484D1*
X11421Y235039D2*
X19677D1*
X96858D2*
X110220D1*
X138882D2*
X161478D1*
X199790D2*
X319727D1*
X380239D2*
X619678D1*
X696861D2*
X707484D1*
X11421Y231234D2*
X20661D1*
X95874D2*
X110220D1*
X138882D2*
X163554D1*
X203596D2*
X275936D1*
X299062D2*
X319727D1*
X376433D2*
X620663D1*
X695869D2*
X707484D1*
X11421Y227428D2*
X22084D1*
X94451D2*
X110220D1*
X138882D2*
X167192D1*
X207403D2*
X271207D1*
X303798D2*
X319727D1*
X373387D2*
X622077D1*
X694454D2*
X707484D1*
X11421Y223622D2*
X23983D1*
X92552D2*
X110220D1*
X138882D2*
X170997D1*
X306659D2*
X319727D1*
X373387D2*
X623976D1*
X692554D2*
X707484D1*
X11421Y219816D2*
X26451D1*
X90084D2*
X110220D1*
X138882D2*
X174804D1*
X308442D2*
X319727D1*
X373387D2*
X626453D1*
X690087D2*
X707484D1*
X11421Y216010D2*
X29642D1*
X86894D2*
X110220D1*
X138882D2*
X178610D1*
X309419D2*
X319727D1*
X373387D2*
X629636D1*
X686895D2*
X707484D1*
X11421Y212205D2*
X33833D1*
X82702D2*
X107451D1*
X138882D2*
X182416D1*
X309703D2*
X319727D1*
X373387D2*
X633835D1*
X682705D2*
X707484D1*
X11421Y208399D2*
X39715D1*
X76820D2*
X103654D1*
X138858D2*
X186223D1*
X309319D2*
X319727D1*
X373387D2*
X639717D1*
X676822D2*
X707484D1*
X11421Y204593D2*
X50627D1*
X65908D2*
X99846D1*
X138097D2*
X190029D1*
X308219D2*
X319727D1*
X373387D2*
X650621D1*
X665911D2*
X707484D1*
X11421Y200787D2*
X96041D1*
X136060D2*
X194274D1*
X306289D2*
X319727D1*
X373387D2*
X707484D1*
X11421Y196982D2*
X92235D1*
X132438D2*
X271783D1*
X303220D2*
X319727D1*
X373387D2*
X707484D1*
X11421Y193176D2*
X88428D1*
X128631D2*
X276990D1*
X298008D2*
X319727D1*
X373387D2*
X707484D1*
X11421Y189370D2*
X84622D1*
X124825D2*
X317143D1*
X373387D2*
X707484D1*
X11421Y185564D2*
X80815D1*
X121020D2*
X313337D1*
X373387D2*
X707484D1*
X11421Y181759D2*
X54402D1*
X62134D2*
X77009D1*
X117213D2*
X309531D1*
X373387D2*
X654404D1*
X662135D2*
X707484D1*
X11421Y177953D2*
X40753D1*
X113415D2*
X228676D1*
X233824D2*
X305724D1*
X373387D2*
X640747D1*
X675783D2*
X707484D1*
X11421Y174147D2*
X34517D1*
X109608D2*
X218388D1*
X244112D2*
X301919D1*
X342122D2*
X344726D1*
X373387D2*
X634518D1*
X682020D2*
X707484D1*
X11421Y170341D2*
X30150D1*
X105802D2*
X214205D1*
X248295D2*
X298113D1*
X338316D2*
X344726D1*
X373387D2*
X630151D1*
X686387D2*
X707484D1*
X11421Y166535D2*
X26843D1*
X101996D2*
X211621D1*
X334509D2*
X344726D1*
X373387D2*
X626845D1*
X689694D2*
X707484D1*
X11421Y162730D2*
X24282D1*
X98189D2*
X210029D1*
X330711D2*
X342727D1*
X373387D2*
X624283D1*
X692255D2*
X707484D1*
X11421Y158924D2*
X22314D1*
X94383D2*
X209206D1*
X326904D2*
X338920D1*
X373387D2*
X622315D1*
X694223D2*
X707484D1*
X11421Y155118D2*
X20829D1*
X95706D2*
X209076D1*
X323098D2*
X335114D1*
X372849D2*
X620832D1*
X695699D2*
X707484D1*
X11421Y151312D2*
X19791D1*
X96744D2*
X209614D1*
X319293D2*
X331307D1*
X371104D2*
X619786D1*
X696745D2*
X707484D1*
X11421Y147507D2*
X19146D1*
X97390D2*
X210875D1*
X315486D2*
X327501D1*
X367705D2*
X619147D1*
X697391D2*
X707484D1*
X11421Y143701D2*
X18885D1*
X97651D2*
X213021D1*
X310580D2*
X323696D1*
X363907D2*
X618878D1*
X697652D2*
X707484D1*
X11421Y139895D2*
X18992D1*
X97543D2*
X216427D1*
X246073D2*
X319888D1*
X360100D2*
X618993D1*
X697545D2*
X707484D1*
X11421Y136089D2*
X19476D1*
X97059D2*
X222533D1*
X239967D2*
X316083D1*
X356294D2*
X619478D1*
X697060D2*
X707484D1*
X11421Y132283D2*
X20353D1*
X96182D2*
X312276D1*
X352488D2*
X620346D1*
X696184D2*
X707484D1*
X11421Y128478D2*
X21646D1*
X94890D2*
X308470D1*
X348681D2*
X621647D1*
X694892D2*
X707484D1*
X11421Y124672D2*
X23406D1*
X93130D2*
X304664D1*
X344875D2*
X623400D1*
X693131D2*
X707484D1*
X11421Y120866D2*
X25705D1*
X90831D2*
X300857D1*
X341068D2*
X625706D1*
X690832D2*
X707484D1*
X11421Y117060D2*
X28673D1*
X87862D2*
X297059D1*
X337262D2*
X628675D1*
X687864D2*
X707484D1*
X11421Y113255D2*
X32549D1*
X83987D2*
X293252D1*
X333457D2*
X632550D1*
X683988D2*
X707484D1*
X11421Y109449D2*
X37846D1*
X78689D2*
X106375D1*
X329650D2*
X637848D1*
X678690D2*
X707484D1*
X11421Y105643D2*
X46390D1*
X70146D2*
X100892D1*
X325844D2*
X646391D1*
X670147D2*
X707484D1*
X11421Y101837D2*
X97087D1*
X322037D2*
X707484D1*
X11421Y98031D2*
X93280D1*
X318231D2*
X707484D1*
X11421Y94226D2*
X89474D1*
X314425D2*
X707484D1*
X11421Y90420D2*
X85668D1*
X310618D2*
X707484D1*
X11421Y86614D2*
X81861D1*
X306820D2*
X707484D1*
X11421Y82808D2*
X78063D1*
X299769D2*
X707484D1*
X11421Y79003D2*
X43091D1*
X114461D2*
X143093D1*
X173446D2*
X243087D1*
X273448D2*
X343088D1*
X373449D2*
X443089D1*
X473442D2*
X543091D1*
X573445D2*
X643093D1*
X673446D2*
X707484D1*
X11421Y75197D2*
X35993D1*
X110654D2*
X135995D1*
X180543D2*
X235996D1*
X280545D2*
X335991D1*
X380539D2*
X435992D1*
X480541D2*
X535993D1*
X580542D2*
X635995D1*
X680543D2*
X707484D1*
X11421Y71391D2*
X31226D1*
X106848D2*
X131228D1*
X185311D2*
X231230D1*
X285304D2*
X331231D1*
X385306D2*
X431224D1*
X485307D2*
X531226D1*
X585310D2*
X631228D1*
X685311D2*
X707484D1*
X11421Y67585D2*
X27665D1*
X103041D2*
X127668D1*
X188864D2*
X227669D1*
X288865D2*
X327671D1*
X388866D2*
X427672D1*
X488867D2*
X527665D1*
X588870D2*
X627668D1*
X688864D2*
X707484D1*
X11421Y63780D2*
X24929D1*
X99235D2*
X124923D1*
X191609D2*
X224924D1*
X291610D2*
X324925D1*
X391612D2*
X424927D1*
X491613D2*
X524929D1*
X591606D2*
X624923D1*
X691609D2*
X707484D1*
X11421Y59974D2*
X22806D1*
X95429D2*
X122801D1*
X193731D2*
X222802D1*
X293732D2*
X322803D1*
X393734D2*
X422804D1*
X493735D2*
X522806D1*
X593730D2*
X622801D1*
X693731D2*
X707484D1*
X11421Y56168D2*
X21199D1*
X95336D2*
X121193D1*
X195337D2*
X221194D1*
X295340D2*
X321196D1*
X395341D2*
X421198D1*
X495343D2*
X521199D1*
X595336D2*
X621193D1*
X695337D2*
X707484D1*
X11421Y52362D2*
X20038D1*
X96497D2*
X120039D1*
X196499D2*
X220033D1*
X296500D2*
X320035D1*
X396503D2*
X420037D1*
X496496D2*
X520038D1*
X596497D2*
X620039D1*
X696499D2*
X707484D1*
X11421Y48556D2*
X19285D1*
X97251D2*
X119286D1*
X197252D2*
X219287D1*
X297255D2*
X319281D1*
X397248D2*
X419283D1*
X497249D2*
X519285D1*
X597251D2*
X619286D1*
X697252D2*
X707484D1*
X11421Y44751D2*
X18915D1*
X97621D2*
X118917D1*
X197622D2*
X218919D1*
X297615D2*
X318920D1*
X397617D2*
X418913D1*
X497618D2*
X518915D1*
X597621D2*
X618917D1*
X697622D2*
X707484D1*
X11421Y40945D2*
X18923D1*
X97613D2*
X118925D1*
X197614D2*
X218927D1*
X297615D2*
X318920D1*
X397609D2*
X418921D1*
X497610D2*
X518923D1*
X597613D2*
X618925D1*
X697614D2*
X707484D1*
X11421Y37139D2*
X19307D1*
X97228D2*
X119302D1*
X197230D2*
X219303D1*
X297231D2*
X319304D1*
X397232D2*
X419306D1*
X497234D2*
X519307D1*
X597228D2*
X619302D1*
X697230D2*
X707484D1*
X11421Y33333D2*
X20068D1*
X96467D2*
X120071D1*
X196469D2*
X220072D1*
X296470D2*
X320066D1*
X396463D2*
X420067D1*
X496465D2*
X520068D1*
X596467D2*
X620071D1*
X696469D2*
X707484D1*
X11421Y29528D2*
X21245D1*
X95290D2*
X121247D1*
X195291D2*
X221240D1*
X295293D2*
X321243D1*
X395295D2*
X421244D1*
X495289D2*
X521245D1*
X595290D2*
X621247D1*
X695291D2*
X707484D1*
X11421Y25722D2*
X22867D1*
X93668D2*
X122869D1*
X193669D2*
X222871D1*
X293671D2*
X322865D1*
X393664D2*
X422866D1*
X493667D2*
X522867D1*
X593668D2*
X622869D1*
X693669D2*
X707484D1*
X11421Y21916D2*
X25005D1*
X91530D2*
X125007D1*
X191524D2*
X225008D1*
X291525D2*
X325010D1*
X391528D2*
X425012D1*
X491529D2*
X525005D1*
X591530D2*
X625007D1*
X691524D2*
X707484D1*
X11421Y18110D2*
X27781D1*
X88755D2*
X127776D1*
X188756D2*
X227777D1*
X288757D2*
X327778D1*
X388759D2*
X427780D1*
X488760D2*
X527781D1*
X588755D2*
X627776D1*
X688756D2*
X707484D1*
X11744Y14304D2*
X31373D1*
X85163D2*
X131366D1*
X185165D2*
X231367D1*
X285167D2*
X331369D1*
X385168D2*
X431370D1*
X485169D2*
X531373D1*
X585163D2*
X631366D1*
X685165D2*
X707154D1*
X13398Y10499D2*
X36186D1*
X80349D2*
X136188D1*
X180352D2*
X236189D1*
X280345D2*
X336190D1*
X380346D2*
X436184D1*
X480348D2*
X536186D1*
X580349D2*
X636188D1*
X680352D2*
X705500D1*
X18911Y6693D2*
X43413D1*
X73122D2*
X143416D1*
X173123D2*
X243417D1*
X273125D2*
X343411D1*
X373118D2*
X443412D1*
X473119D2*
X543413D1*
X573122D2*
X643416D1*
X673123D2*
X699987D1*
X197636Y604249D2*
X281251D1*
Y594245D1*
X292589Y594249D1*
X341484Y643150D1*
X343035Y644474D1*
X344776Y645539D1*
X346660Y646320D1*
X348643Y646797D1*
X350677Y646957D1*
X384703D1*
X383415Y648335D1*
X382354Y649680D1*
X381403Y651104D1*
X380566Y652598D1*
X379849Y654154D1*
X379256Y655760D1*
X378791Y657408D1*
X378458Y659088D1*
X378256Y660789D1*
X378189Y662500D1*
X378256Y664211D1*
X378458Y665912D1*
X378791Y667592D1*
X379256Y669240D1*
X379849Y670846D1*
X380566Y672402D1*
X381541Y674102D1*
X267492Y674106D1*
X197629Y604244D1*
X281251Y568255D2*
Y558249D1*
X190169D1*
X190165Y554249D1*
X281251D1*
Y545184D1*
X324264Y545186D1*
X326444Y545014D1*
X328571Y544504D1*
X330591Y543668D1*
X332455Y542525D1*
X334122Y541101D1*
X369654Y505509D1*
X370938Y503740D1*
X371932Y501791D1*
X372608Y499711D1*
X372949Y497551D1*
X372992Y492521D1*
Y339723D1*
X392535Y320186D1*
X423248Y320188D1*
X423251Y354249D1*
X523251D1*
Y320193D1*
X600552Y320188D1*
X602777Y321747D1*
X604272Y322584D1*
X605827Y323301D1*
X607433Y323894D1*
X609081Y324358D1*
X610761Y324692D1*
X612462Y324894D1*
X614173Y324961D1*
X615885Y324894D1*
X617585Y324692D1*
X619265Y324358D1*
X620913Y323894D1*
X622520Y323301D1*
X624075Y322584D1*
X625482Y321795D1*
X624364Y323639D1*
X623434Y325374D1*
X622593Y327155D1*
X621844Y328974D1*
X621186Y330829D1*
X620625Y332717D1*
X620157Y334629D1*
X619789Y336562D1*
X619517Y338510D1*
X619344Y340471D1*
X619270Y342438D1*
X619297Y344407D1*
X619421Y346371D1*
X619646Y348327D1*
X619967Y350268D1*
X620387Y352192D1*
X620904Y354091D1*
X621516Y355962D1*
X622220Y357799D1*
X623017Y359598D1*
X623904Y361356D1*
X624878Y363067D1*
X625937Y364726D1*
X627079Y366328D1*
X628301Y367873D1*
X629597Y369353D1*
X630969Y370765D1*
X632408Y372108D1*
X633913Y373375D1*
X635482Y374564D1*
X637108Y375675D1*
X638787Y376699D1*
X640517Y377639D1*
X642291Y378491D1*
X644108Y379252D1*
X645958Y379920D1*
X647841Y380493D1*
X649751Y380972D1*
X651681Y381353D1*
X653630Y381636D1*
X655589Y381822D1*
X657555Y381907D1*
X659524Y381894D1*
X661488Y381780D1*
X663446Y381568D1*
X665390Y381257D1*
X667315Y380849D1*
X669218Y380345D1*
X671092Y379744D1*
X672934Y379051D1*
X674739Y378265D1*
X676501Y377388D1*
X678217Y376425D1*
X679882Y375375D1*
X681492Y374244D1*
X683043Y373033D1*
X684531Y371744D1*
X685953Y370382D1*
X687303Y368950D1*
X688580Y367451D1*
X689780Y365891D1*
X690899Y364273D1*
X691934Y362598D1*
X692886Y360875D1*
X693748Y359106D1*
X694520Y357295D1*
X695198Y355448D1*
X695783Y353568D1*
X696274Y351661D1*
X696667Y349734D1*
X696962Y347787D1*
X697159Y345829D1*
X697268Y342913D1*
X697218Y340946D1*
X697070Y338983D1*
X696822Y337030D1*
X696475Y335093D1*
X696033Y333175D1*
X695493Y331282D1*
X694858Y329419D1*
X694131Y327589D1*
X693312Y325801D1*
X692404Y324054D1*
X691409Y322356D1*
X690329Y320710D1*
X689169Y319119D1*
X687929Y317592D1*
X686614Y316127D1*
X685226Y314731D1*
X683770Y313407D1*
X682249Y312157D1*
X680667Y310987D1*
X679028Y309898D1*
X677335Y308892D1*
X675594Y307974D1*
X673810Y307144D1*
X671984Y306406D1*
X670126Y305760D1*
X668236Y305209D1*
X666320Y304753D1*
X664386Y304396D1*
X662434Y304136D1*
X660472Y303976D1*
X658505Y303915D1*
X656537Y303951D1*
X654573Y304089D1*
X652619Y304324D1*
X650680Y304659D1*
X648760Y305091D1*
X646864Y305618D1*
X644996Y306241D1*
X643163Y306957D1*
X641367Y307765D1*
X639615Y308663D1*
X637912Y309647D1*
X636260Y310717D1*
X633877Y312497D1*
X634917Y309890D1*
X635382Y308241D1*
X635715Y306562D1*
X635917Y304861D1*
X635984Y303150D1*
X635917Y301438D1*
X635715Y299738D1*
X635382Y298058D1*
X634917Y296409D1*
X634324Y294803D1*
X633608Y293248D1*
X632770Y291753D1*
X631819Y290329D1*
X630759Y288984D1*
X629596Y287727D1*
X628339Y286564D1*
X626993Y285504D1*
X625570Y284552D1*
X624075Y283715D1*
X622520Y282999D1*
X620913Y282406D1*
X619265Y281941D1*
X617585Y281608D1*
X615885Y281406D1*
X614173Y281339D1*
X612462Y281406D1*
X610761Y281608D1*
X609081Y281941D1*
X607433Y282406D1*
X605827Y282999D1*
X604272Y283715D1*
X602777Y284552D1*
X601353Y285504D1*
X600008Y286564D1*
X598751Y287727D1*
X597588Y288984D1*
X596528Y290329D1*
X595265Y292308D1*
X523245Y292312D1*
X523251Y258249D1*
X423251D1*
Y267315D1*
X412112Y267312D1*
X372991Y228184D1*
X372949Y157864D1*
X372608Y155703D1*
X371932Y153623D1*
X370938Y151675D1*
X369654Y149906D1*
X366126Y146318D1*
X305606Y85858D1*
X303837Y84573D1*
X301888Y83580D1*
X299808Y82904D1*
X297648Y82563D1*
X292618Y82520D1*
X117583D1*
X93877Y58812D1*
X95198Y55448D1*
X95783Y53568D1*
X96274Y51661D1*
X96667Y49734D1*
X96962Y47787D1*
X97159Y45829D1*
X97268Y42913D1*
X97218Y40946D1*
X97070Y38983D1*
X96822Y37030D1*
X96475Y35093D1*
X96033Y33175D1*
X95493Y31282D1*
X94858Y29419D1*
X94131Y27589D1*
X93312Y25801D1*
X92404Y24054D1*
X91409Y22356D1*
X90329Y20710D1*
X89169Y19119D1*
X87929Y17592D1*
X86614Y16127D1*
X85226Y14731D1*
X83770Y13407D1*
X82249Y12157D1*
X80667Y10987D1*
X79028Y9898D1*
X77335Y8892D1*
X75594Y7974D1*
X73810Y7144D1*
X71672Y6297D1*
X144836Y6299D1*
X141367Y7765D1*
X139615Y8663D1*
X137912Y9647D1*
X136260Y10717D1*
X134663Y11867D1*
X133127Y13098D1*
X131655Y14406D1*
X130251Y15783D1*
X128917Y17232D1*
X127659Y18745D1*
X126478Y20320D1*
X125379Y21953D1*
X124364Y23639D1*
X123434Y25374D1*
X122593Y27155D1*
X121844Y28974D1*
X121186Y30829D1*
X120625Y32717D1*
X120157Y34629D1*
X119789Y36562D1*
X119517Y38510D1*
X119344Y40471D1*
X119270Y42438D1*
X119297Y44407D1*
X119421Y46371D1*
X119646Y48327D1*
X119967Y50268D1*
X120387Y52192D1*
X120904Y54091D1*
X121516Y55962D1*
X122220Y57799D1*
X123017Y59598D1*
X123904Y61356D1*
X124878Y63067D1*
X125937Y64726D1*
X127079Y66328D1*
X128301Y67873D1*
X129597Y69353D1*
X130969Y70765D1*
X132408Y72108D1*
X133913Y73375D1*
X135482Y74564D1*
X137108Y75675D1*
X138787Y76699D1*
X140517Y77639D1*
X142291Y78491D1*
X144108Y79252D1*
X145958Y79920D1*
X147841Y80493D1*
X149751Y80972D1*
X151681Y81353D1*
X153630Y81636D1*
X155589Y81822D1*
X157555Y81907D1*
X159524Y81894D1*
X161488Y81780D1*
X163446Y81568D1*
X165390Y81257D1*
X167315Y80849D1*
X169218Y80345D1*
X171092Y79744D1*
X172934Y79051D1*
X174739Y78265D1*
X176501Y77388D1*
X178217Y76425D1*
X179882Y75375D1*
X181492Y74244D1*
X183043Y73033D1*
X184531Y71744D1*
X185953Y70382D1*
X187303Y68950D1*
X188580Y67451D1*
X189780Y65891D1*
X190899Y64273D1*
X191934Y62598D1*
X192886Y60875D1*
X193748Y59106D1*
X194520Y57295D1*
X195198Y55448D1*
X195783Y53568D1*
X196274Y51661D1*
X196667Y49734D1*
X196962Y47787D1*
X197159Y45829D1*
X197268Y42913D1*
X197218Y40946D1*
X197070Y38983D1*
X196822Y37030D1*
X196475Y35093D1*
X196033Y33175D1*
X195493Y31282D1*
X194858Y29419D1*
X194131Y27589D1*
X193312Y25801D1*
X192404Y24054D1*
X191409Y22356D1*
X190329Y20710D1*
X189169Y19119D1*
X187929Y17592D1*
X186614Y16127D1*
X185226Y14731D1*
X183770Y13407D1*
X182249Y12157D1*
X180667Y10987D1*
X179028Y9898D1*
X177335Y8892D1*
X175594Y7974D1*
X173810Y7144D1*
X171672Y6297D1*
X244829Y6299D1*
X241367Y7765D1*
X239615Y8663D1*
X237912Y9647D1*
X236260Y10717D1*
X234663Y11867D1*
X233127Y13098D1*
X231655Y14406D1*
X230251Y15783D1*
X228917Y17232D1*
X227659Y18745D1*
X226478Y20320D1*
X225379Y21953D1*
X224364Y23639D1*
X223434Y25374D1*
X222593Y27155D1*
X221844Y28974D1*
X221186Y30829D1*
X220625Y32717D1*
X220157Y34629D1*
X219789Y36562D1*
X219517Y38510D1*
X219344Y40471D1*
X219270Y42438D1*
X219297Y44407D1*
X219421Y46371D1*
X219646Y48327D1*
X219967Y50268D1*
X220387Y52192D1*
X220904Y54091D1*
X221516Y55962D1*
X222220Y57799D1*
X223017Y59598D1*
X223904Y61356D1*
X224878Y63067D1*
X225937Y64726D1*
X227079Y66328D1*
X228301Y67873D1*
X229597Y69353D1*
X230969Y70765D1*
X232408Y72108D1*
X233913Y73375D1*
X235482Y74564D1*
X237108Y75675D1*
X238787Y76699D1*
X240517Y77639D1*
X242291Y78491D1*
X244108Y79252D1*
X245958Y79920D1*
X247841Y80493D1*
X249751Y80972D1*
X251681Y81353D1*
X253630Y81636D1*
X255589Y81822D1*
X257555Y81907D1*
X259524Y81894D1*
X261488Y81780D1*
X263446Y81568D1*
X265390Y81257D1*
X267315Y80849D1*
X269218Y80345D1*
X271092Y79744D1*
X272934Y79051D1*
X274739Y78265D1*
X276501Y77388D1*
X278217Y76425D1*
X279882Y75375D1*
X281492Y74244D1*
X283043Y73033D1*
X284531Y71744D1*
X285953Y70382D1*
X287303Y68950D1*
X288580Y67451D1*
X289780Y65891D1*
X290899Y64273D1*
X291934Y62598D1*
X292886Y60875D1*
X293748Y59106D1*
X294520Y57295D1*
X295198Y55448D1*
X295783Y53568D1*
X296274Y51661D1*
X296667Y49734D1*
X296962Y47787D1*
X297159Y45829D1*
X297268Y42913D1*
X297218Y40946D1*
X297070Y38983D1*
X296822Y37030D1*
X296475Y35093D1*
X296033Y33175D1*
X295493Y31282D1*
X294858Y29419D1*
X294131Y27589D1*
X293312Y25801D1*
X292404Y24054D1*
X291409Y22356D1*
X290329Y20710D1*
X289169Y19119D1*
X287929Y17592D1*
X286614Y16127D1*
X285226Y14731D1*
X283770Y13407D1*
X282249Y12157D1*
X280667Y10987D1*
X279028Y9898D1*
X277335Y8892D1*
X275594Y7974D1*
X273810Y7144D1*
X271672Y6297D1*
X344839Y6299D1*
X342440Y7269D1*
X339963Y8476D1*
X337577Y9854D1*
X335294Y11398D1*
X333127Y13098D1*
X331084Y14948D1*
X329177Y16937D1*
X327416Y19056D1*
X325808Y21294D1*
X324364Y23639D1*
X323087Y26081D1*
X321987Y28608D1*
X321067Y31205D1*
X320333Y33861D1*
X319789Y36562D1*
X319436Y39294D1*
X319277Y42045D1*
X319314Y44801D1*
X319543Y47546D1*
X319967Y50268D1*
X320583Y52954D1*
X321386Y55589D1*
X322373Y58163D1*
X323538Y60659D1*
X324878Y63067D1*
X326385Y65374D1*
X328050Y67568D1*
X329866Y69640D1*
X331824Y71579D1*
X333913Y73375D1*
X336126Y75018D1*
X338448Y76501D1*
X340869Y77818D1*
X343377Y78958D1*
X345958Y79920D1*
X348602Y80697D1*
X351294Y81285D1*
X354021Y81681D1*
X356769Y81885D1*
X359524Y81894D1*
X362273Y81707D1*
X365001Y81328D1*
X367697Y80756D1*
X370345Y79996D1*
X372934Y79051D1*
X375449Y77925D1*
X377878Y76625D1*
X380209Y75156D1*
X382430Y73526D1*
X384531Y71744D1*
X386501Y69818D1*
X388331Y67757D1*
X390010Y65572D1*
X391530Y63274D1*
X392886Y60875D1*
X394067Y58386D1*
X395070Y55820D1*
X395890Y53189D1*
X396521Y50507D1*
X396962Y47787D1*
X397210Y45043D1*
X397260Y42126D1*
X397106Y39375D1*
X396760Y36642D1*
X396222Y33940D1*
X395493Y31282D1*
X394579Y28682D1*
X393483Y26155D1*
X392213Y23710D1*
X390772Y21361D1*
X389169Y19119D1*
X387412Y16997D1*
X385509Y15005D1*
X383471Y13151D1*
X381307Y11446D1*
X379028Y9898D1*
X376644Y8514D1*
X374169Y7303D1*
X371698Y6299D1*
X444832D1*
X441367Y7765D1*
X439615Y8663D1*
X437912Y9647D1*
X436260Y10717D1*
X434663Y11867D1*
X433127Y13098D1*
X431655Y14406D1*
X430251Y15783D1*
X428917Y17232D1*
X427659Y18745D1*
X426478Y20320D1*
X425379Y21953D1*
X424364Y23639D1*
X423434Y25374D1*
X422593Y27155D1*
X421844Y28974D1*
X421186Y30829D1*
X420625Y32717D1*
X420157Y34629D1*
X419789Y36562D1*
X419517Y38510D1*
X419344Y40471D1*
X419270Y42438D1*
X419297Y44407D1*
X419421Y46371D1*
X419646Y48327D1*
X419967Y50268D1*
X420387Y52192D1*
X420904Y54091D1*
X421516Y55962D1*
X422220Y57799D1*
X423017Y59598D1*
X423904Y61356D1*
X424878Y63067D1*
X425937Y64726D1*
X427079Y66328D1*
X428301Y67873D1*
X429597Y69353D1*
X430969Y70765D1*
X432408Y72108D1*
X433913Y73375D1*
X435482Y74564D1*
X437108Y75675D1*
X438787Y76699D1*
X440517Y77639D1*
X442291Y78491D1*
X444108Y79252D1*
X445958Y79920D1*
X447841Y80493D1*
X449751Y80972D1*
X451681Y81353D1*
X453630Y81636D1*
X455589Y81822D1*
X457555Y81907D1*
X459524Y81894D1*
X461488Y81780D1*
X463446Y81568D1*
X465390Y81257D1*
X467315Y80849D1*
X469218Y80345D1*
X471092Y79744D1*
X472934Y79051D1*
X474739Y78265D1*
X476501Y77388D1*
X478217Y76425D1*
X479882Y75375D1*
X481492Y74244D1*
X483043Y73033D1*
X484531Y71744D1*
X485953Y70382D1*
X487303Y68950D1*
X488580Y67451D1*
X489780Y65891D1*
X490899Y64273D1*
X491934Y62598D1*
X492886Y60875D1*
X493748Y59106D1*
X494520Y57295D1*
X495198Y55448D1*
X495783Y53568D1*
X496274Y51661D1*
X496667Y49734D1*
X496962Y47787D1*
X497159Y45829D1*
X497268Y42913D1*
X497218Y40946D1*
X497070Y38983D1*
X496822Y37030D1*
X496475Y35093D1*
X496033Y33175D1*
X495493Y31282D1*
X494858Y29419D1*
X494131Y27589D1*
X493312Y25801D1*
X492404Y24054D1*
X491409Y22356D1*
X490329Y20710D1*
X489169Y19119D1*
X487929Y17592D1*
X486614Y16127D1*
X485226Y14731D1*
X483770Y13407D1*
X482249Y12157D1*
X480667Y10987D1*
X479028Y9898D1*
X477335Y8892D1*
X475594Y7974D1*
X473810Y7144D1*
X471672Y6297D1*
X544841Y6299D1*
X541367Y7765D1*
X539615Y8663D1*
X537912Y9647D1*
X536260Y10717D1*
X534663Y11867D1*
X533127Y13098D1*
X531655Y14406D1*
X530251Y15783D1*
X528917Y17232D1*
X527659Y18745D1*
X526478Y20320D1*
X525379Y21953D1*
X524364Y23639D1*
X523434Y25374D1*
X522593Y27155D1*
X521844Y28974D1*
X521186Y30829D1*
X520625Y32717D1*
X520157Y34629D1*
X519789Y36562D1*
X519517Y38510D1*
X519344Y40471D1*
X519270Y42438D1*
X519297Y44407D1*
X519421Y46371D1*
X519646Y48327D1*
X519967Y50268D1*
X520387Y52192D1*
X520904Y54091D1*
X521516Y55962D1*
X522220Y57799D1*
X523017Y59598D1*
X523904Y61356D1*
X524878Y63067D1*
X525937Y64726D1*
X527079Y66328D1*
X528301Y67873D1*
X529597Y69353D1*
X530969Y70765D1*
X532408Y72108D1*
X533913Y73375D1*
X535482Y74564D1*
X537108Y75675D1*
X538787Y76699D1*
X540517Y77639D1*
X542291Y78491D1*
X544108Y79252D1*
X545958Y79920D1*
X547841Y80493D1*
X549751Y80972D1*
X551681Y81353D1*
X553630Y81636D1*
X555589Y81822D1*
X557555Y81907D1*
X559524Y81894D1*
X561488Y81780D1*
X563446Y81568D1*
X565390Y81257D1*
X567315Y80849D1*
X569218Y80345D1*
X571092Y79744D1*
X572934Y79051D1*
X574739Y78265D1*
X576501Y77388D1*
X578217Y76425D1*
X579882Y75375D1*
X581492Y74244D1*
X583043Y73033D1*
X584531Y71744D1*
X585953Y70382D1*
X587303Y68950D1*
X588580Y67451D1*
X589780Y65891D1*
X590899Y64273D1*
X591934Y62598D1*
X592886Y60875D1*
X593748Y59106D1*
X594520Y57295D1*
X595198Y55448D1*
X595783Y53568D1*
X596274Y51661D1*
X596667Y49734D1*
X596962Y47787D1*
X597159Y45829D1*
X597268Y42913D1*
X597218Y40946D1*
X597070Y38983D1*
X596822Y37030D1*
X596475Y35093D1*
X596033Y33175D1*
X595493Y31282D1*
X594858Y29419D1*
X594131Y27589D1*
X593312Y25801D1*
X592404Y24054D1*
X591409Y22356D1*
X590329Y20710D1*
X589169Y19119D1*
X587929Y17592D1*
X586614Y16127D1*
X585226Y14731D1*
X583770Y13407D1*
X582249Y12157D1*
X580667Y10987D1*
X579028Y9898D1*
X577335Y8892D1*
X575594Y7974D1*
X573810Y7144D1*
X571672Y6297D1*
X644836Y6299D1*
X641367Y7765D1*
X639615Y8663D1*
X637912Y9647D1*
X636260Y10717D1*
X634663Y11867D1*
X633127Y13098D1*
X631655Y14406D1*
X630251Y15783D1*
X628917Y17232D1*
X627659Y18745D1*
X626478Y20320D1*
X625379Y21953D1*
X624364Y23639D1*
X623434Y25374D1*
X622593Y27155D1*
X621844Y28974D1*
X621186Y30829D1*
X620625Y32717D1*
X620157Y34629D1*
X619789Y36562D1*
X619517Y38510D1*
X619344Y40471D1*
X619270Y42438D1*
X619297Y44407D1*
X619421Y46371D1*
X619646Y48327D1*
X619967Y50268D1*
X620387Y52192D1*
X620904Y54091D1*
X621516Y55962D1*
X622220Y57799D1*
X623017Y59598D1*
X623904Y61356D1*
X624878Y63067D1*
X625937Y64726D1*
X627079Y66328D1*
X628301Y67873D1*
X629597Y69353D1*
X630969Y70765D1*
X632408Y72108D1*
X633913Y73375D1*
X635482Y74564D1*
X637108Y75675D1*
X638787Y76699D1*
X640517Y77639D1*
X642291Y78491D1*
X644108Y79252D1*
X645958Y79920D1*
X647841Y80493D1*
X649751Y80972D1*
X651681Y81353D1*
X653630Y81636D1*
X655589Y81822D1*
X657555Y81907D1*
X659524Y81894D1*
X661488Y81780D1*
X663446Y81568D1*
X665390Y81257D1*
X667315Y80849D1*
X669218Y80345D1*
X671092Y79744D1*
X672934Y79051D1*
X674739Y78265D1*
X676501Y77388D1*
X678217Y76425D1*
X679882Y75375D1*
X681492Y74244D1*
X683043Y73033D1*
X684531Y71744D1*
X685953Y70382D1*
X687303Y68950D1*
X688580Y67451D1*
X689780Y65891D1*
X690899Y64273D1*
X691934Y62598D1*
X692886Y60875D1*
X693748Y59106D1*
X694520Y57295D1*
X695198Y55448D1*
X695783Y53568D1*
X696274Y51661D1*
X696667Y49734D1*
X696962Y47787D1*
X697159Y45829D1*
X697268Y42913D1*
X697218Y40946D1*
X697070Y38983D1*
X696822Y37030D1*
X696475Y35093D1*
X696033Y33175D1*
X695493Y31282D1*
X694858Y29419D1*
X694131Y27589D1*
X693312Y25801D1*
X692404Y24054D1*
X691409Y22356D1*
X690329Y20710D1*
X689169Y19119D1*
X687929Y17592D1*
X686614Y16127D1*
X685226Y14731D1*
X683770Y13407D1*
X682249Y12157D1*
X680667Y10987D1*
X679028Y9898D1*
X677335Y8892D1*
X675594Y7974D1*
X673810Y7144D1*
X671672Y6297D1*
X697387Y6299D1*
X700556Y6717D1*
X702909Y7690D1*
X704930Y9240D1*
X706482Y11261D1*
X707457Y13614D1*
X707875Y16783D1*
X707874Y1377702D1*
X707457Y1380871D1*
X706483Y1383224D1*
X704933Y1385244D1*
X702913Y1386795D1*
X700560Y1387770D1*
X697391Y1388188D1*
X21510Y1388189D1*
X18341Y1387772D1*
X15988Y1386798D1*
X13967Y1385248D1*
X12417Y1383227D1*
X11442Y1380874D1*
X11025Y1377698D1*
Y1079409D1*
X35308Y1103636D1*
X36958Y1104835D1*
X38776Y1105761D1*
X40715Y1106391D1*
X42735Y1106711D1*
X43163Y1106957D1*
X41367Y1107765D1*
X39615Y1108663D1*
X37912Y1109647D1*
X36260Y1110717D1*
X34663Y1111867D1*
X33127Y1113098D1*
X31655Y1114406D1*
X30251Y1115783D1*
X28917Y1117232D1*
X27659Y1118745D1*
X26478Y1120320D1*
X25379Y1121953D1*
X24364Y1123639D1*
X23434Y1125374D1*
X22593Y1127155D1*
X21844Y1128974D1*
X21186Y1130829D1*
X20625Y1132717D1*
X20157Y1134629D1*
X19789Y1136562D1*
X19517Y1138510D1*
X19344Y1140471D1*
X19270Y1142438D1*
X19297Y1144407D1*
X19421Y1146371D1*
X19646Y1148327D1*
X19967Y1150268D1*
X20387Y1152192D1*
X20904Y1154091D1*
X21516Y1155962D1*
X22220Y1157799D1*
X23017Y1159598D1*
X23904Y1161356D1*
X24878Y1163067D1*
X25937Y1164726D1*
X27079Y1166328D1*
X28301Y1167873D1*
X29597Y1169353D1*
X30969Y1170765D1*
X32408Y1172108D1*
X33913Y1173375D1*
X35482Y1174564D1*
X37108Y1175675D1*
X38787Y1176699D1*
X40517Y1177639D1*
X42291Y1178491D1*
X44108Y1179252D1*
X45958Y1179920D1*
X47841Y1180493D1*
X49751Y1180972D1*
X51681Y1181353D1*
X53630Y1181636D1*
X55589Y1181822D1*
X57555Y1181907D1*
X59524Y1181894D1*
X61488Y1181780D1*
X63446Y1181568D1*
X65390Y1181257D1*
X67315Y1180849D1*
X69218Y1180345D1*
X71092Y1179744D1*
X72934Y1179051D1*
X74739Y1178265D1*
X76501Y1177388D1*
X78217Y1176425D1*
X79882Y1175375D1*
X81492Y1174244D1*
X83043Y1173033D1*
X84531Y1171744D1*
X85953Y1170382D1*
X87303Y1168950D1*
X88580Y1167451D1*
X89780Y1165891D1*
X90899Y1164273D1*
X91934Y1162598D1*
X93252Y1160122D1*
X93289Y1163518D1*
X93609Y1165534D1*
X94239Y1167474D1*
X95165Y1169291D1*
X96364Y1170941D1*
X99841Y1174475D1*
X154059Y1228636D1*
X155709Y1229835D1*
X157526Y1230761D1*
X159466Y1231391D1*
X161482Y1231711D1*
X166438Y1231751D1*
X338518Y1231711D1*
X340534Y1231391D1*
X342474Y1230761D1*
X344291Y1229835D1*
X345941Y1228636D1*
X349475Y1225159D1*
X366135Y1208442D1*
X367333Y1206793D1*
X368260Y1204975D1*
X368890Y1203035D1*
X369210Y1201020D1*
X369249Y1196063D1*
X369210Y1105228D1*
X368890Y1103213D1*
X368260Y1101273D1*
X367333Y1099455D1*
X366135Y1097806D1*
X362657Y1094272D1*
X343752Y1075366D1*
X343751Y1058249D1*
X243751D1*
Y1104249D1*
X335864D1*
X339814Y1108249D1*
X243751D1*
Y1118253D1*
X168667Y1118249D1*
X165119Y1114701D1*
X165118Y1075400D1*
X215365Y1075403D1*
Y1012096D1*
X165117D1*
X165118Y975407D1*
X215365Y975404D1*
Y924077D1*
X234008Y942655D1*
X235912Y944039D1*
X238009Y945108D1*
X240248Y945835D1*
X242572Y946203D1*
X243757Y946249D1*
X243751Y954249D1*
X343751D1*
Y946244D1*
X387539Y946249D1*
X409444Y968156D1*
X409507Y970461D1*
X409709Y972161D1*
X410042Y973841D1*
X410507Y975490D1*
X411100Y977096D1*
X411816Y978651D1*
X412654Y980146D1*
X413605Y981570D1*
X414665Y982915D1*
X415828Y984172D1*
X417085Y985335D1*
X418430Y986395D1*
X419854Y987346D1*
X421349Y988184D1*
X422904Y988900D1*
X424510Y989493D1*
X426159Y989958D1*
X427839Y990291D1*
X429539Y990493D1*
X431251Y990560D1*
X432962Y990493D1*
X434663Y990291D1*
X436343Y989958D1*
X437991Y989493D1*
X439597Y988900D1*
X441152Y988184D1*
X442647Y987346D1*
X444071Y986395D1*
X445416Y985335D1*
X446673Y984172D1*
X447836Y982915D1*
X448896Y981570D1*
X449848Y980146D1*
X450685Y978651D1*
X451402Y977096D1*
X451995Y975490D1*
X452459Y973841D1*
X452793Y972161D1*
X452995Y970461D1*
X453062Y968749D1*
X452995Y967038D1*
X452793Y965337D1*
X452459Y963657D1*
X451995Y962009D1*
X451402Y960403D1*
X450685Y958848D1*
X449848Y957353D1*
X448896Y955929D1*
X447836Y954584D1*
X446673Y953327D1*
X445416Y952164D1*
X444071Y951104D1*
X442647Y950152D1*
X441152Y949315D1*
X439597Y948598D1*
X437991Y948005D1*
X436343Y947541D1*
X434663Y947207D1*
X432962Y947005D1*
X430669Y946961D1*
X404357Y920643D1*
X402567Y919114D1*
X400560Y917885D1*
X398386Y916983D1*
X396097Y916434D1*
X393745Y916249D1*
X343745D1*
X343751Y908249D1*
X243751D1*
Y910041D1*
X239996Y906283D1*
X240000Y884580D1*
X241585Y882915D1*
X242646Y881570D1*
X243751Y879903D1*
Y904249D1*
X343751D1*
Y858249D1*
X244114D1*
X242646Y855930D1*
X241585Y854585D1*
X240423Y853327D1*
X239165Y852165D1*
X237820Y851105D1*
X236396Y850154D1*
X234902Y849316D1*
X233346Y848600D1*
X231740Y848007D1*
X230092Y847542D1*
X228412Y847207D1*
X226711Y847007D1*
X225000Y846938D1*
X223289Y847007D1*
X221588Y847207D1*
X219908Y847542D1*
X218260Y848007D1*
X216654Y848600D1*
X215360Y849196D1*
X215365Y812097D1*
X155995D1*
Y875404D1*
X204228D1*
X204849Y877097D1*
X205566Y878652D1*
X206403Y880146D1*
X207354Y881570D1*
X208415Y882915D1*
X210005Y884568D1*
X210000Y912097D1*
X155995D1*
Y931341D1*
X154152Y930911D1*
X152114Y930751D1*
X148434D1*
X148436Y912097D1*
X89066D1*
Y918995D1*
X86614Y916127D1*
X85226Y914731D1*
X83770Y913407D1*
X82249Y912157D1*
X80667Y910987D1*
X79028Y909898D1*
X77335Y908892D1*
X75594Y907974D1*
X73810Y907144D1*
X71984Y906406D1*
X70126Y905760D1*
X68236Y905209D1*
X66320Y904753D1*
X64386Y904396D1*
X62434Y904136D1*
X60472Y903976D1*
X58505Y903915D1*
X56537Y903951D1*
X54573Y904089D1*
X52619Y904324D1*
X50680Y904659D1*
X48760Y905091D1*
X46864Y905618D1*
X44996Y906241D1*
X43163Y906957D1*
X41367Y907765D1*
X39615Y908663D1*
X37912Y909647D1*
X36260Y910717D1*
X34663Y911867D1*
X33127Y913098D1*
X31529Y914529D1*
X31524Y888045D1*
X41455Y878110D1*
X44108Y879252D1*
X45958Y879920D1*
X47841Y880493D1*
X49751Y880972D1*
X51681Y881353D1*
X53630Y881636D1*
X55589Y881822D1*
X57555Y881907D1*
X59524Y881894D1*
X61488Y881780D1*
X63446Y881568D1*
X65390Y881257D1*
X67315Y880849D1*
X69218Y880345D1*
X71092Y879744D1*
X72934Y879051D1*
X74739Y878265D1*
X76501Y877388D1*
X78217Y876425D1*
X79882Y875375D1*
X81492Y874244D1*
X83043Y873033D1*
X84531Y871744D1*
X85953Y870382D1*
X87303Y868950D1*
X89063Y866824D1*
X89066Y875404D1*
X148436D1*
Y812097D1*
X89066D1*
Y818995D1*
X86614Y816127D1*
X85226Y814731D1*
X83770Y813407D1*
X82249Y812157D1*
X80667Y810987D1*
X79028Y809898D1*
X77335Y808892D1*
X75594Y807974D1*
X73810Y807144D1*
X71984Y806406D1*
X70126Y805760D1*
X68236Y805209D1*
X66320Y804753D1*
X64386Y804396D1*
X62434Y804136D1*
X60472Y803976D1*
X58505Y803915D1*
X56537Y803951D1*
X54573Y804089D1*
X52619Y804324D1*
X50680Y804659D1*
X48760Y805091D1*
X46864Y805618D1*
X44996Y806241D1*
X43163Y806957D1*
X41367Y807765D1*
X39615Y808663D1*
X37912Y809647D1*
X36260Y810717D1*
X34663Y811867D1*
X33127Y813098D1*
X31655Y814406D1*
X30251Y815783D1*
X28917Y817232D1*
X27659Y818745D1*
X26478Y820320D1*
X25379Y821953D1*
X24364Y823639D1*
X23434Y825374D1*
X22593Y827155D1*
X21844Y828974D1*
X21186Y830829D1*
X20625Y832717D1*
X20157Y834629D1*
X19789Y836562D1*
X19517Y838510D1*
X19344Y840471D1*
X19270Y842438D1*
X19297Y844407D1*
X19421Y846371D1*
X19646Y848327D1*
X19967Y850268D1*
X20387Y852192D1*
X20904Y854091D1*
X21516Y855962D1*
X22220Y857799D1*
X23076Y859715D1*
X11020Y871777D1*
X11024Y16786D1*
X11441Y13617D1*
X12415Y11264D1*
X13966Y9243D1*
X15987Y7692D1*
X18339Y6717D1*
X21513Y6299D1*
X44841D1*
X41367Y7765D1*
X39615Y8663D1*
X37912Y9647D1*
X36260Y10717D1*
X34663Y11867D1*
X33127Y13098D1*
X31655Y14406D1*
X30251Y15783D1*
X28917Y17232D1*
X27659Y18745D1*
X26478Y20320D1*
X25379Y21953D1*
X24364Y23639D1*
X23434Y25374D1*
X22593Y27155D1*
X21844Y28974D1*
X21186Y30829D1*
X20625Y32717D1*
X20157Y34629D1*
X19789Y36562D1*
X19517Y38510D1*
X19344Y40471D1*
X19270Y42438D1*
X19297Y44407D1*
X19421Y46371D1*
X19646Y48327D1*
X19967Y50268D1*
X20387Y52192D1*
X20904Y54091D1*
X21516Y55962D1*
X22220Y57799D1*
X23017Y59598D1*
X23904Y61356D1*
X24878Y63067D1*
X25937Y64726D1*
X27079Y66328D1*
X28301Y67873D1*
X29597Y69353D1*
X30969Y70765D1*
X32408Y72108D1*
X33913Y73375D1*
X35482Y74564D1*
X37108Y75675D1*
X38787Y76699D1*
X40517Y77639D1*
X42291Y78491D1*
X44108Y79252D1*
X45958Y79920D1*
X47841Y80493D1*
X49751Y80972D1*
X51681Y81353D1*
X53630Y81636D1*
X55589Y81822D1*
X57555Y81907D1*
X59524Y81894D1*
X61488Y81780D1*
X63446Y81568D1*
X65390Y81257D1*
X67315Y80849D1*
X69218Y80345D1*
X71092Y79744D1*
X74167Y78513D1*
X101955Y106312D1*
X103619Y107732D1*
X105484Y108875D1*
X107504Y109711D1*
X109631Y110222D1*
X111811Y110394D1*
X290783D1*
X345113Y164724D1*
X345118Y177711D1*
X343907Y176323D1*
X313176Y145652D1*
X311407Y144367D1*
X309458Y143374D1*
X307378Y142698D1*
X305218Y142357D1*
X300188Y142314D1*
X248030D1*
X246673Y140828D1*
X245416Y139665D1*
X244071Y138605D1*
X242647Y137654D1*
X241152Y136816D1*
X239597Y136100D1*
X237991Y135507D1*
X236343Y135042D1*
X234663Y134709D1*
X232962Y134507D1*
X231251Y134440D1*
X229539Y134507D1*
X227839Y134709D1*
X226159Y135042D1*
X224510Y135507D1*
X222904Y136100D1*
X221349Y136816D1*
X219854Y137654D1*
X218430Y138605D1*
X217085Y139665D1*
X215828Y140828D1*
X214665Y142085D1*
X213605Y143430D1*
X212654Y144854D1*
X211816Y146349D1*
X211100Y147904D1*
X210507Y149510D1*
X210042Y151159D1*
X209709Y152839D1*
X209507Y154539D1*
X209440Y156251D1*
X209507Y157962D1*
X209709Y159663D1*
X210042Y161343D1*
X210507Y162991D1*
X211100Y164597D1*
X211816Y166152D1*
X212654Y167647D1*
X213605Y169071D1*
X214665Y170416D1*
X215828Y171673D1*
X217085Y172836D1*
X218430Y173896D1*
X219854Y174848D1*
X221349Y175685D1*
X222904Y176402D1*
X224510Y176995D1*
X226159Y177459D1*
X227839Y177793D1*
X229539Y177995D1*
X231251Y178062D1*
X232962Y177995D1*
X234663Y177793D1*
X236343Y177459D1*
X237991Y176995D1*
X239597Y176402D1*
X241152Y175685D1*
X242647Y174848D1*
X244071Y173896D1*
X245416Y172836D1*
X246673Y171673D1*
X248014Y170190D1*
X298357Y170188D1*
X320113Y191949D1*
X320118Y370551D1*
X298357Y392315D1*
X281256Y392312D1*
X281251Y358249D1*
X181251D1*
Y367315D1*
X143367Y367312D1*
X138492Y362440D1*
X138488Y209197D1*
X138316Y207017D1*
X137806Y204890D1*
X136970Y202870D1*
X135827Y201005D1*
X134403Y199339D1*
X93882Y158818D1*
X95198Y155448D1*
X95783Y153568D1*
X96274Y151661D1*
X96667Y149734D1*
X96962Y147787D1*
X97159Y145829D1*
X97268Y142913D1*
X97218Y140946D1*
X97070Y138983D1*
X96822Y137030D1*
X96475Y135093D1*
X96033Y133175D1*
X95493Y131282D1*
X94858Y129419D1*
X94131Y127589D1*
X93312Y125801D1*
X92404Y124054D1*
X91409Y122356D1*
X90329Y120710D1*
X89169Y119119D1*
X87929Y117592D1*
X86614Y116127D1*
X85226Y114731D1*
X83770Y113407D1*
X82249Y112157D1*
X80667Y110987D1*
X79028Y109898D1*
X77335Y108892D1*
X75594Y107974D1*
X73810Y107144D1*
X71984Y106406D1*
X70126Y105760D1*
X68236Y105209D1*
X66320Y104753D1*
X64386Y104396D1*
X62434Y104136D1*
X60472Y103976D1*
X58505Y103915D1*
X56537Y103951D1*
X54573Y104089D1*
X52619Y104324D1*
X50680Y104659D1*
X48760Y105091D1*
X46864Y105618D1*
X44996Y106241D1*
X43163Y106957D1*
X41367Y107765D1*
X39615Y108663D1*
X37912Y109647D1*
X36260Y110717D1*
X34663Y111867D1*
X33127Y113098D1*
X31655Y114406D1*
X30251Y115783D1*
X28917Y117232D1*
X27659Y118745D1*
X26478Y120320D1*
X25379Y121953D1*
X24364Y123639D1*
X23434Y125374D1*
X22593Y127155D1*
X21844Y128974D1*
X21186Y130829D1*
X20625Y132717D1*
X20157Y134629D1*
X19789Y136562D1*
X19517Y138510D1*
X19344Y140471D1*
X19270Y142438D1*
X19297Y144407D1*
X19421Y146371D1*
X19646Y148327D1*
X19967Y150268D1*
X20387Y152192D1*
X20904Y154091D1*
X21516Y155962D1*
X22220Y157799D1*
X23017Y159598D1*
X23904Y161356D1*
X24878Y163067D1*
X25937Y164726D1*
X27079Y166328D1*
X28301Y167873D1*
X29597Y169353D1*
X30969Y170765D1*
X32408Y172108D1*
X33913Y173375D1*
X35482Y174564D1*
X37108Y175675D1*
X38787Y176699D1*
X40517Y177639D1*
X42291Y178491D1*
X44108Y179252D1*
X45958Y179920D1*
X47841Y180493D1*
X49751Y180972D1*
X51681Y181353D1*
X53630Y181636D1*
X55589Y181822D1*
X57555Y181907D1*
X59524Y181894D1*
X61488Y181780D1*
X63446Y181568D1*
X65390Y181257D1*
X67315Y180849D1*
X69218Y180345D1*
X71092Y179744D1*
X74167Y178513D1*
X110610Y214966D1*
X110614Y368213D1*
X109902Y368066D1*
X108346Y367349D1*
X106740Y366756D1*
X105092Y366291D1*
X103412Y365958D1*
X101711Y365756D1*
X100000Y365689D1*
X98289Y365756D1*
X96588Y365958D1*
X94908Y366291D1*
X93260Y366756D1*
X91654Y367349D1*
X90098Y368066D1*
X88604Y368903D1*
X87180Y369854D1*
X85835Y370915D1*
X84577Y372077D1*
X83415Y373335D1*
X82354Y374680D1*
X81403Y376104D1*
X80566Y377598D1*
X79849Y379154D1*
X79256Y380760D1*
X78791Y382408D1*
X78458Y384088D1*
X78256Y385789D1*
X78189Y387500D1*
X78256Y389211D1*
X78458Y390912D1*
X78791Y392592D1*
X79256Y394240D1*
X79849Y395846D1*
X80566Y397402D1*
X81403Y398896D1*
X82354Y400320D1*
X83415Y401665D1*
X85005Y403318D1*
X85000Y414513D1*
X82249Y412157D1*
X80667Y410987D1*
X79028Y409898D1*
X77335Y408892D1*
X75594Y407974D1*
X73810Y407144D1*
X71984Y406406D1*
X70126Y405760D1*
X68236Y405209D1*
X66320Y404753D1*
X64386Y404396D1*
X62434Y404136D1*
X60472Y403976D1*
X58505Y403915D1*
X56537Y403951D1*
X54573Y404089D1*
X52619Y404324D1*
X50680Y404659D1*
X48760Y405091D1*
X46864Y405618D1*
X44996Y406241D1*
X43163Y406957D1*
X41367Y407765D1*
X39615Y408663D1*
X37912Y409647D1*
X36260Y410717D1*
X34663Y411867D1*
X33127Y413098D1*
X31655Y414406D1*
X30251Y415783D1*
X28917Y417232D1*
X27659Y418745D1*
X26478Y420320D1*
X25379Y421953D1*
X24364Y423639D1*
X23434Y425374D1*
X22593Y427155D1*
X21844Y428974D1*
X21186Y430829D1*
X20625Y432717D1*
X20157Y434629D1*
X19789Y436562D1*
X19517Y438510D1*
X19344Y440471D1*
X19270Y442438D1*
X19297Y444407D1*
X19421Y446371D1*
X19646Y448327D1*
X19967Y450268D1*
X20387Y452192D1*
X20904Y454091D1*
X21516Y455962D1*
X22220Y457799D1*
X23017Y459598D1*
X23904Y461356D1*
X24878Y463067D1*
X25937Y464726D1*
X27079Y466328D1*
X28301Y467873D1*
X29597Y469353D1*
X30969Y470765D1*
X32408Y472108D1*
X33913Y473375D1*
X35482Y474564D1*
X37108Y475675D1*
X38787Y476699D1*
X40517Y477639D1*
X42291Y478491D1*
X44108Y479252D1*
X45958Y479920D1*
X47841Y480493D1*
X49751Y480972D1*
X51681Y481353D1*
X53630Y481636D1*
X55589Y481822D1*
X57555Y481907D1*
X59524Y481894D1*
X61488Y481780D1*
X63446Y481568D1*
X65390Y481257D1*
X67315Y480849D1*
X69218Y480345D1*
X71092Y479744D1*
X72934Y479051D1*
X74739Y478265D1*
X76501Y477388D1*
X78217Y476425D1*
X79882Y475375D1*
X81492Y474244D1*
X83043Y473033D1*
X85004Y471291D1*
X85000Y514522D1*
X82249Y512157D1*
X80667Y510987D1*
X79028Y509898D1*
X77335Y508892D1*
X75594Y507974D1*
X73810Y507144D1*
X71984Y506406D1*
X70126Y505760D1*
X68236Y505209D1*
X66320Y504753D1*
X64386Y504396D1*
X62434Y504136D1*
X60472Y503976D1*
X58505Y503915D1*
X56537Y503951D1*
X54573Y504089D1*
X52619Y504324D1*
X50680Y504659D1*
X48760Y505091D1*
X46864Y505618D1*
X44996Y506241D1*
X43163Y506957D1*
X41367Y507765D1*
X39615Y508663D1*
X37912Y509647D1*
X36260Y510717D1*
X34663Y511867D1*
X33127Y513098D1*
X31655Y514406D1*
X30251Y515783D1*
X28917Y517232D1*
X27659Y518745D1*
X26478Y520320D1*
X25379Y521953D1*
X24364Y523639D1*
X23434Y525374D1*
X22593Y527155D1*
X21844Y528974D1*
X21186Y530829D1*
X20625Y532717D1*
X20157Y534629D1*
X19789Y536562D1*
X19517Y538510D1*
X19344Y540471D1*
X19270Y542438D1*
X19297Y544407D1*
X19421Y546371D1*
X19646Y548327D1*
X19967Y550268D1*
X20387Y552192D1*
X20904Y554091D1*
X21516Y555962D1*
X22220Y557799D1*
X23017Y559598D1*
X23904Y561356D1*
X24878Y563067D1*
X25937Y564726D1*
X27079Y566328D1*
X28301Y567873D1*
X29597Y569353D1*
X30969Y570765D1*
X32408Y572108D1*
X33913Y573375D1*
X35482Y574564D1*
X37108Y575675D1*
X38787Y576699D1*
X40517Y577639D1*
X42291Y578491D1*
X44108Y579252D1*
X45958Y579920D1*
X47841Y580493D1*
X49751Y580972D1*
X51681Y581353D1*
X53630Y581636D1*
X55589Y581822D1*
X57555Y581907D1*
X59524Y581894D1*
X61488Y581780D1*
X63446Y581568D1*
X65390Y581257D1*
X67315Y580849D1*
X69218Y580345D1*
X71092Y579744D1*
X72934Y579051D1*
X74739Y578265D1*
X76501Y577388D1*
X78217Y576425D1*
X79882Y575375D1*
X81492Y574244D1*
X83043Y573033D1*
X85004Y571291D1*
X85000Y614516D1*
X82249Y612157D1*
X80667Y610987D1*
X79028Y609898D1*
X77335Y608892D1*
X75594Y607974D1*
X73810Y607144D1*
X71984Y606406D1*
X70126Y605760D1*
X68236Y605209D1*
X66320Y604753D1*
X64386Y604396D1*
X62434Y604136D1*
X60472Y603976D1*
X58505Y603915D1*
X56537Y603951D1*
X54573Y604089D1*
X52619Y604324D1*
X50680Y604659D1*
X48760Y605091D1*
X46864Y605618D1*
X44996Y606241D1*
X43163Y606957D1*
X41367Y607765D1*
X39615Y608663D1*
X37912Y609647D1*
X36260Y610717D1*
X34663Y611867D1*
X33127Y613098D1*
X31655Y614406D1*
X30251Y615783D1*
X28917Y617232D1*
X27659Y618745D1*
X26478Y620320D1*
X25379Y621953D1*
X24364Y623639D1*
X23434Y625374D1*
X22593Y627155D1*
X21844Y628974D1*
X21186Y630829D1*
X20625Y632717D1*
X20157Y634629D1*
X19789Y636562D1*
X19517Y638510D1*
X19344Y640471D1*
X19270Y642438D1*
X19297Y644407D1*
X19421Y646371D1*
X19646Y648327D1*
X19967Y650268D1*
X20387Y652192D1*
X20904Y654091D1*
X21516Y655962D1*
X22220Y657799D1*
X23017Y659598D1*
X23904Y661356D1*
X24878Y663067D1*
X25937Y664726D1*
X27079Y666328D1*
X28301Y667873D1*
X29597Y669353D1*
X30969Y670765D1*
X32408Y672108D1*
X33913Y673375D1*
X35482Y674564D1*
X37108Y675675D1*
X38787Y676699D1*
X40517Y677639D1*
X42291Y678491D1*
X44108Y679252D1*
X45958Y679920D1*
X47841Y680493D1*
X49751Y680972D1*
X51681Y681353D1*
X53630Y681636D1*
X55589Y681822D1*
X57555Y681907D1*
X59524Y681894D1*
X61488Y681780D1*
X63446Y681568D1*
X65390Y681257D1*
X67315Y680849D1*
X69218Y680345D1*
X71092Y679744D1*
X72934Y679051D1*
X74739Y678265D1*
X76501Y677388D1*
X78217Y676425D1*
X79882Y675375D1*
X81492Y674244D1*
X83043Y673033D1*
X85004Y671291D1*
X85000Y693749D1*
X85185Y696096D1*
X85734Y698385D1*
X86635Y700559D1*
X87865Y702566D1*
X89396Y704360D1*
X127759Y742655D1*
X129663Y744039D1*
X131760Y745108D1*
X133999Y745835D1*
X136323Y746203D1*
X141437Y746249D1*
X184168D1*
X185835Y747835D1*
X187180Y748895D1*
X188604Y749846D1*
X190098Y750684D1*
X191654Y751400D1*
X193260Y751993D1*
X194908Y752458D1*
X196588Y752791D1*
X198289Y752993D1*
X200000Y753060D1*
X201711Y752993D1*
X203412Y752791D1*
X205092Y752458D1*
X206740Y751993D1*
X208346Y751400D1*
X209902Y750684D1*
X211396Y749846D1*
X212820Y748895D1*
X214165Y747835D1*
X215423Y746672D1*
X216585Y745415D1*
X217646Y744070D1*
X218597Y742646D1*
X219434Y741151D1*
X220151Y739596D1*
X220744Y737990D1*
X221209Y736341D1*
X221542Y734661D1*
X221744Y732961D1*
X221811Y731249D1*
X221744Y729538D1*
X221542Y727837D1*
X221209Y726157D1*
X220744Y724509D1*
X220151Y722903D1*
X219434Y721348D1*
X218783Y720186D1*
X220730D1*
X222077Y721672D1*
X223335Y722835D1*
X224680Y723895D1*
X226104Y724846D1*
X227598Y725684D1*
X229154Y726400D1*
X230760Y726993D1*
X232408Y727458D1*
X234088Y727791D1*
X235789Y727993D1*
X237500Y728060D1*
X239211Y727993D1*
X240912Y727791D1*
X242592Y727458D1*
X244240Y726993D1*
X245846Y726400D1*
X247402Y725684D1*
X248896Y724846D1*
X250320Y723895D1*
X251665Y722835D1*
X252923Y721672D1*
X254264Y720189D1*
X365875Y720186D1*
X379816Y734129D1*
X379814Y783218D1*
X378328Y784577D1*
X377165Y785835D1*
X376105Y787180D1*
X375154Y788604D1*
X374316Y790098D1*
X373686Y791465D1*
X341028Y758865D1*
X339378Y757667D1*
X337560Y756740D1*
X335621Y756110D1*
X333605Y755791D1*
X328648Y755751D1*
X148769D1*
X147836Y754585D1*
X146673Y753328D1*
X145416Y752165D1*
X144071Y751105D1*
X142647Y750154D1*
X141152Y749316D1*
X139597Y748600D1*
X137991Y748007D1*
X136343Y747542D1*
X134663Y747209D1*
X132962Y747007D1*
X131251Y746940D1*
X129539Y747007D1*
X127839Y747209D1*
X126159Y747542D1*
X124510Y748007D1*
X122904Y748600D1*
X121349Y749316D1*
X119854Y750154D1*
X118430Y751105D1*
X117085Y752165D1*
X115828Y753328D1*
X114665Y754585D1*
X113605Y755930D1*
X112654Y757354D1*
X111816Y758849D1*
X111100Y760404D1*
X110507Y762010D1*
X110042Y763659D1*
X109709Y765339D1*
X109507Y767039D1*
X109440Y768751D1*
X109507Y770462D1*
X109709Y772163D1*
X110042Y773843D1*
X110507Y775491D1*
X111100Y777097D1*
X111816Y778652D1*
X112654Y780147D1*
X113605Y781571D1*
X114665Y782916D1*
X115828Y784173D1*
X117085Y785336D1*
X118430Y786396D1*
X119854Y787348D1*
X121349Y788185D1*
X122904Y788902D1*
X124510Y789495D1*
X126159Y789959D1*
X127839Y790293D1*
X129539Y790495D1*
X131251Y790562D1*
X132962Y790495D1*
X134663Y790293D1*
X136343Y789959D1*
X137991Y789495D1*
X139597Y788902D1*
X141152Y788185D1*
X142647Y787348D1*
X144071Y786396D1*
X145416Y785336D1*
X146673Y784173D1*
X147836Y782916D1*
X148751Y781755D1*
X327201Y781751D1*
X358555Y813106D1*
X358594Y859976D1*
X358915Y861992D1*
X359545Y863932D1*
X360471Y865749D1*
X361669Y867400D1*
X365147Y870933D1*
X485409Y991136D1*
X485751Y991714D1*
Y1004249D1*
X585671D1*
X585673Y1008244D1*
X485751Y1008249D1*
Y1018253D1*
X450636Y1018249D1*
X448602Y1018409D1*
X446619Y1018886D1*
X444735Y1019667D1*
X442995Y1020732D1*
X441441Y1022060D1*
X427614Y1035944D1*
X426416Y1037593D1*
X425490Y1039411D1*
X424860Y1041350D1*
X424541Y1043366D1*
X424500Y1048323D1*
Y1251240D1*
X423335Y1252165D1*
X422077Y1253328D1*
X420915Y1254585D1*
X419854Y1255930D1*
X418903Y1257354D1*
X418066Y1258849D1*
X417349Y1260404D1*
X416756Y1262010D1*
X416291Y1263659D1*
X415958Y1265339D1*
X415756Y1267039D1*
X415689Y1268751D1*
X415756Y1270462D1*
X415958Y1272163D1*
X416291Y1273843D1*
X416756Y1275491D1*
X417349Y1277097D1*
X418066Y1278652D1*
X418903Y1280147D1*
X419854Y1281571D1*
X420915Y1282916D1*
X422077Y1284173D1*
X423335Y1285336D1*
X424680Y1286396D1*
X425587Y1287001D1*
X167881Y1287000D1*
X159072Y1278188D1*
X159244Y1276711D1*
X159311Y1275000D1*
X159244Y1273289D1*
X159042Y1271588D1*
X158709Y1269908D1*
X158244Y1268260D1*
X157651Y1266654D1*
X156934Y1265098D1*
X156097Y1263604D1*
X155146Y1262180D1*
X154085Y1260835D1*
X152923Y1259577D1*
X151665Y1258415D1*
X150320Y1257354D1*
X148896Y1256403D1*
X147402Y1255566D1*
X145846Y1254849D1*
X144240Y1254256D1*
X142592Y1253791D1*
X140912Y1253458D1*
X139211Y1253256D1*
X137500Y1253189D1*
X135789Y1253256D1*
X134088Y1253458D1*
X132408Y1253791D1*
X130760Y1254256D1*
X129154Y1254849D1*
X127598Y1255566D1*
X126104Y1256403D1*
X124680Y1257354D1*
X123335Y1258415D1*
X122077Y1259577D1*
X120915Y1260835D1*
X119854Y1262180D1*
X118903Y1263604D1*
X118066Y1265098D1*
X117349Y1266654D1*
X116756Y1268260D1*
X116291Y1269908D1*
X115958Y1271588D1*
X115756Y1273289D1*
X115689Y1275000D1*
X115756Y1276711D1*
X115958Y1278412D1*
X116291Y1280092D1*
X116756Y1281740D1*
X117349Y1283346D1*
X118066Y1284902D1*
X118903Y1286396D1*
X119854Y1287820D1*
X120915Y1289165D1*
X122077Y1290423D1*
X123335Y1291585D1*
X124680Y1292646D1*
X126104Y1293597D1*
X127598Y1294434D1*
X129154Y1295151D1*
X130760Y1295744D1*
X132408Y1296209D1*
X134088Y1296542D1*
X135789Y1296744D1*
X137500Y1296811D1*
X139211Y1296744D1*
X140680Y1296570D1*
X154058Y1309886D1*
X155707Y1311084D1*
X157525Y1312010D1*
X159465Y1312640D1*
X161480Y1312961D1*
X166437Y1313000D1*
X451020Y1312961D1*
X453035Y1312640D1*
X454975Y1312010D1*
X456793Y1311084D1*
X458444Y1309886D1*
X461976Y1306408D1*
X478635Y1289693D1*
X479835Y1288042D1*
X480761Y1286224D1*
X481391Y1284285D1*
X481710Y1282270D1*
X481751Y1277314D1*
Y1111629D1*
X489138Y1104247D1*
X585671Y1104249D1*
X585673Y1108253D1*
X485751Y1108249D1*
Y1154249D1*
X585751D1*
Y1144245D1*
X599693Y1144210D1*
X601709Y1143890D1*
X603648Y1143260D1*
X605466Y1142333D1*
X607115Y1141135D1*
X608559Y1139692D1*
X609757Y1138042D1*
X610684Y1136224D1*
X611314Y1134285D1*
X611634Y1132269D1*
X611673Y1127312D1*
X611634Y757894D1*
X611314Y755878D1*
X610684Y753938D1*
X609757Y752121D1*
X608559Y750471D1*
X605081Y746937D1*
X601314Y743169D1*
X608559Y735861D1*
X609757Y734210D1*
X610684Y732392D1*
X611314Y730453D1*
X611634Y728437D1*
X611673Y723480D1*
X611634Y396811D1*
X611314Y394795D1*
X610684Y392856D1*
X609757Y391038D1*
X608559Y389387D1*
X605081Y385854D1*
X590535Y371364D1*
X588885Y370165D1*
X587067Y369239D1*
X585127Y368609D1*
X583112Y368289D1*
X578155Y368249D1*
X523244D1*
X523251Y358249D1*
X423251D1*
Y404249D1*
X523251D1*
Y394245D1*
X576713Y394249D1*
X585672Y403214D1*
X585673Y722026D1*
X577535Y730171D1*
X536150Y730165D1*
X509556Y703573D1*
X509516Y669248D1*
X509196Y667232D1*
X508566Y665293D1*
X507639Y663475D1*
X506441Y661825D1*
X502963Y658291D1*
X491171Y646497D1*
X492592Y646209D1*
X494240Y645744D1*
X495846Y645151D1*
X497402Y644434D1*
X498896Y643597D1*
X500320Y642646D1*
X501665Y641585D1*
X502923Y640423D1*
X504085Y639165D1*
X505146Y637820D1*
X506097Y636396D1*
X506934Y634902D1*
X507651Y633346D1*
X508244Y631740D1*
X508709Y630092D1*
X509042Y628412D1*
X509244Y626711D1*
X509311Y625000D1*
X509244Y623289D1*
X509042Y621588D1*
X508709Y619908D1*
X508244Y618260D1*
X507651Y616654D1*
X506934Y615098D1*
X506097Y613604D1*
X505146Y612180D1*
X504085Y610835D1*
X502495Y609182D1*
X502500Y604247D1*
X523251Y604249D1*
Y558249D1*
X423251D1*
Y604249D1*
X472501D1*
X472500Y609169D1*
X470915Y610835D1*
X469854Y612180D1*
X468903Y613604D1*
X468066Y615098D1*
X467349Y616654D1*
X466756Y618260D1*
X466291Y619908D1*
X465879Y622245D1*
X464261Y621593D1*
X462278Y621117D1*
X460240Y620957D1*
X356059D1*
X306412Y571364D1*
X304762Y570165D1*
X302945Y569239D1*
X301005Y568609D1*
X298990Y568289D1*
X294033Y568249D1*
X281245D1*
X423644Y554249D2*
X523251D1*
Y508249D1*
X423251D1*
Y554249D1*
X423644D1*
Y504249D2*
X523251D1*
Y458249D1*
X423251D1*
Y504249D1*
X423644D1*
X425219Y454249D2*
X523251D1*
Y408249D1*
X423251D1*
Y454249D1*
X425219D1*
X183219Y354249D2*
X281251D1*
Y308249D1*
X188938D1*
X188937Y304256D1*
X281251Y304249D1*
Y258249D1*
X188936D1*
X188937Y245492D1*
X208001Y226433D1*
X270730Y226437D1*
X272077Y227923D1*
X273335Y229085D1*
X274680Y230146D1*
X276104Y231097D1*
X277598Y231934D1*
X279154Y232651D1*
X280760Y233244D1*
X282408Y233709D1*
X284088Y234042D1*
X285789Y234244D1*
X287500Y234311D1*
X289211Y234244D1*
X290912Y234042D1*
X292592Y233709D1*
X294240Y233244D1*
X295846Y232651D1*
X297402Y231934D1*
X298896Y231097D1*
X300320Y230146D1*
X301665Y229085D1*
X302923Y227923D1*
X304085Y226665D1*
X305146Y225320D1*
X306097Y223896D1*
X306934Y222402D1*
X307651Y220846D1*
X308244Y219240D1*
X308709Y217592D1*
X309042Y215912D1*
X309244Y214211D1*
X309311Y212500D1*
X309244Y210789D1*
X309042Y209088D1*
X308709Y207408D1*
X308244Y205760D1*
X307651Y204154D1*
X306934Y202598D1*
X306097Y201104D1*
X305146Y199680D1*
X304085Y198335D1*
X302923Y197077D1*
X301665Y195915D1*
X300320Y194854D1*
X298896Y193903D1*
X297402Y193066D1*
X295846Y192349D1*
X294240Y191756D1*
X292592Y191291D1*
X290912Y190958D1*
X289211Y190756D1*
X287500Y190689D1*
X285789Y190756D1*
X284088Y190958D1*
X282408Y191291D1*
X280760Y191756D1*
X279154Y192349D1*
X277598Y193066D1*
X276104Y193903D1*
X274680Y194854D1*
X273335Y195915D1*
X272077Y197077D1*
X270736Y198560D1*
X202224Y198563D1*
X200045Y198735D1*
X197917Y199245D1*
X195898Y200081D1*
X194033Y201224D1*
X192369Y202644D1*
X164402Y230673D1*
X163117Y232442D1*
X162123Y234391D1*
X161448Y236471D1*
X161106Y238631D1*
X161063Y243661D1*
X161106Y319844D1*
X161448Y322004D1*
X162123Y324084D1*
X163117Y326031D1*
X164402Y327802D1*
X167929Y331388D1*
X178448Y341848D1*
X180218Y343133D1*
X181176Y343669D1*
X181251Y347619D1*
Y354249D1*
X183219D1*
X487719Y1204249D2*
X585751D1*
Y1158249D1*
X485751D1*
Y1204249D1*
X487719D1*
X244144Y1054249D2*
X343751D1*
Y1008249D1*
X243751D1*
Y1054249D1*
X244144D1*
Y1004249D2*
X343751D1*
Y958249D1*
X243751D1*
Y1004249D1*
X244144D1*
X585667Y958249D2*
X489240D1*
X384558Y853573D1*
X384555Y819778D1*
X387010Y820744D1*
X388659Y821209D1*
X390339Y821542D1*
X392039Y821744D1*
X393751Y821811D1*
X395462Y821744D1*
X397163Y821542D1*
X398843Y821209D1*
X400491Y820744D1*
X402097Y820151D1*
X403652Y819434D1*
X405147Y818597D1*
X406571Y817646D1*
X407916Y816585D1*
X409173Y815423D1*
X410336Y814165D1*
X411396Y812820D1*
X412348Y811396D1*
X413185Y809902D1*
X413902Y808346D1*
X414495Y806740D1*
X414959Y805092D1*
X415293Y803412D1*
X415495Y801711D1*
X415562Y800000D1*
X415495Y798289D1*
X415293Y796588D1*
X414959Y794908D1*
X414495Y793260D1*
X413902Y791654D1*
X413185Y790098D1*
X412348Y788604D1*
X411396Y787180D1*
X410336Y785835D1*
X409173Y784577D1*
X407690Y783236D1*
X407688Y728353D1*
X407516Y726173D1*
X407005Y724046D1*
X406168Y722026D1*
X405026Y720161D1*
X403602Y718495D1*
X385211Y700104D1*
X437480Y700106D1*
X443738Y706364D1*
X443740Y829097D1*
X440912Y828458D1*
X439211Y828256D1*
X437500Y828189D1*
X435789Y828256D1*
X434088Y828458D1*
X432408Y828791D1*
X430760Y829256D1*
X429154Y829849D1*
X427598Y830566D1*
X426104Y831403D1*
X424680Y832354D1*
X423335Y833415D1*
X422077Y834577D1*
X420915Y835835D1*
X419854Y837180D1*
X418903Y838604D1*
X418066Y840098D1*
X417349Y841654D1*
X416756Y843260D1*
X416291Y844908D1*
X415958Y846588D1*
X415756Y848289D1*
X415689Y850000D1*
X415756Y851711D1*
X415958Y853412D1*
X416291Y855092D1*
X416756Y856740D1*
X417349Y858346D1*
X418066Y859902D1*
X418903Y861396D1*
X419854Y862820D1*
X420915Y864165D1*
X422077Y865423D1*
X423335Y866585D1*
X424496Y867500D1*
X424539Y887988D1*
X424860Y890004D1*
X425490Y891944D1*
X426416Y893761D1*
X427614Y895411D1*
X431092Y898945D1*
X473339Y941135D1*
X474988Y942333D1*
X476806Y943260D1*
X478745Y943890D1*
X480761Y944210D1*
X485756Y944249D1*
X485751Y954249D1*
X585671D1*
X585673Y958248D1*
X244144Y854249D2*
X343751D1*
Y808249D1*
X243751D1*
Y854249D1*
X244144D1*
X585667Y808249D2*
X485751D1*
Y816839D1*
X483618Y814702D1*
X483614Y710193D1*
X483915Y711992D1*
X484545Y713932D1*
X485471Y715749D1*
X486669Y717399D1*
X490147Y720933D1*
X522322Y753051D1*
X523971Y754249D1*
X525789Y755176D1*
X527728Y755806D1*
X529744Y756126D1*
X534701Y756165D1*
X577539D1*
X585678Y764303D1*
X585673Y808257D1*
X97265Y1342520D2*
X97140Y1339768D1*
X96822Y1337030D1*
X96310Y1334323D1*
X95609Y1331659D1*
X94720Y1329050D1*
X93651Y1326510D1*
X92404Y1324054D1*
X90988Y1321690D1*
X89407Y1319433D1*
X87672Y1317293D1*
X85790Y1315281D1*
X83770Y1313407D1*
X81623Y1311680D1*
X79360Y1310109D1*
X76991Y1308702D1*
X74529Y1307465D1*
X71984Y1306406D1*
X69373Y1305528D1*
X66706Y1304837D1*
X63996Y1304336D1*
X61259Y1304028D1*
X58505Y1303915D1*
X55751Y1303995D1*
X53009Y1304269D1*
X50294Y1304738D1*
X47618Y1305395D1*
X44996Y1306241D1*
X42440Y1307269D1*
X39963Y1308476D1*
X37577Y1309854D1*
X35294Y1311398D1*
X33127Y1313098D1*
X31084Y1314948D1*
X29177Y1316937D1*
X27416Y1319056D1*
X25808Y1321294D1*
X24364Y1323639D1*
X23087Y1326081D1*
X21987Y1328608D1*
X21067Y1331205D1*
X20333Y1333861D1*
X19789Y1336562D1*
X19436Y1339294D1*
X19277Y1342045D1*
X19314Y1344801D1*
X19543Y1347546D1*
X19967Y1350268D1*
X20583Y1352954D1*
X21386Y1355589D1*
X22373Y1358163D1*
X23538Y1360659D1*
X24878Y1363067D1*
X26385Y1365374D1*
X28050Y1367568D1*
X29866Y1369640D1*
X31824Y1371579D1*
X33913Y1373375D1*
X36126Y1375018D1*
X38448Y1376501D1*
X40869Y1377818D1*
X43377Y1378958D1*
X45958Y1379920D1*
X48602Y1380697D1*
X51294Y1381285D1*
X54021Y1381681D1*
X56769Y1381885D1*
X59524Y1381894D1*
X62273Y1381707D1*
X65001Y1381328D1*
X67697Y1380756D1*
X70345Y1379996D1*
X72934Y1379051D1*
X75449Y1377925D1*
X77878Y1376625D1*
X80209Y1375156D1*
X82430Y1373526D1*
X84531Y1371744D1*
X86501Y1369818D1*
X88331Y1367757D1*
X90010Y1365572D1*
X91530Y1363274D1*
X92886Y1360875D1*
X94067Y1358386D1*
X95070Y1355820D1*
X95890Y1353189D1*
X96521Y1350507D1*
X96962Y1347787D1*
X97210Y1345043D1*
X97265Y1342520D1*
X97218Y1240946D2*
X97070Y1238983D1*
X96822Y1237030D1*
X96475Y1235093D1*
X96033Y1233175D1*
X95493Y1231282D1*
X94858Y1229419D1*
X94131Y1227589D1*
X93312Y1225801D1*
X92404Y1224054D1*
X91409Y1222356D1*
X90329Y1220710D1*
X89169Y1219119D1*
X87929Y1217592D1*
X86614Y1216127D1*
X85226Y1214731D1*
X83770Y1213407D1*
X82249Y1212157D1*
X80667Y1210987D1*
X79028Y1209898D1*
X77335Y1208892D1*
X75594Y1207974D1*
X73810Y1207144D1*
X71984Y1206406D1*
X70126Y1205760D1*
X68236Y1205209D1*
X66320Y1204753D1*
X64386Y1204396D1*
X62434Y1204136D1*
X60472Y1203976D1*
X58505Y1203915D1*
X56537Y1203951D1*
X54573Y1204089D1*
X52619Y1204324D1*
X50680Y1204659D1*
X48760Y1205091D1*
X46864Y1205618D1*
X44996Y1206241D1*
X43163Y1206957D1*
X41367Y1207765D1*
X39615Y1208663D1*
X37912Y1209647D1*
X36260Y1210717D1*
X34663Y1211867D1*
X33127Y1213098D1*
X31655Y1214406D1*
X30251Y1215783D1*
X28917Y1217232D1*
X27659Y1218745D1*
X26478Y1220320D1*
X25379Y1221953D1*
X24364Y1223639D1*
X23434Y1225374D1*
X22593Y1227155D1*
X21844Y1228974D1*
X21186Y1230829D1*
X20625Y1232717D1*
X20157Y1234629D1*
X19789Y1236562D1*
X19517Y1238510D1*
X19344Y1240471D1*
X19270Y1242438D1*
X19297Y1244407D1*
X19421Y1246371D1*
X19646Y1248327D1*
X19967Y1250268D1*
X20387Y1252192D1*
X20904Y1254091D1*
X21516Y1255962D1*
X22220Y1257799D1*
X23017Y1259598D1*
X23904Y1261356D1*
X24878Y1263067D1*
X25937Y1264726D1*
X27079Y1266328D1*
X28301Y1267873D1*
X29597Y1269353D1*
X30969Y1270765D1*
X32408Y1272108D1*
X33913Y1273375D1*
X35482Y1274564D1*
X37108Y1275675D1*
X38787Y1276699D1*
X40517Y1277639D1*
X42291Y1278491D1*
X44108Y1279252D1*
X45958Y1279920D1*
X47841Y1280493D1*
X49751Y1280972D1*
X51681Y1281353D1*
X53630Y1281636D1*
X55589Y1281822D1*
X57555Y1281907D1*
X59524Y1281894D1*
X61488Y1281780D1*
X63446Y1281568D1*
X65390Y1281257D1*
X67315Y1280849D1*
X69218Y1280345D1*
X71092Y1279744D1*
X72934Y1279051D1*
X74739Y1278265D1*
X76501Y1277388D1*
X78217Y1276425D1*
X79882Y1275375D1*
X81492Y1274244D1*
X83043Y1273033D1*
X84531Y1271744D1*
X85953Y1270382D1*
X87303Y1268950D1*
X88580Y1267451D1*
X89780Y1265891D1*
X90899Y1264273D1*
X91934Y1262598D1*
X92886Y1260875D1*
X93748Y1259106D1*
X94520Y1257295D1*
X95198Y1255448D1*
X95783Y1253568D1*
X96274Y1251661D1*
X96667Y1249734D1*
X96962Y1247787D1*
X97159Y1245829D1*
X97268Y1242913D1*
X97218Y1240946D1*
Y740946D2*
X97070Y738983D1*
X96822Y737030D1*
X96475Y735093D1*
X96033Y733175D1*
X95493Y731282D1*
X94858Y729419D1*
X94131Y727589D1*
X93312Y725801D1*
X92404Y724054D1*
X91409Y722356D1*
X90329Y720710D1*
X89169Y719119D1*
X87929Y717592D1*
X86614Y716127D1*
X85226Y714731D1*
X83770Y713407D1*
X82249Y712157D1*
X80667Y710987D1*
X79028Y709898D1*
X77335Y708892D1*
X75594Y707974D1*
X73810Y707144D1*
X71984Y706406D1*
X70126Y705760D1*
X68236Y705209D1*
X66320Y704753D1*
X64386Y704396D1*
X62434Y704136D1*
X60472Y703976D1*
X58505Y703915D1*
X56537Y703951D1*
X54573Y704089D1*
X52619Y704324D1*
X50680Y704659D1*
X48760Y705091D1*
X46864Y705618D1*
X44996Y706241D1*
X43163Y706957D1*
X41367Y707765D1*
X39615Y708663D1*
X37912Y709647D1*
X36260Y710717D1*
X34663Y711867D1*
X33127Y713098D1*
X31655Y714406D1*
X30251Y715783D1*
X28917Y717232D1*
X27659Y718745D1*
X26478Y720320D1*
X25379Y721953D1*
X24364Y723639D1*
X23434Y725374D1*
X22593Y727155D1*
X21844Y728974D1*
X21186Y730829D1*
X20625Y732717D1*
X20157Y734629D1*
X19789Y736562D1*
X19517Y738510D1*
X19344Y740471D1*
X19270Y742438D1*
X19297Y744407D1*
X19421Y746371D1*
X19646Y748327D1*
X19967Y750268D1*
X20387Y752192D1*
X20904Y754091D1*
X21516Y755962D1*
X22220Y757799D1*
X23017Y759598D1*
X23904Y761356D1*
X24878Y763067D1*
X25937Y764726D1*
X27079Y766328D1*
X28301Y767873D1*
X29597Y769353D1*
X30969Y770765D1*
X32408Y772108D1*
X33913Y773375D1*
X35482Y774564D1*
X37108Y775675D1*
X38787Y776699D1*
X40517Y777639D1*
X42291Y778491D1*
X44108Y779252D1*
X45958Y779920D1*
X47841Y780493D1*
X49751Y780972D1*
X51681Y781353D1*
X53630Y781636D1*
X55589Y781822D1*
X57555Y781907D1*
X59524Y781894D1*
X61488Y781780D1*
X63446Y781568D1*
X65390Y781257D1*
X67315Y780849D1*
X69218Y780345D1*
X71092Y779744D1*
X72934Y779051D1*
X74739Y778265D1*
X76501Y777388D1*
X78217Y776425D1*
X79882Y775375D1*
X81492Y774244D1*
X83043Y773033D1*
X84531Y771744D1*
X85953Y770382D1*
X87303Y768950D1*
X88580Y767451D1*
X89780Y765891D1*
X90899Y764273D1*
X91934Y762598D1*
X92886Y760875D1*
X93748Y759106D1*
X94520Y757295D1*
X95198Y755448D1*
X95783Y753568D1*
X96274Y751661D1*
X96667Y749734D1*
X96962Y747787D1*
X97159Y745829D1*
X97268Y742913D1*
X97218Y740946D1*
Y340946D2*
X97070Y338983D1*
X96822Y337030D1*
X96475Y335093D1*
X96033Y333175D1*
X95493Y331282D1*
X94858Y329419D1*
X94131Y327589D1*
X93312Y325801D1*
X92404Y324054D1*
X91409Y322356D1*
X90329Y320710D1*
X89169Y319119D1*
X87929Y317592D1*
X86614Y316127D1*
X85226Y314731D1*
X83770Y313407D1*
X82249Y312157D1*
X80667Y310987D1*
X79028Y309898D1*
X77335Y308892D1*
X75594Y307974D1*
X73810Y307144D1*
X71984Y306406D1*
X70126Y305760D1*
X68236Y305209D1*
X66320Y304753D1*
X64386Y304396D1*
X62434Y304136D1*
X60472Y303976D1*
X58505Y303915D1*
X56537Y303951D1*
X54573Y304089D1*
X52619Y304324D1*
X50680Y304659D1*
X48760Y305091D1*
X46864Y305618D1*
X44996Y306241D1*
X43163Y306957D1*
X41367Y307765D1*
X39615Y308663D1*
X37912Y309647D1*
X36260Y310717D1*
X34663Y311867D1*
X33127Y313098D1*
X31655Y314406D1*
X30251Y315783D1*
X28917Y317232D1*
X27659Y318745D1*
X26478Y320320D1*
X25379Y321953D1*
X24364Y323639D1*
X23434Y325374D1*
X22593Y327155D1*
X21844Y328974D1*
X21186Y330829D1*
X20625Y332717D1*
X20157Y334629D1*
X19789Y336562D1*
X19517Y338510D1*
X19344Y340471D1*
X19270Y342438D1*
X19297Y344407D1*
X19421Y346371D1*
X19646Y348327D1*
X19967Y350268D1*
X20387Y352192D1*
X20904Y354091D1*
X21516Y355962D1*
X22220Y357799D1*
X23017Y359598D1*
X23904Y361356D1*
X24878Y363067D1*
X25937Y364726D1*
X27079Y366328D1*
X28301Y367873D1*
X29597Y369353D1*
X30969Y370765D1*
X32408Y372108D1*
X33913Y373375D1*
X35482Y374564D1*
X37108Y375675D1*
X38787Y376699D1*
X40517Y377639D1*
X42291Y378491D1*
X44108Y379252D1*
X45958Y379920D1*
X47841Y380493D1*
X49751Y380972D1*
X51681Y381353D1*
X53630Y381636D1*
X55589Y381822D1*
X57555Y381907D1*
X59524Y381894D1*
X61488Y381780D1*
X63446Y381568D1*
X65390Y381257D1*
X67315Y380849D1*
X69218Y380345D1*
X71092Y379744D1*
X72934Y379051D1*
X74739Y378265D1*
X76501Y377388D1*
X78217Y376425D1*
X79882Y375375D1*
X81492Y374244D1*
X83043Y373033D1*
X84531Y371744D1*
X85953Y370382D1*
X87303Y368950D1*
X88580Y367451D1*
X89780Y365891D1*
X90899Y364273D1*
X91934Y362598D1*
X92886Y360875D1*
X93748Y359106D1*
X94520Y357295D1*
X95198Y355448D1*
X95783Y353568D1*
X96274Y351661D1*
X96667Y349734D1*
X96962Y347787D1*
X97159Y345829D1*
X97268Y342913D1*
X97218Y340946D1*
Y240946D2*
X97070Y238983D1*
X96822Y237030D1*
X96475Y235093D1*
X96033Y233175D1*
X95493Y231282D1*
X94858Y229419D1*
X94131Y227589D1*
X93312Y225801D1*
X92404Y224054D1*
X91409Y222356D1*
X90329Y220710D1*
X89169Y219119D1*
X87929Y217592D1*
X86614Y216127D1*
X85226Y214731D1*
X83770Y213407D1*
X82249Y212157D1*
X80667Y210987D1*
X79028Y209898D1*
X77335Y208892D1*
X75594Y207974D1*
X73810Y207144D1*
X71984Y206406D1*
X70126Y205760D1*
X68236Y205209D1*
X66320Y204753D1*
X64386Y204396D1*
X62434Y204136D1*
X60472Y203976D1*
X58505Y203915D1*
X56537Y203951D1*
X54573Y204089D1*
X52619Y204324D1*
X50680Y204659D1*
X48760Y205091D1*
X46864Y205618D1*
X44996Y206241D1*
X43163Y206957D1*
X41367Y207765D1*
X39615Y208663D1*
X37912Y209647D1*
X36260Y210717D1*
X34663Y211867D1*
X33127Y213098D1*
X31655Y214406D1*
X30251Y215783D1*
X28917Y217232D1*
X27659Y218745D1*
X26478Y220320D1*
X25379Y221953D1*
X24364Y223639D1*
X23434Y225374D1*
X22593Y227155D1*
X21844Y228974D1*
X21186Y230829D1*
X20625Y232717D1*
X20157Y234629D1*
X19789Y236562D1*
X19517Y238510D1*
X19344Y240471D1*
X19270Y242438D1*
X19297Y244407D1*
X19421Y246371D1*
X19646Y248327D1*
X19967Y250268D1*
X20387Y252192D1*
X20904Y254091D1*
X21516Y255962D1*
X22220Y257799D1*
X23017Y259598D1*
X23904Y261356D1*
X24878Y263067D1*
X25937Y264726D1*
X27079Y266328D1*
X28301Y267873D1*
X29597Y269353D1*
X30969Y270765D1*
X32408Y272108D1*
X33913Y273375D1*
X35482Y274564D1*
X37108Y275675D1*
X38787Y276699D1*
X40517Y277639D1*
X42291Y278491D1*
X44108Y279252D1*
X45958Y279920D1*
X47841Y280493D1*
X49751Y280972D1*
X51681Y281353D1*
X53630Y281636D1*
X55589Y281822D1*
X57555Y281907D1*
X59524Y281894D1*
X61488Y281780D1*
X63446Y281568D1*
X65390Y281257D1*
X67315Y280849D1*
X69218Y280345D1*
X71092Y279744D1*
X72934Y279051D1*
X74739Y278265D1*
X76501Y277388D1*
X78217Y276425D1*
X79882Y275375D1*
X81492Y274244D1*
X83043Y273033D1*
X84531Y271744D1*
X85953Y270382D1*
X87303Y268950D1*
X88580Y267451D1*
X89780Y265891D1*
X90899Y264273D1*
X91934Y262598D1*
X92886Y260875D1*
X93748Y259106D1*
X94520Y257295D1*
X95198Y255448D1*
X95783Y253568D1*
X96274Y251661D1*
X96667Y249734D1*
X96962Y247787D1*
X97159Y245829D1*
X97268Y242913D1*
X97218Y240946D1*
X697218Y140946D2*
X697070Y138983D1*
X696822Y137030D1*
X696475Y135093D1*
X696033Y133175D1*
X695493Y131282D1*
X694858Y129419D1*
X694131Y127589D1*
X693312Y125801D1*
X692404Y124054D1*
X691409Y122356D1*
X690329Y120710D1*
X689169Y119119D1*
X687929Y117592D1*
X686614Y116127D1*
X685226Y114731D1*
X683770Y113407D1*
X682249Y112157D1*
X680667Y110987D1*
X679028Y109898D1*
X677335Y108892D1*
X675594Y107974D1*
X673810Y107144D1*
X671984Y106406D1*
X670126Y105760D1*
X668236Y105209D1*
X666320Y104753D1*
X664386Y104396D1*
X662434Y104136D1*
X660472Y103976D1*
X658505Y103915D1*
X656537Y103951D1*
X654573Y104089D1*
X652619Y104324D1*
X650680Y104659D1*
X648760Y105091D1*
X646864Y105618D1*
X644996Y106241D1*
X643163Y106957D1*
X641367Y107765D1*
X639615Y108663D1*
X637912Y109647D1*
X636260Y110717D1*
X634663Y111867D1*
X633127Y113098D1*
X631655Y114406D1*
X630251Y115783D1*
X628917Y117232D1*
X627659Y118745D1*
X626478Y120320D1*
X625379Y121953D1*
X624364Y123639D1*
X623434Y125374D1*
X622593Y127155D1*
X621844Y128974D1*
X621186Y130829D1*
X620625Y132717D1*
X620157Y134629D1*
X619789Y136562D1*
X619517Y138510D1*
X619344Y140471D1*
X619270Y142438D1*
X619297Y144407D1*
X619421Y146371D1*
X619646Y148327D1*
X619967Y150268D1*
X620387Y152192D1*
X620904Y154091D1*
X621516Y155962D1*
X622220Y157799D1*
X623017Y159598D1*
X623904Y161356D1*
X624878Y163067D1*
X625937Y164726D1*
X627079Y166328D1*
X628301Y167873D1*
X629597Y169353D1*
X630969Y170765D1*
X632408Y172108D1*
X633913Y173375D1*
X635482Y174564D1*
X637108Y175675D1*
X638787Y176699D1*
X640517Y177639D1*
X642291Y178491D1*
X644108Y179252D1*
X645958Y179920D1*
X647841Y180493D1*
X649751Y180972D1*
X651681Y181353D1*
X653630Y181636D1*
X655589Y181822D1*
X657555Y181907D1*
X659524Y181894D1*
X661488Y181780D1*
X663446Y181568D1*
X665390Y181257D1*
X667315Y180849D1*
X669218Y180345D1*
X671092Y179744D1*
X672934Y179051D1*
X674739Y178265D1*
X676501Y177388D1*
X678217Y176425D1*
X679882Y175375D1*
X681492Y174244D1*
X683043Y173033D1*
X684531Y171744D1*
X685953Y170382D1*
X687303Y168950D1*
X688580Y167451D1*
X689780Y165891D1*
X690899Y164273D1*
X691934Y162598D1*
X692886Y160875D1*
X693748Y159106D1*
X694520Y157295D1*
X695198Y155448D1*
X695783Y153568D1*
X696274Y151661D1*
X696667Y149734D1*
X696962Y147787D1*
X697159Y145829D1*
X697268Y142913D1*
X697218Y140946D1*
Y240946D2*
X697070Y238983D1*
X696822Y237030D1*
X696475Y235093D1*
X696033Y233175D1*
X695493Y231282D1*
X694858Y229419D1*
X694131Y227589D1*
X693312Y225801D1*
X692404Y224054D1*
X691409Y222356D1*
X690329Y220710D1*
X689169Y219119D1*
X687929Y217592D1*
X686614Y216127D1*
X685226Y214731D1*
X683770Y213407D1*
X682249Y212157D1*
X680667Y210987D1*
X679028Y209898D1*
X677335Y208892D1*
X675594Y207974D1*
X673810Y207144D1*
X671984Y206406D1*
X670126Y205760D1*
X668236Y205209D1*
X666320Y204753D1*
X664386Y204396D1*
X662434Y204136D1*
X660472Y203976D1*
X658505Y203915D1*
X656537Y203951D1*
X654573Y204089D1*
X652619Y204324D1*
X650680Y204659D1*
X648760Y205091D1*
X646864Y205618D1*
X644996Y206241D1*
X643163Y206957D1*
X641367Y207765D1*
X639615Y208663D1*
X637912Y209647D1*
X636260Y210717D1*
X634663Y211867D1*
X633127Y213098D1*
X631655Y214406D1*
X630251Y215783D1*
X628917Y217232D1*
X627659Y218745D1*
X626478Y220320D1*
X625379Y221953D1*
X624364Y223639D1*
X623434Y225374D1*
X622593Y227155D1*
X621844Y228974D1*
X621186Y230829D1*
X620625Y232717D1*
X620157Y234629D1*
X619789Y236562D1*
X619517Y238510D1*
X619344Y240471D1*
X619270Y242438D1*
X619297Y244407D1*
X619421Y246371D1*
X619646Y248327D1*
X619967Y250268D1*
X620387Y252192D1*
X620904Y254091D1*
X621516Y255962D1*
X622220Y257799D1*
X623017Y259598D1*
X623904Y261356D1*
X624878Y263067D1*
X625937Y264726D1*
X627079Y266328D1*
X628301Y267873D1*
X629597Y269353D1*
X630969Y270765D1*
X632408Y272108D1*
X633913Y273375D1*
X635482Y274564D1*
X637108Y275675D1*
X638787Y276699D1*
X640517Y277639D1*
X642291Y278491D1*
X644108Y279252D1*
X645958Y279920D1*
X647841Y280493D1*
X649751Y280972D1*
X651681Y281353D1*
X653630Y281636D1*
X655589Y281822D1*
X657555Y281907D1*
X659524Y281894D1*
X661488Y281780D1*
X663446Y281568D1*
X665390Y281257D1*
X667315Y280849D1*
X669218Y280345D1*
X671092Y279744D1*
X672934Y279051D1*
X674739Y278265D1*
X676501Y277388D1*
X678217Y276425D1*
X679882Y275375D1*
X681492Y274244D1*
X683043Y273033D1*
X684531Y271744D1*
X685953Y270382D1*
X687303Y268950D1*
X688580Y267451D1*
X689780Y265891D1*
X690899Y264273D1*
X691934Y262598D1*
X692886Y260875D1*
X693748Y259106D1*
X694520Y257295D1*
X695198Y255448D1*
X695783Y253568D1*
X696274Y251661D1*
X696667Y249734D1*
X696962Y247787D1*
X697159Y245829D1*
X697268Y242913D1*
X697218Y240946D1*
Y440946D2*
X697070Y438983D1*
X696822Y437030D1*
X696475Y435093D1*
X696033Y433175D1*
X695493Y431282D1*
X694858Y429419D1*
X694131Y427589D1*
X693312Y425801D1*
X692404Y424054D1*
X691409Y422356D1*
X690329Y420710D1*
X689169Y419119D1*
X687929Y417592D1*
X686614Y416127D1*
X685226Y414731D1*
X683770Y413407D1*
X682249Y412157D1*
X680667Y410987D1*
X679028Y409898D1*
X677335Y408892D1*
X675594Y407974D1*
X673810Y407144D1*
X671984Y406406D1*
X670126Y405760D1*
X668236Y405209D1*
X666320Y404753D1*
X664386Y404396D1*
X662434Y404136D1*
X660472Y403976D1*
X658505Y403915D1*
X656537Y403951D1*
X654573Y404089D1*
X652619Y404324D1*
X650680Y404659D1*
X648760Y405091D1*
X646864Y405618D1*
X644996Y406241D1*
X643163Y406957D1*
X641367Y407765D1*
X639615Y408663D1*
X637912Y409647D1*
X636260Y410717D1*
X634663Y411867D1*
X633127Y413098D1*
X631655Y414406D1*
X630251Y415783D1*
X628917Y417232D1*
X627659Y418745D1*
X626478Y420320D1*
X625379Y421953D1*
X624364Y423639D1*
X623434Y425374D1*
X622593Y427155D1*
X621844Y428974D1*
X621186Y430829D1*
X620625Y432717D1*
X620157Y434629D1*
X619789Y436562D1*
X619517Y438510D1*
X619344Y440471D1*
X619270Y442438D1*
X619297Y444407D1*
X619421Y446371D1*
X619646Y448327D1*
X619967Y450268D1*
X620387Y452192D1*
X620904Y454091D1*
X621516Y455962D1*
X622220Y457799D1*
X623017Y459598D1*
X623904Y461356D1*
X624878Y463067D1*
X625937Y464726D1*
X627079Y466328D1*
X628301Y467873D1*
X629597Y469353D1*
X630969Y470765D1*
X632408Y472108D1*
X633913Y473375D1*
X635482Y474564D1*
X637108Y475675D1*
X638787Y476699D1*
X640517Y477639D1*
X642291Y478491D1*
X644108Y479252D1*
X645958Y479920D1*
X647841Y480493D1*
X649751Y480972D1*
X651681Y481353D1*
X653630Y481636D1*
X655589Y481822D1*
X657555Y481907D1*
X659524Y481894D1*
X661488Y481780D1*
X663446Y481568D1*
X665390Y481257D1*
X667315Y480849D1*
X669218Y480345D1*
X671092Y479744D1*
X672934Y479051D1*
X674739Y478265D1*
X676501Y477388D1*
X678217Y476425D1*
X679882Y475375D1*
X681492Y474244D1*
X683043Y473033D1*
X684531Y471744D1*
X685953Y470382D1*
X687303Y468950D1*
X688580Y467451D1*
X689780Y465891D1*
X690899Y464273D1*
X691934Y462598D1*
X692886Y460875D1*
X693748Y459106D1*
X694520Y457295D1*
X695198Y455448D1*
X695783Y453568D1*
X696274Y451661D1*
X696667Y449734D1*
X696962Y447787D1*
X697159Y445829D1*
X697268Y442913D1*
X697218Y440946D1*
Y540946D2*
X697070Y538983D1*
X696822Y537030D1*
X696475Y535093D1*
X696033Y533175D1*
X695493Y531282D1*
X694858Y529419D1*
X694131Y527589D1*
X693312Y525801D1*
X692404Y524054D1*
X691409Y522356D1*
X690329Y520710D1*
X689169Y519119D1*
X687929Y517592D1*
X686614Y516127D1*
X685226Y514731D1*
X683770Y513407D1*
X682249Y512157D1*
X680667Y510987D1*
X679028Y509898D1*
X677335Y508892D1*
X675594Y507974D1*
X673810Y507144D1*
X671984Y506406D1*
X670126Y505760D1*
X668236Y505209D1*
X666320Y504753D1*
X664386Y504396D1*
X662434Y504136D1*
X660472Y503976D1*
X658505Y503915D1*
X656537Y503951D1*
X654573Y504089D1*
X652619Y504324D1*
X650680Y504659D1*
X648760Y505091D1*
X646864Y505618D1*
X644996Y506241D1*
X643163Y506957D1*
X641367Y507765D1*
X639615Y508663D1*
X637912Y509647D1*
X636260Y510717D1*
X634663Y511867D1*
X633127Y513098D1*
X631655Y514406D1*
X630251Y515783D1*
X628917Y517232D1*
X627659Y518745D1*
X626478Y520320D1*
X625379Y521953D1*
X624364Y523639D1*
X623434Y525374D1*
X622593Y527155D1*
X621844Y528974D1*
X621186Y530829D1*
X620625Y532717D1*
X620157Y534629D1*
X619789Y536562D1*
X619517Y538510D1*
X619344Y540471D1*
X619270Y542438D1*
X619297Y544407D1*
X619421Y546371D1*
X619646Y548327D1*
X619967Y550268D1*
X620387Y552192D1*
X620904Y554091D1*
X621516Y555962D1*
X622220Y557799D1*
X623017Y559598D1*
X623904Y561356D1*
X624878Y563067D1*
X625937Y564726D1*
X627079Y566328D1*
X628301Y567873D1*
X629597Y569353D1*
X630969Y570765D1*
X632408Y572108D1*
X633913Y573375D1*
X635482Y574564D1*
X637108Y575675D1*
X638787Y576699D1*
X640517Y577639D1*
X642291Y578491D1*
X644108Y579252D1*
X645958Y579920D1*
X647841Y580493D1*
X649751Y580972D1*
X651681Y581353D1*
X653630Y581636D1*
X655589Y581822D1*
X657555Y581907D1*
X659524Y581894D1*
X661488Y581780D1*
X663446Y581568D1*
X665390Y581257D1*
X667315Y580849D1*
X669218Y580345D1*
X671092Y579744D1*
X672934Y579051D1*
X674739Y578265D1*
X676501Y577388D1*
X678217Y576425D1*
X679882Y575375D1*
X681492Y574244D1*
X683043Y573033D1*
X684531Y571744D1*
X685953Y570382D1*
X687303Y568950D1*
X688580Y567451D1*
X689780Y565891D1*
X690899Y564273D1*
X691934Y562598D1*
X692886Y560875D1*
X693748Y559106D1*
X694520Y557295D1*
X695198Y555448D1*
X695783Y553568D1*
X696274Y551661D1*
X696667Y549734D1*
X696962Y547787D1*
X697159Y545829D1*
X697268Y542913D1*
X697218Y540946D1*
Y640946D2*
X697070Y638983D1*
X696822Y637030D1*
X696475Y635093D1*
X696033Y633175D1*
X695493Y631282D1*
X694858Y629419D1*
X694131Y627589D1*
X693312Y625801D1*
X692404Y624054D1*
X691409Y622356D1*
X690329Y620710D1*
X689169Y619119D1*
X687929Y617592D1*
X686614Y616127D1*
X685226Y614731D1*
X683770Y613407D1*
X682249Y612157D1*
X680667Y610987D1*
X679028Y609898D1*
X677335Y608892D1*
X675594Y607974D1*
X673810Y607144D1*
X671984Y606406D1*
X670126Y605760D1*
X668236Y605209D1*
X666320Y604753D1*
X664386Y604396D1*
X662434Y604136D1*
X660472Y603976D1*
X658505Y603915D1*
X656537Y603951D1*
X654573Y604089D1*
X652619Y604324D1*
X650680Y604659D1*
X648760Y605091D1*
X646864Y605618D1*
X644996Y606241D1*
X643163Y606957D1*
X641367Y607765D1*
X639615Y608663D1*
X637912Y609647D1*
X636260Y610717D1*
X634663Y611867D1*
X633127Y613098D1*
X631655Y614406D1*
X630251Y615783D1*
X628917Y617232D1*
X627659Y618745D1*
X626478Y620320D1*
X625379Y621953D1*
X624364Y623639D1*
X623434Y625374D1*
X622593Y627155D1*
X621844Y628974D1*
X621186Y630829D1*
X620625Y632717D1*
X620157Y634629D1*
X619789Y636562D1*
X619517Y638510D1*
X619344Y640471D1*
X619270Y642438D1*
X619297Y644407D1*
X619421Y646371D1*
X619646Y648327D1*
X619967Y650268D1*
X620387Y652192D1*
X620904Y654091D1*
X621516Y655962D1*
X622220Y657799D1*
X623017Y659598D1*
X623904Y661356D1*
X624878Y663067D1*
X625937Y664726D1*
X627079Y666328D1*
X628301Y667873D1*
X629597Y669353D1*
X630969Y670765D1*
X632408Y672108D1*
X633913Y673375D1*
X635482Y674564D1*
X637108Y675675D1*
X638787Y676699D1*
X640517Y677639D1*
X642291Y678491D1*
X644108Y679252D1*
X645958Y679920D1*
X647841Y680493D1*
X649751Y680972D1*
X651681Y681353D1*
X653630Y681636D1*
X655589Y681822D1*
X657555Y681907D1*
X659524Y681894D1*
X661488Y681780D1*
X663446Y681568D1*
X665390Y681257D1*
X667315Y680849D1*
X669218Y680345D1*
X671092Y679744D1*
X672934Y679051D1*
X674739Y678265D1*
X676501Y677388D1*
X678217Y676425D1*
X679882Y675375D1*
X681492Y674244D1*
X683043Y673033D1*
X684531Y671744D1*
X685953Y670382D1*
X687303Y668950D1*
X688580Y667451D1*
X689780Y665891D1*
X690899Y664273D1*
X691934Y662598D1*
X692886Y660875D1*
X693748Y659106D1*
X694520Y657295D1*
X695198Y655448D1*
X695783Y653568D1*
X696274Y651661D1*
X696667Y649734D1*
X696962Y647787D1*
X697159Y645829D1*
X697268Y642913D1*
X697218Y640946D1*
Y740946D2*
X697070Y738983D1*
X696822Y737030D1*
X696475Y735093D1*
X696033Y733175D1*
X695493Y731282D1*
X694858Y729419D1*
X694131Y727589D1*
X693312Y725801D1*
X692404Y724054D1*
X691409Y722356D1*
X690329Y720710D1*
X689169Y719119D1*
X687929Y717592D1*
X686614Y716127D1*
X685226Y714731D1*
X683770Y713407D1*
X682249Y712157D1*
X680667Y710987D1*
X679028Y709898D1*
X677335Y708892D1*
X675594Y707974D1*
X673810Y707144D1*
X671984Y706406D1*
X670126Y705760D1*
X668236Y705209D1*
X666320Y704753D1*
X664386Y704396D1*
X662434Y704136D1*
X660472Y703976D1*
X658505Y703915D1*
X656537Y703951D1*
X654573Y704089D1*
X652619Y704324D1*
X650680Y704659D1*
X648760Y705091D1*
X646864Y705618D1*
X644996Y706241D1*
X643163Y706957D1*
X641367Y707765D1*
X639615Y708663D1*
X637912Y709647D1*
X636260Y710717D1*
X634663Y711867D1*
X633127Y713098D1*
X631655Y714406D1*
X630251Y715783D1*
X628917Y717232D1*
X627659Y718745D1*
X626478Y720320D1*
X625379Y721953D1*
X624364Y723639D1*
X623434Y725374D1*
X622593Y727155D1*
X621844Y728974D1*
X621186Y730829D1*
X620625Y732717D1*
X620157Y734629D1*
X619789Y736562D1*
X619517Y738510D1*
X619344Y740471D1*
X619270Y742438D1*
X619297Y744407D1*
X619421Y746371D1*
X619646Y748327D1*
X619967Y750268D1*
X620387Y752192D1*
X620904Y754091D1*
X621516Y755962D1*
X622220Y757799D1*
X623017Y759598D1*
X623904Y761356D1*
X624878Y763067D1*
X625937Y764726D1*
X627079Y766328D1*
X628301Y767873D1*
X629597Y769353D1*
X630969Y770765D1*
X632408Y772108D1*
X633913Y773375D1*
X635482Y774564D1*
X637108Y775675D1*
X638787Y776699D1*
X640517Y777639D1*
X642291Y778491D1*
X644108Y779252D1*
X645958Y779920D1*
X647841Y780493D1*
X649751Y780972D1*
X651681Y781353D1*
X653630Y781636D1*
X655589Y781822D1*
X657555Y781907D1*
X659524Y781894D1*
X661488Y781780D1*
X663446Y781568D1*
X665390Y781257D1*
X667315Y780849D1*
X669218Y780345D1*
X671092Y779744D1*
X672934Y779051D1*
X674739Y778265D1*
X676501Y777388D1*
X678217Y776425D1*
X679882Y775375D1*
X681492Y774244D1*
X683043Y773033D1*
X684531Y771744D1*
X685953Y770382D1*
X687303Y768950D1*
X688580Y767451D1*
X689780Y765891D1*
X690899Y764273D1*
X691934Y762598D1*
X692886Y760875D1*
X693748Y759106D1*
X694520Y757295D1*
X695198Y755448D1*
X695783Y753568D1*
X696274Y751661D1*
X696667Y749734D1*
X696962Y747787D1*
X697159Y745829D1*
X697268Y742913D1*
X697218Y740946D1*
Y840946D2*
X697070Y838983D1*
X696822Y837030D1*
X696475Y835093D1*
X696033Y833175D1*
X695493Y831282D1*
X694858Y829419D1*
X694131Y827589D1*
X693312Y825801D1*
X692404Y824054D1*
X691409Y822356D1*
X690329Y820710D1*
X689169Y819119D1*
X687929Y817592D1*
X686614Y816127D1*
X685226Y814731D1*
X683770Y813407D1*
X682249Y812157D1*
X680667Y810987D1*
X679028Y809898D1*
X677335Y808892D1*
X675594Y807974D1*
X673810Y807144D1*
X671984Y806406D1*
X670126Y805760D1*
X668236Y805209D1*
X666320Y804753D1*
X664386Y804396D1*
X662434Y804136D1*
X660472Y803976D1*
X658505Y803915D1*
X656537Y803951D1*
X654573Y804089D1*
X652619Y804324D1*
X650680Y804659D1*
X648760Y805091D1*
X646864Y805618D1*
X644996Y806241D1*
X643163Y806957D1*
X641367Y807765D1*
X639615Y808663D1*
X637912Y809647D1*
X636260Y810717D1*
X634663Y811867D1*
X633127Y813098D1*
X631655Y814406D1*
X630251Y815783D1*
X628917Y817232D1*
X627659Y818745D1*
X626478Y820320D1*
X625379Y821953D1*
X624364Y823639D1*
X623434Y825374D1*
X622593Y827155D1*
X621844Y828974D1*
X621186Y830829D1*
X620625Y832717D1*
X620157Y834629D1*
X619789Y836562D1*
X619517Y838510D1*
X619344Y840471D1*
X619270Y842438D1*
X619297Y844407D1*
X619421Y846371D1*
X619646Y848327D1*
X619967Y850268D1*
X620387Y852192D1*
X620904Y854091D1*
X621516Y855962D1*
X622220Y857799D1*
X623017Y859598D1*
X623904Y861356D1*
X624878Y863067D1*
X625937Y864726D1*
X627079Y866328D1*
X628301Y867873D1*
X629597Y869353D1*
X630969Y870765D1*
X632408Y872108D1*
X633913Y873375D1*
X635482Y874564D1*
X637108Y875675D1*
X638787Y876699D1*
X640517Y877639D1*
X642291Y878491D1*
X644108Y879252D1*
X645958Y879920D1*
X647841Y880493D1*
X649751Y880972D1*
X651681Y881353D1*
X653630Y881636D1*
X655589Y881822D1*
X657555Y881907D1*
X659524Y881894D1*
X661488Y881780D1*
X663446Y881568D1*
X665390Y881257D1*
X667315Y880849D1*
X669218Y880345D1*
X671092Y879744D1*
X672934Y879051D1*
X674739Y878265D1*
X676501Y877388D1*
X678217Y876425D1*
X679882Y875375D1*
X681492Y874244D1*
X683043Y873033D1*
X684531Y871744D1*
X685953Y870382D1*
X687303Y868950D1*
X688580Y867451D1*
X689780Y865891D1*
X690899Y864273D1*
X691934Y862598D1*
X692886Y860875D1*
X693748Y859106D1*
X694520Y857295D1*
X695198Y855448D1*
X695783Y853568D1*
X696274Y851661D1*
X696667Y849734D1*
X696962Y847787D1*
X697159Y845829D1*
X697268Y842913D1*
X697218Y840946D1*
Y940946D2*
X697070Y938983D1*
X696822Y937030D1*
X696475Y935093D1*
X696033Y933175D1*
X695493Y931282D1*
X694858Y929419D1*
X694131Y927589D1*
X693312Y925801D1*
X692404Y924054D1*
X691409Y922356D1*
X690329Y920710D1*
X689169Y919119D1*
X687929Y917592D1*
X686614Y916127D1*
X685226Y914731D1*
X683770Y913407D1*
X682249Y912157D1*
X680667Y910987D1*
X679028Y909898D1*
X677335Y908892D1*
X675594Y907974D1*
X673810Y907144D1*
X671984Y906406D1*
X670126Y905760D1*
X668236Y905209D1*
X666320Y904753D1*
X664386Y904396D1*
X662434Y904136D1*
X660472Y903976D1*
X658505Y903915D1*
X656537Y903951D1*
X654573Y904089D1*
X652619Y904324D1*
X650680Y904659D1*
X648760Y905091D1*
X646864Y905618D1*
X644996Y906241D1*
X643163Y906957D1*
X641367Y907765D1*
X639615Y908663D1*
X637912Y909647D1*
X636260Y910717D1*
X634663Y911867D1*
X633127Y913098D1*
X631655Y914406D1*
X630251Y915783D1*
X628917Y917232D1*
X627659Y918745D1*
X626478Y920320D1*
X625379Y921953D1*
X624364Y923639D1*
X623434Y925374D1*
X622593Y927155D1*
X621844Y928974D1*
X621186Y930829D1*
X620625Y932717D1*
X620157Y934629D1*
X619789Y936562D1*
X619517Y938510D1*
X619344Y940471D1*
X619270Y942438D1*
X619297Y944407D1*
X619421Y946371D1*
X619646Y948327D1*
X619967Y950268D1*
X620387Y952192D1*
X620904Y954091D1*
X621516Y955962D1*
X622220Y957799D1*
X623017Y959598D1*
X623904Y961356D1*
X624878Y963067D1*
X625937Y964726D1*
X627079Y966328D1*
X628301Y967873D1*
X629597Y969353D1*
X630969Y970765D1*
X632408Y972108D1*
X633913Y973375D1*
X635482Y974564D1*
X637108Y975675D1*
X638787Y976699D1*
X640517Y977639D1*
X642291Y978491D1*
X644108Y979252D1*
X645958Y979920D1*
X647841Y980493D1*
X649751Y980972D1*
X651681Y981353D1*
X653630Y981636D1*
X655589Y981822D1*
X657555Y981907D1*
X659524Y981894D1*
X661488Y981780D1*
X663446Y981568D1*
X665390Y981257D1*
X667315Y980849D1*
X669218Y980345D1*
X671092Y979744D1*
X672934Y979051D1*
X674739Y978265D1*
X676501Y977388D1*
X678217Y976425D1*
X679882Y975375D1*
X681492Y974244D1*
X683043Y973033D1*
X684531Y971744D1*
X685953Y970382D1*
X687303Y968950D1*
X688580Y967451D1*
X689780Y965891D1*
X690899Y964273D1*
X691934Y962598D1*
X692886Y960875D1*
X693748Y959106D1*
X694520Y957295D1*
X695198Y955448D1*
X695783Y953568D1*
X696274Y951661D1*
X696667Y949734D1*
X696962Y947787D1*
X697159Y945829D1*
X697268Y942913D1*
X697218Y940946D1*
Y1040946D2*
X697070Y1038983D1*
X696822Y1037030D1*
X696475Y1035093D1*
X696033Y1033175D1*
X695493Y1031282D1*
X694858Y1029419D1*
X694131Y1027589D1*
X693312Y1025801D1*
X692404Y1024054D1*
X691409Y1022356D1*
X690329Y1020710D1*
X689169Y1019119D1*
X687929Y1017592D1*
X686614Y1016127D1*
X685226Y1014731D1*
X683770Y1013407D1*
X682249Y1012157D1*
X680667Y1010987D1*
X679028Y1009898D1*
X677335Y1008892D1*
X675594Y1007974D1*
X673810Y1007144D1*
X671984Y1006406D1*
X670126Y1005760D1*
X668236Y1005209D1*
X666320Y1004753D1*
X664386Y1004396D1*
X662434Y1004136D1*
X660472Y1003976D1*
X658505Y1003915D1*
X656537Y1003951D1*
X654573Y1004089D1*
X652619Y1004324D1*
X650680Y1004659D1*
X648760Y1005091D1*
X646864Y1005618D1*
X644996Y1006241D1*
X643163Y1006957D1*
X641367Y1007765D1*
X639615Y1008663D1*
X637912Y1009647D1*
X636260Y1010717D1*
X634663Y1011867D1*
X633127Y1013098D1*
X631655Y1014406D1*
X630251Y1015783D1*
X628917Y1017232D1*
X627659Y1018745D1*
X626478Y1020320D1*
X625379Y1021953D1*
X624364Y1023639D1*
X623434Y1025374D1*
X622593Y1027155D1*
X621844Y1028974D1*
X621186Y1030829D1*
X620625Y1032717D1*
X620157Y1034629D1*
X619789Y1036562D1*
X619517Y1038510D1*
X619344Y1040471D1*
X619270Y1042438D1*
X619297Y1044407D1*
X619421Y1046371D1*
X619646Y1048327D1*
X619967Y1050268D1*
X620387Y1052192D1*
X620904Y1054091D1*
X621516Y1055962D1*
X622220Y1057799D1*
X623017Y1059598D1*
X623904Y1061356D1*
X624878Y1063067D1*
X625937Y1064726D1*
X627079Y1066328D1*
X628301Y1067873D1*
X629597Y1069353D1*
X630969Y1070765D1*
X632408Y1072108D1*
X633913Y1073375D1*
X635482Y1074564D1*
X637108Y1075675D1*
X638787Y1076699D1*
X640517Y1077639D1*
X642291Y1078491D1*
X644108Y1079252D1*
X645958Y1079920D1*
X647841Y1080493D1*
X649751Y1080972D1*
X651681Y1081353D1*
X653630Y1081636D1*
X655589Y1081822D1*
X657555Y1081907D1*
X659524Y1081894D1*
X661488Y1081780D1*
X663446Y1081568D1*
X665390Y1081257D1*
X667315Y1080849D1*
X669218Y1080345D1*
X671092Y1079744D1*
X672934Y1079051D1*
X674739Y1078265D1*
X676501Y1077388D1*
X678217Y1076425D1*
X679882Y1075375D1*
X681492Y1074244D1*
X683043Y1073033D1*
X684531Y1071744D1*
X685953Y1070382D1*
X687303Y1068950D1*
X688580Y1067451D1*
X689780Y1065891D1*
X690899Y1064273D1*
X691934Y1062598D1*
X692886Y1060875D1*
X693748Y1059106D1*
X694520Y1057295D1*
X695198Y1055448D1*
X695783Y1053568D1*
X696274Y1051661D1*
X696667Y1049734D1*
X696962Y1047787D1*
X697159Y1045829D1*
X697268Y1042913D1*
X697218Y1040946D1*
Y1140946D2*
X697070Y1138983D1*
X696822Y1137030D1*
X696475Y1135093D1*
X696033Y1133175D1*
X695493Y1131282D1*
X694858Y1129419D1*
X694131Y1127589D1*
X693312Y1125801D1*
X692404Y1124054D1*
X691409Y1122356D1*
X690329Y1120710D1*
X689169Y1119119D1*
X687929Y1117592D1*
X686614Y1116127D1*
X685226Y1114731D1*
X683770Y1113407D1*
X682249Y1112157D1*
X680667Y1110987D1*
X679028Y1109898D1*
X677335Y1108892D1*
X675594Y1107974D1*
X673810Y1107144D1*
X671984Y1106406D1*
X670126Y1105760D1*
X668236Y1105209D1*
X666320Y1104753D1*
X664386Y1104396D1*
X662434Y1104136D1*
X660472Y1103976D1*
X658505Y1103915D1*
X656537Y1103951D1*
X654573Y1104089D1*
X652619Y1104324D1*
X650680Y1104659D1*
X648760Y1105091D1*
X646864Y1105618D1*
X644996Y1106241D1*
X643163Y1106957D1*
X641367Y1107765D1*
X639615Y1108663D1*
X637912Y1109647D1*
X636260Y1110717D1*
X634663Y1111867D1*
X633127Y1113098D1*
X631655Y1114406D1*
X630251Y1115783D1*
X628917Y1117232D1*
X627659Y1118745D1*
X626478Y1120320D1*
X625379Y1121953D1*
X624364Y1123639D1*
X623434Y1125374D1*
X622593Y1127155D1*
X621844Y1128974D1*
X621186Y1130829D1*
X620625Y1132717D1*
X620157Y1134629D1*
X619789Y1136562D1*
X619517Y1138510D1*
X619344Y1140471D1*
X619270Y1142438D1*
X619297Y1144407D1*
X619421Y1146371D1*
X619646Y1148327D1*
X619967Y1150268D1*
X620387Y1152192D1*
X620904Y1154091D1*
X621516Y1155962D1*
X622220Y1157799D1*
X623017Y1159598D1*
X623904Y1161356D1*
X624878Y1163067D1*
X625937Y1164726D1*
X627079Y1166328D1*
X628301Y1167873D1*
X629597Y1169353D1*
X630969Y1170765D1*
X632408Y1172108D1*
X633913Y1173375D1*
X635482Y1174564D1*
X637108Y1175675D1*
X638787Y1176699D1*
X640517Y1177639D1*
X642291Y1178491D1*
X644108Y1179252D1*
X645958Y1179920D1*
X647841Y1180493D1*
X649751Y1180972D1*
X651681Y1181353D1*
X653630Y1181636D1*
X655589Y1181822D1*
X657555Y1181907D1*
X659524Y1181894D1*
X661488Y1181780D1*
X663446Y1181568D1*
X665390Y1181257D1*
X667315Y1180849D1*
X669218Y1180345D1*
X671092Y1179744D1*
X672934Y1179051D1*
X674739Y1178265D1*
X676501Y1177388D1*
X678217Y1176425D1*
X679882Y1175375D1*
X681492Y1174244D1*
X683043Y1173033D1*
X684531Y1171744D1*
X685953Y1170382D1*
X687303Y1168950D1*
X688580Y1167451D1*
X689780Y1165891D1*
X690899Y1164273D1*
X691934Y1162598D1*
X692886Y1160875D1*
X693748Y1159106D1*
X694520Y1157295D1*
X695198Y1155448D1*
X695783Y1153568D1*
X696274Y1151661D1*
X696667Y1149734D1*
X696962Y1147787D1*
X697159Y1145829D1*
X697268Y1142913D1*
X697218Y1140946D1*
Y1240946D2*
X697070Y1238983D1*
X696822Y1237030D1*
X696475Y1235093D1*
X696033Y1233175D1*
X695493Y1231282D1*
X694858Y1229419D1*
X694131Y1227589D1*
X693312Y1225801D1*
X692404Y1224054D1*
X691409Y1222356D1*
X690329Y1220710D1*
X689169Y1219119D1*
X687929Y1217592D1*
X686614Y1216127D1*
X685226Y1214731D1*
X683770Y1213407D1*
X682249Y1212157D1*
X680667Y1210987D1*
X679028Y1209898D1*
X677335Y1208892D1*
X675594Y1207974D1*
X673810Y1207144D1*
X671984Y1206406D1*
X670126Y1205760D1*
X668236Y1205209D1*
X666320Y1204753D1*
X664386Y1204396D1*
X662434Y1204136D1*
X660472Y1203976D1*
X658505Y1203915D1*
X656537Y1203951D1*
X654573Y1204089D1*
X652619Y1204324D1*
X650680Y1204659D1*
X648760Y1205091D1*
X646864Y1205618D1*
X644996Y1206241D1*
X643163Y1206957D1*
X641367Y1207765D1*
X639615Y1208663D1*
X637912Y1209647D1*
X636260Y1210717D1*
X634663Y1211867D1*
X633127Y1213098D1*
X631655Y1214406D1*
X630251Y1215783D1*
X628917Y1217232D1*
X627659Y1218745D1*
X626478Y1220320D1*
X625379Y1221953D1*
X624364Y1223639D1*
X623434Y1225374D1*
X622593Y1227155D1*
X621844Y1228974D1*
X621186Y1230829D1*
X620625Y1232717D1*
X620157Y1234629D1*
X619789Y1236562D1*
X619517Y1238510D1*
X619344Y1240471D1*
X619270Y1242438D1*
X619297Y1244407D1*
X619421Y1246371D1*
X619646Y1248327D1*
X619967Y1250268D1*
X620387Y1252192D1*
X620904Y1254091D1*
X621516Y1255962D1*
X622220Y1257799D1*
X623017Y1259598D1*
X623904Y1261356D1*
X624878Y1263067D1*
X625937Y1264726D1*
X627079Y1266328D1*
X628301Y1267873D1*
X629597Y1269353D1*
X630969Y1270765D1*
X632408Y1272108D1*
X633913Y1273375D1*
X635482Y1274564D1*
X637108Y1275675D1*
X638787Y1276699D1*
X640517Y1277639D1*
X642291Y1278491D1*
X644108Y1279252D1*
X645958Y1279920D1*
X647841Y1280493D1*
X649751Y1280972D1*
X651681Y1281353D1*
X653630Y1281636D1*
X655589Y1281822D1*
X657555Y1281907D1*
X659524Y1281894D1*
X661488Y1281780D1*
X663446Y1281568D1*
X665390Y1281257D1*
X667315Y1280849D1*
X669218Y1280345D1*
X671092Y1279744D1*
X672934Y1279051D1*
X674739Y1278265D1*
X676501Y1277388D1*
X678217Y1276425D1*
X679882Y1275375D1*
X681492Y1274244D1*
X683043Y1273033D1*
X684531Y1271744D1*
X685953Y1270382D1*
X687303Y1268950D1*
X688580Y1267451D1*
X689780Y1265891D1*
X690899Y1264273D1*
X691934Y1262598D1*
X692886Y1260875D1*
X693748Y1259106D1*
X694520Y1257295D1*
X695198Y1255448D1*
X695783Y1253568D1*
X696274Y1251661D1*
X696667Y1249734D1*
X696962Y1247787D1*
X697159Y1245829D1*
X697268Y1242913D1*
X697218Y1240946D1*
Y1340946D2*
X697070Y1338983D1*
X696822Y1337030D1*
X696475Y1335093D1*
X696033Y1333175D1*
X695493Y1331282D1*
X694858Y1329419D1*
X694131Y1327589D1*
X693312Y1325801D1*
X692404Y1324054D1*
X691409Y1322356D1*
X690329Y1320710D1*
X689169Y1319119D1*
X687929Y1317592D1*
X686614Y1316127D1*
X685226Y1314731D1*
X683770Y1313407D1*
X682249Y1312157D1*
X680667Y1310987D1*
X679028Y1309898D1*
X677335Y1308892D1*
X675594Y1307974D1*
X673810Y1307144D1*
X671984Y1306406D1*
X670126Y1305760D1*
X668236Y1305209D1*
X666320Y1304753D1*
X664386Y1304396D1*
X662434Y1304136D1*
X660472Y1303976D1*
X658505Y1303915D1*
X656537Y1303951D1*
X654573Y1304089D1*
X652619Y1304324D1*
X650680Y1304659D1*
X648760Y1305091D1*
X646864Y1305618D1*
X644996Y1306241D1*
X643163Y1306957D1*
X641367Y1307765D1*
X639615Y1308663D1*
X637912Y1309647D1*
X636260Y1310717D1*
X634663Y1311867D1*
X633127Y1313098D1*
X631655Y1314406D1*
X630251Y1315783D1*
X628917Y1317232D1*
X627659Y1318745D1*
X626478Y1320320D1*
X625379Y1321953D1*
X624364Y1323639D1*
X623434Y1325374D1*
X622593Y1327155D1*
X621844Y1328974D1*
X621186Y1330829D1*
X620625Y1332717D1*
X620157Y1334629D1*
X619789Y1336562D1*
X619517Y1338510D1*
X619344Y1340471D1*
X619270Y1342438D1*
X619297Y1344407D1*
X619421Y1346371D1*
X619646Y1348327D1*
X619967Y1350268D1*
X620387Y1352192D1*
X620904Y1354091D1*
X621516Y1355962D1*
X622220Y1357799D1*
X623017Y1359598D1*
X623904Y1361356D1*
X624878Y1363067D1*
X625937Y1364726D1*
X627079Y1366328D1*
X628301Y1367873D1*
X629597Y1369353D1*
X630969Y1370765D1*
X632408Y1372108D1*
X633913Y1373375D1*
X635482Y1374564D1*
X637108Y1375675D1*
X638787Y1376699D1*
X640517Y1377639D1*
X642291Y1378491D1*
X644108Y1379252D1*
X645958Y1379920D1*
X647841Y1380493D1*
X649751Y1380972D1*
X651681Y1381353D1*
X653630Y1381636D1*
X655589Y1381822D1*
X657555Y1381907D1*
X659524Y1381894D1*
X661488Y1381780D1*
X663446Y1381568D1*
X665390Y1381257D1*
X667315Y1380849D1*
X669218Y1380345D1*
X671092Y1379744D1*
X672934Y1379051D1*
X674739Y1378265D1*
X676501Y1377388D1*
X678217Y1376425D1*
X679882Y1375375D1*
X681492Y1374244D1*
X683043Y1373033D1*
X684531Y1371744D1*
X685953Y1370382D1*
X687303Y1368950D1*
X688580Y1367451D1*
X689780Y1365891D1*
X690899Y1364273D1*
X691934Y1362598D1*
X692886Y1360875D1*
X693748Y1359106D1*
X694520Y1357295D1*
X695198Y1355448D1*
X695783Y1353568D1*
X696274Y1351661D1*
X696667Y1349734D1*
X696962Y1347787D1*
X697159Y1345829D1*
X697268Y1342913D1*
X697218Y1340946D1*
X473251Y554241D2*
D14*
Y508257D1*
Y504241D2*
Y458257D1*
X231251Y304241D2*
Y258257D1*
X293751Y1054241D2*
Y1008257D1*
Y1004241D2*
Y958257D1*
Y854241D2*
Y808257D1*
X185680Y975396D2*
Y912105D1*
Y1075395D2*
Y1012104D1*
Y875396D2*
Y812105D1*
X30696Y1370486D2*
D17*
X85840Y1315341D1*
Y1370486D2*
X30696Y1315341D1*
X330696Y70486D2*
X385840Y15341D1*
Y70486D2*
X330696Y15341D1*
D22*
X231251Y581249D3*
X473251D3*
X231251Y531249D3*
Y481249D3*
X473251Y531249D3*
Y481249D3*
X231251Y431249D3*
X473251D3*
X231251Y381249D3*
Y331249D3*
X473251Y381249D3*
Y331249D3*
X231251Y281249D3*
X473251D3*
X293751Y1181249D3*
X535751D3*
X293751Y1131249D3*
Y1081249D3*
X535751Y1131249D3*
Y1081249D3*
X293751Y1031249D3*
X535751D3*
X293751Y981249D3*
X535751D3*
X293751Y931249D3*
Y881249D3*
X535751Y931249D3*
Y881249D3*
X293751Y831249D3*
X535751D3*
D23*
X118751Y943751D3*
X185680D3*
X118751Y1043749D3*
X185680D3*
X118751Y843751D3*
X185680D3*
D26*
X58268Y1342913D3*
Y1242913D3*
Y1142913D3*
Y1042913D3*
Y942913D3*
Y842913D3*
Y742913D3*
Y642913D3*
Y542913D3*
Y442913D3*
Y342913D3*
Y242913D3*
Y142913D3*
Y42913D3*
X158268D3*
X258268D3*
X358268D3*
X458268D3*
X558268D3*
X658268D3*
Y142913D3*
Y242913D3*
Y342913D3*
Y442913D3*
Y542913D3*
Y642913D3*
Y742913D3*
Y842913D3*
Y942913D3*
Y1042913D3*
Y1142913D3*
Y1242913D3*
Y1342913D3*
M02*
