G04 DipTrace 3.3.1.1*
G04 TopAssy.gbr*
%MOIN*%
G04 #@! TF.FileFunction,Drawing,Top*
G04 #@! TF.Part,Single*
%ADD11C,0.005512*%
%ADD13C,0.006*%
%ADD24C,0.005*%
%FSLAX26Y26*%
G04*
G70*
G90*
G75*
G01*
G04 TopAssy*
%LPD*%
X429241Y271264D2*
D13*
Y591234D1*
X275260D2*
Y271264D1*
G36*
X429241Y441259D2*
X474256D1*
Y421239D1*
X429241D1*
Y441259D1*
G37*
G36*
X230245Y591234D2*
X275260D1*
Y571249D1*
X230245D1*
Y591234D1*
G37*
G36*
Y541254D2*
X275260D1*
Y521234D1*
X230245D1*
Y541254D1*
G37*
G36*
X231243Y491239D2*
X276259D1*
Y471254D1*
X231243D1*
Y491239D1*
G37*
G36*
X230245Y441259D2*
X275260D1*
Y421239D1*
X230245D1*
Y441259D1*
G37*
G36*
X429241Y491239D2*
X474256D1*
Y471254D1*
X429241D1*
Y491239D1*
G37*
G36*
Y541254D2*
X474256D1*
Y521234D1*
X429241D1*
Y541254D1*
G37*
G36*
Y591234D2*
X474256D1*
Y571249D1*
X429241D1*
Y591234D1*
G37*
G36*
Y391244D2*
X474256D1*
Y371259D1*
X429241D1*
Y391244D1*
G37*
G36*
Y341264D2*
X474256D1*
Y321244D1*
X429241D1*
Y341264D1*
G37*
G36*
Y291249D2*
X474256D1*
Y271264D1*
X429241D1*
Y291249D1*
G37*
G36*
X230245Y391244D2*
X275260D1*
Y371259D1*
X230245D1*
Y391244D1*
G37*
G36*
Y341264D2*
X275260D1*
Y321244D1*
X230245D1*
Y341264D1*
G37*
G36*
Y291249D2*
X275260D1*
Y271264D1*
X230245D1*
Y291249D1*
G37*
X491741Y821249D2*
D13*
Y1191249D1*
X337760D2*
Y821249D1*
G36*
X491741Y1041249D2*
X536756D1*
Y1021249D1*
X491741D1*
Y1041249D1*
G37*
G36*
X292745Y1191249D2*
X337760D1*
Y1171249D1*
X292745D1*
Y1191249D1*
G37*
G36*
Y1141249D2*
X337760D1*
Y1121249D1*
X292745D1*
Y1141249D1*
G37*
G36*
X293743Y1091249D2*
X338759D1*
Y1071249D1*
X293743D1*
Y1091249D1*
G37*
G36*
X292745Y1041249D2*
X337760D1*
Y1021249D1*
X292745D1*
Y1041249D1*
G37*
G36*
X491741Y1091249D2*
X536756D1*
Y1071249D1*
X491741D1*
Y1091249D1*
G37*
G36*
Y1141249D2*
X536756D1*
Y1121249D1*
X491741D1*
Y1141249D1*
G37*
G36*
Y1191249D2*
X536756D1*
Y1171249D1*
X491741D1*
Y1191249D1*
G37*
G36*
X292745Y991249D2*
X337760D1*
Y971249D1*
X292745D1*
Y991249D1*
G37*
G36*
Y941249D2*
X337760D1*
Y921249D1*
X292745D1*
Y941249D1*
G37*
G36*
Y891249D2*
X337760D1*
Y871249D1*
X292745D1*
Y891249D1*
G37*
G36*
Y841249D2*
X337760D1*
Y821249D1*
X292745D1*
Y841249D1*
G37*
G36*
X491741Y991249D2*
X536756D1*
Y971249D1*
X491741D1*
Y991249D1*
G37*
G36*
Y941249D2*
X536756D1*
Y921249D1*
X491741D1*
Y941249D1*
G37*
G36*
Y891249D2*
X536756D1*
Y871249D1*
X491741D1*
Y891249D1*
G37*
G36*
Y841249D2*
X536756D1*
Y821249D1*
X491741D1*
Y841249D1*
G37*
X135207Y929736D2*
D13*
X169223D1*
Y957765D2*
X135207D1*
G36*
X169212Y926753D2*
X185210D1*
Y960749D1*
X169212D1*
Y926753D1*
G37*
G36*
X119220D2*
X135218D1*
Y960749D1*
X119220D1*
Y926753D1*
G37*
G36*
X144349Y928000D2*
X160081D1*
Y959501D1*
X144349D1*
Y928000D1*
G37*
X135207Y1029735D2*
D13*
X169223D1*
Y1057764D2*
X135207D1*
G36*
X169212Y1026751D2*
X185210D1*
Y1060747D1*
X169212D1*
Y1026751D1*
G37*
G36*
X119220D2*
X135218D1*
Y1060747D1*
X119220D1*
Y1026751D1*
G37*
G36*
X144349Y1027999D2*
X160081D1*
Y1059500D1*
X144349D1*
Y1027999D1*
G37*
X135207Y829736D2*
D13*
X169223D1*
Y857765D2*
X135207D1*
G36*
X169212Y826753D2*
X185210D1*
Y860749D1*
X169212D1*
Y826753D1*
G37*
G36*
X119220D2*
X135218D1*
Y860749D1*
X119220D1*
Y826753D1*
G37*
G36*
X144349Y828000D2*
X160081D1*
Y859501D1*
X144349D1*
Y828000D1*
G37*
X8268Y1392913D2*
D24*
X708268D1*
Y-7087D1*
X8268D1*
Y1392913D1*
X20866Y-3543D2*
D11*
X698031D1*
G03X717717Y16142I2J19683D01*
G01*
Y1378346D1*
G03X698031Y1398031I-19683J2D01*
G01*
X20866D1*
G03X1181Y1378346I-2J-19683D01*
G01*
Y16142D1*
G03X20866Y-3543I19683J-2D01*
G01*
M02*
