G04 DipTrace 3.3.1.1*
G04 TopMask.gbr*
%MOIN*%
G04 #@! TF.FileFunction,Soldermask,Top*
G04 #@! TF.Part,Single*
%ADD31C,0.065874*%
%ADD33R,0.047244X0.051181*%
%ADD35R,0.087874X0.033874*%
%FSLAX26Y26*%
G04*
G70*
G90*
G75*
G01*
G04 TopMask*
%LPD*%
D35*
X231251Y581249D3*
X473251D3*
X231251Y531249D3*
Y481249D3*
X473251Y531249D3*
Y481249D3*
X231251Y431249D3*
X473251D3*
X231251Y381249D3*
Y331249D3*
X473251Y381249D3*
Y331249D3*
X231251Y281249D3*
X473251D3*
X293751Y1181249D3*
X535751D3*
X293751Y1131249D3*
Y1081249D3*
X535751Y1131249D3*
Y1081249D3*
X293751Y1031249D3*
X535751D3*
X293751Y981249D3*
X535751D3*
X293751Y931249D3*
Y881249D3*
X535751Y931249D3*
Y881249D3*
X293751Y831249D3*
X535751D3*
D33*
X118751Y943751D3*
X185680D3*
X118751Y1043749D3*
X185680D3*
X118751Y843751D3*
X185680D3*
D31*
X58268Y1342913D3*
Y1242913D3*
Y1142913D3*
Y1042913D3*
Y942913D3*
Y842913D3*
Y742913D3*
Y642913D3*
Y542913D3*
Y442913D3*
Y342913D3*
Y242913D3*
Y142913D3*
Y42913D3*
X158268D3*
X258268D3*
X358268D3*
X458268D3*
X558268D3*
X658268D3*
Y142913D3*
Y242913D3*
Y342913D3*
Y442913D3*
Y542913D3*
Y642913D3*
Y742913D3*
Y842913D3*
Y942913D3*
Y1042913D3*
Y1142913D3*
Y1242913D3*
Y1342913D3*
M02*
