G04 DipTrace 3.3.1.1*
G04 TopSilk.gbr*
%MOIN*%
G04 #@! TF.FileFunction,Legend,Top*
G04 #@! TF.Part,Single*
%ADD13C,0.006*%
%ADD21C,0.002*%
%ADD25C,0.008*%
%ADD41C,0.003281*%
%FSLAX26Y26*%
G04*
G70*
G90*
G75*
G01*
G04 TopSilk*
%LPD*%
X275260Y271264D2*
D13*
G03X290266Y256249I15004J-11D01*
G01*
X414236Y606249D2*
G02X429241Y591234I1J-15004D01*
G01*
Y271264D2*
G02X414236Y256249I-15004J-11D01*
G01*
X290266Y606249D2*
G03X275260Y591234I-1J-15004D01*
G01*
X290266Y256249D2*
X414236D1*
Y606249D2*
X372247D1*
X332254D1*
X290266D1*
X372247D2*
G02X332254Y606249I-19996J11D01*
G01*
X289235D2*
D21*
Y256249D1*
X337760Y821249D2*
D13*
G03X352766Y806249I14987J-13D01*
G01*
X476736Y1206249D2*
G02X491741Y1191249I18J-14987D01*
G01*
Y821249D2*
G02X476736Y806249I-14987J-13D01*
G01*
X352766Y1206249D2*
G03X337760Y1191249I-18J-14987D01*
G01*
X352766Y806249D2*
X476736D1*
Y1206249D2*
X434747D1*
X394754D1*
X352766D1*
X434747D2*
G02X394754Y1206249I-19996J-4D01*
G01*
X351735D2*
D21*
Y806249D1*
X308288Y1342933D2*
D25*
X408248D1*
Y1392913D1*
X708268D1*
Y-7087D1*
X8268D1*
Y1392913D1*
X308288D1*
Y1342933D1*
X364136Y328333D2*
D41*
X334025Y342692D1*
Y322596D1*
X364136Y363612D2*
X334026D1*
X354088Y349253D1*
Y370775D1*
X333992Y377337D2*
X364136D1*
Y394548D1*
X341155Y422631D2*
X338303Y421205D1*
X335418Y418320D1*
X333992Y415469D1*
Y409732D1*
X335418Y406846D1*
X338303Y403995D1*
X341155Y402535D1*
X345466Y401109D1*
X352662D1*
X356940Y402535D1*
X359825Y403995D1*
X362677Y406846D1*
X364136Y409732D1*
Y415469D1*
X362677Y418320D1*
X359825Y421205D1*
X356940Y422631D1*
X333992Y429193D2*
X364136Y449289D1*
X333992D2*
X364136Y429193D1*
X339762Y455851D2*
X338303Y458736D1*
X334025Y463047D1*
X364136D1*
X341188Y471068D2*
X339762D1*
X336877Y472494D1*
X335451Y473920D1*
X334025Y476805D1*
Y482542D1*
X335451Y485394D1*
X336877Y486820D1*
X339762Y488279D1*
X342614D1*
X345499Y486820D1*
X349777Y483968D1*
X364136Y469609D1*
Y489705D1*
X338303Y513477D2*
X335451Y512051D1*
X334025Y507740D1*
Y504888D1*
X335451Y500577D1*
X339762Y497692D1*
X346925Y496266D1*
X354088D1*
X359825Y497692D1*
X362710Y500577D1*
X364136Y504888D1*
Y506314D1*
X362710Y510592D1*
X359825Y513477D1*
X355514Y514903D1*
X354088D1*
X349777Y513477D1*
X346925Y510592D1*
X345499Y506314D1*
Y504888D1*
X346925Y500577D1*
X349777Y497692D1*
X354088Y496266D1*
X426636Y921370D2*
X396525Y935729D1*
Y915633D1*
X426636Y956650D2*
X396526D1*
X416588Y942291D1*
Y963813D1*
X396492Y970375D2*
X426636D1*
Y987585D1*
X403655Y1015669D2*
X400803Y1014243D1*
X397918Y1011358D1*
X396492Y1008506D1*
Y1002769D1*
X397918Y999884D1*
X400803Y997032D1*
X403655Y995573D1*
X407966Y994147D1*
X415162D1*
X419440Y995573D1*
X422325Y997032D1*
X425177Y999884D1*
X426636Y1002769D1*
Y1008506D1*
X425177Y1011358D1*
X422325Y1014243D1*
X419440Y1015669D1*
X396492Y1022231D2*
X426636Y1042327D1*
X396492D2*
X426636Y1022231D1*
X402262Y1048888D2*
X400803Y1051774D1*
X396525Y1056085D1*
X426636D1*
X396525Y1065531D2*
Y1081283D1*
X407999Y1072694D1*
Y1077005D1*
X409425Y1079857D1*
X410851Y1081283D1*
X415162Y1082742D1*
X418014D1*
X422325Y1081283D1*
X425210Y1078431D1*
X426636Y1074120D1*
Y1069809D1*
X425210Y1065531D1*
X423751Y1064105D1*
X420899Y1062646D1*
X396525Y1096467D2*
X397951Y1092189D1*
X400803Y1090730D1*
X403688D1*
X406540Y1092189D1*
X407999Y1095041D1*
X409425Y1100778D1*
X410851Y1105089D1*
X413736Y1107941D1*
X416588Y1109367D1*
X420899D1*
X423751Y1107941D1*
X425210Y1106515D1*
X426636Y1102204D1*
Y1096467D1*
X425210Y1092189D1*
X423751Y1090730D1*
X420899Y1089304D1*
X416588D1*
X413736Y1090730D1*
X410851Y1093615D1*
X409425Y1097893D1*
X407999Y1103630D1*
X406540Y1106515D1*
X403688Y1107941D1*
X400803D1*
X397951Y1106515D1*
X396525Y1102204D1*
Y1096467D1*
X124115Y1002892D2*
X127000Y1004352D1*
X131311Y1008629D1*
Y978519D1*
X146495Y1008629D2*
X142184Y1007203D1*
X139299Y1002892D1*
X137873Y995730D1*
Y991418D1*
X139299Y984256D1*
X142184Y979945D1*
X146495Y978519D1*
X149347D1*
X153658Y979945D1*
X156510Y984256D1*
X157969Y991418D1*
Y995730D1*
X156510Y1002892D1*
X153658Y1007203D1*
X149347Y1008629D1*
X146495D1*
X156510Y1002892D2*
X139299Y984256D1*
X164530Y1008663D2*
Y978519D1*
X178889Y998615D2*
X164530Y984256D1*
X170267Y989993D2*
X180315Y978519D1*
X124115Y1102891D2*
X127000Y1104350D1*
X131311Y1108628D1*
Y1078517D1*
X146495Y1108628D2*
X142184Y1107202D1*
X139299Y1102891D1*
X137873Y1095728D1*
Y1091417D1*
X139299Y1084254D1*
X142184Y1079943D1*
X146495Y1078517D1*
X149347D1*
X153658Y1079943D1*
X156510Y1084254D1*
X157969Y1091417D1*
Y1095728D1*
X156510Y1102891D1*
X153658Y1107202D1*
X149347Y1108628D1*
X146495D1*
X156510Y1102891D2*
X139299Y1084254D1*
X164530Y1108661D2*
Y1078517D1*
X178889Y1098613D2*
X164530Y1084254D1*
X170267Y1089991D2*
X180315Y1078517D1*
X124115Y902892D2*
X127000Y904352D1*
X131311Y908629D1*
Y878519D1*
X146495Y908629D2*
X142184Y907203D1*
X139299Y902892D1*
X137873Y895730D1*
Y891418D1*
X139299Y884256D1*
X142184Y879945D1*
X146495Y878519D1*
X149347D1*
X153658Y879945D1*
X156510Y884256D1*
X157969Y891418D1*
Y895730D1*
X156510Y902892D1*
X153658Y907203D1*
X149347Y908629D1*
X146495D1*
X156510Y902892D2*
X139299Y884256D1*
X164530Y908663D2*
Y878519D1*
X178889Y898615D2*
X164530Y884256D1*
X170267Y889993D2*
X180315Y878519D1*
X121214Y1353042D2*
Y1330061D1*
X119788Y1325783D1*
X118362Y1324324D1*
X115477Y1322898D1*
X111166D1*
X108314Y1324324D1*
X121214Y1348731D2*
X118362Y1351583D1*
X115477Y1353042D1*
X111166D1*
X108314Y1351583D1*
X105429Y1348731D1*
X104003Y1344420D1*
Y1341535D1*
X105429Y1337257D1*
X108314Y1334372D1*
X111166Y1332946D1*
X115477D1*
X118362Y1334372D1*
X121214Y1337257D1*
X127775Y1354468D2*
Y1334372D1*
Y1348731D2*
X132086Y1353042D1*
X134971Y1354468D1*
X139249D1*
X142134Y1353042D1*
X143560Y1348731D1*
Y1334372D1*
X167333Y1364516D2*
Y1334372D1*
Y1350157D2*
X164481Y1353042D1*
X161596Y1354468D1*
X157285D1*
X154433Y1353042D1*
X151548Y1350157D1*
X150122Y1345846D1*
Y1342994D1*
X151548Y1338683D1*
X154433Y1335831D1*
X157285Y1334372D1*
X161596D1*
X164481Y1335831D1*
X167333Y1338683D1*
X560696Y1354468D2*
X569318Y1334372D1*
X577906Y1354468D1*
X584468Y1364516D2*
X585894Y1363090D1*
X587353Y1364516D1*
X585894Y1365975D1*
X584468Y1364516D1*
X585894Y1354468D2*
Y1334372D1*
X593915Y1354468D2*
Y1334372D1*
Y1348731D2*
X598226Y1353042D1*
X601111Y1354468D1*
X605389D1*
X608274Y1353042D1*
X609700Y1348731D1*
Y1334372D1*
M02*
